<svg xmlns="http://www.w3.org/2000/svg" class="mm" viewBox="0 0 1894 1194" width="1894" height="1194" role="img" aria-label="腫瘍進化、バイオマーカー、耐性、救急">
<style>
  .mm-bg { fill: #faf8f4; }
  .mm text { font-family: 'Hiragino Sans', 'Noto Sans JP', ui-sans-serif, sans-serif; fill: #1b1917; }
  .mm .link { fill: none; stroke: #c9c1b4; }
  .mm .box { fill: none; stroke: none; }
  .mm .d0 .box { fill: #1b1917; stroke: #1b1917; }
  .mm .d0 text { fill: #faf8f4; font-weight: 650; }
  .mm .d1 text { font-weight: 600; }

  .mm .link.b0 { stroke: #4b9ac6; }
  .mm .b0.d1 .box { fill: #d7e5eb; stroke: #0072B2; stroke-width: 1.5; }
  .mm .b0.d1 text { fill: #075c8b; }
  .mm .b0.d2 .box { fill: #e8efef; stroke: #70aed0; }
  .mm .b0.d3 text, .mm .b0.d4 text { fill: #075c8b; }

  .mm .link.b1 { stroke: #e08c49; }
  .mm .b1.d1 .box { fill: #f5e2d2; stroke: #D55E00; stroke-width: 1.5; }
  .mm .b1.d1 text { fill: #a64d06; }
  .mm .b1.d2 .box { fill: #f7ede3; stroke: #e6a36e; }
  .mm .b1.d3 text, .mm .b1.d4 text { fill: #a64d06; }

  .mm .link.b2 { stroke: #4bb99a; }
  .mm .b2.d1 .box { fill: #d7ebe2; stroke: #009E73; stroke-width: 1.5; }
  .mm .b2.d1 text { fill: #077d5c; }
  .mm .b2.d2 .box { fill: #e8f2eb; stroke: #70c6ad; }
  .mm .b2.d3 text, .mm .b2.d4 text { fill: #077d5c; }

  .mm .link.b3 { stroke: #da9fbe; }
  .mm .b3.d1 .box { fill: #f4e6e9; stroke: #CC79A7; stroke-width: 1.5; }
  .mm .b3.d1 text { fill: #985c7c; }
  .mm .b3.d2 .box { fill: #f7efef; stroke: #e1b2ca; }
  .mm .b3.d3 text, .mm .b3.d4 text { fill: #985c7c; }

  .mm .link.b4 { stroke: #bba149; }
  .mm .b4.d1 .box { fill: #ede7d2; stroke: #A07C00; stroke-width: 1.5; }
  .mm .b4.d1 text { fill: #7f6306; }
  .mm .b4.d2 .box { fill: #f4efe3; stroke: #c8b46e; }
  .mm .b4.d3 text, .mm .b4.d4 text { fill: #7f6306; }

  .mm .link.b5 { stroke: #84c1e2; }
  .mm .b5.d1 .box { fill: #e3eef2; stroke: #51a9db; stroke-width: 1.5; }
  .mm .b5.d1 text { fill: #3d7899; }
  .mm .b5.d2 .box { fill: #eff3f3; stroke: #9dcde6; }
  .mm .b5.d3 text, .mm .b5.d4 text { fill: #3d7899; }

  .mm .link.b6 { stroke: #9580b0; }
  .mm .b6.d1 .box { fill: #e6e0e6; stroke: #6A4C93; stroke-width: 1.5; }
  .mm .b6.d1 text { fill: #563f74; }
  .mm .b6.d2 .box { fill: #f0eced; stroke: #ab99bf; }
  .mm .b6.d3 text, .mm .b6.d4 text { fill: #563f74; }

  .mm .link.b7 { stroke: #98ac74; }
  .mm .b7.d1 .box { fill: #e6e9da; stroke: #6E8B3D; stroke-width: 1.5; }
  .mm .b7.d1 text { fill: #596e34; }
  .mm .b7.d2 .box { fill: #f0f0e7; stroke: #adbc8f; }
  .mm .b7.d3 text, .mm .b7.d4 text { fill: #596e34; }

  .mm .link.b8 { stroke: #e2b349; }
  .mm .b8.d1 .box { fill: #f7ecd2; stroke: #d89500; stroke-width: 1.5; }
  .mm .b8.d1 text { fill: #986a05; }
  .mm .b8.d2 .box { fill: #f9f2e3; stroke: #e7c26e; }
  .mm .b8.d3 text, .mm .b8.d4 text { fill: #986a05; }

  .mm .link.b9 { stroke: #bf6669; }
  .mm .b9.d1 .box { fill: #eedbd8; stroke: #A6272E; stroke-width: 1.5; }
  .mm .b9.d1 text { fill: #832428; }
  .mm .b9.d2 .box { fill: #f4e9e6; stroke: #cc8587; }
  .mm .b9.d3 text, .mm .b9.d4 text { fill: #832428; }
@media (prefers-color-scheme: dark) {
  .mm-bg { fill: #12100e; }
  .mm text { font-family: 'Hiragino Sans', 'Noto Sans JP', ui-sans-serif, sans-serif; fill: #ece7df; }
  .mm .link { fill: none; stroke: #3d3833; }
  .mm .box { fill: none; stroke: none; }
  .mm .d0 .box { fill: #ece7df; stroke: #ece7df; }
  .mm .d0 text { fill: #12100e; font-weight: 650; }
  .mm .d1 text { font-weight: 600; }

  .mm .link.b0 { stroke: #2d6a8d; }
  .mm .b0.d1 .box { fill: #172227; stroke: #3891c3; stroke-width: 1.5; }
  .mm .b0.d1 text { fill: #65a6ca; }
  .mm .b0.d2 .box { fill: #15191b; stroke: #275772; }
  .mm .b0.d3 text, .mm .b0.d4 text { fill: #65a6ca; }

  .mm .link.b1 { stroke: #a15f2b; }
  .mm .b1.d1 .box { fill: #2f2014; stroke: #de8138; stroke-width: 1.5; }
  .mm .b1.d1 text { fill: #e29a62; }
  .mm .b1.d2 .box { fill: #201811; stroke: #824e25; }
  .mm .b1.d3 text, .mm .b1.d4 text { fill: #e29a62; }

  .mm .link.b2 { stroke: #2d826a; }
  .mm .b2.d1 .box { fill: #172720; stroke: #38b392; stroke-width: 1.5; }
  .mm .b2.d1 text { fill: #65c0a5; }
  .mm .b2.d2 .box { fill: #151b17; stroke: #276a57; }
  .mm .b2.d3 text, .mm .b2.d4 text { fill: #65c0a5; }

  .mm .link.b3 { stroke: #9c6e86; }
  .mm .b3.d1 .box { fill: #2e2326; stroke: #d796ba; stroke-width: 1.5; }
  .mm .b3.d1 text { fill: #dcaac3; }
  .mm .b3.d2 .box { fill: #20191a; stroke: #7e5a6d; }
  .mm .b3.d3 text, .mm .b3.d4 text { fill: #dcaac3; }

  .mm .link.b4 { stroke: #84702b; }
  .mm .b4.d1 .box { fill: #292314; stroke: #b59938; stroke-width: 1.5; }
  .mm .b4.d1 text { fill: #c3ac62; }
  .mm .b4.d2 .box { fill: #1d1a11; stroke: #6c5b25; }
  .mm .b4.d3 text, .mm .b4.d4 text { fill: #c3ac62; }

  .mm .link.b5 { stroke: #5c8eab; }
  .mm .b5.d1 .box { fill: #21292d; stroke: #7bc4ee; stroke-width: 1.5; }
  .mm .b5.d1 text { fill: #97cdea; }
  .mm .b5.d2 .box { fill: #191d1e; stroke: #4c7389; }
  .mm .b5.d3 text, .mm .b5.d4 text { fill: #97cdea; }

  .mm .link.b6 { stroke: #67557c; }
  .mm .b6.d1 .box { fill: #231e24; stroke: #8b73ab; stroke-width: 1.5; }
  .mm .b6.d1 text { fill: #a390b8; }
  .mm .b6.d2 .box { fill: #1a1719; stroke: #554664; }
  .mm .b6.d3 text, .mm .b6.d4 text { fill: #a390b8; }

  .mm .link.b7 { stroke: #69784d; }
  .mm .b7.d1 .box { fill: #23251b; stroke: #8ea568; stroke-width: 1.5; }
  .mm .b7.d1 text { fill: #a6b686; }
  .mm .b7.d2 .box { fill: #1b1a14; stroke: #566240; }
  .mm .b7.d3 text, .mm .b7.d4 text { fill: #a6b686; }

  .mm .link.b8 { stroke: #ab832b; }
  .mm .b8.d1 .box { fill: #312714; stroke: #ecb438; stroke-width: 1.5; }
  .mm .b8.d1 text { fill: #ecc162; }
  .mm .b8.d2 .box { fill: #211b11; stroke: #8a6a25; }
  .mm .b8.d3 text, .mm .b8.d4 text { fill: #ecc162; }

  .mm .link.b9 { stroke: #884245; }
  .mm .b9.d1 .box { fill: #2a1a19; stroke: #ba575c; stroke-width: 1.5; }
  .mm .b9.d1 text { fill: #c67b7d; }
  .mm .b9.d2 .box { fill: #1e1513; stroke: #6e3739; }
  .mm .b9.d3 text, .mm .b9.d4 text { fill: #c67b7d; }
}
</style>
  <rect class="mm-bg" width="1894" height="1194"/>
  <path class="link b0" data-depth="1" stroke-width="2.2" d="M1043.5,597.0 C1063.5,597.0 1063.5,137.7 1083.5,137.7"/>
  <path class="link b1" data-depth="1" stroke-width="2.2" d="M1043.5,597.0 C819.2,597.0 819.2,124.8 595.0,124.8"/>
  <path class="link b2" data-depth="1" stroke-width="2.2" d="M1043.5,597.0 C855.5,597.0 855.5,299.7 667.5,299.7"/>
  <path class="link b3" data-depth="1" stroke-width="2.2" d="M1043.5,597.0 C1063.5,597.0 1063.5,361.4 1083.5,361.4"/>
  <path class="link b4" data-depth="1" stroke-width="2.2" d="M1043.5,597.0 C1063.5,597.0 1063.5,629.0 1083.5,629.0"/>
  <path class="link b5" data-depth="1" stroke-width="2.2" d="M1043.5,597.0 C855.5,597.0 855.5,542.3 667.5,542.3"/>
  <path class="link b6" data-depth="1" stroke-width="2.2" d="M1043.5,597.0 C1063.5,597.0 1063.5,861.4 1083.5,861.4"/>
  <path class="link b7" data-depth="1" stroke-width="2.2" d="M1043.5,597.0 C812.0,597.0 812.0,794.4 580.5,794.4"/>
  <path class="link b8" data-depth="1" stroke-width="2.2" d="M1043.5,597.0 C1063.5,597.0 1063.5,1058.3 1083.5,1058.3"/>
  <path class="link b9" data-depth="1" stroke-width="2.2" d="M1043.5,597.0 C819.2,597.0 819.2,1037.2 595.0,1037.2"/>
  <g class="node d0 b0" data-depth="0">
    <rect class="box" x="785.5" y="569.1" width="258.0" height="55.9" rx="9"/>
    <text x="795.5" y="591.6" font-size="17.0">腫瘍進化、バイオマーカー、耐</text>
    <text x="795.5" y="614.0" font-size="17.0">性、救急</text>
  </g>
  <path class="link b0" data-depth="2" stroke-width="1.8" d="M1161.5,137.7 C1232.2,137.7 1232.2,57.5 1303.0,57.5"/>
  <path class="link b0" data-depth="2" stroke-width="1.8" d="M1161.5,137.7 C1232.2,137.7 1232.2,110.8 1303.0,110.8"/>
  <path class="link b0" data-depth="2" stroke-width="1.8" d="M1161.5,137.7 C1232.2,137.7 1232.2,146.6 1303.0,146.6"/>
  <path class="link b0" data-depth="2" stroke-width="1.8" d="M1161.5,137.7 C1232.2,137.7 1232.2,182.4 1303.0,182.4"/>
  <path class="link b0" data-depth="2" stroke-width="1.8" d="M1161.5,137.7 C1232.2,137.7 1232.2,217.9 1303.0,217.9"/>
  <g class="node d1 b0" data-depth="1">
    <rect class="box" x="1083.5" y="122.6" width="78.0" height="30.1" rx="9"/>
    <text x="1093.5" y="142.6" font-size="14.5">腫瘍進化</text>
  </g>
  <path class="link b0" data-depth="3" stroke-width="1.3" d="M1505.0,57.5 C1557.5,57.5 1557.5,39.8 1610.0,39.8"/>
  <path class="link b0" data-depth="3" stroke-width="1.3" d="M1505.0,57.5 C1557.5,57.5 1557.5,75.2 1610.0,75.2"/>
  <g class="node d2 b0" data-depth="2">
    <rect class="box" x="1303.0" y="43.4" width="202.0" height="28.2" rx="6"/>
    <text x="1313.0" y="61.9" font-size="13.0">均一な塊でなく進化する生態系</text>
  </g>
  <g class="node d3 b0" data-depth="3">
    <rect class="box" x="1610.0" y="26.0" width="207.5" height="27.5" rx="6"/>
    <text x="1620.0" y="44.0" font-size="12.5">子孫が遺伝的・表現型変化を獲得</text>
  </g>
  <g class="node d3 b0" data-depth="3">
    <rect class="box" x="1610.0" y="61.5" width="232.5" height="27.5" rx="6"/>
    <text x="1620.0" y="79.5" font-size="12.5">低酸素、免疫、治療が変異集団を選択</text>
  </g>
  <path class="link b0" data-depth="3" stroke-width="1.3" d="M1505.0,110.8 C1557.5,110.8 1557.5,110.8 1610.0,110.8"/>
  <g class="node d2 b0" data-depth="2">
    <rect class="box" x="1303.0" y="96.7" width="202.0" height="28.2" rx="6"/>
    <text x="1313.0" y="115.2" font-size="13.0">生検は一時点の一領域を標本化</text>
  </g>
  <g class="node d3 b0" data-depth="3">
    <rect class="box" x="1610.0" y="97.0" width="257.5" height="27.5" rx="6"/>
    <text x="1620.0" y="115.0" font-size="12.5">転移・再発時の優勢クローンは異なり得る</text>
  </g>
  <g class="node d2 b0" data-depth="2">
    <rect class="box" x="1303.0" y="132.5" width="176.0" height="28.2" rx="6"/>
    <text x="1313.0" y="151.0" font-size="13.0">ドライバーは依存性を作る</text>
  </g>
  <path class="link b0" data-depth="3" stroke-width="1.3" d="M1518.0,182.4 C1564.0,182.4 1564.0,182.4 1610.0,182.4"/>
  <g class="node d2 b0" data-depth="2">
    <rect class="box" x="1303.0" y="168.3" width="215.0" height="28.2" rx="6"/>
    <text x="1313.0" y="186.8" font-size="13.0">修復経路喪失は治療予測パターン</text>
  </g>
  <g class="node d3 b0" data-depth="3">
    <rect class="box" x="1610.0" y="168.7" width="232.5" height="27.5" rx="6"/>
    <text x="1620.0" y="186.7" font-size="12.5">ミスマッチ修復不全、相同組換え不全</text>
  </g>
  <path class="link b0" data-depth="3" stroke-width="1.3" d="M1570.0,217.9 C1590.0,217.9 1590.0,217.9 1610.0,217.9"/>
  <g class="node d2 b0" data-depth="2">
    <rect class="box" x="1303.0" y="195.2" width="267.0" height="45.3" rx="6"/>
    <text x="1313.0" y="213.8" font-size="13.0">病原性表示は活動性ドライバーの証明でな</text>
    <text x="1313.0" y="230.9" font-size="13.0">い</text>
  </g>
  <g class="node d3 b0" data-depth="3">
    <rect class="box" x="1610.0" y="204.2" width="257.5" height="27.5" rx="6"/>
    <text x="1620.0" y="222.2" font-size="12.5">アレル頻度、コピー数、クローン性、文脈</text>
  </g>
  <path class="link b1" data-depth="2" stroke-width="1.8" d="M595.0,124.8 C567.8,124.8 567.8,48.7 540.5,48.7"/>
  <path class="link b1" data-depth="2" stroke-width="1.8" d="M595.0,124.8 C567.8,124.8 567.8,93.4 540.5,93.4"/>
  <path class="link b1" data-depth="2" stroke-width="1.8" d="M595.0,124.8 C567.8,124.8 567.8,129.6 540.5,129.6"/>
  <path class="link b1" data-depth="2" stroke-width="1.8" d="M595.0,124.8 C567.8,124.8 567.8,165.4 540.5,165.4"/>
  <path class="link b1" data-depth="2" stroke-width="1.8" d="M595.0,124.8 C567.8,124.8 567.8,200.9 540.5,200.9"/>
  <g class="node d1 b1" data-depth="1">
    <rect class="box" x="595.0" y="109.7" width="150.5" height="30.1" rx="9"/>
    <text x="605.0" y="129.7" font-size="14.5">ストレス耐性と代謝</text>
  </g>
  <g class="node d2 b1" data-depth="2">
    <rect class="box" x="273.5" y="26.0" width="267.0" height="45.3" rx="6"/>
    <text x="283.5" y="44.5" font-size="13.0">テロメア、チェックポイント回避、アポト</text>
    <text x="283.5" y="61.7" font-size="13.0">ーシス抵抗</text>
  </g>
  <g class="node d2 b1" data-depth="2">
    <rect class="box" x="273.5" y="79.3" width="267.0" height="28.2" rx="6"/>
    <text x="283.5" y="97.8" font-size="13.0">代謝がヌクレオチド、脂質、還元力を供給</text>
  </g>
  <g class="node d2 b1" data-depth="2">
    <rect class="box" x="351.5" y="115.5" width="189.0" height="28.2" rx="6"/>
    <text x="361.5" y="134.0" font-size="13.0">好気的解糖が炭素を生体量へ</text>
  </g>
  <path class="link b1" data-depth="3" stroke-width="1.3" d="M351.5,165.4 C292.5,165.4 292.5,165.4 233.5,165.4"/>
  <g class="node d2 b1" data-depth="2">
    <rect class="box" x="351.5" y="151.3" width="189.0" height="28.2" rx="6"/>
    <text x="361.5" y="169.8" font-size="13.0">特定栄養・修復経路への依存</text>
  </g>
  <g class="node d3 b1" data-depth="3">
    <rect class="box" x="176.0" y="151.6" width="57.5" height="27.5" rx="6"/>
    <text x="186.0" y="169.6" font-size="12.5">治療域</text>
  </g>
  <path class="link b1" data-depth="3" stroke-width="1.3" d="M364.5,200.9 C299.0,200.9 299.0,200.9 233.5,200.9"/>
  <g class="node d2 b1" data-depth="2">
    <rect class="box" x="364.5" y="186.8" width="176.0" height="28.2" rx="6"/>
    <text x="374.5" y="205.3" font-size="13.0">正常増殖組織も要求を共有</text>
  </g>
  <g class="node d3 b1" data-depth="3">
    <rect class="box" x="51.0" y="187.1" width="182.5" height="27.5" rx="6"/>
    <text x="61.0" y="205.1" font-size="12.5">骨髄、粘膜、毛髪、性腺毒性</text>
  </g>
  <path class="link b2" data-depth="2" stroke-width="1.8" d="M667.5,299.7 C604.0,299.7 604.0,236.7 540.5,236.7"/>
  <path class="link b2" data-depth="2" stroke-width="1.8" d="M667.5,299.7 C604.0,299.7 604.0,272.9 540.5,272.9"/>
  <path class="link b2" data-depth="2" stroke-width="1.8" d="M667.5,299.7 C604.0,299.7 604.0,309.0 540.5,309.0"/>
  <path class="link b2" data-depth="2" stroke-width="1.8" d="M667.5,299.7 C604.0,299.7 604.0,362.6 540.5,362.6"/>
  <g class="node d1 b2" data-depth="1">
    <rect class="box" x="667.5" y="284.6" width="78.0" height="30.1" rx="9"/>
    <text x="677.5" y="304.6" font-size="14.5">微小環境</text>
  </g>
  <g class="node d2 b2" data-depth="2">
    <rect class="box" x="325.5" y="222.6" width="215.0" height="28.2" rx="6"/>
    <text x="335.5" y="241.1" font-size="13.0">線維芽細胞は基質硬化、接近制限</text>
  </g>
  <g class="node d2 b2" data-depth="2">
    <rect class="box" x="286.5" y="258.8" width="254.0" height="28.2" rx="6"/>
    <text x="296.5" y="277.3" font-size="13.0">マクロファージは信号で殺傷または支援</text>
  </g>
  <g class="node d2 b2" data-depth="2">
    <rect class="box" x="312.5" y="295.0" width="228.0" height="28.2" rx="6"/>
    <text x="322.5" y="313.5" font-size="13.0">低酸素は酸性で生存する細胞を選択</text>
  </g>
  <path class="link b2" data-depth="3" stroke-width="1.3" d="M351.5,362.6 C292.5,362.6 292.5,344.9 233.5,344.9"/>
  <path class="link b2" data-depth="3" stroke-width="1.3" d="M351.5,362.6 C292.5,362.6 292.5,380.4 233.5,380.4"/>
  <g class="node d2 b2" data-depth="2">
    <rect class="box" x="351.5" y="348.5" width="189.0" height="28.2" rx="6"/>
    <text x="361.5" y="367.0" font-size="13.0">異常血管は漏出、短絡、虚脱</text>
  </g>
  <g class="node d3 b2" data-depth="3">
    <rect class="box" x="101.0" y="331.1" width="132.5" height="27.5" rx="6"/>
    <text x="111.0" y="349.1" font-size="12.5">薬剤の不均一な到達</text>
  </g>
  <g class="node d3 b2" data-depth="3">
    <rect class="box" x="113.5" y="366.6" width="120.0" height="27.5" rx="6"/>
    <text x="123.5" y="384.6" font-size="12.5">耐性細胞の避難所</text>
  </g>
  <path class="link b3" data-depth="2" stroke-width="1.8" d="M1219.5,361.4 C1261.2,361.4 1261.2,253.7 1303.0,253.7"/>
  <path class="link b3" data-depth="2" stroke-width="1.8" d="M1219.5,361.4 C1261.2,361.4 1261.2,289.9 1303.0,289.9"/>
  <path class="link b3" data-depth="2" stroke-width="1.8" d="M1219.5,361.4 C1261.2,361.4 1261.2,326.1 1303.0,326.1"/>
  <path class="link b3" data-depth="2" stroke-width="1.8" d="M1219.5,361.4 C1261.2,361.4 1261.2,362.2 1303.0,362.2"/>
  <path class="link b3" data-depth="2" stroke-width="1.8" d="M1219.5,361.4 C1261.2,361.4 1261.2,415.8 1303.0,415.8"/>
  <path class="link b3" data-depth="2" stroke-width="1.8" d="M1219.5,361.4 C1261.2,361.4 1261.2,469.0 1303.0,469.0"/>
  <g class="node d1 b3" data-depth="1">
    <rect class="box" x="1083.5" y="346.3" width="136.0" height="30.1" rx="9"/>
    <text x="1093.5" y="366.3" font-size="14.5">浸潤、転移、休眠</text>
  </g>
  <g class="node d2 b3" data-depth="2">
    <rect class="box" x="1303.0" y="239.7" width="176.0" height="28.2" rx="6"/>
    <text x="1313.0" y="258.2" font-size="13.0">極性・接着の喪失、運動性</text>
  </g>
  <g class="node d2 b3" data-depth="2">
    <rect class="box" x="1303.0" y="275.8" width="150.0" height="28.2" rx="6"/>
    <text x="1313.0" y="294.3" font-size="13.0">転移の各段階は非効率</text>
  </g>
  <g class="node d2 b3" data-depth="2">
    <rect class="box" x="1303.0" y="312.0" width="189.0" height="28.2" rx="6"/>
    <text x="1313.0" y="330.5" font-size="13.0">到着前に前転移ニッチを準備</text>
  </g>
  <g class="node d2 b3" data-depth="2">
    <rect class="box" x="1303.0" y="348.1" width="202.0" height="28.2" rx="6"/>
    <text x="1313.0" y="366.6" font-size="13.0">臓器向性は循環と分子的適合性</text>
  </g>
  <path class="link b3" data-depth="3" stroke-width="1.3" d="M1492.0,415.8 C1551.0,415.8 1551.0,398.0 1610.0,398.0"/>
  <path class="link b3" data-depth="3" stroke-width="1.3" d="M1492.0,415.8 C1551.0,415.8 1551.0,433.5 1610.0,433.5"/>
  <g class="node d2 b3" data-depth="2">
    <rect class="box" x="1303.0" y="401.7" width="189.0" height="28.2" rx="6"/>
    <text x="1313.0" y="420.2" font-size="13.0">休眠細胞は数年後に再活性化</text>
  </g>
  <g class="node d3 b3" data-depth="3">
    <rect class="box" x="1610.0" y="384.3" width="220.0" height="27.5" rx="6"/>
    <text x="1620.0" y="402.3" font-size="12.5">手術は顕微鏡的不存在を証明しない</text>
  </g>
  <g class="node d3 b3" data-depth="3">
    <rect class="box" x="1610.0" y="419.8" width="232.5" height="27.5" rx="6"/>
    <text x="1620.0" y="437.8" font-size="12.5">再発リスクが毒性を上回れば補助療法</text>
  </g>
  <path class="link b3" data-depth="3" stroke-width="1.3" d="M1505.0,469.0 C1557.5,469.0 1557.5,469.0 1610.0,469.0"/>
  <g class="node d2 b3" data-depth="2">
    <rect class="box" x="1303.0" y="455.0" width="202.0" height="28.2" rx="6"/>
    <text x="1313.0" y="473.5" font-size="13.0">術前治療は縮小し感受性を示す</text>
  </g>
  <g class="node d3 b3" data-depth="3">
    <rect class="box" x="1610.0" y="455.3" width="195.0" height="27.5" rx="6"/>
    <text x="1620.0" y="473.3" font-size="12.5">治療中進行は耐性を早期に示す</text>
  </g>
  <path class="link b4" data-depth="2" stroke-width="1.8" d="M1205.0,629.0 C1254.0,629.0 1254.0,504.5 1303.0,504.5"/>
  <path class="link b4" data-depth="2" stroke-width="1.8" d="M1205.0,629.0 C1254.0,629.0 1254.0,540.0 1303.0,540.0"/>
  <path class="link b4" data-depth="2" stroke-width="1.8" d="M1205.0,629.0 C1254.0,629.0 1254.0,611.0 1303.0,611.0"/>
  <path class="link b4" data-depth="2" stroke-width="1.8" d="M1205.0,629.0 C1254.0,629.0 1254.0,699.8 1303.0,699.8"/>
  <path class="link b4" data-depth="2" stroke-width="1.8" d="M1205.0,629.0 C1254.0,629.0 1254.0,753.4 1303.0,753.4"/>
  <g class="node d1 b4" data-depth="1">
    <rect class="box" x="1083.5" y="613.9" width="121.5" height="30.1" rx="9"/>
    <text x="1093.5" y="633.9" font-size="14.5">免疫と免疫毒性</text>
  </g>
  <path class="link b4" data-depth="3" stroke-width="1.3" d="M1492.0,504.5 C1551.0,504.5 1551.0,504.5 1610.0,504.5"/>
  <g class="node d2 b4" data-depth="2">
    <rect class="box" x="1303.0" y="490.5" width="189.0" height="28.2" rx="6"/>
    <text x="1313.0" y="509.0" font-size="13.0">免疫は癌を抑えながら形作る</text>
  </g>
  <g class="node d3 b4" data-depth="3">
    <rect class="box" x="1610.0" y="490.8" width="195.0" height="27.5" rx="6"/>
    <text x="1620.0" y="508.8" font-size="12.5">選択は抗原喪失・排除を有利に</text>
  </g>
  <path class="link b4" data-depth="3" stroke-width="1.3" d="M1563.9,540.0 C1586.9,540.0 1586.9,540.0 1610.0,540.0"/>
  <g class="node d2 b4" data-depth="2">
    <rect class="box" x="1303.0" y="526.0" width="260.9" height="28.2" rx="6"/>
    <text x="1313.0" y="544.5" font-size="13.0">チェックポイント阻害は既存T細胞を回復</text>
  </g>
  <g class="node d3 b4" data-depth="3">
    <rect class="box" x="1610.0" y="526.3" width="257.5" height="27.5" rx="6"/>
    <text x="1620.0" y="544.3" font-size="12.5">抗原性、提示、移動が十分な場合のみ持続</text>
  </g>
  <path class="link b4" data-depth="3" stroke-width="1.3" d="M1544.0,611.0 C1577.0,611.0 1577.0,575.5 1610.0,575.5"/>
  <path class="link b4" data-depth="3" stroke-width="1.3" d="M1544.0,611.0 C1577.0,611.0 1577.0,611.0 1610.0,611.0"/>
  <path class="link b4" data-depth="3" stroke-width="1.3" d="M1544.0,611.0 C1577.0,611.0 1577.0,646.5 1610.0,646.5"/>
  <g class="node d2 b4" data-depth="2">
    <rect class="box" x="1303.0" y="597.0" width="241.0" height="28.2" rx="6"/>
    <text x="1313.0" y="615.5" font-size="13.0">免疫関連有害事象は治療中・終了後も</text>
  </g>
  <g class="node d3 b4" data-depth="3">
    <rect class="box" x="1610.0" y="561.8" width="195.0" height="27.5" rx="6"/>
    <text x="1620.0" y="579.8" font-size="12.5">重症度評価、感染と進行を除外</text>
  </g>
  <g class="node d3 b4" data-depth="3">
    <rect class="box" x="1610.0" y="597.3" width="195.0" height="27.5" rx="6"/>
    <text x="1620.0" y="615.3" font-size="12.5">ステロイドを重症度へ合わせる</text>
  </g>
  <g class="node d3 b4" data-depth="3">
    <rect class="box" x="1610.0" y="632.8" width="170.0" height="27.5" rx="6"/>
    <text x="1620.0" y="650.8" font-size="12.5">ホルモン欠乏は永続し得る</text>
  </g>
  <path class="link b4" data-depth="3" stroke-width="1.3" d="M1544.0,699.8 C1577.0,699.8 1577.0,682.0 1610.0,682.0"/>
  <path class="link b4" data-depth="3" stroke-width="1.3" d="M1544.0,699.8 C1577.0,699.8 1577.0,717.5 1610.0,717.5"/>
  <g class="node d2 b4" data-depth="2">
    <rect class="box" x="1303.0" y="685.7" width="241.0" height="28.2" rx="6"/>
    <text x="1313.0" y="704.2" font-size="13.0">症状が軽くても臓器は安全と限らない</text>
  </g>
  <g class="node d3 b4" data-depth="3">
    <rect class="box" x="1610.0" y="668.3" width="245.0" height="27.5" rx="6"/>
    <text x="1620.0" y="686.3" font-size="12.5">心筋炎、肺臓炎、副腎クリーゼは致命的</text>
  </g>
  <g class="node d3 b4" data-depth="3">
    <rect class="box" x="1610.0" y="703.8" width="182.5" height="27.5" rx="6"/>
    <text x="1620.0" y="721.8" font-size="12.5">不安定なら除外を待たず治療</text>
  </g>
  <g class="node d2 b4" data-depth="2">
    <rect class="box" x="1303.0" y="739.3" width="241.0" height="28.2" rx="6"/>
    <text x="1313.0" y="757.8" font-size="13.0">長期ステロイド：感染予防、血糖、骨</text>
  </g>
  <path class="link b5" data-depth="2" stroke-width="1.8" d="M667.5,542.3 C604.0,542.3 604.0,415.9 540.5,415.9"/>
  <path class="link b5" data-depth="2" stroke-width="1.8" d="M667.5,542.3 C604.0,542.3 604.0,451.7 540.5,451.7"/>
  <path class="link b5" data-depth="2" stroke-width="1.8" d="M667.5,542.3 C604.0,542.3 604.0,487.9 540.5,487.9"/>
  <path class="link b5" data-depth="2" stroke-width="1.8" d="M667.5,542.3 C604.0,542.3 604.0,524.0 540.5,524.0"/>
  <path class="link b5" data-depth="2" stroke-width="1.8" d="M667.5,542.3 C604.0,542.3 604.0,560.2 540.5,560.2"/>
  <path class="link b5" data-depth="2" stroke-width="1.8" d="M667.5,542.3 C604.0,542.3 604.0,596.3 540.5,596.3"/>
  <path class="link b5" data-depth="2" stroke-width="1.8" d="M667.5,542.3 C604.0,542.3 604.0,632.5 540.5,632.5"/>
  <path class="link b5" data-depth="2" stroke-width="1.8" d="M667.5,542.3 C604.0,542.3 604.0,668.7 540.5,668.7"/>
  <g class="node d1 b5" data-depth="1">
    <rect class="box" x="667.5" y="527.2" width="78.0" height="30.1" rx="9"/>
    <text x="677.5" y="547.2" font-size="14.5">組織診断</text>
  </g>
  <path class="link b5" data-depth="3" stroke-width="1.3" d="M390.5,415.9 C312.0,415.9 312.0,415.9 233.5,415.9"/>
  <g class="node d2 b5" data-depth="2">
    <rect class="box" x="390.5" y="401.8" width="150.0" height="28.2" rx="6"/>
    <text x="400.5" y="420.3" font-size="13.0">代表組織を安全に得る</text>
  </g>
  <g class="node d3 b5" data-depth="3">
    <rect class="box" x="26.0" y="402.1" width="207.5" height="27.5" rx="6"/>
    <text x="36.0" y="420.1" font-size="12.5">手術面汚染、骨折、播種を避ける</text>
  </g>
  <g class="node d2 b5" data-depth="2">
    <rect class="box" x="390.5" y="437.6" width="150.0" height="28.2" rx="6"/>
    <text x="400.5" y="456.1" font-size="13.0">コア組織は構築を保つ</text>
  </g>
  <g class="node d2 b5" data-depth="2">
    <rect class="box" x="351.5" y="473.8" width="189.0" height="28.2" rx="6"/>
    <text x="361.5" y="492.3" font-size="13.0">細胞診は材料を使い切り得る</text>
  </g>
  <g class="node d2 b5" data-depth="2">
    <rect class="box" x="364.5" y="509.9" width="176.0" height="28.2" rx="6"/>
    <text x="374.5" y="528.4" font-size="13.0">固定・脱灰は検査を損なう</text>
  </g>
  <g class="node d2 b5" data-depth="2">
    <rect class="box" x="299.5" y="546.1" width="241.0" height="28.2" rx="6"/>
    <text x="309.5" y="564.6" font-size="13.0">生検前に凝固、抗血栓薬、出血を評価</text>
  </g>
  <g class="node d2 b5" data-depth="2">
    <rect class="box" x="325.5" y="582.3" width="215.0" height="28.2" rx="6"/>
    <text x="335.5" y="600.8" font-size="13.0">画像で壊死中心でなく生きた辺縁</text>
  </g>
  <g class="node d2 b5" data-depth="2">
    <rect class="box" x="377.5" y="618.4" width="163.0" height="28.2" rx="6"/>
    <text x="387.5" y="636.9" font-size="13.0">リンパ腫疑い：構築保存</text>
  </g>
  <g class="node d2 b5" data-depth="2">
    <rect class="box" x="338.5" y="654.6" width="202.0" height="28.2" rx="6"/>
    <text x="348.5" y="673.1" font-size="13.0">肉腫疑い：一括切除できる経路</text>
  </g>
  <path class="link b6" data-depth="2" stroke-width="1.8" d="M1263.0,861.4 C1283.0,861.4 1283.0,789.5 1303.0,789.5"/>
  <path class="link b6" data-depth="2" stroke-width="1.8" d="M1263.0,861.4 C1283.0,861.4 1283.0,825.4 1303.0,825.4"/>
  <path class="link b6" data-depth="2" stroke-width="1.8" d="M1263.0,861.4 C1283.0,861.4 1283.0,861.2 1303.0,861.2"/>
  <path class="link b6" data-depth="2" stroke-width="1.8" d="M1263.0,861.4 C1283.0,861.4 1283.0,897.4 1303.0,897.4"/>
  <path class="link b6" data-depth="2" stroke-width="1.8" d="M1263.0,861.4 C1283.0,861.4 1283.0,933.2 1303.0,933.2"/>
  <g class="node d1 b6" data-depth="1">
    <rect class="box" x="1083.5" y="846.3" width="179.5" height="30.1" rx="9"/>
    <text x="1093.5" y="866.3" font-size="14.5">悪性度、マーカー、反応</text>
  </g>
  <g class="node d2 b6" data-depth="2">
    <rect class="box" x="1303.0" y="775.5" width="202.0" height="28.2" rx="6"/>
    <text x="1313.0" y="794.0" font-size="13.0">悪性度、病期、分子亜型は別物</text>
  </g>
  <path class="link b6" data-depth="3" stroke-width="1.3" d="M1492.0,825.4 C1551.0,825.4 1551.0,825.4 1610.0,825.4"/>
  <g class="node d2 b6" data-depth="2">
    <rect class="box" x="1303.0" y="811.3" width="189.0" height="28.2" rx="6"/>
    <text x="1313.0" y="829.8" font-size="13.0">予後マーカーと予測マーカー</text>
  </g>
  <g class="node d3 b6" data-depth="3">
    <rect class="box" x="1610.0" y="811.6" width="232.5" height="27.5" rx="6"/>
    <text x="1620.0" y="829.6" font-size="12.5">関連は標的治療の有益性を証明しない</text>
  </g>
  <g class="node d2 b6" data-depth="2">
    <rect class="box" x="1303.0" y="847.1" width="189.0" height="28.2" rx="6"/>
    <text x="1313.0" y="865.6" font-size="13.0">治療で進行なしに病変が増大</text>
  </g>
  <g class="node d2 b6" data-depth="2">
    <rect class="box" x="1303.0" y="883.3" width="215.0" height="28.2" rx="6"/>
    <text x="1313.0" y="901.8" font-size="13.0">大きさ不変でも生物学的反応あり</text>
  </g>
  <path class="link b6" data-depth="3" stroke-width="1.3" d="M1531.0,933.2 C1570.5,933.2 1570.5,933.2 1610.0,933.2"/>
  <g class="node d2 b6" data-depth="2">
    <rect class="box" x="1303.0" y="919.1" width="228.0" height="28.2" rx="6"/>
    <text x="1313.0" y="937.6" font-size="13.0">マーカーは炎症や除去低下でも変化</text>
  </g>
  <g class="node d3 b6" data-depth="3">
    <rect class="box" x="1610.0" y="919.4" width="245.0" height="27.5" rx="6"/>
    <text x="1620.0" y="937.4" font-size="12.5">低リスク集団スクリーニングは過剰診断</text>
  </g>
  <path class="link b7" data-depth="2" stroke-width="1.8" d="M580.5,794.4 C560.5,794.4 560.5,704.5 540.5,704.5"/>
  <path class="link b7" data-depth="2" stroke-width="1.8" d="M580.5,794.4 C560.5,794.4 560.5,740.3 540.5,740.3"/>
  <path class="link b7" data-depth="2" stroke-width="1.8" d="M580.5,794.4 C560.5,794.4 560.5,776.5 540.5,776.5"/>
  <path class="link b7" data-depth="2" stroke-width="1.8" d="M580.5,794.4 C560.5,794.4 560.5,812.6 540.5,812.6"/>
  <path class="link b7" data-depth="2" stroke-width="1.8" d="M580.5,794.4 C560.5,794.4 560.5,848.5 540.5,848.5"/>
  <path class="link b7" data-depth="2" stroke-width="1.8" d="M580.5,794.4 C560.5,794.4 560.5,884.3 540.5,884.3"/>
  <g class="node d1 b7" data-depth="1">
    <rect class="box" x="580.5" y="779.3" width="165.0" height="30.1" rx="9"/>
    <text x="590.5" y="799.3" font-size="14.5">局所療法と細胞傷害薬</text>
  </g>
  <path class="link b7" data-depth="3" stroke-width="1.3" d="M325.5,704.5 C279.5,704.5 279.5,704.5 233.5,704.5"/>
  <g class="node d2 b7" data-depth="2">
    <rect class="box" x="325.5" y="690.4" width="215.0" height="28.2" rx="6"/>
    <text x="335.5" y="708.9" font-size="13.0">全クローン形成病変を除去で治癒</text>
  </g>
  <g class="node d3 b7" data-depth="3">
    <rect class="box" x="51.0" y="690.7" width="182.5" height="27.5" rx="6"/>
    <text x="61.0" y="708.7" font-size="12.5">切除縁は生物学と解剖に依存</text>
  </g>
  <g class="node d2 b7" data-depth="2">
    <rect class="box" x="299.5" y="726.2" width="241.0" height="28.2" rx="6"/>
    <text x="309.5" y="744.7" font-size="13.0">リンパ節評価はリンパ浮腫・神経損傷</text>
  </g>
  <g class="node d2 b7" data-depth="2">
    <rect class="box" x="325.5" y="762.4" width="215.0" height="28.2" rx="6"/>
    <text x="335.5" y="780.9" font-size="13.0">分割は修復と再酸素化の差を利用</text>
  </g>
  <g class="node d2 b7" data-depth="2">
    <rect class="box" x="338.5" y="798.6" width="202.0" height="28.2" rx="6"/>
    <text x="348.5" y="817.1" font-size="13.0">線維化や二次癌は数年後に出現</text>
  </g>
  <path class="link b7" data-depth="3" stroke-width="1.3" d="M299.5,848.5 C266.5,848.5 266.5,848.5 233.5,848.5"/>
  <g class="node d2 b7" data-depth="2">
    <rect class="box" x="299.5" y="834.4" width="241.0" height="28.2" rx="6"/>
    <text x="309.5" y="852.9" font-size="13.0">併用は耐性クローン生存確率を下げる</text>
  </g>
  <g class="node d3 b7" data-depth="3">
    <rect class="box" x="76.0" y="834.7" width="157.5" height="27.5" rx="6"/>
    <text x="86.0" y="852.7" font-size="12.5">毒性の重複が用量を制限</text>
  </g>
  <g class="node d2 b7" data-depth="2">
    <rect class="box" x="338.5" y="870.2" width="202.0" height="28.2" rx="6"/>
    <text x="348.5" y="888.7" font-size="13.0">発疱薬血管外漏出は直ちに対応</text>
  </g>
  <path class="link b8" data-depth="2" stroke-width="1.8" d="M1248.5,1058.3 C1275.8,1058.3 1275.8,969.0 1303.0,969.0"/>
  <path class="link b8" data-depth="2" stroke-width="1.8" d="M1248.5,1058.3 C1275.8,1058.3 1275.8,1004.8 1303.0,1004.8"/>
  <path class="link b8" data-depth="2" stroke-width="1.8" d="M1248.5,1058.3 C1275.8,1058.3 1275.8,1040.7 1303.0,1040.7"/>
  <path class="link b8" data-depth="2" stroke-width="1.8" d="M1248.5,1058.3 C1275.8,1058.3 1275.8,1094.3 1303.0,1094.3"/>
  <path class="link b8" data-depth="2" stroke-width="1.8" d="M1248.5,1058.3 C1275.8,1058.3 1275.8,1147.5 1303.0,1147.5"/>
  <g class="node d1 b8" data-depth="1">
    <rect class="box" x="1083.5" y="1043.2" width="165.0" height="30.1" rx="9"/>
    <text x="1093.5" y="1063.2" font-size="14.5">標的療法と内分泌療法</text>
  </g>
  <g class="node d2 b8" data-depth="2">
    <rect class="box" x="1303.0" y="954.9" width="202.0" height="28.2" rx="6"/>
    <text x="1313.0" y="973.4" font-size="13.0">標的が存在しかつ必要なら効く</text>
  </g>
  <path class="link b8" data-depth="3" stroke-width="1.3" d="M1453.0,1004.8 C1531.5,1004.8 1531.5,1004.8 1610.0,1004.8"/>
  <g class="node d2 b8" data-depth="2">
    <rect class="box" x="1303.0" y="990.8" width="150.0" height="28.2" rx="6"/>
    <text x="1313.0" y="1009.3" font-size="13.0">耐性は既存または出現</text>
  </g>
  <g class="node d3 b8" data-depth="3">
    <rect class="box" x="1610.0" y="991.1" width="207.5" height="27.5" rx="6"/>
    <text x="1620.0" y="1009.1" font-size="12.5">標的変異、経路迂回、組織型転換</text>
  </g>
  <g class="node d2 b8" data-depth="2">
    <rect class="box" x="1303.0" y="1026.6" width="241.0" height="28.2" rx="6"/>
    <text x="1313.0" y="1045.1" font-size="13.0">「標的」は選択法で無害を意味しない</text>
  </g>
  <path class="link b8" data-depth="3" stroke-width="1.3" d="M1492.0,1094.3 C1551.0,1094.3 1551.0,1076.5 1610.0,1076.5"/>
  <path class="link b8" data-depth="3" stroke-width="1.3" d="M1492.0,1094.3 C1551.0,1094.3 1551.0,1112.0 1610.0,1112.0"/>
  <g class="node d2 b8" data-depth="2">
    <rect class="box" x="1303.0" y="1080.2" width="189.0" height="28.2" rx="6"/>
    <text x="1313.0" y="1098.7" font-size="13.0">進行時は服薬、偽進行を確認</text>
  </g>
  <g class="node d3 b8" data-depth="3">
    <rect class="box" x="1610.0" y="1062.8" width="220.0" height="27.5" rx="6"/>
    <text x="1620.0" y="1080.8" font-size="12.5">少数部位の逃避には局所治療を追加</text>
  </g>
  <g class="node d3 b8" data-depth="3">
    <rect class="box" x="1610.0" y="1098.3" width="245.0" height="27.5" rx="6"/>
    <text x="1620.0" y="1116.3" font-size="12.5">陰性液体生検は変異不存在を証明しない</text>
  </g>
  <path class="link b8" data-depth="3" stroke-width="1.3" d="M1492.0,1147.5 C1551.0,1147.5 1551.0,1147.5 1610.0,1147.5"/>
  <g class="node d2 b8" data-depth="2">
    <rect class="box" x="1303.0" y="1133.4" width="189.0" height="28.2" rx="6"/>
    <text x="1313.0" y="1151.9" font-size="13.0">内分泌療法は増殖信号を除く</text>
  </g>
  <g class="node d3 b8" data-depth="3">
    <rect class="box" x="1610.0" y="1133.8" width="232.5" height="27.5" rx="6"/>
    <text x="1620.0" y="1151.8" font-size="12.5">骨量低下、インスリン抵抗性、ほてり</text>
  </g>
  <path class="link b9" data-depth="2" stroke-width="1.8" d="M595.0,1037.2 C567.8,1037.2 567.8,920.5 540.5,920.5"/>
  <path class="link b9" data-depth="2" stroke-width="1.8" d="M595.0,1037.2 C567.8,1037.2 567.8,956.6 540.5,956.6"/>
  <path class="link b9" data-depth="2" stroke-width="1.8" d="M595.0,1037.2 C567.8,1037.2 567.8,1001.4 540.5,1001.4"/>
  <path class="link b9" data-depth="2" stroke-width="1.8" d="M595.0,1037.2 C567.8,1037.2 567.8,1045.8 540.5,1045.8"/>
  <path class="link b9" data-depth="2" stroke-width="1.8" d="M595.0,1037.2 C567.8,1037.2 567.8,1081.6 540.5,1081.6"/>
  <path class="link b9" data-depth="2" stroke-width="1.8" d="M595.0,1037.2 C567.8,1037.2 567.8,1117.8 540.5,1117.8"/>
  <path class="link b9" data-depth="2" stroke-width="1.8" d="M595.0,1037.2 C567.8,1037.2 567.8,1153.9 540.5,1153.9"/>
  <g class="node d1 b9" data-depth="1">
    <rect class="box" x="595.0" y="1022.1" width="150.5" height="30.1" rx="9"/>
    <text x="605.0" y="1042.1" font-size="14.5">腫瘍救急と長期ケア</text>
  </g>
  <g class="node d2 b9" data-depth="2">
    <rect class="box" x="338.5" y="906.4" width="202.0" height="28.2" rx="6"/>
    <text x="348.5" y="924.9" font-size="13.0">完全な組織診断前に生理を治療</text>
  </g>
  <g class="node d2 b9" data-depth="2">
    <rect class="box" x="286.5" y="942.5" width="254.0" height="28.2" rx="6"/>
    <text x="296.5" y="961.0" font-size="13.0">脊髄圧迫：時刻付き記録、必要範囲撮像</text>
  </g>
  <g class="node d2 b9" data-depth="2">
    <rect class="box" x="273.5" y="978.7" width="267.0" height="45.3" rx="6"/>
    <text x="283.5" y="997.2" font-size="13.0">高カルシウム血症：補液と薬効発現の橋渡</text>
    <text x="283.5" y="1014.4" font-size="13.0">し</text>
  </g>
  <path class="link b9" data-depth="3" stroke-width="1.3" d="M299.5,1045.8 C266.5,1045.8 266.5,1045.8 233.5,1045.8"/>
  <g class="node d2 b9" data-depth="2">
    <rect class="box" x="299.5" y="1031.7" width="241.0" height="28.2" rx="6"/>
    <text x="309.5" y="1050.2" font-size="13.0">上大静脈閉塞：安定なら組織診断確保</text>
  </g>
  <g class="node d3 b9" data-depth="3">
    <rect class="box" x="63.5" y="1032.0" width="170.0" height="27.5" rx="6"/>
    <text x="73.5" y="1050.0" font-size="12.5">気道・脳浮腫の危機を優先</text>
  </g>
  <g class="node d2 b9" data-depth="2">
    <rect class="box" x="364.5" y="1067.5" width="176.0" height="28.2" rx="6"/>
    <text x="374.5" y="1086.0" font-size="13.0">緩和ケアは診断時から参加</text>
  </g>
  <g class="node d2 b9" data-depth="2">
    <rect class="box" x="286.5" y="1103.7" width="254.0" height="28.2" rx="6"/>
    <text x="296.5" y="1122.2" font-size="13.0">利益が害を上回る時のみスクリーニング</text>
  </g>
  <g class="node d2 b9" data-depth="2">
    <rect class="box" x="325.5" y="1139.8" width="215.0" height="28.2" rx="6"/>
    <text x="335.5" y="1158.3" font-size="13.0">治療要約が追跡責任を割り当てる</text>
  </g>
</svg>
