<svg xmlns="http://www.w3.org/2000/svg" class="mm" viewBox="0 0 1866 1156" width="1866" height="1156" role="img" aria-label="発達生理、新生児移行、小児悪化">
<style>
  .mm-bg { fill: #faf8f4; }
  .mm text { font-family: 'Hiragino Sans', 'Noto Sans JP', ui-sans-serif, sans-serif; fill: #1b1917; }
  .mm .link { fill: none; stroke: #c9c1b4; }
  .mm .box { fill: none; stroke: none; }
  .mm .d0 .box { fill: #1b1917; stroke: #1b1917; }
  .mm .d0 text { fill: #faf8f4; font-weight: 650; }
  .mm .d1 text { font-weight: 600; }

  .mm .link.b0 { stroke: #4b9ac6; }
  .mm .b0.d1 .box { fill: #d7e5eb; stroke: #0072B2; stroke-width: 1.5; }
  .mm .b0.d1 text { fill: #075c8b; }
  .mm .b0.d2 .box { fill: #e8efef; stroke: #70aed0; }
  .mm .b0.d3 text, .mm .b0.d4 text { fill: #075c8b; }

  .mm .link.b1 { stroke: #e08c49; }
  .mm .b1.d1 .box { fill: #f5e2d2; stroke: #D55E00; stroke-width: 1.5; }
  .mm .b1.d1 text { fill: #a64d06; }
  .mm .b1.d2 .box { fill: #f7ede3; stroke: #e6a36e; }
  .mm .b1.d3 text, .mm .b1.d4 text { fill: #a64d06; }

  .mm .link.b2 { stroke: #4bb99a; }
  .mm .b2.d1 .box { fill: #d7ebe2; stroke: #009E73; stroke-width: 1.5; }
  .mm .b2.d1 text { fill: #077d5c; }
  .mm .b2.d2 .box { fill: #e8f2eb; stroke: #70c6ad; }
  .mm .b2.d3 text, .mm .b2.d4 text { fill: #077d5c; }

  .mm .link.b3 { stroke: #da9fbe; }
  .mm .b3.d1 .box { fill: #f4e6e9; stroke: #CC79A7; stroke-width: 1.5; }
  .mm .b3.d1 text { fill: #985c7c; }
  .mm .b3.d2 .box { fill: #f7efef; stroke: #e1b2ca; }
  .mm .b3.d3 text, .mm .b3.d4 text { fill: #985c7c; }

  .mm .link.b4 { stroke: #bba149; }
  .mm .b4.d1 .box { fill: #ede7d2; stroke: #A07C00; stroke-width: 1.5; }
  .mm .b4.d1 text { fill: #7f6306; }
  .mm .b4.d2 .box { fill: #f4efe3; stroke: #c8b46e; }
  .mm .b4.d3 text, .mm .b4.d4 text { fill: #7f6306; }

  .mm .link.b5 { stroke: #84c1e2; }
  .mm .b5.d1 .box { fill: #e3eef2; stroke: #51a9db; stroke-width: 1.5; }
  .mm .b5.d1 text { fill: #3d7899; }
  .mm .b5.d2 .box { fill: #eff3f3; stroke: #9dcde6; }
  .mm .b5.d3 text, .mm .b5.d4 text { fill: #3d7899; }

  .mm .link.b6 { stroke: #9580b0; }
  .mm .b6.d1 .box { fill: #e6e0e6; stroke: #6A4C93; stroke-width: 1.5; }
  .mm .b6.d1 text { fill: #563f74; }
  .mm .b6.d2 .box { fill: #f0eced; stroke: #ab99bf; }
  .mm .b6.d3 text, .mm .b6.d4 text { fill: #563f74; }

  .mm .link.b7 { stroke: #98ac74; }
  .mm .b7.d1 .box { fill: #e6e9da; stroke: #6E8B3D; stroke-width: 1.5; }
  .mm .b7.d1 text { fill: #596e34; }
  .mm .b7.d2 .box { fill: #f0f0e7; stroke: #adbc8f; }
  .mm .b7.d3 text, .mm .b7.d4 text { fill: #596e34; }

  .mm .link.b8 { stroke: #e2b349; }
  .mm .b8.d1 .box { fill: #f7ecd2; stroke: #d89500; stroke-width: 1.5; }
  .mm .b8.d1 text { fill: #986a05; }
  .mm .b8.d2 .box { fill: #f9f2e3; stroke: #e7c26e; }
  .mm .b8.d3 text, .mm .b8.d4 text { fill: #986a05; }
@media (prefers-color-scheme: dark) {
  .mm-bg { fill: #12100e; }
  .mm text { font-family: 'Hiragino Sans', 'Noto Sans JP', ui-sans-serif, sans-serif; fill: #ece7df; }
  .mm .link { fill: none; stroke: #3d3833; }
  .mm .box { fill: none; stroke: none; }
  .mm .d0 .box { fill: #ece7df; stroke: #ece7df; }
  .mm .d0 text { fill: #12100e; font-weight: 650; }
  .mm .d1 text { font-weight: 600; }

  .mm .link.b0 { stroke: #2d6a8d; }
  .mm .b0.d1 .box { fill: #172227; stroke: #3891c3; stroke-width: 1.5; }
  .mm .b0.d1 text { fill: #65a6ca; }
  .mm .b0.d2 .box { fill: #15191b; stroke: #275772; }
  .mm .b0.d3 text, .mm .b0.d4 text { fill: #65a6ca; }

  .mm .link.b1 { stroke: #a15f2b; }
  .mm .b1.d1 .box { fill: #2f2014; stroke: #de8138; stroke-width: 1.5; }
  .mm .b1.d1 text { fill: #e29a62; }
  .mm .b1.d2 .box { fill: #201811; stroke: #824e25; }
  .mm .b1.d3 text, .mm .b1.d4 text { fill: #e29a62; }

  .mm .link.b2 { stroke: #2d826a; }
  .mm .b2.d1 .box { fill: #172720; stroke: #38b392; stroke-width: 1.5; }
  .mm .b2.d1 text { fill: #65c0a5; }
  .mm .b2.d2 .box { fill: #151b17; stroke: #276a57; }
  .mm .b2.d3 text, .mm .b2.d4 text { fill: #65c0a5; }

  .mm .link.b3 { stroke: #9c6e86; }
  .mm .b3.d1 .box { fill: #2e2326; stroke: #d796ba; stroke-width: 1.5; }
  .mm .b3.d1 text { fill: #dcaac3; }
  .mm .b3.d2 .box { fill: #20191a; stroke: #7e5a6d; }
  .mm .b3.d3 text, .mm .b3.d4 text { fill: #dcaac3; }

  .mm .link.b4 { stroke: #84702b; }
  .mm .b4.d1 .box { fill: #292314; stroke: #b59938; stroke-width: 1.5; }
  .mm .b4.d1 text { fill: #c3ac62; }
  .mm .b4.d2 .box { fill: #1d1a11; stroke: #6c5b25; }
  .mm .b4.d3 text, .mm .b4.d4 text { fill: #c3ac62; }

  .mm .link.b5 { stroke: #5c8eab; }
  .mm .b5.d1 .box { fill: #21292d; stroke: #7bc4ee; stroke-width: 1.5; }
  .mm .b5.d1 text { fill: #97cdea; }
  .mm .b5.d2 .box { fill: #191d1e; stroke: #4c7389; }
  .mm .b5.d3 text, .mm .b5.d4 text { fill: #97cdea; }

  .mm .link.b6 { stroke: #67557c; }
  .mm .b6.d1 .box { fill: #231e24; stroke: #8b73ab; stroke-width: 1.5; }
  .mm .b6.d1 text { fill: #a390b8; }
  .mm .b6.d2 .box { fill: #1a1719; stroke: #554664; }
  .mm .b6.d3 text, .mm .b6.d4 text { fill: #a390b8; }

  .mm .link.b7 { stroke: #69784d; }
  .mm .b7.d1 .box { fill: #23251b; stroke: #8ea568; stroke-width: 1.5; }
  .mm .b7.d1 text { fill: #a6b686; }
  .mm .b7.d2 .box { fill: #1b1a14; stroke: #566240; }
  .mm .b7.d3 text, .mm .b7.d4 text { fill: #a6b686; }

  .mm .link.b8 { stroke: #ab832b; }
  .mm .b8.d1 .box { fill: #312714; stroke: #ecb438; stroke-width: 1.5; }
  .mm .b8.d1 text { fill: #ecc162; }
  .mm .b8.d2 .box { fill: #211b11; stroke: #8a6a25; }
  .mm .b8.d3 text, .mm .b8.d4 text { fill: #ecc162; }
}
</style>
  <rect class="mm-bg" width="1866" height="1156"/>
  <path class="link b0" data-depth="1" stroke-width="2.2" d="M1095.5,578.2 C878.5,578.2 878.5,93.7 661.5,93.7"/>
  <path class="link b1" data-depth="1" stroke-width="2.2" d="M1095.5,578.2 C1115.5,578.2 1115.5,218.7 1135.5,218.7"/>
  <path class="link b2" data-depth="1" stroke-width="2.2" d="M1095.5,578.2 C1115.5,578.2 1115.5,506.0 1135.5,506.0"/>
  <path class="link b3" data-depth="1" stroke-width="2.2" d="M1095.5,578.2 C856.8,578.2 856.8,298.6 618.0,298.6"/>
  <path class="link b4" data-depth="1" stroke-width="2.2" d="M1095.5,578.2 C878.5,578.2 878.5,548.8 661.5,548.8"/>
  <path class="link b5" data-depth="1" stroke-width="2.2" d="M1095.5,578.2 C1115.5,578.2 1115.5,721.0 1135.5,721.0"/>
  <path class="link b6" data-depth="1" stroke-width="2.2" d="M1095.5,578.2 C878.5,578.2 878.5,791.5 661.5,791.5"/>
  <path class="link b7" data-depth="1" stroke-width="2.2" d="M1095.5,578.2 C1115.5,578.2 1115.5,972.0 1135.5,972.0"/>
  <path class="link b8" data-depth="1" stroke-width="2.2" d="M1095.5,578.2 C871.2,578.2 871.2,1025.9 647.0,1025.9"/>
  <g class="node d0 b0" data-depth="0">
    <rect class="box" x="837.5" y="550.2" width="258.0" height="55.9" rx="9"/>
    <text x="847.5" y="572.7" font-size="17.0">発達生理、新生児移行、小児悪</text>
    <text x="847.5" y="595.2" font-size="17.0">化</text>
  </g>
  <path class="link b0" data-depth="2" stroke-width="1.8" d="M661.5,93.7 C619.8,93.7 619.8,40.1 578.0,40.1"/>
  <path class="link b0" data-depth="2" stroke-width="1.8" d="M661.5,93.7 C619.8,93.7 619.8,93.7 578.0,93.7"/>
  <path class="link b0" data-depth="2" stroke-width="1.8" d="M661.5,93.7 C619.8,93.7 619.8,147.2 578.0,147.2"/>
  <g class="node d1 b0" data-depth="1">
    <rect class="box" x="661.5" y="78.6" width="136.0" height="30.1" rx="9"/>
    <text x="671.5" y="98.6" font-size="14.5">年齢で変わる生理</text>
  </g>
  <g class="node d2 b0" data-depth="2">
    <rect class="box" x="376.0" y="26.0" width="202.0" height="28.2" rx="6"/>
    <text x="386.0" y="44.5" font-size="13.0">在胎週数、日齢、成長、思春期</text>
  </g>
  <path class="link b0" data-depth="3" stroke-width="1.3" d="M428.0,93.7 C349.5,93.7 349.5,75.9 271.0,75.9"/>
  <path class="link b0" data-depth="3" stroke-width="1.3" d="M428.0,93.7 C349.5,93.7 349.5,111.4 271.0,111.4"/>
  <g class="node d2 b0" data-depth="2">
    <rect class="box" x="428.0" y="79.6" width="150.0" height="28.2" rx="6"/>
    <text x="438.0" y="98.1" font-size="13.0">乳児の予備能は小さい</text>
  </g>
  <g class="node d3 b0" data-depth="3">
    <rect class="box" x="113.5" y="62.2" width="157.5" height="27.5" rx="6"/>
    <text x="123.5" y="80.2" font-size="12.5">高い酸素需要、狭い気道</text>
  </g>
  <g class="node d3 b0" data-depth="3">
    <rect class="box" x="38.5" y="97.7" width="232.5" height="27.5" rx="6"/>
    <text x="48.5" y="115.7" font-size="12.5">一回拍出量適応とグリコーゲンが限定</text>
  </g>
  <g class="node d2 b0" data-depth="2">
    <rect class="box" x="415.0" y="133.2" width="163.0" height="28.2" rx="6"/>
    <text x="425.0" y="151.7" font-size="13.0">低血圧前から推移を重視</text>
  </g>
  <path class="link b1" data-depth="2" stroke-width="1.8" d="M1271.5,218.7 C1298.8,218.7 1298.8,39.8 1326.0,39.8"/>
  <path class="link b1" data-depth="2" stroke-width="1.8" d="M1271.5,218.7 C1298.8,218.7 1298.8,75.6 1326.0,75.6"/>
  <path class="link b1" data-depth="2" stroke-width="1.8" d="M1271.5,218.7 C1298.8,218.7 1298.8,111.7 1326.0,111.7"/>
  <path class="link b1" data-depth="2" stroke-width="1.8" d="M1271.5,218.7 C1298.8,218.7 1298.8,147.9 1326.0,147.9"/>
  <path class="link b1" data-depth="2" stroke-width="1.8" d="M1271.5,218.7 C1298.8,218.7 1298.8,183.7 1326.0,183.7"/>
  <path class="link b1" data-depth="2" stroke-width="1.8" d="M1271.5,218.7 C1298.8,218.7 1298.8,272.5 1326.0,272.5"/>
  <path class="link b1" data-depth="2" stroke-width="1.8" d="M1271.5,218.7 C1298.8,218.7 1298.8,361.6 1326.0,361.6"/>
  <path class="link b1" data-depth="2" stroke-width="1.8" d="M1271.5,218.7 C1298.8,218.7 1298.8,397.7 1326.0,397.7"/>
  <g class="node d1 b1" data-depth="1">
    <rect class="box" x="1135.5" y="203.7" width="136.0" height="30.1" rx="9"/>
    <text x="1145.5" y="223.7" font-size="14.5">出生時移行と蘇生</text>
  </g>
  <path class="link b1" data-depth="3" stroke-width="1.3" d="M1528.0,39.8 C1574.0,39.8 1574.0,39.8 1620.0,39.8"/>
  <g class="node d2 b1" data-depth="2">
    <rect class="box" x="1326.0" y="25.7" width="202.0" height="28.2" rx="6"/>
    <text x="1336.0" y="44.2" font-size="13.0">最初の呼吸が肺液を空気へ置換</text>
  </g>
  <g class="node d3 b1" data-depth="3">
    <rect class="box" x="1620.0" y="26.0" width="120.0" height="27.5" rx="6"/>
    <text x="1630.0" y="44.0" font-size="12.5">肺血管抵抗が低下</text>
  </g>
  <g class="node d2 b1" data-depth="2">
    <rect class="box" x="1326.0" y="61.5" width="176.0" height="28.2" rx="6"/>
    <text x="1336.0" y="80.0" font-size="13.0">胎盤除去で体血管抵抗上昇</text>
  </g>
  <g class="node d2 b1" data-depth="2">
    <rect class="box" x="1326.0" y="97.7" width="189.0" height="28.2" rx="6"/>
    <text x="1336.0" y="116.2" font-size="13.0">卵円孔閉鎖、動脈管血流逆転</text>
  </g>
  <g class="node d2 b1" data-depth="2">
    <rect class="box" x="1326.0" y="133.8" width="241.0" height="28.2" rx="6"/>
    <text x="1336.0" y="152.3" font-size="13.0">酸素とプロスタグランジン低下で収縮</text>
  </g>
  <path class="link b1" data-depth="3" stroke-width="1.3" d="M1580.0,183.7 C1600.0,183.7 1600.0,183.7 1620.0,183.7"/>
  <g class="node d2 b1" data-depth="2">
    <rect class="box" x="1326.0" y="169.6" width="254.0" height="28.2" rx="6"/>
    <text x="1336.0" y="188.1" font-size="13.0">含気不全・低酸素で胎児循環短絡が残る</text>
  </g>
  <g class="node d3 b1" data-depth="3">
    <rect class="box" x="1620.0" y="170.0" width="107.5" height="27.5" rx="6"/>
    <text x="1630.0" y="188.0" font-size="12.5">重症チアノーゼ</text>
  </g>
  <path class="link b1" data-depth="3" stroke-width="1.3" d="M1489.0,272.5 C1554.5,272.5 1554.5,219.2 1620.0,219.2"/>
  <path class="link b1" data-depth="3" stroke-width="1.3" d="M1489.0,272.5 C1554.5,272.5 1554.5,254.7 1620.0,254.7"/>
  <path class="link b1" data-depth="3" stroke-width="1.3" d="M1489.0,272.5 C1554.5,272.5 1554.5,290.2 1620.0,290.2"/>
  <path class="link b1" data-depth="3" stroke-width="1.3" d="M1489.0,272.5 C1554.5,272.5 1554.5,325.7 1620.0,325.7"/>
  <g class="node d2 b1" data-depth="2">
    <rect class="box" x="1326.0" y="258.4" width="163.0" height="28.2" rx="6"/>
    <text x="1336.0" y="276.9" font-size="13.0">新生児蘇生の中心は呼吸</text>
  </g>
  <g class="node d3 b1" data-depth="3">
    <rect class="box" x="1620.0" y="205.5" width="195.0" height="27.5" rx="6"/>
    <text x="1630.0" y="223.5" font-size="12.5">徐脈は含気不足と低酸素に続く</text>
  </g>
  <g class="node d3 b1" data-depth="3">
    <rect class="box" x="1620.0" y="241.0" width="195.0" height="27.5" rx="6"/>
    <text x="1630.0" y="259.0" font-size="12.5">胸郭挙上と心拍上昇で換気確認</text>
  </g>
  <g class="node d3 b1" data-depth="3">
    <rect class="box" x="1620.0" y="276.5" width="207.5" height="27.5" rx="6"/>
    <text x="1630.0" y="294.5" font-size="12.5">先にマスク密閉、頭位、圧を修正</text>
  </g>
  <g class="node d3 b1" data-depth="3">
    <rect class="box" x="1620.0" y="312.0" width="195.0" height="27.5" rx="6"/>
    <text x="1630.0" y="330.0" font-size="12.5">胸骨圧迫は重度徐脈持続時のみ</text>
  </g>
  <g class="node d2 b1" data-depth="2">
    <rect class="box" x="1326.0" y="347.5" width="215.0" height="28.2" rx="6"/>
    <text x="1336.0" y="366.0" font-size="13.0">蘇生後も血糖、体温、発作を監視</text>
  </g>
  <g class="node d2 b1" data-depth="2">
    <rect class="box" x="1326.0" y="383.6" width="163.0" height="28.2" rx="6"/>
    <text x="1336.0" y="402.1" font-size="13.0">酸素は過不足双方が有害</text>
  </g>
  <path class="link b2" data-depth="2" stroke-width="1.8" d="M1286.0,506.0 C1306.0,506.0 1306.0,433.9 1326.0,433.9"/>
  <path class="link b2" data-depth="2" stroke-width="1.8" d="M1286.0,506.0 C1306.0,506.0 1306.0,470.0 1326.0,470.0"/>
  <path class="link b2" data-depth="2" stroke-width="1.8" d="M1286.0,506.0 C1306.0,506.0 1306.0,506.2 1326.0,506.2"/>
  <path class="link b2" data-depth="2" stroke-width="1.8" d="M1286.0,506.0 C1306.0,506.0 1306.0,542.4 1326.0,542.4"/>
  <path class="link b2" data-depth="2" stroke-width="1.8" d="M1286.0,506.0 C1306.0,506.0 1306.0,578.2 1326.0,578.2"/>
  <g class="node d1 b2" data-depth="1">
    <rect class="box" x="1135.5" y="491.0" width="150.5" height="30.1" rx="9"/>
    <text x="1145.5" y="511.0" font-size="14.5">動脈管依存性心疾患</text>
  </g>
  <g class="node d2 b2" data-depth="2">
    <rect class="box" x="1326.0" y="419.8" width="189.0" height="28.2" rx="6"/>
    <text x="1336.0" y="438.3" font-size="13.0">動脈管閉鎖時に初めて現れる</text>
  </g>
  <g class="node d2 b2" data-depth="2">
    <rect class="box" x="1326.0" y="456.0" width="189.0" height="28.2" rx="6"/>
    <text x="1336.0" y="474.5" font-size="13.0">肺血流依存：チアノーゼ悪化</text>
  </g>
  <g class="node d2 b2" data-depth="2">
    <rect class="box" x="1326.0" y="492.1" width="228.0" height="28.2" rx="6"/>
    <text x="1336.0" y="510.6" font-size="13.0">体血流依存：ショック、大腿脈弱化</text>
  </g>
  <g class="node d2 b2" data-depth="2">
    <rect class="box" x="1326.0" y="528.3" width="228.0" height="28.2" rx="6"/>
    <text x="1336.0" y="546.8" font-size="13.0">原因不明ショックは心疾患も考える</text>
  </g>
  <path class="link b2" data-depth="3" stroke-width="1.3" d="M1554.8,578.2 C1587.4,578.2 1587.4,578.2 1620.0,578.2"/>
  <g class="node d2 b2" data-depth="2">
    <rect class="box" x="1326.0" y="564.1" width="228.8" height="28.2" rx="6"/>
    <text x="1336.0" y="582.6" font-size="13.0">プロスタグランジンE1で動脈管再開</text>
  </g>
  <g class="node d3 b2" data-depth="3">
    <rect class="box" x="1620.0" y="564.4" width="220.0" height="27.5" rx="6"/>
    <text x="1630.0" y="582.4" font-size="12.5">無呼吸・低血圧に気道能力を備える</text>
  </g>
  <path class="link b3" data-depth="2" stroke-width="1.8" d="M618.0,298.6 C598.0,298.6 598.0,200.8 578.0,200.8"/>
  <path class="link b3" data-depth="2" stroke-width="1.8" d="M618.0,298.6 C598.0,298.6 598.0,271.8 578.0,271.8"/>
  <path class="link b3" data-depth="2" stroke-width="1.8" d="M618.0,298.6 C598.0,298.6 598.0,342.8 578.0,342.8"/>
  <path class="link b3" data-depth="2" stroke-width="1.8" d="M618.0,298.6 C598.0,298.6 598.0,396.4 578.0,396.4"/>
  <g class="node d1 b3" data-depth="1">
    <rect class="box" x="618.0" y="283.5" width="179.5" height="30.1" rx="9"/>
    <text x="628.0" y="303.5" font-size="14.5">体温、血糖、ビリルビン</text>
  </g>
  <path class="link b3" data-depth="3" stroke-width="1.3" d="M428.0,200.8 C349.5,200.8 349.5,183.1 271.0,183.1"/>
  <path class="link b3" data-depth="3" stroke-width="1.3" d="M428.0,200.8 C349.5,200.8 349.5,218.6 271.0,218.6"/>
  <g class="node d2 b3" data-depth="2">
    <rect class="box" x="428.0" y="186.7" width="150.0" height="28.2" rx="6"/>
    <text x="438.0" y="205.2" font-size="13.0">体温管理は代謝的介入</text>
  </g>
  <g class="node d3 b3" data-depth="3">
    <rect class="box" x="113.5" y="169.3" width="157.5" height="27.5" rx="6"/>
    <text x="123.5" y="187.3" font-size="12.5">蒸発、伝導、対流、放射</text>
  </g>
  <g class="node d3 b3" data-depth="3">
    <rect class="box" x="26.0" y="204.8" width="245.0" height="27.5" rx="6"/>
    <text x="36.0" y="222.8" font-size="12.5">褐色脂肪は低酸素とアシドーシスを悪化</text>
  </g>
  <path class="link b3" data-depth="3" stroke-width="1.3" d="M311.0,271.8 C291.0,271.8 291.0,254.1 271.0,254.1"/>
  <path class="link b3" data-depth="3" stroke-width="1.3" d="M311.0,271.8 C291.0,271.8 291.0,289.6 271.0,289.6"/>
  <g class="node d2 b3" data-depth="2">
    <rect class="box" x="311.0" y="249.2" width="267.0" height="45.3" rx="6"/>
    <text x="321.0" y="267.7" font-size="13.0">血糖は供給、貯蔵、インスリン、需要を反</text>
    <text x="321.0" y="284.8" font-size="13.0">映</text>
  </g>
  <g class="node d3 b3" data-depth="3">
    <rect class="box" x="26.0" y="240.3" width="245.0" height="27.5" rx="6"/>
    <text x="36.0" y="258.3" font-size="12.5">糖尿病母体児は高インスリン血症が残る</text>
  </g>
  <g class="node d3 b3" data-depth="3">
    <rect class="box" x="101.0" y="275.8" width="170.0" height="27.5" rx="6"/>
    <text x="111.0" y="293.8" font-size="12.5">反復なら内分泌・代謝原因</text>
  </g>
  <path class="link b3" data-depth="3" stroke-width="1.3" d="M376.0,342.8 C323.5,342.8 323.5,325.1 271.0,325.1"/>
  <path class="link b3" data-depth="3" stroke-width="1.3" d="M376.0,342.8 C323.5,342.8 323.5,360.6 271.0,360.6"/>
  <g class="node d2 b3" data-depth="2">
    <rect class="box" x="376.0" y="328.7" width="202.0" height="28.2" rx="6"/>
    <text x="386.0" y="347.2" font-size="13.0">短い赤血球寿命が産生を増やす</text>
  </g>
  <g class="node d3 b3" data-depth="3">
    <rect class="box" x="101.0" y="311.3" width="170.0" height="27.5" rx="6"/>
    <text x="111.0" y="329.3" font-size="12.5">腸管脱抱合が再吸収を促す</text>
  </g>
  <g class="node d3 b3" data-depth="3">
    <rect class="box" x="63.5" y="346.8" width="207.5" height="27.5" rx="6"/>
    <text x="73.5" y="364.8" font-size="12.5">アルブミン結合で脳へ移りにくい</text>
  </g>
  <g class="node d2 b3" data-depth="2">
    <rect class="box" x="376.0" y="382.3" width="202.0" height="28.2" rx="6"/>
    <text x="386.0" y="400.8" font-size="13.0">抱合型上昇は肝胆道疾患を示す</text>
  </g>
  <path class="link b4" data-depth="2" stroke-width="1.8" d="M661.5,548.8 C619.8,548.8 619.8,450.0 578.0,450.0"/>
  <path class="link b4" data-depth="2" stroke-width="1.8" d="M661.5,548.8 C619.8,548.8 619.8,503.6 578.0,503.6"/>
  <path class="link b4" data-depth="2" stroke-width="1.8" d="M661.5,548.8 C619.8,548.8 619.8,539.7 578.0,539.7"/>
  <path class="link b4" data-depth="2" stroke-width="1.8" d="M661.5,548.8 C619.8,548.8 619.8,575.5 578.0,575.5"/>
  <path class="link b4" data-depth="2" stroke-width="1.8" d="M661.5,548.8 C619.8,548.8 619.8,611.4 578.0,611.4"/>
  <path class="link b4" data-depth="2" stroke-width="1.8" d="M661.5,548.8 C619.8,548.8 619.8,647.5 578.0,647.5"/>
  <g class="node d1 b4" data-depth="1">
    <rect class="box" x="661.5" y="533.7" width="136.0" height="30.1" rx="9"/>
    <text x="671.5" y="553.7" font-size="14.5">哺乳、成長、発達</text>
  </g>
  <path class="link b4" data-depth="3" stroke-width="1.3" d="M389.0,450.0 C330.0,450.0 330.0,432.2 271.0,432.2"/>
  <path class="link b4" data-depth="3" stroke-width="1.3" d="M389.0,450.0 C330.0,450.0 330.0,467.7 271.0,467.7"/>
  <g class="node d2 b4" data-depth="2">
    <rect class="box" x="389.0" y="435.9" width="189.0" height="28.2" rx="6"/>
    <text x="399.0" y="454.4" font-size="13.0">哺乳は心肺・神経の協調課題</text>
  </g>
  <g class="node d3 b4" data-depth="3">
    <rect class="box" x="126.0" y="418.5" width="145.0" height="27.5" rx="6"/>
    <text x="136.0" y="436.5" font-size="12.5">吸啜・嚥下・呼吸協調</text>
  </g>
  <g class="node d3 b4" data-depth="3">
    <rect class="box" x="101.0" y="454.0" width="170.0" height="27.5" rx="6"/>
    <text x="111.0" y="472.0" font-size="12.5">報告時間でなく授乳を観察</text>
  </g>
  <g class="node d2 b4" data-depth="2">
    <rect class="box" x="337.0" y="489.5" width="241.0" height="28.2" rx="6"/>
    <text x="347.0" y="508.0" font-size="13.0">体重とナトリウムで移送不足を捉える</text>
  </g>
  <g class="node d2 b4" data-depth="2">
    <rect class="box" x="350.0" y="525.6" width="228.0" height="28.2" rx="6"/>
    <text x="360.0" y="544.1" font-size="13.0">体重は速く、身長は長期、頭囲は脳</text>
  </g>
  <path class="link b4" data-depth="3" stroke-width="1.3" d="M324.0,575.5 C297.5,575.5 297.5,575.5 271.0,575.5"/>
  <g class="node d2 b4" data-depth="2">
    <rect class="box" x="324.0" y="561.5" width="254.0" height="28.2" rx="6"/>
    <text x="334.0" y="580.0" font-size="13.0">出生後のパーセンタイル横断は正常あり</text>
  </g>
  <g class="node d3 b4" data-depth="3">
    <rect class="box" x="113.5" y="561.8" width="157.5" height="27.5" rx="6"/>
    <text x="123.5" y="579.8" font-size="12.5">持続減速は評価を要する</text>
  </g>
  <g class="node d2 b4" data-depth="2">
    <rect class="box" x="441.0" y="597.3" width="137.0" height="28.2" rx="6"/>
    <text x="451.0" y="615.8" font-size="13.0">発達指標は確率分布</text>
  </g>
  <g class="node d2 b4" data-depth="2">
    <rect class="box" x="389.0" y="633.5" width="189.0" height="28.2" rx="6"/>
    <text x="399.0" y="652.0" font-size="13.0">技能喪失は遅い獲得より懸念</text>
  </g>
  <path class="link b5" data-depth="2" stroke-width="1.8" d="M1257.0,721.0 C1291.5,721.0 1291.5,613.7 1326.0,613.7"/>
  <path class="link b5" data-depth="2" stroke-width="1.8" d="M1257.0,721.0 C1291.5,721.0 1291.5,649.2 1326.0,649.2"/>
  <path class="link b5" data-depth="2" stroke-width="1.8" d="M1257.0,721.0 C1291.5,721.0 1291.5,684.7 1326.0,684.7"/>
  <path class="link b5" data-depth="2" stroke-width="1.8" d="M1257.0,721.0 C1291.5,721.0 1291.5,720.5 1326.0,720.5"/>
  <path class="link b5" data-depth="2" stroke-width="1.8" d="M1257.0,721.0 C1291.5,721.0 1291.5,756.7 1326.0,756.7"/>
  <path class="link b5" data-depth="2" stroke-width="1.8" d="M1257.0,721.0 C1291.5,721.0 1291.5,792.5 1326.0,792.5"/>
  <path class="link b5" data-depth="2" stroke-width="1.8" d="M1257.0,721.0 C1291.5,721.0 1291.5,828.3 1326.0,828.3"/>
  <g class="node d1 b5" data-depth="1">
    <rect class="box" x="1135.5" y="705.9" width="121.5" height="30.1" rx="9"/>
    <text x="1145.5" y="725.9" font-size="14.5">呼吸悪化と気道</text>
  </g>
  <path class="link b5" data-depth="3" stroke-width="1.3" d="M1502.0,613.7 C1561.0,613.7 1561.0,613.7 1620.0,613.7"/>
  <g class="node d2 b5" data-depth="2">
    <rect class="box" x="1326.0" y="599.6" width="176.0" height="28.2" rx="6"/>
    <text x="1336.0" y="618.1" font-size="13.0">代償：呼吸数、陥没、呻吟</text>
  </g>
  <g class="node d3 b5" data-depth="3">
    <rect class="box" x="1620.0" y="599.9" width="120.0" height="27.5" rx="6"/>
    <text x="1630.0" y="617.9" font-size="12.5">吸啜が呼吸と競合</text>
  </g>
  <path class="link b5" data-depth="3" stroke-width="1.3" d="M1502.0,649.2 C1561.0,649.2 1561.0,649.2 1620.0,649.2"/>
  <g class="node d2 b5" data-depth="2">
    <rect class="box" x="1326.0" y="635.1" width="176.0" height="28.2" rx="6"/>
    <text x="1336.0" y="653.6" font-size="13.0">疲労で呼吸数と努力が減る</text>
  </g>
  <g class="node d3 b5" data-depth="3">
    <rect class="box" x="1620.0" y="635.4" width="132.5" height="27.5" rx="6"/>
    <text x="1630.0" y="653.4" font-size="12.5">静かな児はより危険</text>
  </g>
  <path class="link b5" data-depth="3" stroke-width="1.3" d="M1515.0,684.7 C1567.5,684.7 1567.5,684.7 1620.0,684.7"/>
  <g class="node d2 b5" data-depth="2">
    <rect class="box" x="1326.0" y="670.6" width="189.0" height="28.2" rx="6"/>
    <text x="1336.0" y="689.1" font-size="13.0">飽和度で換気は判断できない</text>
  </g>
  <g class="node d3 b5" data-depth="3">
    <rect class="box" x="1620.0" y="670.9" width="157.5" height="27.5" rx="6"/>
    <text x="1630.0" y="688.9" font-size="12.5">二酸化炭素と臨床で評価</text>
  </g>
  <g class="node d2 b5" data-depth="2">
    <rect class="box" x="1326.0" y="706.4" width="228.0" height="28.2" rx="6"/>
    <text x="1336.0" y="724.9" font-size="13.0">数値一つでなく仕事量で移行を決定</text>
  </g>
  <g class="node d2 b5" data-depth="2">
    <rect class="box" x="1326.0" y="742.6" width="215.0" height="28.2" rx="6"/>
    <text x="1336.0" y="761.1" font-size="13.0">わずかな腫脹で抵抗が大きく増す</text>
  </g>
  <path class="link b5" data-depth="3" stroke-width="1.3" d="M1554.0,792.5 C1587.0,792.5 1587.0,792.5 1620.0,792.5"/>
  <g class="node d2 b5" data-depth="2">
    <rect class="box" x="1326.0" y="778.4" width="228.0" height="28.2" rx="6"/>
    <text x="1336.0" y="796.9" font-size="13.0">流涎、三脚位、含み声：声門上救急</text>
  </g>
  <g class="node d3 b5" data-depth="3">
    <rect class="box" x="1620.0" y="778.8" width="182.5" height="27.5" rx="6"/>
    <text x="1630.0" y="796.8" font-size="12.5">咽頭診察が閉塞を誘発し得る</text>
  </g>
  <g class="node d2 b5" data-depth="2">
    <rect class="box" x="1326.0" y="814.3" width="189.0" height="28.2" rx="6"/>
    <text x="1336.0" y="832.8" font-size="13.0">正常画像でも異物誤嚥を疑う</text>
  </g>
  <path class="link b6" data-depth="2" stroke-width="1.8" d="M661.5,791.5 C619.8,791.5 619.8,683.7 578.0,683.7"/>
  <path class="link b6" data-depth="2" stroke-width="1.8" d="M661.5,791.5 C619.8,791.5 619.8,719.9 578.0,719.9"/>
  <path class="link b6" data-depth="2" stroke-width="1.8" d="M661.5,791.5 C619.8,791.5 619.8,773.4 578.0,773.4"/>
  <path class="link b6" data-depth="2" stroke-width="1.8" d="M661.5,791.5 C619.8,791.5 619.8,827.0 578.0,827.0"/>
  <path class="link b6" data-depth="2" stroke-width="1.8" d="M661.5,791.5 C619.8,791.5 619.8,863.2 578.0,863.2"/>
  <path class="link b6" data-depth="2" stroke-width="1.8" d="M661.5,791.5 C619.8,791.5 619.8,899.3 578.0,899.3"/>
  <g class="node d1 b6" data-depth="1">
    <rect class="box" x="661.5" y="776.4" width="136.0" height="30.1" rx="9"/>
    <text x="671.5" y="796.4" font-size="14.5">循環、輸液、脱水</text>
  </g>
  <g class="node d2 b6" data-depth="2">
    <rect class="box" x="389.0" y="669.6" width="189.0" height="28.2" rx="6"/>
    <text x="399.0" y="688.1" font-size="13.0">頻脈と血管収縮で血圧を保つ</text>
  </g>
  <g class="node d2 b6" data-depth="2">
    <rect class="box" x="337.0" y="705.8" width="241.0" height="28.2" rx="6"/>
    <text x="347.0" y="724.3" font-size="13.0">早期ショック：斑状皮膚、再充満遅延</text>
  </g>
  <path class="link b6" data-depth="3" stroke-width="1.3" d="M363.0,773.4 C317.0,773.4 317.0,755.7 271.0,755.7"/>
  <path class="link b6" data-depth="3" stroke-width="1.3" d="M363.0,773.4 C317.0,773.4 317.0,791.2 271.0,791.2"/>
  <g class="node d2 b6" data-depth="2">
    <rect class="box" x="363.0" y="759.4" width="215.0" height="28.2" rx="6"/>
    <text x="373.0" y="777.9" font-size="13.0">体重換算で再評価する小分け輸液</text>
  </g>
  <g class="node d3 b6" data-depth="3">
    <rect class="box" x="88.5" y="741.9" width="182.5" height="27.5" rx="6"/>
    <text x="98.5" y="759.9" font-size="12.5">改善不良で肝腫大・ラ音増加</text>
  </g>
  <g class="node d3 b6" data-depth="3">
    <rect class="box" x="113.5" y="777.4" width="157.5" height="27.5" rx="6"/>
    <text x="123.5" y="795.4" font-size="12.5">心機能・昇圧支援を再考</text>
  </g>
  <g class="node d2 b6" data-depth="2">
    <rect class="box" x="441.0" y="812.9" width="137.0" height="28.2" rx="6"/>
    <text x="451.0" y="831.4" font-size="13.0">原因固有の液体戦略</text>
  </g>
  <g class="node d2 b6" data-depth="2">
    <rect class="box" x="311.0" y="849.1" width="267.0" height="28.2" rx="6"/>
    <text x="321.0" y="867.6" font-size="13.0">経口補水はナトリウム・グルコース共輸送</text>
  </g>
  <g class="node d2 b6" data-depth="2">
    <rect class="box" x="350.0" y="885.3" width="228.0" height="28.2" rx="6"/>
    <text x="360.0" y="903.8" font-size="13.0">脳を守るためナトリウムを制御補正</text>
  </g>
  <path class="link b7" data-depth="2" stroke-width="1.8" d="M1257.0,972.0 C1291.5,972.0 1291.5,864.5 1326.0,864.5"/>
  <path class="link b7" data-depth="2" stroke-width="1.8" d="M1257.0,972.0 C1291.5,972.0 1291.5,900.7 1326.0,900.7"/>
  <path class="link b7" data-depth="2" stroke-width="1.8" d="M1257.0,972.0 C1291.5,972.0 1291.5,936.8 1326.0,936.8"/>
  <path class="link b7" data-depth="2" stroke-width="1.8" d="M1257.0,972.0 C1291.5,972.0 1291.5,972.6 1326.0,972.6"/>
  <path class="link b7" data-depth="2" stroke-width="1.8" d="M1257.0,972.0 C1291.5,972.0 1291.5,1008.1 1326.0,1008.1"/>
  <path class="link b7" data-depth="2" stroke-width="1.8" d="M1257.0,972.0 C1291.5,972.0 1291.5,1043.6 1326.0,1043.6"/>
  <path class="link b7" data-depth="2" stroke-width="1.8" d="M1257.0,972.0 C1291.5,972.0 1291.5,1079.5 1326.0,1079.5"/>
  <g class="node d1 b7" data-depth="1">
    <rect class="box" x="1135.5" y="956.9" width="121.5" height="30.1" rx="9"/>
    <text x="1145.5" y="976.9" font-size="14.5">発熱と処方安全</text>
  </g>
  <g class="node d2 b7" data-depth="2">
    <rect class="box" x="1326.0" y="850.4" width="215.0" height="28.2" rx="6"/>
    <text x="1336.0" y="868.9" font-size="13.0">若い乳児は哺乳不良だけのことも</text>
  </g>
  <g class="node d2 b7" data-depth="2">
    <rect class="box" x="1326.0" y="886.6" width="189.0" height="28.2" rx="6"/>
    <text x="1336.0" y="905.1" font-size="13.0">危険徴候は全年齢で緊急評価</text>
  </g>
  <g class="node d2 b7" data-depth="2">
    <rect class="box" x="1326.0" y="922.7" width="241.0" height="28.2" rx="6"/>
    <text x="1336.0" y="941.2" font-size="13.0">解熱薬はウイルスと細菌を区別しない</text>
  </g>
  <path class="link b7" data-depth="3" stroke-width="1.3" d="M1424.0,972.6 C1522.0,972.6 1522.0,972.6 1620.0,972.6"/>
  <g class="node d2 b7" data-depth="2">
    <rect class="box" x="1326.0" y="958.6" width="98.0" height="28.2" rx="6"/>
    <text x="1336.0" y="977.1" font-size="13.0">独立計算連鎖</text>
  </g>
  <g class="node d3 b7" data-depth="3">
    <rect class="box" x="1620.0" y="958.9" width="207.5" height="27.5" rx="6"/>
    <text x="1630.0" y="976.9" font-size="12.5">先頭ゼロを使い末尾ゼロを避ける</text>
  </g>
  <path class="link b7" data-depth="3" stroke-width="1.3" d="M1554.0,1008.1 C1587.0,1008.1 1587.0,1008.1 1620.0,1008.1"/>
  <g class="node d2 b7" data-depth="2">
    <rect class="box" x="1326.0" y="994.1" width="228.0" height="28.2" rx="6"/>
    <text x="1336.0" y="1012.6" font-size="13.0">肝酵素と糸球体濾過は別速度で成熟</text>
  </g>
  <g class="node d3 b7" data-depth="3">
    <rect class="box" x="1620.0" y="994.4" width="195.0" height="27.5" rx="6"/>
    <text x="1630.0" y="1012.4" font-size="12.5">一新生児週の適量が後に誤りに</text>
  </g>
  <path class="link b7" data-depth="3" stroke-width="1.3" d="M1502.0,1043.6 C1561.0,1043.6 1561.0,1043.6 1620.0,1043.6"/>
  <g class="node d2 b7" data-depth="2">
    <rect class="box" x="1326.0" y="1029.6" width="176.0" height="28.2" rx="6"/>
    <text x="1336.0" y="1048.1" font-size="13.0">高危険薬は三者が独立確認</text>
  </g>
  <g class="node d3 b7" data-depth="3">
    <rect class="box" x="1620.0" y="1029.9" width="220.0" height="27.5" rx="6"/>
    <text x="1630.0" y="1047.9" font-size="12.5">キログラムとポンド、日量と一回量</text>
  </g>
  <g class="node d2 b7" data-depth="2">
    <rect class="box" x="1326.0" y="1065.4" width="228.0" height="28.2" rx="6"/>
    <text x="1336.0" y="1083.9" font-size="13.0">養育者が注射器で実際の容量を示す</text>
  </g>
  <path class="link b8" data-depth="2" stroke-width="1.8" d="M647.0,1025.9 C612.5,1025.9 612.5,935.5 578.0,935.5"/>
  <path class="link b8" data-depth="2" stroke-width="1.8" d="M647.0,1025.9 C612.5,1025.9 612.5,971.7 578.0,971.7"/>
  <path class="link b8" data-depth="2" stroke-width="1.8" d="M647.0,1025.9 C612.5,1025.9 612.5,1007.8 578.0,1007.8"/>
  <path class="link b8" data-depth="2" stroke-width="1.8" d="M647.0,1025.9 C612.5,1025.9 612.5,1044.0 578.0,1044.0"/>
  <path class="link b8" data-depth="2" stroke-width="1.8" d="M647.0,1025.9 C612.5,1025.9 612.5,1080.1 578.0,1080.1"/>
  <path class="link b8" data-depth="2" stroke-width="1.8" d="M647.0,1025.9 C612.5,1025.9 612.5,1116.3 578.0,1116.3"/>
  <g class="node d1 b8" data-depth="1">
    <rect class="box" x="647.0" y="1010.8" width="150.5" height="30.1" rx="9"/>
    <text x="657.0" y="1030.8" font-size="14.5">安全保護と最終評価</text>
  </g>
  <g class="node d2 b8" data-depth="2">
    <rect class="box" x="389.0" y="921.4" width="189.0" height="28.2" rx="6"/>
    <text x="399.0" y="939.9" font-size="13.0">外傷は発達能力に適合すべき</text>
  </g>
  <g class="node d2 b8" data-depth="2">
    <rect class="box" x="376.0" y="957.6" width="202.0" height="28.2" rx="6"/>
    <text x="386.0" y="976.1" font-size="13.0">出血、骨、代謝性模倣を考える</text>
  </g>
  <g class="node d2 b8" data-depth="2">
    <rect class="box" x="402.0" y="993.7" width="176.0" height="28.2" rx="6"/>
    <text x="412.0" y="1012.2" font-size="13.0">発言をそのまま分けて記録</text>
  </g>
  <g class="node d2 b8" data-depth="2">
    <rect class="box" x="402.0" y="1029.9" width="176.0" height="28.2" rx="6"/>
    <text x="412.0" y="1048.4" font-size="13.0">面談前に守秘の限界を説明</text>
  </g>
  <g class="node d2 b8" data-depth="2">
    <rect class="box" x="402.0" y="1066.1" width="176.0" height="28.2" rx="6"/>
    <text x="412.0" y="1084.6" font-size="13.0">いつもと違うは縦断データ</text>
  </g>
  <g class="node d2 b8" data-depth="2">
    <rect class="box" x="389.0" y="1102.2" width="189.0" height="28.2" rx="6"/>
    <text x="399.0" y="1120.7" font-size="13.0">追跡者を含む閉じた安全計画</text>
  </g>
</svg>
