<svg xmlns="http://www.w3.org/2000/svg" class="mm" viewBox="0 0 1928 1138" width="1928" height="1138" role="img" aria-label="定量的受容体理論と用量反応">
<style>
  .mm-bg { fill: #faf8f4; }
  .mm text { font-family: 'Hiragino Sans', 'Noto Sans JP', ui-sans-serif, sans-serif; fill: #1b1917; }
  .mm .link { fill: none; stroke: #c9c1b4; }
  .mm .box { fill: none; stroke: none; }
  .mm .d0 .box { fill: #1b1917; stroke: #1b1917; }
  .mm .d0 text { fill: #faf8f4; font-weight: 650; }
  .mm .d1 text { font-weight: 600; }

  .mm .link.b0 { stroke: #4b9ac6; }
  .mm .b0.d1 .box { fill: #d7e5eb; stroke: #0072B2; stroke-width: 1.5; }
  .mm .b0.d1 text { fill: #075c8b; }
  .mm .b0.d2 .box { fill: #e8efef; stroke: #70aed0; }
  .mm .b0.d3 text, .mm .b0.d4 text { fill: #075c8b; }

  .mm .link.b1 { stroke: #e08c49; }
  .mm .b1.d1 .box { fill: #f5e2d2; stroke: #D55E00; stroke-width: 1.5; }
  .mm .b1.d1 text { fill: #a64d06; }
  .mm .b1.d2 .box { fill: #f7ede3; stroke: #e6a36e; }
  .mm .b1.d3 text, .mm .b1.d4 text { fill: #a64d06; }

  .mm .link.b2 { stroke: #4bb99a; }
  .mm .b2.d1 .box { fill: #d7ebe2; stroke: #009E73; stroke-width: 1.5; }
  .mm .b2.d1 text { fill: #077d5c; }
  .mm .b2.d2 .box { fill: #e8f2eb; stroke: #70c6ad; }
  .mm .b2.d3 text, .mm .b2.d4 text { fill: #077d5c; }

  .mm .link.b3 { stroke: #da9fbe; }
  .mm .b3.d1 .box { fill: #f4e6e9; stroke: #CC79A7; stroke-width: 1.5; }
  .mm .b3.d1 text { fill: #985c7c; }
  .mm .b3.d2 .box { fill: #f7efef; stroke: #e1b2ca; }
  .mm .b3.d3 text, .mm .b3.d4 text { fill: #985c7c; }

  .mm .link.b4 { stroke: #bba149; }
  .mm .b4.d1 .box { fill: #ede7d2; stroke: #A07C00; stroke-width: 1.5; }
  .mm .b4.d1 text { fill: #7f6306; }
  .mm .b4.d2 .box { fill: #f4efe3; stroke: #c8b46e; }
  .mm .b4.d3 text, .mm .b4.d4 text { fill: #7f6306; }

  .mm .link.b5 { stroke: #84c1e2; }
  .mm .b5.d1 .box { fill: #e3eef2; stroke: #51a9db; stroke-width: 1.5; }
  .mm .b5.d1 text { fill: #3d7899; }
  .mm .b5.d2 .box { fill: #eff3f3; stroke: #9dcde6; }
  .mm .b5.d3 text, .mm .b5.d4 text { fill: #3d7899; }

  .mm .link.b6 { stroke: #9580b0; }
  .mm .b6.d1 .box { fill: #e6e0e6; stroke: #6A4C93; stroke-width: 1.5; }
  .mm .b6.d1 text { fill: #563f74; }
  .mm .b6.d2 .box { fill: #f0eced; stroke: #ab99bf; }
  .mm .b6.d3 text, .mm .b6.d4 text { fill: #563f74; }

  .mm .link.b7 { stroke: #98ac74; }
  .mm .b7.d1 .box { fill: #e6e9da; stroke: #6E8B3D; stroke-width: 1.5; }
  .mm .b7.d1 text { fill: #596e34; }
  .mm .b7.d2 .box { fill: #f0f0e7; stroke: #adbc8f; }
  .mm .b7.d3 text, .mm .b7.d4 text { fill: #596e34; }

  .mm .link.b8 { stroke: #e2b349; }
  .mm .b8.d1 .box { fill: #f7ecd2; stroke: #d89500; stroke-width: 1.5; }
  .mm .b8.d1 text { fill: #986a05; }
  .mm .b8.d2 .box { fill: #f9f2e3; stroke: #e7c26e; }
  .mm .b8.d3 text, .mm .b8.d4 text { fill: #986a05; }
@media (prefers-color-scheme: dark) {
  .mm-bg { fill: #12100e; }
  .mm text { font-family: 'Hiragino Sans', 'Noto Sans JP', ui-sans-serif, sans-serif; fill: #ece7df; }
  .mm .link { fill: none; stroke: #3d3833; }
  .mm .box { fill: none; stroke: none; }
  .mm .d0 .box { fill: #ece7df; stroke: #ece7df; }
  .mm .d0 text { fill: #12100e; font-weight: 650; }
  .mm .d1 text { font-weight: 600; }

  .mm .link.b0 { stroke: #2d6a8d; }
  .mm .b0.d1 .box { fill: #172227; stroke: #3891c3; stroke-width: 1.5; }
  .mm .b0.d1 text { fill: #65a6ca; }
  .mm .b0.d2 .box { fill: #15191b; stroke: #275772; }
  .mm .b0.d3 text, .mm .b0.d4 text { fill: #65a6ca; }

  .mm .link.b1 { stroke: #a15f2b; }
  .mm .b1.d1 .box { fill: #2f2014; stroke: #de8138; stroke-width: 1.5; }
  .mm .b1.d1 text { fill: #e29a62; }
  .mm .b1.d2 .box { fill: #201811; stroke: #824e25; }
  .mm .b1.d3 text, .mm .b1.d4 text { fill: #e29a62; }

  .mm .link.b2 { stroke: #2d826a; }
  .mm .b2.d1 .box { fill: #172720; stroke: #38b392; stroke-width: 1.5; }
  .mm .b2.d1 text { fill: #65c0a5; }
  .mm .b2.d2 .box { fill: #151b17; stroke: #276a57; }
  .mm .b2.d3 text, .mm .b2.d4 text { fill: #65c0a5; }

  .mm .link.b3 { stroke: #9c6e86; }
  .mm .b3.d1 .box { fill: #2e2326; stroke: #d796ba; stroke-width: 1.5; }
  .mm .b3.d1 text { fill: #dcaac3; }
  .mm .b3.d2 .box { fill: #20191a; stroke: #7e5a6d; }
  .mm .b3.d3 text, .mm .b3.d4 text { fill: #dcaac3; }

  .mm .link.b4 { stroke: #84702b; }
  .mm .b4.d1 .box { fill: #292314; stroke: #b59938; stroke-width: 1.5; }
  .mm .b4.d1 text { fill: #c3ac62; }
  .mm .b4.d2 .box { fill: #1d1a11; stroke: #6c5b25; }
  .mm .b4.d3 text, .mm .b4.d4 text { fill: #c3ac62; }

  .mm .link.b5 { stroke: #5c8eab; }
  .mm .b5.d1 .box { fill: #21292d; stroke: #7bc4ee; stroke-width: 1.5; }
  .mm .b5.d1 text { fill: #97cdea; }
  .mm .b5.d2 .box { fill: #191d1e; stroke: #4c7389; }
  .mm .b5.d3 text, .mm .b5.d4 text { fill: #97cdea; }

  .mm .link.b6 { stroke: #67557c; }
  .mm .b6.d1 .box { fill: #231e24; stroke: #8b73ab; stroke-width: 1.5; }
  .mm .b6.d1 text { fill: #a390b8; }
  .mm .b6.d2 .box { fill: #1a1719; stroke: #554664; }
  .mm .b6.d3 text, .mm .b6.d4 text { fill: #a390b8; }

  .mm .link.b7 { stroke: #69784d; }
  .mm .b7.d1 .box { fill: #23251b; stroke: #8ea568; stroke-width: 1.5; }
  .mm .b7.d1 text { fill: #a6b686; }
  .mm .b7.d2 .box { fill: #1b1a14; stroke: #566240; }
  .mm .b7.d3 text, .mm .b7.d4 text { fill: #a6b686; }

  .mm .link.b8 { stroke: #ab832b; }
  .mm .b8.d1 .box { fill: #312714; stroke: #ecb438; stroke-width: 1.5; }
  .mm .b8.d1 text { fill: #ecc162; }
  .mm .b8.d2 .box { fill: #211b11; stroke: #8a6a25; }
  .mm .b8.d3 text, .mm .b8.d4 text { fill: #ecc162; }
}
</style>
  <rect class="mm-bg" width="1928" height="1138"/>
  <path class="link b0" data-depth="1" stroke-width="2.2" d="M1093.0,569.0 C877.2,569.0 877.2,84.9 661.5,84.9"/>
  <path class="link b1" data-depth="1" stroke-width="2.2" d="M1093.0,569.0 C1113.0,569.0 1113.0,129.2 1133.0,129.2"/>
  <path class="link b2" data-depth="1" stroke-width="2.2" d="M1093.0,569.0 C870.0,569.0 870.0,290.7 647.0,290.7"/>
  <path class="link b3" data-depth="1" stroke-width="2.2" d="M1093.0,569.0 C877.2,569.0 877.2,559.1 661.5,559.1"/>
  <path class="link b4" data-depth="1" stroke-width="2.2" d="M1093.0,569.0 C1113.0,569.0 1113.0,414.6 1133.0,414.6"/>
  <path class="link b5" data-depth="1" stroke-width="2.2" d="M1093.0,569.0 C1113.0,569.0 1113.0,656.6 1133.0,656.6"/>
  <path class="link b6" data-depth="1" stroke-width="2.2" d="M1093.0,569.0 C1113.0,569.0 1113.0,907.8 1133.0,907.8"/>
  <path class="link b7" data-depth="1" stroke-width="2.2" d="M1093.0,569.0 C855.5,569.0 855.5,837.2 618.0,837.2"/>
  <path class="link b8" data-depth="1" stroke-width="2.2" d="M1093.0,569.0 C870.0,569.0 870.0,1043.9 647.0,1043.9"/>
  <g class="node d0 b0" data-depth="0">
    <rect class="box" x="852.0" y="552.3" width="241.0" height="33.4" rx="9"/>
    <text x="862.0" y="574.8" font-size="17.0">定量的受容体理論と用量反応</text>
  </g>
  <path class="link b0" data-depth="2" stroke-width="1.8" d="M661.5,84.9 C619.8,84.9 619.8,40.1 578.0,40.1"/>
  <path class="link b0" data-depth="2" stroke-width="1.8" d="M661.5,84.9 C619.8,84.9 619.8,76.2 578.0,76.2"/>
  <path class="link b0" data-depth="2" stroke-width="1.8" d="M661.5,84.9 C619.8,84.9 619.8,129.8 578.0,129.8"/>
  <g class="node d1 b0" data-depth="1">
    <rect class="box" x="661.5" y="69.9" width="150.5" height="30.1" rx="9"/>
    <text x="671.5" y="89.9" font-size="14.5">結合から臨床反応へ</text>
  </g>
  <g class="node d2 b0" data-depth="2">
    <rect class="box" x="337.0" y="26.0" width="241.0" height="28.2" rx="6"/>
    <text x="347.0" y="44.5" font-size="13.0">受容体、酵素、チャネル、輸送体など</text>
  </g>
  <g class="node d2 b0" data-depth="2">
    <rect class="box" x="363.0" y="62.2" width="215.0" height="28.2" rx="6"/>
    <text x="373.0" y="80.7" font-size="13.0">結合だけでは臨床効果にならない</text>
  </g>
  <path class="link b0" data-depth="3" stroke-width="1.3" d="M376.0,129.8 C323.5,129.8 323.5,112.1 271.0,112.1"/>
  <path class="link b0" data-depth="3" stroke-width="1.3" d="M376.0,129.8 C323.5,129.8 323.5,147.6 271.0,147.6"/>
  <g class="node d2 b0" data-depth="2">
    <rect class="box" x="376.0" y="115.7" width="202.0" height="28.2" rx="6"/>
    <text x="386.0" y="134.2" font-size="13.0">遊離濃度から個体反応への連鎖</text>
  </g>
  <g class="node d3 b0" data-depth="3">
    <rect class="box" x="63.5" y="98.3" width="207.5" height="27.5" rx="6"/>
    <text x="73.5" y="116.3" font-size="12.5">各段階が増幅、緩衝、遅延、拮抗</text>
  </g>
  <g class="node d3 b0" data-depth="3">
    <rect class="box" x="26.0" y="133.8" width="245.0" height="27.5" rx="6"/>
    <text x="36.0" y="151.8" font-size="12.5">濃度、占有、効果は必ずしも並行しない</text>
  </g>
  <path class="link b1" data-depth="2" stroke-width="1.8" d="M1298.0,129.2 C1318.0,129.2 1318.0,40.1 1338.0,40.1"/>
  <path class="link b1" data-depth="2" stroke-width="1.8" d="M1298.0,129.2 C1318.0,129.2 1318.0,75.9 1338.0,75.9"/>
  <path class="link b1" data-depth="2" stroke-width="1.8" d="M1298.0,129.2 C1318.0,129.2 1318.0,111.4 1338.0,111.4"/>
  <path class="link b1" data-depth="2" stroke-width="1.8" d="M1298.0,129.2 C1318.0,129.2 1318.0,164.7 1338.0,164.7"/>
  <path class="link b1" data-depth="2" stroke-width="1.8" d="M1298.0,129.2 C1318.0,129.2 1318.0,218.2 1338.0,218.2"/>
  <g class="node d1 b1" data-depth="1">
    <rect class="box" x="1133.0" y="114.1" width="165.0" height="30.1" rx="9"/>
    <text x="1143.0" y="134.1" font-size="14.5">質量作用則による結合</text>
  </g>
  <g class="node d2 b1" data-depth="2">
    <rect class="box" x="1338.0" y="26.0" width="202.0" height="28.2" rx="6"/>
    <text x="1348.0" y="44.5" font-size="13.0">会合・解離速度が平衡を決める</text>
  </g>
  <path class="link b1" data-depth="3" stroke-width="1.3" d="M1540.8,75.9 C1592.9,75.9 1592.9,75.9 1645.0,75.9"/>
  <g class="node d2 b1" data-depth="2">
    <rect class="box" x="1338.0" y="61.8" width="202.8" height="28.2" rx="6"/>
    <text x="1348.0" y="80.3" font-size="13.0">KD：受容体半数占有の遊離濃度</text>
  </g>
  <g class="node d3 b1" data-depth="3">
    <rect class="box" x="1645.0" y="62.2" width="170.8" height="27.5" rx="6"/>
    <text x="1655.0" y="80.2" font-size="12.5">KDが低いほど親和性が高い</text>
  </g>
  <path class="link b1" data-depth="3" stroke-width="1.3" d="M1521.7,111.4 C1583.3,111.4 1583.3,111.4 1645.0,111.4"/>
  <g class="node d2 b1" data-depth="2">
    <rect class="box" x="1338.0" y="97.3" width="183.7" height="28.2" rx="6"/>
    <text x="1348.0" y="115.8" font-size="13.0">占有率＝濃度÷（濃度＋KD）</text>
  </g>
  <g class="node d3 b1" data-depth="3">
    <rect class="box" x="1645.0" y="97.7" width="182.5" height="27.5" rx="6"/>
    <text x="1655.0" y="115.7" font-size="12.5">双曲線は漸近的に完全占有へ</text>
  </g>
  <path class="link b1" data-depth="3" stroke-width="1.3" d="M1540.0,164.7 C1592.5,164.7 1592.5,146.9 1645.0,146.9"/>
  <path class="link b1" data-depth="3" stroke-width="1.3" d="M1540.0,164.7 C1592.5,164.7 1592.5,182.4 1645.0,182.4"/>
  <g class="node d2 b1" data-depth="2">
    <rect class="box" x="1338.0" y="150.6" width="202.0" height="28.2" rx="6"/>
    <text x="1348.0" y="169.1" font-size="13.0">滞留時間は解離速度定数の逆数</text>
  </g>
  <g class="node d3 b1" data-depth="3">
    <rect class="box" x="1645.0" y="133.2" width="220.0" height="27.5" rx="6"/>
    <text x="1655.0" y="151.2" font-size="12.5">遅い解離は濃度低下後も占有を保つ</text>
  </g>
  <g class="node d3 b1" data-depth="3">
    <rect class="box" x="1645.0" y="168.7" width="195.0" height="27.5" rx="6"/>
    <text x="1655.0" y="186.7" font-size="12.5">短時間の伝達物質には速い会合</text>
  </g>
  <g class="node d2 b1" data-depth="2">
    <rect class="box" x="1338.0" y="204.2" width="215.0" height="28.2" rx="6"/>
    <text x="1348.0" y="222.7" font-size="13.0">生体内：膜、再結合、細胞内区画</text>
  </g>
  <path class="link b2" data-depth="2" stroke-width="1.8" d="M647.0,290.7 C612.5,290.7 612.5,183.4 578.0,183.4"/>
  <path class="link b2" data-depth="2" stroke-width="1.8" d="M647.0,290.7 C612.5,290.7 612.5,219.6 578.0,219.6"/>
  <path class="link b2" data-depth="2" stroke-width="1.8" d="M647.0,290.7 C612.5,290.7 612.5,273.1 578.0,273.1"/>
  <path class="link b2" data-depth="2" stroke-width="1.8" d="M647.0,290.7 C612.5,290.7 612.5,326.4 578.0,326.4"/>
  <path class="link b2" data-depth="2" stroke-width="1.8" d="M647.0,290.7 C612.5,290.7 612.5,362.2 578.0,362.2"/>
  <path class="link b2" data-depth="2" stroke-width="1.8" d="M647.0,290.7 C612.5,290.7 612.5,398.0 578.0,398.0"/>
  <g class="node d1 b2" data-depth="1">
    <rect class="box" x="647.0" y="275.7" width="165.0" height="30.1" rx="9"/>
    <text x="657.0" y="295.7" font-size="14.5">効力とリガンドの種類</text>
  </g>
  <g class="node d2 b2" data-depth="2">
    <rect class="box" x="337.0" y="169.3" width="241.0" height="28.2" rx="6"/>
    <text x="347.0" y="187.8" font-size="13.0">親和性は結合、効力は反応を作る能力</text>
  </g>
  <g class="node d2 b2" data-depth="2">
    <rect class="box" x="363.0" y="205.5" width="215.0" height="28.2" rx="6"/>
    <text x="373.0" y="224.0" font-size="13.0">完全作動薬は系の最大反応を生む</text>
  </g>
  <path class="link b2" data-depth="3" stroke-width="1.3" d="M324.0,273.1 C297.5,273.1 297.5,255.4 271.0,255.4"/>
  <path class="link b2" data-depth="3" stroke-width="1.3" d="M324.0,273.1 C297.5,273.1 297.5,290.9 271.0,290.9"/>
  <g class="node d2 b2" data-depth="2">
    <rect class="box" x="324.0" y="259.1" width="254.0" height="28.2" rx="6"/>
    <text x="334.0" y="277.6" font-size="13.0">部分作動薬は高占有でも最大に届かない</text>
  </g>
  <g class="node d3 b2" data-depth="3">
    <rect class="box" x="63.5" y="241.6" width="207.5" height="27.5" rx="6"/>
    <text x="73.5" y="259.6" font-size="12.5">受容体密度と伝達効率で系に依存</text>
  </g>
  <g class="node d3 b2" data-depth="3">
    <rect class="box" x="38.5" y="277.1" width="232.5" height="27.5" rx="6"/>
    <text x="48.5" y="295.1" font-size="12.5">完全作動薬と共存すると反応を下げる</text>
  </g>
  <path class="link b2" data-depth="3" stroke-width="1.3" d="M376.0,326.4 C323.5,326.4 323.5,326.4 271.0,326.4"/>
  <g class="node d2 b2" data-depth="2">
    <rect class="box" x="376.0" y="312.3" width="202.0" height="28.2" rx="6"/>
    <text x="386.0" y="330.8" font-size="13.0">逆作動薬は不活性構造を安定化</text>
  </g>
  <g class="node d3 b2" data-depth="3">
    <rect class="box" x="113.5" y="312.6" width="157.5" height="27.5" rx="6"/>
    <text x="123.5" y="330.6" font-size="12.5">構成的活性を低下させる</text>
  </g>
  <g class="node d2 b2" data-depth="2">
    <rect class="box" x="363.0" y="348.1" width="215.0" height="28.2" rx="6"/>
    <text x="373.0" y="366.6" font-size="13.0">中性拮抗薬は基礎活性を変えない</text>
  </g>
  <path class="link b2" data-depth="3" stroke-width="1.3" d="M337.0,398.0 C304.0,398.0 304.0,398.0 271.0,398.0"/>
  <g class="node d2 b2" data-depth="2">
    <rect class="box" x="337.0" y="384.0" width="241.0" height="28.2" rx="6"/>
    <text x="347.0" y="402.5" font-size="13.0">偏向作動：経路を異なる比率で活性化</text>
  </g>
  <g class="node d3 b2" data-depth="3">
    <rect class="box" x="88.5" y="384.3" width="182.5" height="27.5" rx="6"/>
    <text x="98.5" y="402.3" font-size="12.5">基準リガンドと測定系を明示</text>
  </g>
  <path class="link b3" data-depth="2" stroke-width="1.8" d="M661.5,559.1 C619.8,559.1 619.8,433.9 578.0,433.9"/>
  <path class="link b3" data-depth="2" stroke-width="1.8" d="M661.5,559.1 C619.8,559.1 619.8,470.0 578.0,470.0"/>
  <path class="link b3" data-depth="2" stroke-width="1.8" d="M661.5,559.1 C619.8,559.1 619.8,505.9 578.0,505.9"/>
  <path class="link b3" data-depth="2" stroke-width="1.8" d="M661.5,559.1 C619.8,559.1 619.8,541.7 578.0,541.7"/>
  <path class="link b3" data-depth="2" stroke-width="1.8" d="M661.5,559.1 C619.8,559.1 619.8,595.3 578.0,595.3"/>
  <path class="link b3" data-depth="2" stroke-width="1.8" d="M661.5,559.1 C619.8,559.1 619.8,648.5 578.0,648.5"/>
  <path class="link b3" data-depth="2" stroke-width="1.8" d="M661.5,559.1 C619.8,559.1 619.8,684.4 578.0,684.4"/>
  <g class="node d1 b3" data-depth="1">
    <rect class="box" x="661.5" y="544.0" width="150.5" height="30.1" rx="9"/>
    <text x="671.5" y="564.0" font-size="14.5">効力価と予備受容体</text>
  </g>
  <g class="node d2 b3" data-depth="2">
    <rect class="box" x="408.1" y="419.8" width="169.9" height="28.2" rx="6"/>
    <text x="418.1" y="438.3" font-size="13.0">対数濃度反応曲線はS字形</text>
  </g>
  <g class="node d2 b3" data-depth="2">
    <rect class="box" x="400.4" y="456.0" width="177.6" height="28.2" rx="6"/>
    <text x="410.4" y="474.5" font-size="13.0">Emaxは観察された最大効果</text>
  </g>
  <path class="link b3" data-depth="3" stroke-width="1.3" d="M348.4,505.9 C309.7,505.9 309.7,505.9 271.0,505.9"/>
  <g class="node d2 b3" data-depth="2">
    <rect class="box" x="348.4" y="491.8" width="229.6" height="28.2" rx="6"/>
    <text x="358.4" y="510.3" font-size="13.0">EC50は効力価で親和性とは限らない</text>
  </g>
  <g class="node d3 b3" data-depth="3">
    <rect class="box" x="26.0" y="492.1" width="245.0" height="27.5" rx="6"/>
    <text x="36.0" y="510.1" font-size="12.5">親和性、効力、受容体量、共役、到達性</text>
  </g>
  <g class="node d2 b3" data-depth="2">
    <rect class="box" x="350.0" y="527.6" width="228.0" height="28.2" rx="6"/>
    <text x="360.0" y="546.1" font-size="13.0">高力価は高効力や安全を意味しない</text>
  </g>
  <path class="link b3" data-depth="3" stroke-width="1.3" d="M363.0,595.3 C317.0,595.3 317.0,577.5 271.0,577.5"/>
  <path class="link b3" data-depth="3" stroke-width="1.3" d="M363.0,595.3 C317.0,595.3 317.0,613.0 271.0,613.0"/>
  <g class="node d2 b3" data-depth="2">
    <rect class="box" x="363.0" y="581.2" width="215.0" height="28.2" rx="6"/>
    <text x="373.0" y="599.7" font-size="13.0">予備受容体：全占有前に最大反応</text>
  </g>
  <g class="node d3 b3" data-depth="3">
    <rect class="box" x="51.0" y="563.8" width="220.0" height="27.5" rx="6"/>
    <text x="61.0" y="581.8" font-size="12.5">増幅で少数の受容体でも十分な効果</text>
  </g>
  <g class="node d3 b3" data-depth="3">
    <rect class="box" x="98.8" y="599.3" width="172.2" height="27.5" rx="6"/>
    <text x="108.8" y="617.3" font-size="12.5">EC50はKDより低くなり得る</text>
  </g>
  <path class="link b3" data-depth="3" stroke-width="1.3" d="M363.0,648.5 C317.0,648.5 317.0,648.5 271.0,648.5"/>
  <g class="node d2 b3" data-depth="2">
    <rect class="box" x="363.0" y="634.4" width="215.0" height="28.2" rx="6"/>
    <text x="373.0" y="652.9" font-size="13.0">不可逆的不活化はまず予備を消費</text>
  </g>
  <g class="node d3 b3" data-depth="3">
    <rect class="box" x="101.0" y="634.8" width="170.0" height="27.5" rx="6"/>
    <text x="111.0" y="652.8" font-size="12.5">右方移動の後に最大が低下</text>
  </g>
  <g class="node d2 b3" data-depth="2">
    <rect class="box" x="415.0" y="670.3" width="163.0" height="28.2" rx="6"/>
    <text x="425.0" y="688.8" font-size="13.0">予備量は組織間で異なる</text>
  </g>
  <path class="link b4" data-depth="2" stroke-width="1.8" d="M1182.0,414.6 C1260.0,414.6 1260.0,289.6 1338.0,289.6"/>
  <path class="link b4" data-depth="2" stroke-width="1.8" d="M1182.0,414.6 C1260.0,414.6 1260.0,378.3 1338.0,378.3"/>
  <path class="link b4" data-depth="2" stroke-width="1.8" d="M1182.0,414.6 C1260.0,414.6 1260.0,431.6 1338.0,431.6"/>
  <path class="link b4" data-depth="2" stroke-width="1.8" d="M1182.0,414.6 C1260.0,414.6 1260.0,467.4 1338.0,467.4"/>
  <path class="link b4" data-depth="2" stroke-width="1.8" d="M1182.0,414.6 C1260.0,414.6 1260.0,503.6 1338.0,503.6"/>
  <path class="link b4" data-depth="2" stroke-width="1.8" d="M1182.0,414.6 C1260.0,414.6 1260.0,539.7 1338.0,539.7"/>
  <g class="node d1 b4" data-depth="1">
    <rect class="box" x="1133.0" y="399.6" width="49.0" height="30.1" rx="9"/>
    <text x="1143.0" y="419.6" font-size="14.5">拮抗</text>
  </g>
  <path class="link b4" data-depth="3" stroke-width="1.3" d="M1553.0,289.6 C1599.0,289.6 1599.0,254.1 1645.0,254.1"/>
  <path class="link b4" data-depth="3" stroke-width="1.3" d="M1553.0,289.6 C1599.0,289.6 1599.0,289.6 1645.0,289.6"/>
  <path class="link b4" data-depth="3" stroke-width="1.3" d="M1553.0,289.6 C1599.0,289.6 1599.0,325.1 1645.0,325.1"/>
  <g class="node d2 b4" data-depth="2">
    <rect class="box" x="1338.0" y="275.5" width="215.0" height="28.2" rx="6"/>
    <text x="1348.0" y="294.0" font-size="13.0">競合：作動薬認識部位へ可逆結合</text>
  </g>
  <g class="node d3 b4" data-depth="3">
    <rect class="box" x="1645.0" y="240.3" width="157.5" height="27.5" rx="6"/>
    <text x="1655.0" y="258.3" font-size="12.5">克服可能な平行右方移動</text>
  </g>
  <g class="node d3 b4" data-depth="3">
    <rect class="box" x="1645.0" y="275.8" width="134.8" height="27.5" rx="6"/>
    <text x="1655.0" y="293.8" font-size="12.5">濃度比とSchild解析</text>
  </g>
  <g class="node d3 b4" data-depth="3">
    <rect class="box" x="1645.0" y="311.3" width="257.5" height="27.5" rx="6"/>
    <text x="1655.0" y="329.3" font-size="12.5">非平行：平衡不足、受容体減少、複数集団</text>
  </g>
  <path class="link b4" data-depth="3" stroke-width="1.3" d="M1566.0,378.3 C1605.5,378.3 1605.5,360.6 1645.0,360.6"/>
  <path class="link b4" data-depth="3" stroke-width="1.3" d="M1566.0,378.3 C1605.5,378.3 1605.5,396.1 1645.0,396.1"/>
  <g class="node d2 b4" data-depth="2">
    <rect class="box" x="1338.0" y="364.2" width="228.0" height="28.2" rx="6"/>
    <text x="1348.0" y="382.7" font-size="13.0">非競合：作動薬増量で克服できない</text>
  </g>
  <g class="node d3 b4" data-depth="3">
    <rect class="box" x="1645.0" y="346.8" width="257.5" height="27.5" rx="6"/>
    <text x="1655.0" y="364.8" font-size="12.5">不可逆、アロステリック、下流、チャネル</text>
  </g>
  <g class="node d3 b4" data-depth="3">
    <rect class="box" x="1645.0" y="382.3" width="232.5" height="27.5" rx="6"/>
    <text x="1655.0" y="400.3" font-size="12.5">最大は低下、予備受容体が初期に隠す</text>
  </g>
  <path class="link b4" data-depth="3" stroke-width="1.3" d="M1605.0,431.6 C1625.0,431.6 1625.0,431.6 1645.0,431.6"/>
  <g class="node d2 b4" data-depth="2">
    <rect class="box" x="1338.0" y="408.9" width="267.0" height="45.3" rx="6"/>
    <text x="1348.0" y="427.4" font-size="13.0">アロステリック調節薬は親和性や効力を変</text>
    <text x="1348.0" y="444.6" font-size="13.0">える</text>
  </g>
  <g class="node d3 b4" data-depth="3">
    <rect class="box" x="1645.0" y="417.8" width="195.0" height="27.5" rx="6"/>
    <text x="1655.0" y="435.8" font-size="12.5">自身の部位の飽和で効果に上限</text>
  </g>
  <g class="node d2 b4" data-depth="2">
    <rect class="box" x="1338.0" y="453.3" width="202.0" height="28.2" rx="6"/>
    <text x="1348.0" y="471.8" font-size="13.0">生理的拮抗：反対の機能を生む</text>
  </g>
  <g class="node d2 b4" data-depth="2">
    <rect class="box" x="1338.0" y="489.5" width="215.0" height="28.2" rx="6"/>
    <text x="1348.0" y="508.0" font-size="13.0">化学的拮抗：直接相互作用や隔離</text>
  </g>
  <g class="node d2 b4" data-depth="2">
    <rect class="box" x="1338.0" y="525.6" width="228.0" height="28.2" rx="6"/>
    <text x="1348.0" y="544.1" font-size="13.0">標的相乗なしの個体レベル相乗効果</text>
  </g>
  <path class="link b5" data-depth="2" stroke-width="1.8" d="M1298.0,656.6 C1318.0,656.6 1318.0,575.9 1338.0,575.9"/>
  <path class="link b5" data-depth="2" stroke-width="1.8" d="M1298.0,656.6 C1318.0,656.6 1318.0,612.0 1338.0,612.0"/>
  <path class="link b5" data-depth="2" stroke-width="1.8" d="M1298.0,656.6 C1318.0,656.6 1318.0,647.9 1338.0,647.9"/>
  <path class="link b5" data-depth="2" stroke-width="1.8" d="M1298.0,656.6 C1318.0,656.6 1318.0,683.7 1338.0,683.7"/>
  <path class="link b5" data-depth="2" stroke-width="1.8" d="M1298.0,656.6 C1318.0,656.6 1318.0,737.3 1338.0,737.3"/>
  <g class="node d1 b5" data-depth="1">
    <rect class="box" x="1133.0" y="641.5" width="165.0" height="30.1" rx="9"/>
    <text x="1143.0" y="661.5" font-size="14.5">集団の反応と時間経過</text>
  </g>
  <g class="node d2 b5" data-depth="2">
    <rect class="box" x="1338.0" y="561.8" width="189.0" height="28.2" rx="6"/>
    <text x="1348.0" y="580.3" font-size="13.0">各個体が規定結果に達したか</text>
  </g>
  <g class="node d2 b5" data-depth="2">
    <rect class="box" x="1338.0" y="598.0" width="193.7" height="28.2" rx="6"/>
    <text x="1348.0" y="616.5" font-size="13.0">ED50、TD50、LD50は集団分布</text>
  </g>
  <path class="link b5" data-depth="3" stroke-width="1.3" d="M1537.0,647.9 C1591.0,647.9 1591.0,647.9 1645.0,647.9"/>
  <g class="node d2 b5" data-depth="2">
    <rect class="box" x="1338.0" y="633.8" width="199.0" height="28.2" rx="6"/>
    <text x="1348.0" y="652.3" font-size="13.0">治療指数TD50÷ED50は粗い尺度</text>
  </g>
  <g class="node d3 b5" data-depth="3">
    <rect class="box" x="1645.0" y="634.1" width="232.5" height="27.5" rx="6"/>
    <text x="1655.0" y="652.1" font-size="12.5">裾、重症度、監視、異質性を表さない</text>
  </g>
  <g class="node d2 b5" data-depth="2">
    <rect class="box" x="1338.0" y="669.6" width="137.0" height="28.2" rx="6"/>
    <text x="1348.0" y="688.1" font-size="13.0">治療域の境界は柔軟</text>
  </g>
  <path class="link b5" data-depth="3" stroke-width="1.3" d="M1605.0,737.3 C1625.0,737.3 1625.0,719.5 1645.0,719.5"/>
  <path class="link b5" data-depth="3" stroke-width="1.3" d="M1605.0,737.3 C1625.0,737.3 1625.0,755.0 1645.0,755.0"/>
  <g class="node d2 b5" data-depth="2">
    <rect class="box" x="1338.0" y="714.6" width="267.0" height="45.3" rx="6"/>
    <text x="1348.0" y="733.1" font-size="13.0">ヒステリシス：効果が濃度より遅れ長く続</text>
    <text x="1348.0" y="750.3" font-size="13.0">く</text>
  </g>
  <g class="node d3 b5" data-depth="3">
    <rect class="box" x="1645.0" y="705.8" width="207.5" height="27.5" rx="6"/>
    <text x="1655.0" y="723.8" font-size="12.5">効果区画、遅い動態、活性代謝物</text>
  </g>
  <g class="node d3 b5" data-depth="3">
    <rect class="box" x="1645.0" y="741.3" width="170.0" height="27.5" rx="6"/>
    <text x="1655.0" y="759.3" font-size="12.5">一時点の採血は誤解を招く</text>
  </g>
  <path class="link b6" data-depth="2" stroke-width="1.8" d="M1269.0,907.8 C1303.5,907.8 1303.5,790.9 1338.0,790.9"/>
  <path class="link b6" data-depth="2" stroke-width="1.8" d="M1269.0,907.8 C1303.5,907.8 1303.5,835.6 1338.0,835.6"/>
  <path class="link b6" data-depth="2" stroke-width="1.8" d="M1269.0,907.8 C1303.5,907.8 1303.5,880.3 1338.0,880.3"/>
  <path class="link b6" data-depth="2" stroke-width="1.8" d="M1269.0,907.8 C1303.5,907.8 1303.5,916.5 1338.0,916.5"/>
  <path class="link b6" data-depth="2" stroke-width="1.8" d="M1269.0,907.8 C1303.5,907.8 1303.5,952.7 1338.0,952.7"/>
  <path class="link b6" data-depth="2" stroke-width="1.8" d="M1269.0,907.8 C1303.5,907.8 1303.5,988.8 1338.0,988.8"/>
  <path class="link b6" data-depth="2" stroke-width="1.8" d="M1269.0,907.8 C1303.5,907.8 1303.5,1024.6 1338.0,1024.6"/>
  <g class="node d1 b6" data-depth="1">
    <rect class="box" x="1133.0" y="892.7" width="136.0" height="30.1" rx="9"/>
    <text x="1143.0" y="912.7" font-size="14.5">適応と受容体調節</text>
  </g>
  <g class="node d2 b6" data-depth="2">
    <rect class="box" x="1338.0" y="776.8" width="189.0" height="28.2" rx="6"/>
    <text x="1348.0" y="795.3" font-size="13.0">脱感作は秒から時間で起こる</text>
  </g>
  <g class="node d2 b6" data-depth="2">
    <rect class="box" x="1338.0" y="812.9" width="267.0" height="45.3" rx="6"/>
    <text x="1348.0" y="831.4" font-size="13.0">ダウンレギュレーションは受容体量を減ら</text>
    <text x="1348.0" y="848.6" font-size="13.0">す</text>
  </g>
  <g class="node d2 b6" data-depth="2">
    <rect class="box" x="1338.0" y="866.3" width="241.0" height="28.2" rx="6"/>
    <text x="1348.0" y="884.8" font-size="13.0">耐性：薬力学的、薬物動態的、学習性</text>
  </g>
  <g class="node d2 b6" data-depth="2">
    <rect class="box" x="1338.0" y="902.4" width="228.0" height="28.2" rx="6"/>
    <text x="1348.0" y="920.9" font-size="13.0">タキフィラキシーは特に急速な低下</text>
  </g>
  <g class="node d2 b6" data-depth="2">
    <rect class="box" x="1338.0" y="938.6" width="202.0" height="28.2" rx="6"/>
    <text x="1348.0" y="957.1" font-size="13.0">残る代償適応による離脱と反跳</text>
  </g>
  <g class="node d2 b6" data-depth="2">
    <rect class="box" x="1338.0" y="974.7" width="189.0" height="28.2" rx="6"/>
    <text x="1348.0" y="993.2" font-size="13.0">慢性拮抗と除神経後の過敏性</text>
  </g>
  <path class="link b6" data-depth="3" stroke-width="1.3" d="M1540.0,1024.6 C1592.5,1024.6 1592.5,1024.6 1645.0,1024.6"/>
  <g class="node d2 b6" data-depth="2">
    <rect class="box" x="1338.0" y="1010.6" width="202.0" height="28.2" rx="6"/>
    <text x="1348.0" y="1029.1" font-size="13.0">疾患は標的と伝達構造を変える</text>
  </g>
  <g class="node d3 b6" data-depth="3">
    <rect class="box" x="1645.0" y="1010.9" width="207.5" height="27.5" rx="6"/>
    <text x="1655.0" y="1028.9" font-size="12.5">曲線はある時点の薬物と系の性質</text>
  </g>
  <path class="link b7" data-depth="2" stroke-width="1.8" d="M618.0,837.2 C598.0,837.2 598.0,720.5 578.0,720.5"/>
  <path class="link b7" data-depth="2" stroke-width="1.8" d="M618.0,837.2 C598.0,837.2 598.0,756.7 578.0,756.7"/>
  <path class="link b7" data-depth="2" stroke-width="1.8" d="M618.0,837.2 C598.0,837.2 598.0,792.8 578.0,792.8"/>
  <path class="link b7" data-depth="2" stroke-width="1.8" d="M618.0,837.2 C598.0,837.2 598.0,829.0 578.0,829.0"/>
  <path class="link b7" data-depth="2" stroke-width="1.8" d="M618.0,837.2 C598.0,837.2 598.0,864.8 578.0,864.8"/>
  <path class="link b7" data-depth="2" stroke-width="1.8" d="M618.0,837.2 C598.0,837.2 598.0,909.2 578.0,909.2"/>
  <path class="link b7" data-depth="2" stroke-width="1.8" d="M618.0,837.2 C598.0,837.2 598.0,954.0 578.0,954.0"/>
  <g class="node d1 b7" data-depth="1">
    <rect class="box" x="618.0" y="822.2" width="194.0" height="30.1" rx="9"/>
    <text x="628.0" y="842.2" font-size="14.5">実験設計とモデル当てはめ</text>
  </g>
  <g class="node d2 b7" data-depth="2">
    <rect class="box" x="415.0" y="706.4" width="163.0" height="28.2" rx="6"/>
    <text x="425.0" y="724.9" font-size="13.0">名目濃度でなく遊離濃度</text>
  </g>
  <g class="node d2 b7" data-depth="2">
    <rect class="box" x="389.0" y="742.6" width="189.0" height="28.2" rx="6"/>
    <text x="399.0" y="761.1" font-size="13.0">溶媒対照、無作為化、盲検化</text>
  </g>
  <g class="node d2 b7" data-depth="2">
    <rect class="box" x="389.0" y="778.8" width="189.0" height="28.2" rx="6"/>
    <text x="399.0" y="797.3" font-size="13.0">独立標本と反復ウェルの違い</text>
  </g>
  <g class="node d2 b7" data-depth="2">
    <rect class="box" x="337.0" y="814.9" width="241.0" height="28.2" rx="6"/>
    <text x="347.0" y="833.4" font-size="13.0">条件が曲線を変え、モデルは救えない</text>
  </g>
  <path class="link b7" data-depth="3" stroke-width="1.3" d="M374.4,864.8 C322.7,864.8 322.7,864.8 271.0,864.8"/>
  <g class="node d2 b7" data-depth="2">
    <rect class="box" x="374.4" y="850.7" width="203.6" height="28.2" rx="6"/>
    <text x="384.4" y="869.2" font-size="13.0">Hill係数は結合部位数ではない</text>
  </g>
  <g class="node d3 b7" data-depth="3">
    <rect class="box" x="88.5" y="851.1" width="182.5" height="27.5" rx="6"/>
    <text x="98.5" y="869.1" font-size="12.5">急傾斜：協同性、増幅、閾値</text>
  </g>
  <g class="node d2 b7" data-depth="2">
    <rect class="box" x="359.9" y="886.6" width="218.1" height="45.3" rx="6"/>
    <text x="369.9" y="905.1" font-size="13.0">プラトー欠如でEmaxとEC50の同定</text>
    <text x="369.9" y="922.2" font-size="13.0">は弱い</text>
  </g>
  <g class="node d2 b7" data-depth="2">
    <rect class="box" x="402.0" y="939.9" width="176.0" height="28.2" rx="6"/>
    <text x="412.0" y="958.4" font-size="13.0">自己正規化は効力差を隠す</text>
  </g>
  <path class="link b8" data-depth="2" stroke-width="1.8" d="M647.0,1043.9 C612.5,1043.9 612.5,989.8 578.0,989.8"/>
  <path class="link b8" data-depth="2" stroke-width="1.8" d="M647.0,1043.9 C612.5,1043.9 612.5,1025.6 578.0,1025.6"/>
  <path class="link b8" data-depth="2" stroke-width="1.8" d="M647.0,1043.9 C612.5,1043.9 612.5,1061.8 578.0,1061.8"/>
  <path class="link b8" data-depth="2" stroke-width="1.8" d="M647.0,1043.9 C612.5,1043.9 612.5,1098.0 578.0,1098.0"/>
  <g class="node d1 b8" data-depth="1">
    <rect class="box" x="647.0" y="1028.8" width="165.0" height="30.1" rx="9"/>
    <text x="657.0" y="1048.8" font-size="14.5">臨床移行と推論の文法</text>
  </g>
  <path class="link b8" data-depth="3" stroke-width="1.3" d="M376.0,989.8 C323.5,989.8 323.5,989.8 271.0,989.8"/>
  <g class="node d2 b8" data-depth="2">
    <rect class="box" x="376.0" y="975.7" width="202.0" height="28.2" rx="6"/>
    <text x="386.0" y="994.2" font-size="13.0">標的妥当性は治療価値ではない</text>
  </g>
  <g class="node d3 b8" data-depth="3">
    <rect class="box" x="63.5" y="976.1" width="207.5" height="27.5" rx="6"/>
    <text x="73.5" y="994.1" font-size="12.5">到達不能、冗長経路、別組織の害</text>
  </g>
  <g class="node d2 b8" data-depth="2">
    <rect class="box" x="454.0" y="1011.6" width="124.0" height="28.2" rx="6"/>
    <text x="464.0" y="1030.1" font-size="13.0">選択性は濃度依存</text>
  </g>
  <g class="node d2 b8" data-depth="2">
    <rect class="box" x="337.0" y="1047.7" width="241.0" height="28.2" rx="6"/>
    <text x="347.0" y="1066.2" font-size="13.0">達成可能な曝露、利益、許容可能な害</text>
  </g>
  <g class="node d2 b8" data-depth="2">
    <rect class="box" x="311.0" y="1083.9" width="267.0" height="28.2" rx="6"/>
    <text x="321.0" y="1102.4" font-size="13.0">系、評価項目、時間尺度、不確実性を明記</text>
  </g>
</svg>
