<svg xmlns="http://www.w3.org/2000/svg" class="mm" viewBox="0 0 2045 1711" width="2045" height="1711" role="img" aria-label="Antibodies, complement, Fc receptors, cytotoxic effectors">
<style>
  .mm-bg { fill: #faf8f4; }
  .mm text { font-family: Inter, ui-sans-serif, -apple-system, BlinkMacSystemFont, 'Segoe UI', sans-serif; fill: #1b1917; }
  .mm .link { fill: none; stroke: #c9c1b4; }
  .mm .box { fill: none; stroke: none; }
  .mm .d0 .box { fill: #1b1917; stroke: #1b1917; }
  .mm .d0 text { fill: #faf8f4; font-weight: 650; }
  .mm .d1 text { font-weight: 600; }

  .mm .link.b0 { stroke: #4b9ac6; }
  .mm .b0.d1 .box { fill: #d7e5eb; stroke: #0072B2; stroke-width: 1.5; }
  .mm .b0.d1 text { fill: #075c8b; }
  .mm .b0.d2 .box { fill: #e8efef; stroke: #70aed0; }
  .mm .b0.d3 text, .mm .b0.d4 text { fill: #075c8b; }

  .mm .link.b1 { stroke: #e08c49; }
  .mm .b1.d1 .box { fill: #f5e2d2; stroke: #D55E00; stroke-width: 1.5; }
  .mm .b1.d1 text { fill: #a64d06; }
  .mm .b1.d2 .box { fill: #f7ede3; stroke: #e6a36e; }
  .mm .b1.d3 text, .mm .b1.d4 text { fill: #a64d06; }

  .mm .link.b2 { stroke: #4bb99a; }
  .mm .b2.d1 .box { fill: #d7ebe2; stroke: #009E73; stroke-width: 1.5; }
  .mm .b2.d1 text { fill: #077d5c; }
  .mm .b2.d2 .box { fill: #e8f2eb; stroke: #70c6ad; }
  .mm .b2.d3 text, .mm .b2.d4 text { fill: #077d5c; }

  .mm .link.b3 { stroke: #da9fbe; }
  .mm .b3.d1 .box { fill: #f4e6e9; stroke: #CC79A7; stroke-width: 1.5; }
  .mm .b3.d1 text { fill: #985c7c; }
  .mm .b3.d2 .box { fill: #f7efef; stroke: #e1b2ca; }
  .mm .b3.d3 text, .mm .b3.d4 text { fill: #985c7c; }

  .mm .link.b4 { stroke: #bba149; }
  .mm .b4.d1 .box { fill: #ede7d2; stroke: #A07C00; stroke-width: 1.5; }
  .mm .b4.d1 text { fill: #7f6306; }
  .mm .b4.d2 .box { fill: #f4efe3; stroke: #c8b46e; }
  .mm .b4.d3 text, .mm .b4.d4 text { fill: #7f6306; }

  .mm .link.b5 { stroke: #84c1e2; }
  .mm .b5.d1 .box { fill: #e3eef2; stroke: #51a9db; stroke-width: 1.5; }
  .mm .b5.d1 text { fill: #3d7899; }
  .mm .b5.d2 .box { fill: #eff3f3; stroke: #9dcde6; }
  .mm .b5.d3 text, .mm .b5.d4 text { fill: #3d7899; }

  .mm .link.b6 { stroke: #9580b0; }
  .mm .b6.d1 .box { fill: #e6e0e6; stroke: #6A4C93; stroke-width: 1.5; }
  .mm .b6.d1 text { fill: #563f74; }
  .mm .b6.d2 .box { fill: #f0eced; stroke: #ab99bf; }
  .mm .b6.d3 text, .mm .b6.d4 text { fill: #563f74; }

  .mm .link.b7 { stroke: #98ac74; }
  .mm .b7.d1 .box { fill: #e6e9da; stroke: #6E8B3D; stroke-width: 1.5; }
  .mm .b7.d1 text { fill: #596e34; }
  .mm .b7.d2 .box { fill: #f0f0e7; stroke: #adbc8f; }
  .mm .b7.d3 text, .mm .b7.d4 text { fill: #596e34; }

  .mm .link.b8 { stroke: #e2b349; }
  .mm .b8.d1 .box { fill: #f7ecd2; stroke: #d89500; stroke-width: 1.5; }
  .mm .b8.d1 text { fill: #986a05; }
  .mm .b8.d2 .box { fill: #f9f2e3; stroke: #e7c26e; }
  .mm .b8.d3 text, .mm .b8.d4 text { fill: #986a05; }
@media (prefers-color-scheme: dark) {
  .mm-bg { fill: #12100e; }
  .mm text { font-family: Inter, ui-sans-serif, -apple-system, BlinkMacSystemFont, 'Segoe UI', sans-serif; fill: #ece7df; }
  .mm .link { fill: none; stroke: #3d3833; }
  .mm .box { fill: none; stroke: none; }
  .mm .d0 .box { fill: #ece7df; stroke: #ece7df; }
  .mm .d0 text { fill: #12100e; font-weight: 650; }
  .mm .d1 text { font-weight: 600; }

  .mm .link.b0 { stroke: #2d6a8d; }
  .mm .b0.d1 .box { fill: #172227; stroke: #3891c3; stroke-width: 1.5; }
  .mm .b0.d1 text { fill: #65a6ca; }
  .mm .b0.d2 .box { fill: #15191b; stroke: #275772; }
  .mm .b0.d3 text, .mm .b0.d4 text { fill: #65a6ca; }

  .mm .link.b1 { stroke: #a15f2b; }
  .mm .b1.d1 .box { fill: #2f2014; stroke: #de8138; stroke-width: 1.5; }
  .mm .b1.d1 text { fill: #e29a62; }
  .mm .b1.d2 .box { fill: #201811; stroke: #824e25; }
  .mm .b1.d3 text, .mm .b1.d4 text { fill: #e29a62; }

  .mm .link.b2 { stroke: #2d826a; }
  .mm .b2.d1 .box { fill: #172720; stroke: #38b392; stroke-width: 1.5; }
  .mm .b2.d1 text { fill: #65c0a5; }
  .mm .b2.d2 .box { fill: #151b17; stroke: #276a57; }
  .mm .b2.d3 text, .mm .b2.d4 text { fill: #65c0a5; }

  .mm .link.b3 { stroke: #9c6e86; }
  .mm .b3.d1 .box { fill: #2e2326; stroke: #d796ba; stroke-width: 1.5; }
  .mm .b3.d1 text { fill: #dcaac3; }
  .mm .b3.d2 .box { fill: #20191a; stroke: #7e5a6d; }
  .mm .b3.d3 text, .mm .b3.d4 text { fill: #dcaac3; }

  .mm .link.b4 { stroke: #84702b; }
  .mm .b4.d1 .box { fill: #292314; stroke: #b59938; stroke-width: 1.5; }
  .mm .b4.d1 text { fill: #c3ac62; }
  .mm .b4.d2 .box { fill: #1d1a11; stroke: #6c5b25; }
  .mm .b4.d3 text, .mm .b4.d4 text { fill: #c3ac62; }

  .mm .link.b5 { stroke: #5c8eab; }
  .mm .b5.d1 .box { fill: #21292d; stroke: #7bc4ee; stroke-width: 1.5; }
  .mm .b5.d1 text { fill: #97cdea; }
  .mm .b5.d2 .box { fill: #191d1e; stroke: #4c7389; }
  .mm .b5.d3 text, .mm .b5.d4 text { fill: #97cdea; }

  .mm .link.b6 { stroke: #67557c; }
  .mm .b6.d1 .box { fill: #231e24; stroke: #8b73ab; stroke-width: 1.5; }
  .mm .b6.d1 text { fill: #a390b8; }
  .mm .b6.d2 .box { fill: #1a1719; stroke: #554664; }
  .mm .b6.d3 text, .mm .b6.d4 text { fill: #a390b8; }

  .mm .link.b7 { stroke: #69784d; }
  .mm .b7.d1 .box { fill: #23251b; stroke: #8ea568; stroke-width: 1.5; }
  .mm .b7.d1 text { fill: #a6b686; }
  .mm .b7.d2 .box { fill: #1b1a14; stroke: #566240; }
  .mm .b7.d3 text, .mm .b7.d4 text { fill: #a6b686; }

  .mm .link.b8 { stroke: #ab832b; }
  .mm .b8.d1 .box { fill: #312714; stroke: #ecb438; stroke-width: 1.5; }
  .mm .b8.d1 text { fill: #ecc162; }
  .mm .b8.d2 .box { fill: #211b11; stroke: #8a6a25; }
  .mm .b8.d3 text, .mm .b8.d4 text { fill: #ecc162; }
}
</style>
  <rect class="mm-bg" width="2045" height="1711"/>
  <path class="link b0" data-depth="1" stroke-width="2.2" d="M1160.9,855.5 C919.5,855.5 919.5,155.3 678.1,155.3"/>
  <path class="link b1" data-depth="1" stroke-width="2.2" d="M1160.9,855.5 C1180.9,855.5 1180.9,164.0 1200.9,164.0"/>
  <path class="link b2" data-depth="1" stroke-width="2.2" d="M1160.9,855.5 C957.7,855.5 957.7,499.5 754.5,499.5"/>
  <path class="link b3" data-depth="1" stroke-width="2.2" d="M1160.9,855.5 C1180.9,855.5 1180.9,478.8 1200.9,478.8"/>
  <path class="link b4" data-depth="1" stroke-width="2.2" d="M1160.9,855.5 C1180.9,855.5 1180.9,802.8 1200.9,802.8"/>
  <path class="link b5" data-depth="1" stroke-width="2.2" d="M1160.9,855.5 C902.6,855.5 902.6,884.7 644.2,884.7"/>
  <path class="link b6" data-depth="1" stroke-width="2.2" d="M1160.9,855.5 C1180.9,855.5 1180.9,1197.7 1200.9,1197.7"/>
  <path class="link b7" data-depth="1" stroke-width="2.2" d="M1160.9,855.5 C906.8,855.5 906.8,1253.9 652.7,1253.9"/>
  <path class="link b8" data-depth="1" stroke-width="2.2" d="M1160.9,855.5 C889.8,855.5 889.8,1564.3 618.8,1564.3"/>
  <g class="node d0 b0" data-depth="0">
    <rect class="box" x="882.3" y="816.3" width="278.6" height="78.3" rx="9"/>
    <text x="892.3" y="838.8" font-size="17.0">Antibodies, complement, Fc</text>
    <text x="892.3" y="861.3" font-size="17.0">receptors, cytotoxic</text>
    <text x="892.3" y="883.7" font-size="17.0">effectors</text>
  </g>
  <path class="link b0" data-depth="2" stroke-width="1.8" d="M678.1,155.3 C628.4,155.3 628.4,48.7 578.8,48.7"/>
  <path class="link b0" data-depth="2" stroke-width="1.8" d="M678.1,155.3 C628.4,155.3 628.4,102.0 578.8,102.0"/>
  <path class="link b0" data-depth="2" stroke-width="1.8" d="M678.1,155.3 C628.4,155.3 628.4,155.3 578.8,155.3"/>
  <path class="link b0" data-depth="2" stroke-width="1.8" d="M678.1,155.3 C628.4,155.3 628.4,208.6 578.8,208.6"/>
  <path class="link b0" data-depth="2" stroke-width="1.8" d="M678.1,155.3 C628.4,155.3 628.4,261.9 578.8,261.9"/>
  <g class="node d1 b0" data-depth="1">
    <rect class="box" x="678.1" y="140.2" width="164.2" height="30.1" rx="9"/>
    <text x="688.1" y="160.2" font-size="14.5">Effector overview</text>
  </g>
  <g class="node d2 b0" data-depth="2">
    <rect class="box" x="331.4" y="26.0" width="247.4" height="45.3" rx="6"/>
    <text x="341.4" y="44.5" font-size="13.0">Neutralise, opsonise, complement,</text>
    <text x="341.4" y="61.7" font-size="13.0">kill, protect</text>
  </g>
  <g class="node d2 b0" data-depth="2">
    <rect class="box" x="400.3" y="79.3" width="178.5" height="45.3" rx="6"/>
    <text x="410.3" y="97.8" font-size="13.0">Antibodies give soluble</text>
    <text x="410.3" y="115.0" font-size="13.0">specificity</text>
  </g>
  <g class="node d2 b0" data-depth="2">
    <rect class="box" x="400.3" y="132.6" width="178.5" height="45.3" rx="6"/>
    <text x="410.3" y="151.1" font-size="13.0">Complement amplifies by</text>
    <text x="410.3" y="168.3" font-size="13.0">proteolytic cascades</text>
  </g>
  <g class="node d2 b0" data-depth="2">
    <rect class="box" x="324.5" y="186.0" width="254.3" height="45.3" rx="6"/>
    <text x="334.5" y="204.5" font-size="13.0">Fc receptors interpret isotype and</text>
    <text x="334.5" y="221.6" font-size="13.0">context</text>
  </g>
  <g class="node d2 b0" data-depth="2">
    <rect class="box" x="331.4" y="239.3" width="247.4" height="45.3" rx="6"/>
    <text x="341.4" y="257.8" font-size="13.0">Deposited or misdirected products</text>
    <text x="341.4" y="274.9" font-size="13.0">injure host</text>
  </g>
  <path class="link b1" data-depth="2" stroke-width="1.8" d="M1373.6,164.0 C1423.3,164.0 1423.3,40.1 1473.0,40.1"/>
  <path class="link b1" data-depth="2" stroke-width="1.8" d="M1373.6,164.0 C1423.3,164.0 1423.3,84.2 1473.0,84.2"/>
  <path class="link b1" data-depth="2" stroke-width="1.8" d="M1373.6,164.0 C1423.3,164.0 1423.3,136.8 1473.0,136.8"/>
  <path class="link b1" data-depth="2" stroke-width="1.8" d="M1373.6,164.0 C1423.3,164.0 1423.3,190.1 1473.0,190.1"/>
  <path class="link b1" data-depth="2" stroke-width="1.8" d="M1373.6,164.0 C1423.3,164.0 1423.3,243.5 1473.0,243.5"/>
  <path class="link b1" data-depth="2" stroke-width="1.8" d="M1373.6,164.0 C1423.3,164.0 1423.3,287.9 1473.0,287.9"/>
  <g class="node d1 b1" data-depth="1">
    <rect class="box" x="1200.9" y="148.9" width="172.7" height="30.1" rx="9"/>
    <text x="1210.9" y="168.9" font-size="14.5">Antibody structure</text>
  </g>
  <g class="node d2 b1" data-depth="2">
    <rect class="box" x="1473.0" y="26.0" width="226.7" height="28.2" rx="6"/>
    <text x="1483.0" y="44.5" font-size="13.0">Two heavy and two light chains</text>
  </g>
  <path class="link b1" data-depth="3" stroke-width="1.3" d="M1720.3,84.2 C1743.8,84.2 1743.8,84.2 1767.2,84.2"/>
  <g class="node d2 b1" data-depth="2">
    <rect class="box" x="1473.0" y="61.5" width="247.4" height="45.3" rx="6"/>
    <text x="1483.0" y="80.0" font-size="13.0">Variable domains form two binding</text>
    <text x="1483.0" y="97.2" font-size="13.0">sites</text>
  </g>
  <g class="node d3 b1" data-depth="3">
    <rect class="box" x="1767.2" y="62.2" width="251.9" height="44.0" rx="6"/>
    <text x="1777.2" y="80.2" font-size="12.5">Complementarity-determining regions</text>
    <text x="1777.2" y="96.7" font-size="12.5">contact antigen</text>
  </g>
  <g class="node d2 b1" data-depth="2">
    <rect class="box" x="1473.0" y="114.2" width="219.8" height="45.3" rx="6"/>
    <text x="1483.0" y="132.7" font-size="13.0">Fc region binds receptors and</text>
    <text x="1483.0" y="149.8" font-size="13.0">complement</text>
  </g>
  <g class="node d2 b1" data-depth="2">
    <rect class="box" x="1473.0" y="167.5" width="254.3" height="45.3" rx="6"/>
    <text x="1483.0" y="186.0" font-size="13.0">Hinge permits binding at different</text>
    <text x="1483.0" y="203.1" font-size="13.0">angles</text>
  </g>
  <g class="node d2 b1" data-depth="2">
    <rect class="box" x="1473.0" y="220.8" width="178.5" height="45.3" rx="6"/>
    <text x="1483.0" y="239.3" font-size="13.0">Fab and Fc separable by</text>
    <text x="1483.0" y="256.5" font-size="13.0">proteolysis</text>
  </g>
  <path class="link b1" data-depth="3" stroke-width="1.3" d="M1672.1,287.9 C1719.7,287.9 1719.7,287.9 1767.2,287.9"/>
  <g class="node d2 b1" data-depth="2">
    <rect class="box" x="1473.0" y="265.2" width="199.1" height="45.3" rx="6"/>
    <text x="1483.0" y="283.7" font-size="13.0">Affinity: one interaction;</text>
    <text x="1483.0" y="300.9" font-size="13.0">avidity: combined</text>
  </g>
  <g class="node d3 b1" data-depth="3">
    <rect class="box" x="1767.2" y="274.1" width="251.9" height="27.5" rx="6"/>
    <text x="1777.2" y="292.1" font-size="12.5">Low-affinity IgM gains high avidity</text>
  </g>
  <path class="link b2" data-depth="2" stroke-width="1.8" d="M754.5,499.5 C666.6,499.5 666.6,315.3 578.8,315.3"/>
  <path class="link b2" data-depth="2" stroke-width="1.8" d="M754.5,499.5 C666.6,499.5 666.6,367.9 578.8,367.9"/>
  <path class="link b2" data-depth="2" stroke-width="1.8" d="M754.5,499.5 C666.6,499.5 666.6,441.8 578.8,441.8"/>
  <path class="link b2" data-depth="2" stroke-width="1.8" d="M754.5,499.5 C666.6,499.5 666.6,529.3 578.8,529.3"/>
  <path class="link b2" data-depth="2" stroke-width="1.8" d="M754.5,499.5 C666.6,499.5 666.6,594.9 578.8,594.9"/>
  <path class="link b2" data-depth="2" stroke-width="1.8" d="M754.5,499.5 C666.6,499.5 666.6,639.0 578.8,639.0"/>
  <path class="link b2" data-depth="2" stroke-width="1.8" d="M754.5,499.5 C666.6,499.5 666.6,683.7 578.8,683.7"/>
  <g class="node d1 b2" data-depth="1">
    <rect class="box" x="754.5" y="484.4" width="87.9" height="30.1" rx="9"/>
    <text x="764.5" y="504.4" font-size="14.5">Isotypes</text>
  </g>
  <g class="node d2 b2" data-depth="2">
    <rect class="box" x="345.2" y="292.6" width="233.6" height="45.3" rx="6"/>
    <text x="355.2" y="311.1" font-size="13.0">Class switch keeps the variable</text>
    <text x="355.2" y="328.3" font-size="13.0">region</text>
  </g>
  <path class="link b2" data-depth="3" stroke-width="1.3" d="M414.1,367.9 C349.3,367.9 349.3,367.9 284.5,367.9"/>
  <g class="node d2 b2" data-depth="2">
    <rect class="box" x="414.1" y="345.3" width="164.7" height="45.3" rx="6"/>
    <text x="424.1" y="363.8" font-size="13.0">IgM: pentamer, early,</text>
    <text x="424.1" y="380.9" font-size="13.0">intravascular</text>
  </g>
  <g class="node d3 b2" data-depth="3">
    <rect class="box" x="65.8" y="345.9" width="218.7" height="44.0" rx="6"/>
    <text x="75.8" y="363.9" font-size="12.5">Timing limited by persistence,</text>
    <text x="75.8" y="380.4" font-size="12.5">cross-reaction</text>
  </g>
  <path class="link b2" data-depth="3" stroke-width="1.3" d="M365.8,441.8 C325.2,441.8 325.2,419.9 284.5,419.9"/>
  <path class="link b2" data-depth="3" stroke-width="1.3" d="M365.8,441.8 C325.2,441.8 325.2,463.7 284.5,463.7"/>
  <g class="node d2 b2" data-depth="2">
    <rect class="box" x="365.8" y="419.1" width="212.9" height="45.3" rx="6"/>
    <text x="375.8" y="437.6" font-size="13.0">IgG: neutralises, opsonises,</text>
    <text x="375.8" y="454.8" font-size="13.0">crosses placenta</text>
  </g>
  <g class="node d3 b2" data-depth="3">
    <rect class="box" x="79.0" y="397.9" width="205.5" height="44.0" rx="6"/>
    <text x="89.0" y="415.9" font-size="12.5">Neonatal Fc receptor extends</text>
    <text x="89.0" y="432.4" font-size="12.5">half-life</text>
  </g>
  <g class="node d3 b2" data-depth="3">
    <rect class="box" x="26.0" y="449.9" width="258.5" height="27.5" rx="6"/>
    <text x="36.0" y="467.9" font-size="12.5">Maternal autoantibodies can transfer</text>
  </g>
  <path class="link b2" data-depth="3" stroke-width="1.3" d="M338.3,529.3 C311.4,529.3 311.4,507.4 284.5,507.4"/>
  <path class="link b2" data-depth="3" stroke-width="1.3" d="M338.3,529.3 C311.4,529.3 311.4,551.2 284.5,551.2"/>
  <g class="node d2 b2" data-depth="2">
    <rect class="box" x="338.3" y="515.2" width="240.5" height="28.2" rx="6"/>
    <text x="348.3" y="533.7" font-size="13.0">Secretory IgA crosses epithelium</text>
  </g>
  <g class="node d3 b2" data-depth="3">
    <rect class="box" x="85.6" y="485.4" width="198.9" height="44.0" rx="6"/>
    <text x="95.6" y="503.4" font-size="12.5">Secretory component resists</text>
    <text x="95.6" y="519.9" font-size="12.5">proteolysis</text>
  </g>
  <g class="node d3 b2" data-depth="3">
    <rect class="box" x="26.0" y="537.4" width="258.5" height="27.5" rx="6"/>
    <text x="36.0" y="555.4" font-size="12.5">Neutralises with little inflammation</text>
  </g>
  <path class="link b2" data-depth="3" stroke-width="1.3" d="M331.4,594.9 C307.9,594.9 307.9,594.9 284.5,594.9"/>
  <g class="node d2 b2" data-depth="2">
    <rect class="box" x="331.4" y="580.8" width="247.4" height="28.2" rx="6"/>
    <text x="341.4" y="599.3" font-size="13.0">IgE arms mast cells and basophils</text>
  </g>
  <g class="node d3 b2" data-depth="3">
    <rect class="box" x="52.5" y="572.9" width="232.0" height="44.0" rx="6"/>
    <text x="62.5" y="590.9" font-size="12.5">Specific IgE shows sensitisation</text>
    <text x="62.5" y="607.4" font-size="12.5">only</text>
  </g>
  <g class="node d2 b2" data-depth="2">
    <rect class="box" x="331.4" y="624.9" width="247.4" height="28.2" rx="6"/>
    <text x="341.4" y="643.4" font-size="13.0">IgD: mainly naive B-cell receptor</text>
  </g>
  <g class="node d2 b2" data-depth="2">
    <rect class="box" x="365.8" y="661.1" width="212.9" height="45.3" rx="6"/>
    <text x="375.8" y="679.6" font-size="13.0">Kappa or lambda; light-chain</text>
    <text x="375.8" y="696.7" font-size="13.0">restriction</text>
  </g>
  <path class="link b3" data-depth="2" stroke-width="1.8" d="M1373.6,478.8 C1423.3,478.8 1423.3,341.1 1473.0,341.1"/>
  <path class="link b3" data-depth="2" stroke-width="1.8" d="M1373.6,478.8 C1423.3,478.8 1423.3,403.3 1473.0,403.3"/>
  <path class="link b3" data-depth="2" stroke-width="1.8" d="M1373.6,478.8 C1423.3,478.8 1423.3,456.6 1473.0,456.6"/>
  <path class="link b3" data-depth="2" stroke-width="1.8" d="M1373.6,478.8 C1423.3,478.8 1423.3,509.9 1473.0,509.9"/>
  <path class="link b3" data-depth="2" stroke-width="1.8" d="M1373.6,478.8 C1423.3,478.8 1423.3,563.2 1473.0,563.2"/>
  <path class="link b3" data-depth="2" stroke-width="1.8" d="M1373.6,478.8 C1423.3,478.8 1423.3,616.6 1473.0,616.6"/>
  <g class="node d1 b3" data-depth="1">
    <rect class="box" x="1200.9" y="454.2" width="172.7" height="49.3" rx="9"/>
    <text x="1210.9" y="474.2" font-size="14.5">Neutralisation and</text>
    <text x="1210.9" y="493.3" font-size="14.5">opsonisation</text>
  </g>
  <path class="link b3" data-depth="3" stroke-width="1.3" d="M1720.3,341.1 C1743.8,341.1 1743.8,323.4 1767.2,323.4"/>
  <path class="link b3" data-depth="3" stroke-width="1.3" d="M1720.3,341.1 C1743.8,341.1 1743.8,358.9 1767.2,358.9"/>
  <g class="node d2 b3" data-depth="2">
    <rect class="box" x="1473.0" y="318.5" width="247.4" height="45.3" rx="6"/>
    <text x="1483.0" y="337.0" font-size="13.0">Neutralisation blocks attachment,</text>
    <text x="1483.0" y="354.1" font-size="13.0">entry, toxins</text>
  </g>
  <g class="node d3 b3" data-depth="3">
    <rect class="box" x="1767.2" y="309.6" width="205.5" height="27.5" rx="6"/>
    <text x="1777.2" y="327.6" font-size="12.5">Needs epitope access, not Fc</text>
  </g>
  <g class="node d3 b3" data-depth="3">
    <rect class="box" x="1767.2" y="345.1" width="232.0" height="27.5" rx="6"/>
    <text x="1777.2" y="363.1" font-size="12.5">Viruses escape by epitope change</text>
  </g>
  <g class="node d2 b3" data-depth="2">
    <rect class="box" x="1473.0" y="380.6" width="233.6" height="45.3" rx="6"/>
    <text x="1483.0" y="399.1" font-size="13.0">Mucosal prevents establishment,</text>
    <text x="1483.0" y="416.3" font-size="13.0">systemic limits spread</text>
  </g>
  <g class="node d2 b3" data-depth="2">
    <rect class="box" x="1473.0" y="433.9" width="247.4" height="45.3" rx="6"/>
    <text x="1483.0" y="452.4" font-size="13.0">Fc gamma receptors bind clustered</text>
    <text x="1483.0" y="469.6" font-size="13.0">IgG</text>
  </g>
  <g class="node d2 b3" data-depth="2">
    <rect class="box" x="1473.0" y="487.3" width="192.2" height="45.3" rx="6"/>
    <text x="1483.0" y="505.8" font-size="13.0">Complement receptors bind</text>
    <text x="1483.0" y="522.9" font-size="13.0">deposited C3 fragments</text>
  </g>
  <g class="node d2 b3" data-depth="2">
    <rect class="box" x="1473.0" y="540.6" width="192.2" height="45.3" rx="6"/>
    <text x="1483.0" y="559.1" font-size="13.0">Activating and inhibitory</text>
    <text x="1483.0" y="576.2" font-size="13.0">receptors balance</text>
  </g>
  <g class="node d2 b3" data-depth="2">
    <rect class="box" x="1473.0" y="593.9" width="226.7" height="45.3" rx="6"/>
    <text x="1483.0" y="612.4" font-size="13.0">Soluble monomeric IgG triggers</text>
    <text x="1483.0" y="629.6" font-size="13.0">weakly</text>
  </g>
  <path class="link b4" data-depth="2" stroke-width="1.8" d="M1407.5,802.8 C1440.2,802.8 1440.2,669.9 1473.0,669.9"/>
  <path class="link b4" data-depth="2" stroke-width="1.8" d="M1407.5,802.8 C1440.2,802.8 1440.2,714.3 1473.0,714.3"/>
  <path class="link b4" data-depth="2" stroke-width="1.8" d="M1407.5,802.8 C1440.2,802.8 1440.2,771.7 1473.0,771.7"/>
  <path class="link b4" data-depth="2" stroke-width="1.8" d="M1407.5,802.8 C1440.2,802.8 1440.2,837.6 1473.0,837.6"/>
  <path class="link b4" data-depth="2" stroke-width="1.8" d="M1407.5,802.8 C1440.2,802.8 1440.2,882.4 1473.0,882.4"/>
  <path class="link b4" data-depth="2" stroke-width="1.8" d="M1407.5,802.8 C1440.2,802.8 1440.2,935.7 1473.0,935.7"/>
  <g class="node d1 b4" data-depth="1">
    <rect class="box" x="1200.9" y="787.7" width="206.6" height="30.1" rx="9"/>
    <text x="1210.9" y="807.7" font-size="14.5">B-cell diversification</text>
  </g>
  <g class="node d2 b4" data-depth="2">
    <rect class="box" x="1473.0" y="647.2" width="233.6" height="45.3" rx="6"/>
    <text x="1483.0" y="665.7" font-size="13.0">Switching needs CD40 signalling</text>
    <text x="1483.0" y="682.9" font-size="13.0">and cytokines</text>
  </g>
  <path class="link b4" data-depth="3" stroke-width="1.3" d="M1713.5,714.3 C1740.3,714.3 1740.3,714.3 1767.2,714.3"/>
  <g class="node d2 b4" data-depth="2">
    <rect class="box" x="1473.0" y="691.6" width="240.5" height="45.3" rx="6"/>
    <text x="1483.0" y="710.1" font-size="13.0">Intervening DNA deleted: largely</text>
    <text x="1483.0" y="727.3" font-size="13.0">irreversible</text>
  </g>
  <g class="node d3 b4" data-depth="3">
    <rect class="box" x="1767.2" y="700.5" width="238.6" height="27.5" rx="6"/>
    <text x="1777.2" y="718.5" font-size="12.5">Defects cause hyper-IgM syndromes</text>
  </g>
  <path class="link b4" data-depth="3" stroke-width="1.3" d="M1720.3,771.7 C1743.8,771.7 1743.8,749.8 1767.2,749.8"/>
  <path class="link b4" data-depth="3" stroke-width="1.3" d="M1720.3,771.7 C1743.8,771.7 1743.8,793.5 1767.2,793.5"/>
  <g class="node d2 b4" data-depth="2">
    <rect class="box" x="1473.0" y="749.0" width="247.4" height="45.3" rx="6"/>
    <text x="1483.0" y="767.5" font-size="13.0">Somatic hypermutation in germinal</text>
    <text x="1483.0" y="784.7" font-size="13.0">centres</text>
  </g>
  <g class="node d3 b4" data-depth="3">
    <rect class="box" x="1767.2" y="736.0" width="251.9" height="27.5" rx="6"/>
    <text x="1777.2" y="754.0" font-size="12.5">Clones compete for antigen and help</text>
  </g>
  <g class="node d3 b4" data-depth="3">
    <rect class="box" x="1767.2" y="771.5" width="179.0" height="44.0" rx="6"/>
    <text x="1777.2" y="789.5" font-size="12.5">Risks autoreactivity and</text>
    <text x="1777.2" y="806.0" font-size="12.5">translocation</text>
  </g>
  <g class="node d2 b4" data-depth="2">
    <rect class="box" x="1473.0" y="823.5" width="233.6" height="28.2" rx="6"/>
    <text x="1483.0" y="842.0" font-size="13.0">Plasma cells: abundant rough ER</text>
  </g>
  <g class="node d2 b4" data-depth="2">
    <rect class="box" x="1473.0" y="859.7" width="219.8" height="45.3" rx="6"/>
    <text x="1483.0" y="878.2" font-size="13.0">Long-lived cells in marrow or</text>
    <text x="1483.0" y="895.4" font-size="13.0">mucosal niches</text>
  </g>
  <g class="node d2 b4" data-depth="2">
    <rect class="box" x="1473.0" y="913.0" width="233.6" height="45.3" rx="6"/>
    <text x="1483.0" y="931.5" font-size="13.0">Serum level reflects production</text>
    <text x="1483.0" y="948.7" font-size="13.0">and catabolism</text>
  </g>
  <path class="link b5" data-depth="2" stroke-width="1.8" d="M644.2,884.7 C611.5,884.7 611.5,728.5 578.8,728.5"/>
  <path class="link b5" data-depth="2" stroke-width="1.8" d="M644.2,884.7 C611.5,884.7 611.5,773.2 578.8,773.2"/>
  <path class="link b5" data-depth="2" stroke-width="1.8" d="M644.2,884.7 C611.5,884.7 611.5,826.5 578.8,826.5"/>
  <path class="link b5" data-depth="2" stroke-width="1.8" d="M644.2,884.7 C611.5,884.7 611.5,871.3 578.8,871.3"/>
  <path class="link b5" data-depth="2" stroke-width="1.8" d="M644.2,884.7 C611.5,884.7 611.5,916.0 578.8,916.0"/>
  <path class="link b5" data-depth="2" stroke-width="1.8" d="M644.2,884.7 C611.5,884.7 611.5,960.4 578.8,960.4"/>
  <path class="link b5" data-depth="2" stroke-width="1.8" d="M644.2,884.7 C611.5,884.7 611.5,996.3 578.8,996.3"/>
  <path class="link b5" data-depth="2" stroke-width="1.8" d="M644.2,884.7 C611.5,884.7 611.5,1041.0 578.8,1041.0"/>
  <g class="node d1 b5" data-depth="1">
    <rect class="box" x="644.2" y="869.7" width="198.1" height="30.1" rx="9"/>
    <text x="654.2" y="889.7" font-size="14.5">Complement activation</text>
  </g>
  <g class="node d2 b5" data-depth="2">
    <rect class="box" x="365.8" y="714.4" width="212.9" height="28.2" rx="6"/>
    <text x="375.8" y="732.9" font-size="13.0">Classical: C1 binds antibody</text>
  </g>
  <g class="node d2 b5" data-depth="2">
    <rect class="box" x="345.2" y="750.6" width="233.6" height="45.3" rx="6"/>
    <text x="355.2" y="769.1" font-size="13.0">Lectin: mannose-binding lectin,</text>
    <text x="355.2" y="786.2" font-size="13.0">ficolins</text>
  </g>
  <g class="node d2 b5" data-depth="2">
    <rect class="box" x="372.7" y="803.9" width="206.0" height="45.3" rx="6"/>
    <text x="382.7" y="822.4" font-size="13.0">Alternative: spontaneous C3</text>
    <text x="382.7" y="839.5" font-size="13.0">activation</text>
  </g>
  <g class="node d2 b5" data-depth="2">
    <rect class="box" x="400.3" y="857.2" width="178.5" height="28.2" rx="6"/>
    <text x="410.3" y="875.7" font-size="13.0">All form C3 convertases</text>
  </g>
  <g class="node d2 b5" data-depth="2">
    <rect class="box" x="379.6" y="893.4" width="199.1" height="45.3" rx="6"/>
    <text x="389.6" y="911.9" font-size="13.0">C3b opsonises and forms C5</text>
    <text x="389.6" y="929.0" font-size="13.0">convertase</text>
  </g>
  <path class="link b5" data-depth="3" stroke-width="1.3" d="M331.4,960.4 C307.9,960.4 307.9,960.4 284.5,960.4"/>
  <g class="node d2 b5" data-depth="2">
    <rect class="box" x="331.4" y="946.4" width="247.4" height="28.2" rx="6"/>
    <text x="341.4" y="964.9" font-size="13.0">C5b to C9 membrane-attack complex</text>
  </g>
  <g class="node d3 b5" data-depth="3">
    <rect class="box" x="125.4" y="946.7" width="159.1" height="27.5" rx="6"/>
    <text x="135.4" y="964.7" font-size="12.5">Key against Neisseria</text>
  </g>
  <g class="node d2 b5" data-depth="2">
    <rect class="box" x="352.1" y="982.2" width="226.7" height="28.2" rx="6"/>
    <text x="362.1" y="1000.7" font-size="13.0">C3a and C5a are anaphylatoxins</text>
  </g>
  <g class="node d2 b5" data-depth="2">
    <rect class="box" x="331.4" y="1018.3" width="247.4" height="45.3" rx="6"/>
    <text x="341.4" y="1036.8" font-size="13.0">Fragments lower B-cell activation</text>
    <text x="341.4" y="1054.0" font-size="13.0">threshold</text>
  </g>
  <path class="link b6" data-depth="2" stroke-width="1.8" d="M1433.0,1197.7 C1453.0,1197.7 1453.0,997.8 1473.0,997.8"/>
  <path class="link b6" data-depth="2" stroke-width="1.8" d="M1433.0,1197.7 C1453.0,1197.7 1453.0,1051.4 1473.0,1051.4"/>
  <path class="link b6" data-depth="2" stroke-width="1.8" d="M1433.0,1197.7 C1453.0,1197.7 1453.0,1087.6 1473.0,1087.6"/>
  <path class="link b6" data-depth="2" stroke-width="1.8" d="M1433.0,1197.7 C1453.0,1197.7 1453.0,1132.3 1473.0,1132.3"/>
  <path class="link b6" data-depth="2" stroke-width="1.8" d="M1433.0,1197.7 C1453.0,1197.7 1453.0,1185.0 1473.0,1185.0"/>
  <path class="link b6" data-depth="2" stroke-width="1.8" d="M1433.0,1197.7 C1453.0,1197.7 1453.0,1237.6 1473.0,1237.6"/>
  <path class="link b6" data-depth="2" stroke-width="1.8" d="M1433.0,1197.7 C1453.0,1197.7 1453.0,1291.0 1473.0,1291.0"/>
  <path class="link b6" data-depth="2" stroke-width="1.8" d="M1433.0,1197.7 C1453.0,1197.7 1453.0,1344.3 1473.0,1344.3"/>
  <path class="link b6" data-depth="2" stroke-width="1.8" d="M1433.0,1197.7 C1453.0,1197.7 1453.0,1397.6 1473.0,1397.6"/>
  <g class="node d1 b6" data-depth="1">
    <rect class="box" x="1200.9" y="1173.1" width="232.1" height="49.3" rx="9"/>
    <text x="1210.9" y="1193.1" font-size="14.5">Complement regulation and</text>
    <text x="1210.9" y="1212.2" font-size="14.5">deficiency</text>
  </g>
  <path class="link b6" data-depth="3" stroke-width="1.3" d="M1713.5,997.8 C1740.3,997.8 1740.3,980.1 1767.2,980.1"/>
  <path class="link b6" data-depth="3" stroke-width="1.3" d="M1713.5,997.8 C1740.3,997.8 1740.3,1015.6 1767.2,1015.6"/>
  <g class="node d2 b6" data-depth="2">
    <rect class="box" x="1473.0" y="975.2" width="240.5" height="45.3" rx="6"/>
    <text x="1483.0" y="993.7" font-size="13.0">C1 inhibitor restrains early and</text>
    <text x="1483.0" y="1010.8" font-size="13.0">contact proteases</text>
  </g>
  <g class="node d3 b6" data-depth="3">
    <rect class="box" x="1767.2" y="966.3" width="238.6" height="27.5" rx="6"/>
    <text x="1777.2" y="984.3" font-size="12.5">Deficiency: bradykinin angioedema</text>
  </g>
  <g class="node d3 b6" data-depth="3">
    <rect class="box" x="1767.2" y="1001.8" width="245.2" height="27.5" rx="6"/>
    <text x="1777.2" y="1019.8" font-size="12.5">Antihistamines may be insufficient</text>
  </g>
  <g class="node d2 b6" data-depth="2">
    <rect class="box" x="1473.0" y="1037.3" width="226.7" height="28.2" rx="6"/>
    <text x="1483.0" y="1055.8" font-size="13.0">Factors H and I inactivate C3b</text>
  </g>
  <g class="node d2 b6" data-depth="2">
    <rect class="box" x="1473.0" y="1073.5" width="247.4" height="28.2" rx="6"/>
    <text x="1483.0" y="1092.0" font-size="13.0">DAF and membrane-cofactor protein</text>
  </g>
  <g class="node d2 b6" data-depth="2">
    <rect class="box" x="1473.0" y="1109.7" width="192.2" height="45.3" rx="6"/>
    <text x="1483.0" y="1128.2" font-size="13.0">CD59 blocks terminal pore</text>
    <text x="1483.0" y="1145.3" font-size="13.0">formation</text>
  </g>
  <path class="link b6" data-depth="3" stroke-width="1.3" d="M1630.8,1185.0 C1699.0,1185.0 1699.0,1185.0 1767.2,1185.0"/>
  <g class="node d2 b6" data-depth="2">
    <rect class="box" x="1473.0" y="1162.3" width="157.8" height="45.3" rx="6"/>
    <text x="1483.0" y="1180.8" font-size="13.0">Paroxysmal nocturnal</text>
    <text x="1483.0" y="1198.0" font-size="13.0">haemoglobinuria</text>
  </g>
  <g class="node d3 b6" data-depth="3">
    <rect class="box" x="1767.2" y="1163.0" width="232.0" height="44.0" rx="6"/>
    <text x="1777.2" y="1181.0" font-size="12.5">GPI regulator loss: cell injury,</text>
    <text x="1777.2" y="1197.5" font-size="12.5">thrombosis</text>
  </g>
  <g class="node d2 b6" data-depth="2">
    <rect class="box" x="1473.0" y="1215.0" width="206.0" height="45.3" rx="6"/>
    <text x="1483.0" y="1233.5" font-size="13.0">Early classical deficiency:</text>
    <text x="1483.0" y="1250.6" font-size="13.0">lupus-like disease</text>
  </g>
  <g class="node d2 b6" data-depth="2">
    <rect class="box" x="1473.0" y="1268.3" width="247.4" height="45.3" rx="6"/>
    <text x="1483.0" y="1286.8" font-size="13.0">C3 deficiency: recurrent pyogenic</text>
    <text x="1483.0" y="1304.0" font-size="13.0">infection</text>
  </g>
  <g class="node d2 b6" data-depth="2">
    <rect class="box" x="1473.0" y="1321.6" width="226.7" height="45.3" rx="6"/>
    <text x="1483.0" y="1340.1" font-size="13.0">Terminal deficiency: Neisseria</text>
    <text x="1483.0" y="1357.3" font-size="13.0">infection</text>
  </g>
  <g class="node d2 b6" data-depth="2">
    <rect class="box" x="1473.0" y="1374.9" width="233.6" height="45.3" rx="6"/>
    <text x="1483.0" y="1393.4" font-size="13.0">Functional assays before single</text>
    <text x="1483.0" y="1410.6" font-size="13.0">components</text>
  </g>
  <path class="link b7" data-depth="2" stroke-width="1.8" d="M652.7,1253.9 C615.7,1253.9 615.7,1094.3 578.8,1094.3"/>
  <path class="link b7" data-depth="2" stroke-width="1.8" d="M652.7,1253.9 C615.7,1253.9 615.7,1147.6 578.8,1147.6"/>
  <path class="link b7" data-depth="2" stroke-width="1.8" d="M652.7,1253.9 C615.7,1253.9 615.7,1201.0 578.8,1201.0"/>
  <path class="link b7" data-depth="2" stroke-width="1.8" d="M652.7,1253.9 C615.7,1253.9 615.7,1254.3 578.8,1254.3"/>
  <path class="link b7" data-depth="2" stroke-width="1.8" d="M652.7,1253.9 C615.7,1253.9 615.7,1307.6 578.8,1307.6"/>
  <path class="link b7" data-depth="2" stroke-width="1.8" d="M652.7,1253.9 C615.7,1253.9 615.7,1360.9 578.8,1360.9"/>
  <path class="link b7" data-depth="2" stroke-width="1.8" d="M652.7,1253.9 C615.7,1253.9 615.7,1413.6 578.8,1413.6"/>
  <g class="node d1 b7" data-depth="1">
    <rect class="box" x="652.7" y="1229.3" width="189.7" height="49.3" rx="9"/>
    <text x="662.7" y="1249.3" font-size="14.5">Immune complexes and</text>
    <text x="662.7" y="1268.4" font-size="14.5">cytotoxicity</text>
  </g>
  <g class="node d2 b7" data-depth="2">
    <rect class="box" x="359.0" y="1071.7" width="219.8" height="45.3" rx="6"/>
    <text x="369.0" y="1090.2" font-size="13.0">Size, ratio, charge, flow set</text>
    <text x="369.0" y="1107.3" font-size="13.0">deposition</text>
  </g>
  <g class="node d2 b7" data-depth="2">
    <rect class="box" x="338.3" y="1125.0" width="240.5" height="45.3" rx="6"/>
    <text x="348.3" y="1143.5" font-size="13.0">Erythrocyte receptors carry them</text>
    <text x="348.3" y="1160.6" font-size="13.0">to liver, spleen</text>
  </g>
  <g class="node d2 b7" data-depth="2">
    <rect class="box" x="345.2" y="1178.3" width="233.6" height="45.3" rx="6"/>
    <text x="355.2" y="1196.8" font-size="13.0">Persistent complexes deposit in</text>
    <text x="355.2" y="1214.0" font-size="13.0">glomeruli, vessels</text>
  </g>
  <g class="node d2 b7" data-depth="2">
    <rect class="box" x="338.3" y="1231.6" width="240.5" height="45.3" rx="6"/>
    <text x="348.3" y="1250.1" font-size="13.0">CD16 antibody-dependent cellular</text>
    <text x="348.3" y="1267.3" font-size="13.0">cytotoxicity</text>
  </g>
  <g class="node d2 b7" data-depth="2">
    <rect class="box" x="338.3" y="1284.9" width="240.5" height="45.3" rx="6"/>
    <text x="348.3" y="1303.4" font-size="13.0">Eosinophils attack helminths too</text>
    <text x="348.3" y="1320.6" font-size="13.0">large to engulf</text>
  </g>
  <g class="node d2 b7" data-depth="2">
    <rect class="box" x="352.1" y="1338.3" width="226.7" height="45.3" rx="6"/>
    <text x="362.1" y="1356.8" font-size="13.0">Fc engineering alters potency,</text>
    <text x="362.1" y="1373.9" font-size="13.0">half-life</text>
  </g>
  <path class="link b7" data-depth="3" stroke-width="1.3" d="M386.5,1413.6 C335.5,1413.6 335.5,1413.6 284.5,1413.6"/>
  <g class="node d2 b7" data-depth="2">
    <rect class="box" x="386.5" y="1390.9" width="192.2" height="45.3" rx="6"/>
    <text x="396.5" y="1409.4" font-size="13.0">Cytotoxic T cells:</text>
    <text x="396.5" y="1426.6" font-size="13.0">perforin-granzyme and Fas</text>
  </g>
  <g class="node d3 b7" data-depth="3">
    <rect class="box" x="72.4" y="1391.6" width="212.1" height="44.0" rx="6"/>
    <text x="82.4" y="1409.6" font-size="12.5">Defects cause haemophagocytic</text>
    <text x="82.4" y="1426.1" font-size="12.5">lymphohistiocytosis</text>
  </g>
  <path class="link b8" data-depth="2" stroke-width="1.8" d="M618.8,1564.3 C598.8,1564.3 598.8,1466.2 578.8,1466.2"/>
  <path class="link b8" data-depth="2" stroke-width="1.8" d="M618.8,1564.3 C598.8,1564.3 598.8,1511.0 578.8,1511.0"/>
  <path class="link b8" data-depth="2" stroke-width="1.8" d="M618.8,1564.3 C598.8,1564.3 598.8,1555.7 578.8,1555.7"/>
  <path class="link b8" data-depth="2" stroke-width="1.8" d="M618.8,1564.3 C598.8,1564.3 598.8,1609.0 578.8,1609.0"/>
  <path class="link b8" data-depth="2" stroke-width="1.8" d="M618.8,1564.3 C598.8,1564.3 598.8,1662.4 578.8,1662.4"/>
  <g class="node d1 b8" data-depth="1">
    <rect class="box" x="618.8" y="1549.2" width="223.6" height="30.1" rx="9"/>
    <text x="628.8" y="1569.2" font-size="14.5">Access and amplification</text>
  </g>
  <g class="node d2 b8" data-depth="2">
    <rect class="box" x="338.3" y="1443.6" width="240.5" height="45.3" rx="6"/>
    <text x="348.3" y="1462.1" font-size="13.0">IgG in blood, IgA at mucosa, IgE</text>
    <text x="348.3" y="1479.2" font-size="13.0">in tissue</text>
  </g>
  <g class="node d2 b8" data-depth="2">
    <rect class="box" x="345.2" y="1496.9" width="233.6" height="28.2" rx="6"/>
    <text x="355.2" y="1515.4" font-size="13.0">Cytotoxic cells require contact</text>
  </g>
  <g class="node d2 b8" data-depth="2">
    <rect class="box" x="352.1" y="1533.1" width="226.7" height="45.3" rx="6"/>
    <text x="362.1" y="1551.6" font-size="13.0">Abundant defence fails without</text>
    <text x="362.1" y="1568.7" font-size="13.0">access</text>
  </g>
  <g class="node d2 b8" data-depth="2">
    <rect class="box" x="324.5" y="1586.4" width="254.3" height="45.3" rx="6"/>
    <text x="334.5" y="1604.9" font-size="13.0">Regulators protect host, clearance</text>
    <text x="334.5" y="1622.0" font-size="13.0">ends response</text>
  </g>
  <g class="node d2 b8" data-depth="2">
    <rect class="box" x="331.4" y="1639.7" width="247.4" height="45.3" rx="6"/>
    <text x="341.4" y="1658.2" font-size="13.0">Node failure: infection, allergy,</text>
    <text x="341.4" y="1675.4" font-size="13.0">autoimmunity</text>
  </g>
</svg>
