<svg xmlns="http://www.w3.org/2000/svg" class="mm" viewBox="0 0 2111 1559" width="2111" height="1559" role="img" aria-label="Bony pelvis, walls, floor, fascia, vessels, and nerves">
<style>
  .mm-bg { fill: #faf8f4; }
  .mm text { font-family: Inter, ui-sans-serif, -apple-system, BlinkMacSystemFont, 'Segoe UI', sans-serif; fill: #1b1917; }
  .mm .link { fill: none; stroke: #c9c1b4; }
  .mm .box { fill: none; stroke: none; }
  .mm .d0 .box { fill: #1b1917; stroke: #1b1917; }
  .mm .d0 text { fill: #faf8f4; font-weight: 650; }
  .mm .d1 text { font-weight: 600; }

  .mm .link.b0 { stroke: #4b9ac6; }
  .mm .b0.d1 .box { fill: #d7e5eb; stroke: #0072B2; stroke-width: 1.5; }
  .mm .b0.d1 text { fill: #075c8b; }
  .mm .b0.d2 .box { fill: #e8efef; stroke: #70aed0; }
  .mm .b0.d3 text, .mm .b0.d4 text { fill: #075c8b; }

  .mm .link.b1 { stroke: #e08c49; }
  .mm .b1.d1 .box { fill: #f5e2d2; stroke: #D55E00; stroke-width: 1.5; }
  .mm .b1.d1 text { fill: #a64d06; }
  .mm .b1.d2 .box { fill: #f7ede3; stroke: #e6a36e; }
  .mm .b1.d3 text, .mm .b1.d4 text { fill: #a64d06; }

  .mm .link.b2 { stroke: #4bb99a; }
  .mm .b2.d1 .box { fill: #d7ebe2; stroke: #009E73; stroke-width: 1.5; }
  .mm .b2.d1 text { fill: #077d5c; }
  .mm .b2.d2 .box { fill: #e8f2eb; stroke: #70c6ad; }
  .mm .b2.d3 text, .mm .b2.d4 text { fill: #077d5c; }

  .mm .link.b3 { stroke: #da9fbe; }
  .mm .b3.d1 .box { fill: #f4e6e9; stroke: #CC79A7; stroke-width: 1.5; }
  .mm .b3.d1 text { fill: #985c7c; }
  .mm .b3.d2 .box { fill: #f7efef; stroke: #e1b2ca; }
  .mm .b3.d3 text, .mm .b3.d4 text { fill: #985c7c; }

  .mm .link.b4 { stroke: #bba149; }
  .mm .b4.d1 .box { fill: #ede7d2; stroke: #A07C00; stroke-width: 1.5; }
  .mm .b4.d1 text { fill: #7f6306; }
  .mm .b4.d2 .box { fill: #f4efe3; stroke: #c8b46e; }
  .mm .b4.d3 text, .mm .b4.d4 text { fill: #7f6306; }

  .mm .link.b5 { stroke: #84c1e2; }
  .mm .b5.d1 .box { fill: #e3eef2; stroke: #51a9db; stroke-width: 1.5; }
  .mm .b5.d1 text { fill: #3d7899; }
  .mm .b5.d2 .box { fill: #eff3f3; stroke: #9dcde6; }
  .mm .b5.d3 text, .mm .b5.d4 text { fill: #3d7899; }

  .mm .link.b6 { stroke: #9580b0; }
  .mm .b6.d1 .box { fill: #e6e0e6; stroke: #6A4C93; stroke-width: 1.5; }
  .mm .b6.d1 text { fill: #563f74; }
  .mm .b6.d2 .box { fill: #f0eced; stroke: #ab99bf; }
  .mm .b6.d3 text, .mm .b6.d4 text { fill: #563f74; }

  .mm .link.b7 { stroke: #98ac74; }
  .mm .b7.d1 .box { fill: #e6e9da; stroke: #6E8B3D; stroke-width: 1.5; }
  .mm .b7.d1 text { fill: #596e34; }
  .mm .b7.d2 .box { fill: #f0f0e7; stroke: #adbc8f; }
  .mm .b7.d3 text, .mm .b7.d4 text { fill: #596e34; }
@media (prefers-color-scheme: dark) {
  .mm-bg { fill: #12100e; }
  .mm text { font-family: Inter, ui-sans-serif, -apple-system, BlinkMacSystemFont, 'Segoe UI', sans-serif; fill: #ece7df; }
  .mm .link { fill: none; stroke: #3d3833; }
  .mm .box { fill: none; stroke: none; }
  .mm .d0 .box { fill: #ece7df; stroke: #ece7df; }
  .mm .d0 text { fill: #12100e; font-weight: 650; }
  .mm .d1 text { font-weight: 600; }

  .mm .link.b0 { stroke: #2d6a8d; }
  .mm .b0.d1 .box { fill: #172227; stroke: #3891c3; stroke-width: 1.5; }
  .mm .b0.d1 text { fill: #65a6ca; }
  .mm .b0.d2 .box { fill: #15191b; stroke: #275772; }
  .mm .b0.d3 text, .mm .b0.d4 text { fill: #65a6ca; }

  .mm .link.b1 { stroke: #a15f2b; }
  .mm .b1.d1 .box { fill: #2f2014; stroke: #de8138; stroke-width: 1.5; }
  .mm .b1.d1 text { fill: #e29a62; }
  .mm .b1.d2 .box { fill: #201811; stroke: #824e25; }
  .mm .b1.d3 text, .mm .b1.d4 text { fill: #e29a62; }

  .mm .link.b2 { stroke: #2d826a; }
  .mm .b2.d1 .box { fill: #172720; stroke: #38b392; stroke-width: 1.5; }
  .mm .b2.d1 text { fill: #65c0a5; }
  .mm .b2.d2 .box { fill: #151b17; stroke: #276a57; }
  .mm .b2.d3 text, .mm .b2.d4 text { fill: #65c0a5; }

  .mm .link.b3 { stroke: #9c6e86; }
  .mm .b3.d1 .box { fill: #2e2326; stroke: #d796ba; stroke-width: 1.5; }
  .mm .b3.d1 text { fill: #dcaac3; }
  .mm .b3.d2 .box { fill: #20191a; stroke: #7e5a6d; }
  .mm .b3.d3 text, .mm .b3.d4 text { fill: #dcaac3; }

  .mm .link.b4 { stroke: #84702b; }
  .mm .b4.d1 .box { fill: #292314; stroke: #b59938; stroke-width: 1.5; }
  .mm .b4.d1 text { fill: #c3ac62; }
  .mm .b4.d2 .box { fill: #1d1a11; stroke: #6c5b25; }
  .mm .b4.d3 text, .mm .b4.d4 text { fill: #c3ac62; }

  .mm .link.b5 { stroke: #5c8eab; }
  .mm .b5.d1 .box { fill: #21292d; stroke: #7bc4ee; stroke-width: 1.5; }
  .mm .b5.d1 text { fill: #97cdea; }
  .mm .b5.d2 .box { fill: #191d1e; stroke: #4c7389; }
  .mm .b5.d3 text, .mm .b5.d4 text { fill: #97cdea; }

  .mm .link.b6 { stroke: #67557c; }
  .mm .b6.d1 .box { fill: #231e24; stroke: #8b73ab; stroke-width: 1.5; }
  .mm .b6.d1 text { fill: #a390b8; }
  .mm .b6.d2 .box { fill: #1a1719; stroke: #554664; }
  .mm .b6.d3 text, .mm .b6.d4 text { fill: #a390b8; }

  .mm .link.b7 { stroke: #69784d; }
  .mm .b7.d1 .box { fill: #23251b; stroke: #8ea568; stroke-width: 1.5; }
  .mm .b7.d1 text { fill: #a6b686; }
  .mm .b7.d2 .box { fill: #1b1a14; stroke: #566240; }
  .mm .b7.d3 text, .mm .b7.d4 text { fill: #a6b686; }
}
</style>
  <rect class="mm-bg" width="2111" height="1559"/>
  <path class="link b0" data-depth="1" stroke-width="2.2" d="M1203.3,779.7 C1223.3,779.7 1223.3,328.0 1243.3,328.0"/>
  <path class="link b1" data-depth="1" stroke-width="2.2" d="M1203.3,779.7 C932.2,779.7 932.2,183.1 661.2,183.1"/>
  <path class="link b2" data-depth="1" stroke-width="2.2" d="M1203.3,779.7 C1223.3,779.7 1223.3,756.4 1243.3,756.4"/>
  <path class="link b3" data-depth="1" stroke-width="2.2" d="M1203.3,779.7 C966.2,779.7 966.2,536.0 729.0,536.0"/>
  <path class="link b4" data-depth="1" stroke-width="2.2" d="M1203.3,779.7 C911.0,779.7 911.0,907.6 618.8,907.6"/>
  <path class="link b5" data-depth="1" stroke-width="2.2" d="M1203.3,779.7 C1223.3,779.7 1223.3,1061.5 1243.3,1061.5"/>
  <path class="link b6" data-depth="1" stroke-width="2.2" d="M1203.3,779.7 C915.3,779.7 915.3,1232.1 627.2,1232.1"/>
  <path class="link b7" data-depth="1" stroke-width="2.2" d="M1203.3,779.7 C1223.3,779.7 1223.3,1381.8 1243.3,1381.8"/>
  <g class="node d0 b0" data-depth="0">
    <rect class="box" x="924.8" y="740.6" width="278.6" height="78.3" rx="9"/>
    <text x="934.8" y="763.1" font-size="17.0">Bony pelvis, walls, floor,</text>
    <text x="934.8" y="785.5" font-size="17.0">fascia, vessels, and</text>
    <text x="934.8" y="808.0" font-size="17.0">nerves</text>
  </g>
  <path class="link b0" data-depth="2" stroke-width="1.8" d="M1390.6,328.0 C1461.5,328.0 1461.5,48.7 1532.4,48.7"/>
  <path class="link b0" data-depth="2" stroke-width="1.8" d="M1390.6,328.0 C1461.5,328.0 1461.5,101.3 1532.4,101.3"/>
  <path class="link b0" data-depth="2" stroke-width="1.8" d="M1390.6,328.0 C1461.5,328.0 1461.5,166.9 1532.4,166.9"/>
  <path class="link b0" data-depth="2" stroke-width="1.8" d="M1390.6,328.0 C1461.5,328.0 1461.5,250.3 1532.4,250.3"/>
  <path class="link b0" data-depth="2" stroke-width="1.8" d="M1390.6,328.0 C1461.5,328.0 1461.5,303.6 1532.4,303.6"/>
  <path class="link b0" data-depth="2" stroke-width="1.8" d="M1390.6,328.0 C1461.5,328.0 1461.5,451.3 1532.4,451.3"/>
  <path class="link b0" data-depth="2" stroke-width="1.8" d="M1390.6,328.0 C1461.5,328.0 1461.5,607.3 1532.4,607.3"/>
  <g class="node d1 b0" data-depth="1">
    <rect class="box" x="1243.3" y="312.9" width="147.2" height="30.1" rx="9"/>
    <text x="1253.3" y="332.9" font-size="14.5">The pelvic ring</text>
  </g>
  <g class="node d2 b0" data-depth="2">
    <rect class="box" x="1532.4" y="26.0" width="233.6" height="45.3" rx="6"/>
    <text x="1542.4" y="44.5" font-size="13.0">Hip bone: ilium, ischium, pubis</text>
    <text x="1542.4" y="61.7" font-size="13.0">fused at acetabulum</text>
  </g>
  <path class="link b0" data-depth="3" stroke-width="1.3" d="M1772.8,101.3 C1799.7,101.3 1799.7,101.3 1826.6,101.3"/>
  <g class="node d2 b0" data-depth="2">
    <rect class="box" x="1532.4" y="78.7" width="240.5" height="45.3" rx="6"/>
    <text x="1542.4" y="97.2" font-size="13.0">Symphysis anteriorly, sacroiliac</text>
    <text x="1542.4" y="114.3" font-size="13.0">joints posteriorly</text>
  </g>
  <g class="node d3 b0" data-depth="3">
    <rect class="box" x="1826.6" y="79.3" width="232.0" height="44.0" rx="6"/>
    <text x="1836.6" y="97.3" font-size="12.5">Closed ring: one break, look for</text>
    <text x="1836.6" y="113.8" font-size="12.5">another</text>
  </g>
  <path class="link b0" data-depth="3" stroke-width="1.3" d="M1786.6,166.9 C1806.6,166.9 1806.6,145.1 1826.6,145.1"/>
  <path class="link b0" data-depth="3" stroke-width="1.3" d="M1786.6,166.9 C1806.6,166.9 1806.6,188.8 1826.6,188.8"/>
  <g class="node d2 b0" data-depth="2">
    <rect class="box" x="1532.4" y="144.3" width="254.3" height="45.3" rx="6"/>
    <text x="1542.4" y="162.8" font-size="13.0">Brim separates greater from lesser</text>
    <text x="1542.4" y="179.9" font-size="13.0">pelvis</text>
  </g>
  <g class="node d3 b0" data-depth="3">
    <rect class="box" x="1826.6" y="131.3" width="165.7" height="27.5" rx="6"/>
    <text x="1836.6" y="149.3" font-size="12.5">Inlet in plane of brim</text>
  </g>
  <g class="node d3 b0" data-depth="3">
    <rect class="box" x="1826.6" y="166.8" width="238.6" height="44.0" rx="6"/>
    <text x="1836.6" y="184.8" font-size="12.5">Outlet: pubic arch, tuberosities,</text>
    <text x="1836.6" y="201.3" font-size="12.5">sacrotuberous, coccyx</text>
  </g>
  <path class="link b0" data-depth="3" stroke-width="1.3" d="M1738.4,250.3 C1782.5,250.3 1782.5,232.6 1826.6,232.6"/>
  <path class="link b0" data-depth="3" stroke-width="1.3" d="M1738.4,250.3 C1782.5,250.3 1782.5,268.1 1826.6,268.1"/>
  <g class="node d2 b0" data-depth="2">
    <rect class="box" x="1532.4" y="227.7" width="206.0" height="45.3" rx="6"/>
    <text x="1542.4" y="246.2" font-size="13.0">Sacrospinous, sacrotuberous</text>
    <text x="1542.4" y="263.3" font-size="13.0">ligaments</text>
  </g>
  <g class="node d3 b0" data-depth="3">
    <rect class="box" x="1826.6" y="218.8" width="212.1" height="27.5" rx="6"/>
    <text x="1836.6" y="236.8" font-size="12.5">Convert notches into foramina</text>
  </g>
  <g class="node d3 b0" data-depth="3">
    <rect class="box" x="1826.6" y="254.3" width="165.7" height="27.5" rx="6"/>
    <text x="1836.6" y="272.3" font-size="12.5">Resist sacral rotation</text>
  </g>
  <path class="link b0" data-depth="3" stroke-width="1.3" d="M1779.7,303.6 C1803.2,303.6 1803.2,303.6 1826.6,303.6"/>
  <g class="node d2 b0" data-depth="2">
    <rect class="box" x="1532.4" y="280.9" width="247.4" height="45.3" rx="6"/>
    <text x="1542.4" y="299.4" font-size="13.0">Sacroiliac joint: synovial front,</text>
    <text x="1542.4" y="316.6" font-size="13.0">posterior syndesmosis</text>
  </g>
  <g class="node d3 b0" data-depth="3">
    <rect class="box" x="1826.6" y="289.8" width="238.6" height="27.5" rx="6"/>
    <text x="1836.6" y="307.8" font-size="12.5">Weight wedges sacrum between ilia</text>
  </g>
  <path class="link b0" data-depth="3" stroke-width="1.3" d="M1786.6,451.3 C1806.6,451.3 1806.6,347.3 1826.6,347.3"/>
  <path class="link b0" data-depth="3" stroke-width="1.3" d="M1786.6,451.3 C1806.6,451.3 1806.6,399.3 1826.6,399.3"/>
  <path class="link b0" data-depth="3" stroke-width="1.3" d="M1786.6,451.3 C1806.6,451.3 1806.6,451.3 1826.6,451.3"/>
  <path class="link b0" data-depth="3" stroke-width="1.3" d="M1786.6,451.3 C1806.6,451.3 1806.6,503.3 1826.6,503.3"/>
  <path class="link b0" data-depth="3" stroke-width="1.3" d="M1786.6,451.3 C1806.6,451.3 1806.6,555.3 1826.6,555.3"/>
  <g class="node d2 b0" data-depth="2">
    <rect class="box" x="1532.4" y="437.2" width="254.3" height="28.2" rx="6"/>
    <text x="1542.4" y="455.7" font-size="13.0">Ring injury by force and stability</text>
  </g>
  <g class="node d3 b0" data-depth="3">
    <rect class="box" x="1826.6" y="325.3" width="245.2" height="44.0" rx="6"/>
    <text x="1836.6" y="343.3" font-size="12.5">AP compression opens symphysis and</text>
    <text x="1836.6" y="359.8" font-size="12.5">sacroiliac</text>
  </g>
  <g class="node d3 b0" data-depth="3">
    <rect class="box" x="1826.6" y="377.3" width="198.9" height="44.0" rx="6"/>
    <text x="1836.6" y="395.3" font-size="12.5">Lateral compression buckles</text>
    <text x="1836.6" y="411.8" font-size="12.5">hemipelvis</text>
  </g>
  <g class="node d3 b0" data-depth="3">
    <rect class="box" x="1826.6" y="429.3" width="238.6" height="44.0" rx="6"/>
    <text x="1836.6" y="447.3" font-size="12.5">Vertical shear disrupts posterior</text>
    <text x="1836.6" y="463.8" font-size="12.5">support</text>
  </g>
  <g class="node d3 b0" data-depth="3">
    <rect class="box" x="1826.6" y="481.3" width="258.5" height="44.0" rx="6"/>
    <text x="1836.6" y="499.3" font-size="12.5">Bleeding from bone, venous plexuses,</text>
    <text x="1836.6" y="515.8" font-size="12.5">arteries</text>
  </g>
  <g class="node d3 b0" data-depth="3">
    <rect class="box" x="1826.6" y="533.3" width="232.0" height="44.0" rx="6"/>
    <text x="1836.6" y="551.3" font-size="12.5">Assess urethra, bladder, rectum,</text>
    <text x="1836.6" y="567.8" font-size="12.5">plexus, vessels</text>
  </g>
  <path class="link b0" data-depth="3" stroke-width="1.3" d="M1786.6,607.3 C1806.6,607.3 1806.6,607.3 1826.6,607.3"/>
  <g class="node d2 b0" data-depth="2">
    <rect class="box" x="1532.4" y="584.7" width="254.3" height="45.3" rx="6"/>
    <text x="1542.4" y="603.2" font-size="13.0">Symphysis: secondary cartilaginous</text>
    <text x="1542.4" y="620.3" font-size="13.0">joint</text>
  </g>
  <g class="node d3 b0" data-depth="3">
    <rect class="box" x="1826.6" y="585.3" width="238.6" height="44.0" rx="6"/>
    <text x="1836.6" y="603.3" font-size="12.5">Pregnancy widening modest, trauma</text>
    <text x="1836.6" y="619.8" font-size="12.5">destabilises</text>
  </g>
  <path class="link b1" data-depth="2" stroke-width="1.8" d="M661.2,183.1 C620.0,183.1 620.0,74.0 578.8,74.0"/>
  <path class="link b1" data-depth="2" stroke-width="1.8" d="M661.2,183.1 C620.0,183.1 620.0,178.0 578.8,178.0"/>
  <path class="link b1" data-depth="2" stroke-width="1.8" d="M661.2,183.1 C620.0,183.1 620.0,247.8 578.8,247.8"/>
  <path class="link b1" data-depth="2" stroke-width="1.8" d="M661.2,183.1 C620.0,183.1 620.0,292.2 578.8,292.2"/>
  <g class="node d1 b1" data-depth="1">
    <rect class="box" x="661.2" y="168.0" width="223.6" height="30.1" rx="9"/>
    <text x="671.2" y="188.0" font-size="14.5">Dimensions and variation</text>
  </g>
  <path class="link b1" data-depth="3" stroke-width="1.3" d="M324.5,74.0 C304.5,74.0 304.5,48.0 284.5,48.0"/>
  <path class="link b1" data-depth="3" stroke-width="1.3" d="M324.5,74.0 C304.5,74.0 304.5,100.0 284.5,100.0"/>
  <g class="node d2 b1" data-depth="2">
    <rect class="box" x="324.5" y="51.3" width="254.3" height="45.3" rx="6"/>
    <text x="334.5" y="69.8" font-size="13.0">Inlet, midpelvis, outlet influence</text>
    <text x="334.5" y="87.0" font-size="13.0">childbirth</text>
  </g>
  <g class="node d3 b1" data-depth="3">
    <rect class="box" x="26.0" y="26.0" width="258.5" height="44.0" rx="6"/>
    <text x="36.0" y="44.0" font-size="12.5">No single measurement predicts birth</text>
    <text x="36.0" y="60.5" font-size="12.5">mechanics</text>
  </g>
  <g class="node d3 b1" data-depth="3">
    <rect class="box" x="52.5" y="78.0" width="232.0" height="44.0" rx="6"/>
    <text x="62.5" y="96.0" font-size="12.5">Moulding, position, soft tissue,</text>
    <text x="62.5" y="112.5" font-size="12.5">uterine force</text>
  </g>
  <path class="link b1" data-depth="3" stroke-width="1.3" d="M324.5,178.0 C304.5,178.0 304.5,152.0 284.5,152.0"/>
  <path class="link b1" data-depth="3" stroke-width="1.3" d="M324.5,178.0 C304.5,178.0 304.5,204.0 284.5,204.0"/>
  <g class="node d2 b1" data-depth="2">
    <rect class="box" x="324.5" y="155.3" width="254.3" height="45.3" rx="6"/>
    <text x="334.5" y="173.8" font-size="13.0">Sex-associated average differences</text>
    <text x="334.5" y="191.0" font-size="13.0">overlap</text>
  </g>
  <g class="node d3 b1" data-depth="3">
    <rect class="box" x="45.9" y="130.0" width="238.6" height="44.0" rx="6"/>
    <text x="55.9" y="148.0" font-size="12.5">Age, ancestry, stature, activity,</text>
    <text x="55.9" y="164.5" font-size="12.5">nutrition</text>
  </g>
  <g class="node d3 b1" data-depth="3">
    <rect class="box" x="59.1" y="182.0" width="225.4" height="44.0" rx="6"/>
    <text x="69.1" y="200.0" font-size="12.5">Answer a clinical question, not</text>
    <text x="69.1" y="216.5" font-size="12.5">identity</text>
  </g>
  <path class="link b1" data-depth="3" stroke-width="1.3" d="M338.3,247.8 C311.4,247.8 311.4,247.8 284.5,247.8"/>
  <g class="node d2 b1" data-depth="2">
    <rect class="box" x="338.3" y="225.1" width="240.5" height="45.3" rx="6"/>
    <text x="348.3" y="243.6" font-size="13.0">Obstetric conjugate not directly</text>
    <text x="348.3" y="260.8" font-size="13.0">measurable</text>
  </g>
  <g class="node d3 b1" data-depth="3">
    <rect class="box" x="59.1" y="234.0" width="225.4" height="27.5" rx="6"/>
    <text x="69.1" y="252.0" font-size="12.5">Diagonal conjugate estimates it</text>
  </g>
  <g class="node d2 b1" data-depth="2">
    <rect class="box" x="338.3" y="269.5" width="240.5" height="45.3" rx="6"/>
    <text x="348.3" y="288.0" font-size="13.0">Interspinous distance: midpelvic</text>
    <text x="348.3" y="305.2" font-size="13.0">transverse</text>
  </g>
  <path class="link b2" data-depth="2" stroke-width="1.8" d="M1492.4,756.4 C1512.4,756.4 1512.4,651.1 1532.4,651.1"/>
  <path class="link b2" data-depth="2" stroke-width="1.8" d="M1492.4,756.4 C1512.4,756.4 1512.4,695.5 1532.4,695.5"/>
  <path class="link b2" data-depth="2" stroke-width="1.8" d="M1492.4,756.4 C1512.4,756.4 1512.4,774.1 1532.4,774.1"/>
  <path class="link b2" data-depth="2" stroke-width="1.8" d="M1492.4,756.4 C1512.4,756.4 1512.4,861.6 1532.4,861.6"/>
  <g class="node d1 b2" data-depth="1">
    <rect class="box" x="1243.3" y="741.3" width="249.0" height="30.1" rx="9"/>
    <text x="1253.3" y="761.3" font-size="14.5">Lateral and posterior walls</text>
  </g>
  <path class="link b2" data-depth="3" stroke-width="1.3" d="M1745.3,651.1 C1785.9,651.1 1785.9,651.1 1826.6,651.1"/>
  <g class="node d2 b2" data-depth="2">
    <rect class="box" x="1532.4" y="628.4" width="212.9" height="45.3" rx="6"/>
    <text x="1542.4" y="646.9" font-size="13.0">Lateral: obturator membrane,</text>
    <text x="1542.4" y="664.1" font-size="13.0">obturator internus</text>
  </g>
  <g class="node d3 b2" data-depth="3">
    <rect class="box" x="1826.6" y="637.3" width="225.4" height="27.5" rx="6"/>
    <text x="1836.6" y="655.3" font-size="12.5">Obturator canal to medial thigh</text>
  </g>
  <g class="node d2 b2" data-depth="2">
    <rect class="box" x="1532.4" y="672.8" width="199.1" height="45.3" rx="6"/>
    <text x="1542.4" y="691.3" font-size="13.0">Posterior: sacrum, coccyx,</text>
    <text x="1542.4" y="708.5" font-size="13.0">piriformis, ligaments</text>
  </g>
  <path class="link b2" data-depth="3" stroke-width="1.3" d="M1786.6,774.1 C1806.6,774.1 1806.6,748.1 1826.6,748.1"/>
  <path class="link b2" data-depth="3" stroke-width="1.3" d="M1786.6,774.1 C1806.6,774.1 1806.6,800.1 1826.6,800.1"/>
  <g class="node d2 b2" data-depth="2">
    <rect class="box" x="1532.4" y="751.5" width="254.3" height="45.3" rx="6"/>
    <text x="1542.4" y="770.0" font-size="13.0">Piriformis divides greater sciatic</text>
    <text x="1542.4" y="787.1" font-size="13.0">foramen</text>
  </g>
  <g class="node d3 b2" data-depth="3">
    <rect class="box" x="1826.6" y="726.1" width="245.2" height="44.0" rx="6"/>
    <text x="1836.6" y="744.1" font-size="12.5">Superior gluteal vessels and nerve</text>
    <text x="1836.6" y="760.6" font-size="12.5">above</text>
  </g>
  <g class="node d3 b2" data-depth="3">
    <rect class="box" x="1826.6" y="778.1" width="251.9" height="44.0" rx="6"/>
    <text x="1836.6" y="796.1" font-size="12.5">Sciatic, inferior gluteal, pudendal</text>
    <text x="1836.6" y="812.6" font-size="12.5">below</text>
  </g>
  <path class="link b2" data-depth="3" stroke-width="1.3" d="M1738.4,861.6 C1782.5,861.6 1782.5,843.9 1826.6,843.9"/>
  <path class="link b2" data-depth="3" stroke-width="1.3" d="M1738.4,861.6 C1782.5,861.6 1782.5,879.4 1826.6,879.4"/>
  <g class="node d2 b2" data-depth="2">
    <rect class="box" x="1532.4" y="839.0" width="206.0" height="45.3" rx="6"/>
    <text x="1542.4" y="857.5" font-size="13.0">Pudendal nerve curves round</text>
    <text x="1542.4" y="874.6" font-size="13.0">ischial spine</text>
  </g>
  <g class="node d3 b2" data-depth="3">
    <rect class="box" x="1826.6" y="830.1" width="145.9" height="27.5" rx="6"/>
    <text x="1836.6" y="848.1" font-size="12.5">Enables nerve block</text>
  </g>
  <g class="node d3 b2" data-depth="3">
    <rect class="box" x="1826.6" y="865.6" width="258.5" height="27.5" rx="6"/>
    <text x="1836.6" y="883.6" font-size="12.5">Vulnerable in childbirth and surgery</text>
  </g>
  <path class="link b3" data-depth="2" stroke-width="1.8" d="M729.0,536.0 C653.9,536.0 653.9,345.5 578.8,345.5"/>
  <path class="link b3" data-depth="2" stroke-width="1.8" d="M729.0,536.0 C653.9,536.0 653.9,398.8 578.8,398.8"/>
  <path class="link b3" data-depth="2" stroke-width="1.8" d="M729.0,536.0 C653.9,536.0 653.9,461.0 578.8,461.0"/>
  <path class="link b3" data-depth="2" stroke-width="1.8" d="M729.0,536.0 C653.9,536.0 653.9,523.1 578.8,523.1"/>
  <path class="link b3" data-depth="2" stroke-width="1.8" d="M729.0,536.0 C653.9,536.0 653.9,575.8 578.8,575.8"/>
  <path class="link b3" data-depth="2" stroke-width="1.8" d="M729.0,536.0 C653.9,536.0 653.9,628.4 578.8,628.4"/>
  <path class="link b3" data-depth="2" stroke-width="1.8" d="M729.0,536.0 C653.9,536.0 653.9,681.8 578.8,681.8"/>
  <path class="link b3" data-depth="2" stroke-width="1.8" d="M729.0,536.0 C653.9,536.0 653.9,726.5 578.8,726.5"/>
  <g class="node d1 b3" data-depth="1">
    <rect class="box" x="729.0" y="520.9" width="155.7" height="30.1" rx="9"/>
    <text x="739.0" y="540.9" font-size="14.5">Pelvic diaphragm</text>
  </g>
  <g class="node d2 b3" data-depth="2">
    <rect class="box" x="352.1" y="322.8" width="226.7" height="45.3" rx="6"/>
    <text x="362.1" y="341.3" font-size="13.0">Levator ani and coccygeus with</text>
    <text x="362.1" y="358.5" font-size="13.0">fascia</text>
  </g>
  <g class="node d2 b3" data-depth="2">
    <rect class="box" x="365.8" y="376.1" width="212.9" height="45.3" rx="6"/>
    <text x="375.8" y="394.6" font-size="13.0">Puborectalis, pubococcygeus,</text>
    <text x="375.8" y="411.8" font-size="13.0">iliococcygeus</text>
  </g>
  <path class="link b3" data-depth="3" stroke-width="1.3" d="M345.2,461.0 C314.8,461.0 314.8,443.2 284.5,443.2"/>
  <path class="link b3" data-depth="3" stroke-width="1.3" d="M345.2,461.0 C314.8,461.0 314.8,478.7 284.5,478.7"/>
  <g class="node d2 b3" data-depth="2">
    <rect class="box" x="345.2" y="438.3" width="233.6" height="45.3" rx="6"/>
    <text x="355.2" y="456.8" font-size="13.0">Puborectalis sling at anorectal</text>
    <text x="355.2" y="474.0" font-size="13.0">junction</text>
  </g>
  <g class="node d3 b3" data-depth="3">
    <rect class="box" x="72.4" y="429.5" width="212.1" height="27.5" rx="6"/>
    <text x="82.4" y="447.5" font-size="12.5">Keeps anorectal angle at rest</text>
  </g>
  <g class="node d3 b3" data-depth="3">
    <rect class="box" x="98.9" y="465.0" width="185.6" height="27.5" rx="6"/>
    <text x="108.9" y="483.0" font-size="12.5">Relaxes during defecation</text>
  </g>
  <g class="node d2 b3" data-depth="2">
    <rect class="box" x="331.4" y="500.5" width="247.4" height="45.3" rx="6"/>
    <text x="341.4" y="519.0" font-size="13.0">Levator supports viscera, resists</text>
    <text x="341.4" y="536.1" font-size="13.0">pressure</text>
  </g>
  <path class="link b3" data-depth="3" stroke-width="1.3" d="M324.5,575.8 C304.5,575.8 304.5,575.8 284.5,575.8"/>
  <g class="node d2 b3" data-depth="2">
    <rect class="box" x="324.5" y="553.1" width="254.3" height="45.3" rx="6"/>
    <text x="334.5" y="571.6" font-size="13.0">Hiatus: urethra, vagina, anorectal</text>
    <text x="334.5" y="588.8" font-size="13.0">canal</text>
  </g>
  <g class="node d3 b3" data-depth="3">
    <rect class="box" x="32.6" y="553.8" width="251.9" height="44.0" rx="6"/>
    <text x="42.6" y="571.8" font-size="12.5">Necessary weak region, changes with</text>
    <text x="42.6" y="588.3" font-size="12.5">loading</text>
  </g>
  <g class="node d2 b3" data-depth="2">
    <rect class="box" x="338.3" y="605.8" width="240.5" height="45.3" rx="6"/>
    <text x="348.3" y="624.3" font-size="13.0">Sacral plexus branches, pudendal</text>
    <text x="348.3" y="641.4" font-size="13.0">to sphincters</text>
  </g>
  <g class="node d2 b3" data-depth="2">
    <rect class="box" x="379.6" y="659.1" width="199.1" height="45.3" rx="6"/>
    <text x="389.6" y="677.6" font-size="13.0">Excess tone: pain, voiding</text>
    <text x="389.6" y="694.8" font-size="13.0">difficulty</text>
  </g>
  <g class="node d2 b3" data-depth="2">
    <rect class="box" x="338.3" y="712.4" width="240.5" height="28.2" rx="6"/>
    <text x="348.3" y="730.9" font-size="13.0">Weakness: prolapse, incontinence</text>
  </g>
  <path class="link b4" data-depth="2" stroke-width="1.8" d="M618.8,907.6 C598.8,907.6 598.8,771.2 578.8,771.2"/>
  <path class="link b4" data-depth="2" stroke-width="1.8" d="M618.8,907.6 C598.8,907.6 598.8,815.7 578.8,815.7"/>
  <path class="link b4" data-depth="2" stroke-width="1.8" d="M618.8,907.6 C598.8,907.6 598.8,860.1 578.8,860.1"/>
  <path class="link b4" data-depth="2" stroke-width="1.8" d="M618.8,907.6 C598.8,907.6 598.8,913.4 578.8,913.4"/>
  <path class="link b4" data-depth="2" stroke-width="1.8" d="M618.8,907.6 C598.8,907.6 598.8,966.0 578.8,966.0"/>
  <path class="link b4" data-depth="2" stroke-width="1.8" d="M618.8,907.6 C598.8,907.6 598.8,1044.0 578.8,1044.0"/>
  <g class="node d1 b4" data-depth="1">
    <rect class="box" x="618.8" y="892.6" width="266.0" height="30.1" rx="9"/>
    <text x="628.8" y="912.6" font-size="14.5">Endopelvic fascia and support</text>
  </g>
  <g class="node d2 b4" data-depth="2">
    <rect class="box" x="324.5" y="748.6" width="254.3" height="45.3" rx="6"/>
    <text x="334.5" y="767.1" font-size="13.0">Parietal fascia on walls, visceral</text>
    <text x="334.5" y="784.2" font-size="13.0">on organs</text>
  </g>
  <path class="link b4" data-depth="3" stroke-width="1.3" d="M345.2,815.7 C314.8,815.7 314.8,815.7 284.5,815.7"/>
  <g class="node d2 b4" data-depth="2">
    <rect class="box" x="345.2" y="793.0" width="233.6" height="45.3" rx="6"/>
    <text x="355.2" y="811.5" font-size="13.0">Loose planes permit filling and</text>
    <text x="355.2" y="828.7" font-size="13.0">dissection</text>
  </g>
  <g class="node d3 b4" data-depth="3">
    <rect class="box" x="52.5" y="801.9" width="232.0" height="27.5" rx="6"/>
    <text x="62.5" y="819.9" font-size="12.5">Also transmit vessels and spread</text>
  </g>
  <g class="node d2 b4" data-depth="2">
    <rect class="box" x="331.4" y="837.4" width="247.4" height="45.3" rx="6"/>
    <text x="341.4" y="855.9" font-size="13.0">Cardinal, uterosacral: cervix and</text>
    <text x="341.4" y="873.1" font-size="13.0">upper vagina</text>
  </g>
  <g class="node d2 b4" data-depth="2">
    <rect class="box" x="372.7" y="890.7" width="206.0" height="45.3" rx="6"/>
    <text x="382.7" y="909.2" font-size="13.0">Puboprostatic, pubovesical:</text>
    <text x="382.7" y="926.4" font-size="13.0">bladder neck</text>
  </g>
  <path class="link b4" data-depth="3" stroke-width="1.3" d="M407.2,966.0 C345.8,966.0 345.8,966.0 284.5,966.0"/>
  <g class="node d2 b4" data-depth="2">
    <rect class="box" x="407.2" y="943.4" width="171.6" height="45.3" rx="6"/>
    <text x="417.2" y="961.9" font-size="13.0">Perineal body: central</text>
    <text x="417.2" y="979.0" font-size="13.0">fibromuscular node</text>
  </g>
  <g class="node d3 b4" data-depth="3">
    <rect class="box" x="45.9" y="944.0" width="238.6" height="44.0" rx="6"/>
    <text x="55.9" y="962.0" font-size="12.5">Injury weakens posterior wall and</text>
    <text x="55.9" y="978.5" font-size="12.5">continence</text>
  </g>
  <path class="link b4" data-depth="3" stroke-width="1.3" d="M331.4,1044.0 C307.9,1044.0 307.9,1018.0 284.5,1018.0"/>
  <path class="link b4" data-depth="3" stroke-width="1.3" d="M331.4,1044.0 C307.9,1044.0 307.9,1070.0 284.5,1070.0"/>
  <g class="node d2 b4" data-depth="2">
    <rect class="box" x="331.4" y="1021.4" width="247.4" height="45.3" rx="6"/>
    <text x="341.4" y="1039.9" font-size="13.0">Prolapse: multi-component support</text>
    <text x="341.4" y="1057.0" font-size="13.0">failure</text>
  </g>
  <g class="node d3 b4" data-depth="3">
    <rect class="box" x="45.9" y="996.0" width="238.6" height="44.0" rx="6"/>
    <text x="55.9" y="1014.0" font-size="12.5">Descent does not map perfectly to</text>
    <text x="55.9" y="1030.5" font-size="12.5">symptoms</text>
  </g>
  <g class="node d3 b4" data-depth="3">
    <rect class="box" x="39.2" y="1048.0" width="245.2" height="44.0" rx="6"/>
    <text x="49.2" y="1066.0" font-size="12.5">Repair integrated support, not one</text>
    <text x="49.2" y="1082.5" font-size="12.5">defect</text>
  </g>
  <path class="link b5" data-depth="2" stroke-width="1.8" d="M1449.9,1061.5 C1491.1,1061.5 1491.1,923.8 1532.4,923.8"/>
  <path class="link b5" data-depth="2" stroke-width="1.8" d="M1449.9,1061.5 C1491.1,1061.5 1491.1,977.1 1532.4,977.1"/>
  <path class="link b5" data-depth="2" stroke-width="1.8" d="M1449.9,1061.5 C1491.1,1061.5 1491.1,1030.4 1532.4,1030.4"/>
  <path class="link b5" data-depth="2" stroke-width="1.8" d="M1449.9,1061.5 C1491.1,1061.5 1491.1,1083.8 1532.4,1083.8"/>
  <path class="link b5" data-depth="2" stroke-width="1.8" d="M1449.9,1061.5 C1491.1,1061.5 1491.1,1137.1 1532.4,1137.1"/>
  <path class="link b5" data-depth="2" stroke-width="1.8" d="M1449.9,1061.5 C1491.1,1061.5 1491.1,1199.2 1532.4,1199.2"/>
  <g class="node d1 b5" data-depth="1">
    <rect class="box" x="1243.3" y="1046.5" width="206.6" height="30.1" rx="9"/>
    <text x="1253.3" y="1066.5" font-size="14.5">Internal iliac vessels</text>
  </g>
  <g class="node d2 b5" data-depth="2">
    <rect class="box" x="1532.4" y="901.1" width="240.5" height="45.3" rx="6"/>
    <text x="1542.4" y="919.6" font-size="13.0">Posterior division: iliolumbar,</text>
    <text x="1542.4" y="936.8" font-size="13.0">lateral sacral, superior gluteal</text>
  </g>
  <g class="node d2 b5" data-depth="2">
    <rect class="box" x="1532.4" y="954.5" width="206.0" height="45.3" rx="6"/>
    <text x="1542.4" y="973.0" font-size="13.0">Anterior division: viscera,</text>
    <text x="1542.4" y="990.1" font-size="13.0">perineum, gluteal region</text>
  </g>
  <g class="node d2 b5" data-depth="2">
    <rect class="box" x="1532.4" y="1007.8" width="212.9" height="45.3" rx="6"/>
    <text x="1542.4" y="1026.3" font-size="13.0">Extensive anastomoses across</text>
    <text x="1542.4" y="1043.4" font-size="13.0">midline</text>
  </g>
  <g class="node d2 b5" data-depth="2">
    <rect class="box" x="1532.4" y="1061.1" width="212.9" height="45.3" rx="6"/>
    <text x="1542.4" y="1079.6" font-size="13.0">Uterine artery crosses above</text>
    <text x="1542.4" y="1096.8" font-size="13.0">ureter</text>
  </g>
  <g class="node d2 b5" data-depth="2">
    <rect class="box" x="1532.4" y="1114.4" width="226.7" height="45.3" rx="6"/>
    <text x="1542.4" y="1132.9" font-size="13.0">Corona mortis crosses superior</text>
    <text x="1542.4" y="1150.1" font-size="13.0">pubic ramus</text>
  </g>
  <path class="link b5" data-depth="3" stroke-width="1.3" d="M1724.6,1199.2 C1775.6,1199.2 1775.6,1181.5 1826.6,1181.5"/>
  <path class="link b5" data-depth="3" stroke-width="1.3" d="M1724.6,1199.2 C1775.6,1199.2 1775.6,1217.0 1826.6,1217.0"/>
  <g class="node d2 b5" data-depth="2">
    <rect class="box" x="1532.4" y="1185.2" width="192.2" height="28.2" rx="6"/>
    <text x="1542.4" y="1203.7" font-size="13.0">Valveless venous plexuses</text>
  </g>
  <g class="node d3 b5" data-depth="3">
    <rect class="box" x="1826.6" y="1167.7" width="238.6" height="27.5" rx="6"/>
    <text x="1836.6" y="1185.7" font-size="12.5">Communicate with vertebral plexus</text>
  </g>
  <g class="node d3 b5" data-depth="3">
    <rect class="box" x="1826.6" y="1203.2" width="238.6" height="27.5" rx="6"/>
    <text x="1836.6" y="1221.2" font-size="12.5">Collapse poorly, bleeding diffuse</text>
  </g>
  <path class="link b6" data-depth="2" stroke-width="1.8" d="M627.2,1232.1 C603.0,1232.1 603.0,1122.0 578.8,1122.0"/>
  <path class="link b6" data-depth="2" stroke-width="1.8" d="M627.2,1232.1 C603.0,1232.1 603.0,1174.7 578.8,1174.7"/>
  <path class="link b6" data-depth="2" stroke-width="1.8" d="M627.2,1232.1 C603.0,1232.1 603.0,1228.0 578.8,1228.0"/>
  <path class="link b6" data-depth="2" stroke-width="1.8" d="M627.2,1232.1 C603.0,1232.1 603.0,1272.4 578.8,1272.4"/>
  <path class="link b6" data-depth="2" stroke-width="1.8" d="M627.2,1232.1 C603.0,1232.1 603.0,1342.2 578.8,1342.2"/>
  <g class="node d1 b6" data-depth="1">
    <rect class="box" x="627.2" y="1217.0" width="257.5" height="30.1" rx="9"/>
    <text x="637.2" y="1237.0" font-size="14.5">Somatic and autonomic nerves</text>
  </g>
  <path class="link b6" data-depth="3" stroke-width="1.3" d="M372.7,1122.0 C328.6,1122.0 328.6,1122.0 284.5,1122.0"/>
  <g class="node d2 b6" data-depth="2">
    <rect class="box" x="372.7" y="1108.0" width="206.0" height="28.2" rx="6"/>
    <text x="382.7" y="1126.5" font-size="13.0">Sacral plexus on piriformis</text>
  </g>
  <g class="node d3 b6" data-depth="3">
    <rect class="box" x="39.2" y="1100.0" width="245.2" height="44.0" rx="6"/>
    <text x="49.2" y="1118.0" font-size="12.5">Masses, childbirth, surgery affect</text>
    <text x="49.2" y="1134.5" font-size="12.5">many nerves</text>
  </g>
  <g class="node d2 b6" data-depth="2">
    <rect class="box" x="365.8" y="1152.0" width="212.9" height="45.3" rx="6"/>
    <text x="375.8" y="1170.5" font-size="13.0">Sympathetics via hypogastric</text>
    <text x="375.8" y="1187.7" font-size="13.0">plexuses</text>
  </g>
  <g class="node d2 b6" data-depth="2">
    <rect class="box" x="324.5" y="1205.4" width="254.3" height="45.3" rx="6"/>
    <text x="334.5" y="1223.9" font-size="13.0">Pelvic splanchnic nerves S2 to S4,</text>
    <text x="334.5" y="1241.0" font-size="13.0">parasympathetic</text>
  </g>
  <path class="link b6" data-depth="3" stroke-width="1.3" d="M338.3,1272.4 C311.4,1272.4 311.4,1272.4 284.5,1272.4"/>
  <g class="node d2 b6" data-depth="2">
    <rect class="box" x="338.3" y="1258.4" width="240.5" height="28.2" rx="6"/>
    <text x="348.3" y="1276.9" font-size="13.0">Pudendal nerve S2 to S4, somatic</text>
  </g>
  <g class="node d3 b6" data-depth="3">
    <rect class="box" x="32.6" y="1258.7" width="251.9" height="27.5" rx="6"/>
    <text x="42.6" y="1276.7" font-size="12.5">Do not confuse despite shared roots</text>
  </g>
  <path class="link b6" data-depth="3" stroke-width="1.3" d="M448.5,1342.2 C366.5,1342.2 366.5,1316.2 284.5,1316.2"/>
  <path class="link b6" data-depth="3" stroke-width="1.3" d="M448.5,1342.2 C366.5,1342.2 366.5,1368.2 284.5,1368.2"/>
  <g class="node d2 b6" data-depth="2">
    <rect class="box" x="448.5" y="1328.1" width="130.2" height="28.2" rx="6"/>
    <text x="458.5" y="1346.6" font-size="13.0">Pelvic pain line</text>
  </g>
  <g class="node d3 b6" data-depth="3">
    <rect class="box" x="45.9" y="1294.2" width="238.6" height="44.0" rx="6"/>
    <text x="55.9" y="1312.2" font-size="12.5">Above: sympathetic, thoracolumbar</text>
    <text x="55.9" y="1328.7" font-size="12.5">levels</text>
  </g>
  <g class="node d3 b6" data-depth="3">
    <rect class="box" x="65.8" y="1346.2" width="218.7" height="44.0" rx="6"/>
    <text x="75.8" y="1364.2" font-size="12.5">Below: parasympathetic, sacral</text>
    <text x="75.8" y="1380.7" font-size="12.5">levels</text>
  </g>
  <path class="link b7" data-depth="2" stroke-width="1.8" d="M1373.6,1381.8 C1453.0,1381.8 1453.0,1252.8 1532.4,1252.8"/>
  <path class="link b7" data-depth="2" stroke-width="1.8" d="M1373.6,1381.8 C1453.0,1381.8 1453.0,1297.6 1532.4,1297.6"/>
  <path class="link b7" data-depth="2" stroke-width="1.8" d="M1373.6,1381.8 C1453.0,1381.8 1453.0,1350.9 1532.4,1350.9"/>
  <path class="link b7" data-depth="2" stroke-width="1.8" d="M1373.6,1381.8 C1453.0,1381.8 1453.0,1404.2 1532.4,1404.2"/>
  <path class="link b7" data-depth="2" stroke-width="1.8" d="M1373.6,1381.8 C1453.0,1381.8 1453.0,1457.5 1532.4,1457.5"/>
  <path class="link b7" data-depth="2" stroke-width="1.8" d="M1373.6,1381.8 C1453.0,1381.8 1453.0,1510.8 1532.4,1510.8"/>
  <g class="node d1 b7" data-depth="1">
    <rect class="box" x="1243.3" y="1366.8" width="130.3" height="30.1" rx="9"/>
    <text x="1253.3" y="1386.8" font-size="14.5">Pelvic spaces</text>
  </g>
  <g class="node d2 b7" data-depth="2">
    <rect class="box" x="1532.4" y="1238.7" width="247.4" height="28.2" rx="6"/>
    <text x="1542.4" y="1257.2" font-size="13.0">Retropubic space: surgical access</text>
  </g>
  <g class="node d2 b7" data-depth="2">
    <rect class="box" x="1532.4" y="1274.9" width="247.4" height="45.3" rx="6"/>
    <text x="1542.4" y="1293.4" font-size="13.0">Paravesical, pararectal: vessels,</text>
    <text x="1542.4" y="1310.6" font-size="13.0">nerves, ureters</text>
  </g>
  <g class="node d2 b7" data-depth="2">
    <rect class="box" x="1532.4" y="1328.2" width="212.9" height="45.3" rx="6"/>
    <text x="1542.4" y="1346.7" font-size="13.0">Presacral: autonomic plexus,</text>
    <text x="1542.4" y="1363.9" font-size="13.0">vessels</text>
  </g>
  <g class="node d2 b7" data-depth="2">
    <rect class="box" x="1532.4" y="1381.5" width="240.5" height="45.3" rx="6"/>
    <text x="1542.4" y="1400.0" font-size="13.0">Extraperitoneal bleeding spreads</text>
    <text x="1542.4" y="1417.2" font-size="13.0">widely</text>
  </g>
  <g class="node d2 b7" data-depth="2">
    <rect class="box" x="1532.4" y="1434.9" width="206.0" height="45.3" rx="6"/>
    <text x="1542.4" y="1453.4" font-size="13.0">Infection and tumour follow</text>
    <text x="1542.4" y="1470.5" font-size="13.0">fascial planes</text>
  </g>
  <g class="node d2 b7" data-depth="2">
    <rect class="box" x="1532.4" y="1488.2" width="240.5" height="45.3" rx="6"/>
    <text x="1542.4" y="1506.7" font-size="13.0">Imaging defines sidewall, floor,</text>
    <text x="1542.4" y="1523.8" font-size="13.0">peritoneum, ureter</text>
  </g>
</svg>
