<svg xmlns="http://www.w3.org/2000/svg" class="mm" viewBox="0 0 2020 1462" width="2020" height="1462" role="img" aria-label="Lower limb anatomy and gait">
<style>
  .mm-bg { fill: #faf8f4; }
  .mm text { font-family: Inter, ui-sans-serif, -apple-system, BlinkMacSystemFont, 'Segoe UI', sans-serif; fill: #1b1917; }
  .mm .link { fill: none; stroke: #c9c1b4; }
  .mm .box { fill: none; stroke: none; }
  .mm .d0 .box { fill: #1b1917; stroke: #1b1917; }
  .mm .d0 text { fill: #faf8f4; font-weight: 650; }
  .mm .d1 text { font-weight: 600; }

  .mm .link.b0 { stroke: #4b9ac6; }
  .mm .b0.d1 .box { fill: #d7e5eb; stroke: #0072B2; stroke-width: 1.5; }
  .mm .b0.d1 text { fill: #075c8b; }
  .mm .b0.d2 .box { fill: #e8efef; stroke: #70aed0; }
  .mm .b0.d3 text, .mm .b0.d4 text { fill: #075c8b; }

  .mm .link.b1 { stroke: #e08c49; }
  .mm .b1.d1 .box { fill: #f5e2d2; stroke: #D55E00; stroke-width: 1.5; }
  .mm .b1.d1 text { fill: #a64d06; }
  .mm .b1.d2 .box { fill: #f7ede3; stroke: #e6a36e; }
  .mm .b1.d3 text, .mm .b1.d4 text { fill: #a64d06; }

  .mm .link.b2 { stroke: #4bb99a; }
  .mm .b2.d1 .box { fill: #d7ebe2; stroke: #009E73; stroke-width: 1.5; }
  .mm .b2.d1 text { fill: #077d5c; }
  .mm .b2.d2 .box { fill: #e8f2eb; stroke: #70c6ad; }
  .mm .b2.d3 text, .mm .b2.d4 text { fill: #077d5c; }

  .mm .link.b3 { stroke: #da9fbe; }
  .mm .b3.d1 .box { fill: #f4e6e9; stroke: #CC79A7; stroke-width: 1.5; }
  .mm .b3.d1 text { fill: #985c7c; }
  .mm .b3.d2 .box { fill: #f7efef; stroke: #e1b2ca; }
  .mm .b3.d3 text, .mm .b3.d4 text { fill: #985c7c; }

  .mm .link.b4 { stroke: #bba149; }
  .mm .b4.d1 .box { fill: #ede7d2; stroke: #A07C00; stroke-width: 1.5; }
  .mm .b4.d1 text { fill: #7f6306; }
  .mm .b4.d2 .box { fill: #f4efe3; stroke: #c8b46e; }
  .mm .b4.d3 text, .mm .b4.d4 text { fill: #7f6306; }

  .mm .link.b5 { stroke: #84c1e2; }
  .mm .b5.d1 .box { fill: #e3eef2; stroke: #51a9db; stroke-width: 1.5; }
  .mm .b5.d1 text { fill: #3d7899; }
  .mm .b5.d2 .box { fill: #eff3f3; stroke: #9dcde6; }
  .mm .b5.d3 text, .mm .b5.d4 text { fill: #3d7899; }

  .mm .link.b6 { stroke: #9580b0; }
  .mm .b6.d1 .box { fill: #e6e0e6; stroke: #6A4C93; stroke-width: 1.5; }
  .mm .b6.d1 text { fill: #563f74; }
  .mm .b6.d2 .box { fill: #f0eced; stroke: #ab99bf; }
  .mm .b6.d3 text, .mm .b6.d4 text { fill: #563f74; }

  .mm .link.b7 { stroke: #98ac74; }
  .mm .b7.d1 .box { fill: #e6e9da; stroke: #6E8B3D; stroke-width: 1.5; }
  .mm .b7.d1 text { fill: #596e34; }
  .mm .b7.d2 .box { fill: #f0f0e7; stroke: #adbc8f; }
  .mm .b7.d3 text, .mm .b7.d4 text { fill: #596e34; }

  .mm .link.b8 { stroke: #e2b349; }
  .mm .b8.d1 .box { fill: #f7ecd2; stroke: #d89500; stroke-width: 1.5; }
  .mm .b8.d1 text { fill: #986a05; }
  .mm .b8.d2 .box { fill: #f9f2e3; stroke: #e7c26e; }
  .mm .b8.d3 text, .mm .b8.d4 text { fill: #986a05; }
@media (prefers-color-scheme: dark) {
  .mm-bg { fill: #12100e; }
  .mm text { font-family: Inter, ui-sans-serif, -apple-system, BlinkMacSystemFont, 'Segoe UI', sans-serif; fill: #ece7df; }
  .mm .link { fill: none; stroke: #3d3833; }
  .mm .box { fill: none; stroke: none; }
  .mm .d0 .box { fill: #ece7df; stroke: #ece7df; }
  .mm .d0 text { fill: #12100e; font-weight: 650; }
  .mm .d1 text { font-weight: 600; }

  .mm .link.b0 { stroke: #2d6a8d; }
  .mm .b0.d1 .box { fill: #172227; stroke: #3891c3; stroke-width: 1.5; }
  .mm .b0.d1 text { fill: #65a6ca; }
  .mm .b0.d2 .box { fill: #15191b; stroke: #275772; }
  .mm .b0.d3 text, .mm .b0.d4 text { fill: #65a6ca; }

  .mm .link.b1 { stroke: #a15f2b; }
  .mm .b1.d1 .box { fill: #2f2014; stroke: #de8138; stroke-width: 1.5; }
  .mm .b1.d1 text { fill: #e29a62; }
  .mm .b1.d2 .box { fill: #201811; stroke: #824e25; }
  .mm .b1.d3 text, .mm .b1.d4 text { fill: #e29a62; }

  .mm .link.b2 { stroke: #2d826a; }
  .mm .b2.d1 .box { fill: #172720; stroke: #38b392; stroke-width: 1.5; }
  .mm .b2.d1 text { fill: #65c0a5; }
  .mm .b2.d2 .box { fill: #151b17; stroke: #276a57; }
  .mm .b2.d3 text, .mm .b2.d4 text { fill: #65c0a5; }

  .mm .link.b3 { stroke: #9c6e86; }
  .mm .b3.d1 .box { fill: #2e2326; stroke: #d796ba; stroke-width: 1.5; }
  .mm .b3.d1 text { fill: #dcaac3; }
  .mm .b3.d2 .box { fill: #20191a; stroke: #7e5a6d; }
  .mm .b3.d3 text, .mm .b3.d4 text { fill: #dcaac3; }

  .mm .link.b4 { stroke: #84702b; }
  .mm .b4.d1 .box { fill: #292314; stroke: #b59938; stroke-width: 1.5; }
  .mm .b4.d1 text { fill: #c3ac62; }
  .mm .b4.d2 .box { fill: #1d1a11; stroke: #6c5b25; }
  .mm .b4.d3 text, .mm .b4.d4 text { fill: #c3ac62; }

  .mm .link.b5 { stroke: #5c8eab; }
  .mm .b5.d1 .box { fill: #21292d; stroke: #7bc4ee; stroke-width: 1.5; }
  .mm .b5.d1 text { fill: #97cdea; }
  .mm .b5.d2 .box { fill: #191d1e; stroke: #4c7389; }
  .mm .b5.d3 text, .mm .b5.d4 text { fill: #97cdea; }

  .mm .link.b6 { stroke: #67557c; }
  .mm .b6.d1 .box { fill: #231e24; stroke: #8b73ab; stroke-width: 1.5; }
  .mm .b6.d1 text { fill: #a390b8; }
  .mm .b6.d2 .box { fill: #1a1719; stroke: #554664; }
  .mm .b6.d3 text, .mm .b6.d4 text { fill: #a390b8; }

  .mm .link.b7 { stroke: #69784d; }
  .mm .b7.d1 .box { fill: #23251b; stroke: #8ea568; stroke-width: 1.5; }
  .mm .b7.d1 text { fill: #a6b686; }
  .mm .b7.d2 .box { fill: #1b1a14; stroke: #566240; }
  .mm .b7.d3 text, .mm .b7.d4 text { fill: #a6b686; }

  .mm .link.b8 { stroke: #ab832b; }
  .mm .b8.d1 .box { fill: #312714; stroke: #ecb438; stroke-width: 1.5; }
  .mm .b8.d1 text { fill: #ecc162; }
  .mm .b8.d2 .box { fill: #211b11; stroke: #8a6a25; }
  .mm .b8.d3 text, .mm .b8.d4 text { fill: #ecc162; }
}
</style>
  <rect class="mm-bg" width="2020" height="1462"/>
  <path class="link b0" data-depth="1" stroke-width="2.2" d="M1163.5,731.1 C1183.5,731.1 1183.5,97.7 1203.5,97.7"/>
  <path class="link b1" data-depth="1" stroke-width="2.2" d="M1163.5,731.1 C1183.5,731.1 1183.5,311.2 1203.5,311.2"/>
  <path class="link b2" data-depth="1" stroke-width="2.2" d="M1163.5,731.1 C912.4,731.1 912.4,177.9 661.2,177.9"/>
  <path class="link b3" data-depth="1" stroke-width="2.2" d="M1163.5,731.1 C891.2,731.1 891.2,511.2 618.8,511.2"/>
  <path class="link b4" data-depth="1" stroke-width="2.2" d="M1163.5,731.1 C1183.5,731.1 1183.5,651.7 1203.5,651.7"/>
  <path class="link b5" data-depth="1" stroke-width="2.2" d="M1163.5,731.1 C946.3,731.1 946.3,800.0 729.0,800.0"/>
  <path class="link b6" data-depth="1" stroke-width="2.2" d="M1163.5,731.1 C925.1,731.1 925.1,1093.5 686.6,1093.5"/>
  <path class="link b7" data-depth="1" stroke-width="2.2" d="M1163.5,731.1 C1183.5,731.1 1183.5,960.4 1203.5,960.4"/>
  <path class="link b8" data-depth="1" stroke-width="2.2" d="M1163.5,731.1 C1183.5,731.1 1183.5,1258.1 1203.5,1258.1"/>
  <g class="node d0 b0" data-depth="0">
    <rect class="box" x="924.8" y="703.2" width="238.8" height="55.9" rx="9"/>
    <text x="934.8" y="725.7" font-size="17.0">Lower limb anatomy and</text>
    <text x="934.8" y="748.1" font-size="17.0">gait</text>
  </g>
  <path class="link b0" data-depth="2" stroke-width="1.8" d="M1401.7,97.7 C1421.7,97.7 1421.7,48.7 1441.7,48.7"/>
  <path class="link b0" data-depth="2" stroke-width="1.8" d="M1401.7,97.7 C1421.7,97.7 1421.7,102.0 1441.7,102.0"/>
  <path class="link b0" data-depth="2" stroke-width="1.8" d="M1401.7,97.7 C1421.7,97.7 1421.7,146.7 1441.7,146.7"/>
  <g class="node d1 b0" data-depth="1">
    <rect class="box" x="1203.5" y="82.6" width="198.1" height="30.1" rx="9"/>
    <text x="1213.5" y="102.6" font-size="14.5">Support over mobility</text>
  </g>
  <g class="node d2 b0" data-depth="2">
    <rect class="box" x="1441.7" y="26.0" width="240.5" height="45.3" rx="6"/>
    <text x="1451.7" y="44.5" font-size="13.0">Supports weight, absorbs impact,</text>
    <text x="1451.7" y="61.7" font-size="13.0">propels, balances</text>
  </g>
  <g class="node d2 b0" data-depth="2">
    <rect class="box" x="1441.7" y="79.3" width="219.8" height="45.3" rx="6"/>
    <text x="1451.7" y="97.8" font-size="13.0">More constrained joints, more</text>
    <text x="1451.7" y="115.0" font-size="13.0">robust bones</text>
  </g>
  <g class="node d2 b0" data-depth="2">
    <rect class="box" x="1441.7" y="132.6" width="247.4" height="28.2" rx="6"/>
    <text x="1451.7" y="151.1" font-size="13.0">Aligned force from pelvis to foot</text>
  </g>
  <path class="link b1" data-depth="2" stroke-width="1.8" d="M1299.9,311.2 C1370.8,311.2 1370.8,182.9 1441.7,182.9"/>
  <path class="link b1" data-depth="2" stroke-width="1.8" d="M1299.9,311.2 C1370.8,311.2 1370.8,227.0 1441.7,227.0"/>
  <path class="link b1" data-depth="2" stroke-width="1.8" d="M1299.9,311.2 C1370.8,311.2 1370.8,279.6 1441.7,279.6"/>
  <path class="link b1" data-depth="2" stroke-width="1.8" d="M1299.9,311.2 C1370.8,311.2 1370.8,341.8 1441.7,341.8"/>
  <path class="link b1" data-depth="2" stroke-width="1.8" d="M1299.9,311.2 C1370.8,311.2 1370.8,395.0 1441.7,395.0"/>
  <path class="link b1" data-depth="2" stroke-width="1.8" d="M1299.9,311.2 C1370.8,311.2 1370.8,439.4 1441.7,439.4"/>
  <g class="node d1 b1" data-depth="1">
    <rect class="box" x="1203.5" y="296.1" width="96.3" height="30.1" rx="9"/>
    <text x="1213.5" y="316.1" font-size="14.5">Hip joint</text>
  </g>
  <g class="node d2 b1" data-depth="2">
    <rect class="box" x="1441.7" y="168.8" width="219.8" height="28.2" rx="6"/>
    <text x="1451.7" y="187.3" font-size="13.0">Acetabulum deepened by labrum</text>
  </g>
  <path class="link b1" data-depth="3" stroke-width="1.3" d="M1654.6,227.0 C1695.3,227.0 1695.3,227.0 1735.9,227.0"/>
  <g class="node d2 b1" data-depth="2">
    <rect class="box" x="1441.7" y="204.3" width="212.9" height="45.3" rx="6"/>
    <text x="1451.7" y="222.8" font-size="13.0">Iliofemoral ligament resists</text>
    <text x="1451.7" y="240.0" font-size="13.0">hyperextension</text>
  </g>
  <g class="node d3 b1" data-depth="3">
    <rect class="box" x="1735.9" y="205.0" width="251.9" height="44.0" rx="6"/>
    <text x="1745.9" y="223.0" font-size="12.5">Upright standing with little muscle</text>
    <text x="1745.9" y="239.5" font-size="12.5">activity</text>
  </g>
  <g class="node d2 b1" data-depth="2">
    <rect class="box" x="1441.7" y="257.0" width="212.9" height="45.3" rx="6"/>
    <text x="1451.7" y="275.5" font-size="13.0">Head ligament artery matters</text>
    <text x="1451.7" y="292.6" font-size="13.0">mainly in children</text>
  </g>
  <path class="link b1" data-depth="3" stroke-width="1.3" d="M1682.2,341.8 C1709.0,341.8 1709.0,324.0 1735.9,324.0"/>
  <path class="link b1" data-depth="3" stroke-width="1.3" d="M1682.2,341.8 C1709.0,341.8 1709.0,359.5 1735.9,359.5"/>
  <g class="node d2 b1" data-depth="2">
    <rect class="box" x="1441.7" y="319.1" width="240.5" height="45.3" rx="6"/>
    <text x="1451.7" y="337.6" font-size="13.0">Retinacular branches from medial</text>
    <text x="1451.7" y="354.8" font-size="13.0">circumflex femoral</text>
  </g>
  <g class="node d3 b1" data-depth="3">
    <rect class="box" x="1735.9" y="310.3" width="238.6" height="27.5" rx="6"/>
    <text x="1745.9" y="328.3" font-size="12.5">Injured in intracapsular fracture</text>
  </g>
  <g class="node d3 b1" data-depth="3">
    <rect class="box" x="1735.9" y="345.8" width="232.0" height="27.5" rx="6"/>
    <text x="1745.9" y="363.8" font-size="12.5">Avascular necrosis and non-union</text>
  </g>
  <path class="link b1" data-depth="3" stroke-width="1.3" d="M1675.3,395.0 C1705.6,395.0 1705.6,395.0 1735.9,395.0"/>
  <g class="node d2 b1" data-depth="2">
    <rect class="box" x="1441.7" y="372.4" width="233.6" height="45.3" rx="6"/>
    <text x="1451.7" y="390.9" font-size="13.0">Posterior dislocation through a</text>
    <text x="1451.7" y="408.0" font-size="13.0">flexed hip</text>
  </g>
  <g class="node d3 b1" data-depth="3">
    <rect class="box" x="1735.9" y="381.3" width="205.5" height="27.5" rx="6"/>
    <text x="1745.9" y="399.3" font-size="12.5">Can injure the sciatic nerve</text>
  </g>
  <g class="node d2 b1" data-depth="2">
    <rect class="box" x="1441.7" y="416.8" width="240.5" height="45.3" rx="6"/>
    <text x="1451.7" y="435.3" font-size="13.0">Hip pain refers to groin, thigh,</text>
    <text x="1451.7" y="452.4" font-size="13.0">knee</text>
  </g>
  <path class="link b2" data-depth="2" stroke-width="1.8" d="M661.2,177.9 C620.0,177.9 620.0,48.7 578.8,48.7"/>
  <path class="link b2" data-depth="2" stroke-width="1.8" d="M661.2,177.9 C620.0,177.9 620.0,101.3 578.8,101.3"/>
  <path class="link b2" data-depth="2" stroke-width="1.8" d="M661.2,177.9 C620.0,177.9 620.0,153.3 578.8,153.3"/>
  <path class="link b2" data-depth="2" stroke-width="1.8" d="M661.2,177.9 C620.0,177.9 620.0,205.3 578.8,205.3"/>
  <path class="link b2" data-depth="2" stroke-width="1.8" d="M661.2,177.9 C620.0,177.9 620.0,249.4 578.8,249.4"/>
  <path class="link b2" data-depth="2" stroke-width="1.8" d="M661.2,177.9 C620.0,177.9 620.0,307.1 578.8,307.1"/>
  <g class="node d1 b2" data-depth="1">
    <rect class="box" x="661.2" y="162.8" width="223.6" height="30.1" rx="9"/>
    <text x="671.2" y="182.8" font-size="14.5">Gluteal region and thigh</text>
  </g>
  <g class="node d2 b2" data-depth="2">
    <rect class="box" x="393.4" y="26.0" width="185.4" height="45.3" rx="6"/>
    <text x="403.4" y="44.5" font-size="13.0">Gluteus maximus extends,</text>
    <text x="403.4" y="61.7" font-size="13.0">externally rotates hip</text>
  </g>
  <path class="link b2" data-depth="3" stroke-width="1.3" d="M331.4,101.3 C307.9,101.3 307.9,101.3 284.5,101.3"/>
  <g class="node d2 b2" data-depth="2">
    <rect class="box" x="331.4" y="78.7" width="247.4" height="45.3" rx="6"/>
    <text x="341.4" y="97.2" font-size="13.0">Gluteus medius, minimus stabilise</text>
    <text x="341.4" y="114.3" font-size="13.0">pelvis in stance</text>
  </g>
  <g class="node d3 b2" data-depth="3">
    <rect class="box" x="98.9" y="79.3" width="185.6" height="44.0" rx="6"/>
    <text x="108.9" y="97.3" font-size="12.5">Superior gluteal injury:</text>
    <text x="108.9" y="113.8" font-size="12.5">contralateral pelvic drop</text>
  </g>
  <path class="link b2" data-depth="3" stroke-width="1.3" d="M324.5,153.3 C304.5,153.3 304.5,153.3 284.5,153.3"/>
  <g class="node d2 b2" data-depth="2">
    <rect class="box" x="324.5" y="130.7" width="254.3" height="45.3" rx="6"/>
    <text x="334.5" y="149.2" font-size="13.0">Piriformis divides greater sciatic</text>
    <text x="334.5" y="166.3" font-size="13.0">foramen</text>
  </g>
  <g class="node d3 b2" data-depth="3">
    <rect class="box" x="39.2" y="131.3" width="245.2" height="44.0" rx="6"/>
    <text x="49.2" y="149.3" font-size="12.5">Sciatic nerve usually exits below,</text>
    <text x="49.2" y="165.8" font-size="12.5">varies</text>
  </g>
  <path class="link b2" data-depth="3" stroke-width="1.3" d="M358.9,205.3 C321.7,205.3 321.7,205.3 284.5,205.3"/>
  <g class="node d2 b2" data-depth="2">
    <rect class="box" x="358.9" y="182.7" width="219.8" height="45.3" rx="6"/>
    <text x="368.9" y="201.2" font-size="13.0">Anterior compartment: femoral</text>
    <text x="368.9" y="218.3" font-size="13.0">nerve</text>
  </g>
  <g class="node d3 b2" data-depth="3">
    <rect class="box" x="32.6" y="183.3" width="251.9" height="44.0" rx="6"/>
    <text x="42.6" y="201.3" font-size="12.5">Patella increases quadriceps moment</text>
    <text x="42.6" y="217.8" font-size="12.5">arm</text>
  </g>
  <g class="node d2 b2" data-depth="2">
    <rect class="box" x="331.4" y="235.3" width="247.4" height="28.2" rx="6"/>
    <text x="341.4" y="253.8" font-size="13.0">Medial adductors: obturator nerve</text>
  </g>
  <path class="link b2" data-depth="3" stroke-width="1.3" d="M331.4,307.1 C307.9,307.1 307.9,285.2 284.5,285.2"/>
  <path class="link b2" data-depth="3" stroke-width="1.3" d="M331.4,307.1 C307.9,307.1 307.9,329.0 284.5,329.0"/>
  <g class="node d2 b2" data-depth="2">
    <rect class="box" x="331.4" y="293.0" width="247.4" height="28.2" rx="6"/>
    <text x="341.4" y="311.5" font-size="13.0">Hamstrings mainly tibial division</text>
  </g>
  <g class="node d3 b2" data-depth="3">
    <rect class="box" x="26.0" y="271.5" width="258.5" height="27.5" rx="6"/>
    <text x="36.0" y="289.5" font-size="12.5">Short head of biceps: common fibular</text>
  </g>
  <g class="node d3 b2" data-depth="3">
    <rect class="box" x="45.9" y="307.0" width="238.6" height="44.0" rx="6"/>
    <text x="55.9" y="325.0" font-size="12.5">Extend hip, flex knee, decelerate</text>
    <text x="55.9" y="341.5" font-size="12.5">swing</text>
  </g>
  <path class="link b3" data-depth="2" stroke-width="1.8" d="M618.8,511.2 C598.8,511.2 598.8,394.6 578.8,394.6"/>
  <path class="link b3" data-depth="2" stroke-width="1.8" d="M618.8,511.2 C598.8,511.2 598.8,469.1 578.8,469.1"/>
  <path class="link b3" data-depth="2" stroke-width="1.8" d="M618.8,511.2 C598.8,511.2 598.8,521.8 578.8,521.8"/>
  <path class="link b3" data-depth="2" stroke-width="1.8" d="M618.8,511.2 C598.8,511.2 598.8,574.5 578.8,574.5"/>
  <path class="link b3" data-depth="2" stroke-width="1.8" d="M618.8,511.2 C598.8,511.2 598.8,627.8 578.8,627.8"/>
  <g class="node d1 b3" data-depth="1">
    <rect class="box" x="618.8" y="486.6" width="266.0" height="49.3" rx="9"/>
    <text x="628.8" y="506.6" font-size="14.5">Femoral triangle and adductor</text>
    <text x="628.8" y="525.7" font-size="14.5">canal</text>
  </g>
  <path class="link b3" data-depth="3" stroke-width="1.3" d="M331.4,394.6 C307.9,394.6 307.9,372.7 284.5,372.7"/>
  <path class="link b3" data-depth="3" stroke-width="1.3" d="M331.4,394.6 C307.9,394.6 307.9,416.5 284.5,416.5"/>
  <g class="node d2 b3" data-depth="2">
    <rect class="box" x="331.4" y="371.9" width="247.4" height="45.3" rx="6"/>
    <text x="341.4" y="390.4" font-size="13.0">Lateral to medial: nerve, artery,</text>
    <text x="341.4" y="407.6" font-size="13.0">vein, lymphatics</text>
  </g>
  <g class="node d3 b3" data-depth="3">
    <rect class="box" x="45.9" y="359.0" width="238.6" height="27.5" rx="6"/>
    <text x="55.9" y="377.0" font-size="12.5">Femoral sheath excludes the nerve</text>
  </g>
  <g class="node d3 b3" data-depth="3">
    <rect class="box" x="65.8" y="394.5" width="218.7" height="44.0" rx="6"/>
    <text x="75.8" y="412.5" font-size="12.5">Femoral canal is a hernia site</text>
    <text x="75.8" y="429.0" font-size="12.5">medial to vein</text>
  </g>
  <g class="node d2 b3" data-depth="2">
    <rect class="box" x="358.9" y="446.5" width="219.8" height="45.3" rx="6"/>
    <text x="368.9" y="465.0" font-size="13.0">Profunda femoris supplies the</text>
    <text x="368.9" y="482.1" font-size="13.0">thigh</text>
  </g>
  <path class="link b3" data-depth="3" stroke-width="1.3" d="M358.9,521.8 C321.7,521.8 321.7,521.8 284.5,521.8"/>
  <g class="node d2 b3" data-depth="2">
    <rect class="box" x="358.9" y="499.1" width="219.8" height="45.3" rx="6"/>
    <text x="368.9" y="517.6" font-size="13.0">Femoral artery through hiatus</text>
    <text x="368.9" y="534.8" font-size="13.0">becomes popliteal</text>
  </g>
  <g class="node d3 b3" data-depth="3">
    <rect class="box" x="45.9" y="499.8" width="238.6" height="44.0" rx="6"/>
    <text x="55.9" y="517.8" font-size="12.5">Saphenous nerve does not pass the</text>
    <text x="55.9" y="534.3" font-size="12.5">hiatus</text>
  </g>
  <g class="node d2 b3" data-depth="2">
    <rect class="box" x="324.5" y="551.8" width="254.3" height="45.3" rx="6"/>
    <text x="334.5" y="570.3" font-size="13.0">Great saphenous anterior to medial</text>
    <text x="334.5" y="587.5" font-size="13.0">malleolus</text>
  </g>
  <g class="node d2 b3" data-depth="2">
    <rect class="box" x="352.1" y="605.1" width="226.7" height="45.3" rx="6"/>
    <text x="362.1" y="623.6" font-size="13.0">Small saphenous behind lateral</text>
    <text x="362.1" y="640.8" font-size="13.0">malleolus</text>
  </g>
  <path class="link b4" data-depth="2" stroke-width="1.8" d="M1257.5,651.7 C1349.6,651.7 1349.6,492.8 1441.7,492.8"/>
  <path class="link b4" data-depth="2" stroke-width="1.8" d="M1257.5,651.7 C1349.6,651.7 1349.6,545.4 1441.7,545.4"/>
  <path class="link b4" data-depth="2" stroke-width="1.8" d="M1257.5,651.7 C1349.6,651.7 1349.6,598.1 1441.7,598.1"/>
  <path class="link b4" data-depth="2" stroke-width="1.8" d="M1257.5,651.7 C1349.6,651.7 1349.6,651.4 1441.7,651.4"/>
  <path class="link b4" data-depth="2" stroke-width="1.8" d="M1257.5,651.7 C1349.6,651.7 1349.6,704.7 1441.7,704.7"/>
  <path class="link b4" data-depth="2" stroke-width="1.8" d="M1257.5,651.7 C1349.6,651.7 1349.6,758.0 1441.7,758.0"/>
  <path class="link b4" data-depth="2" stroke-width="1.8" d="M1257.5,651.7 C1349.6,651.7 1349.6,810.7 1441.7,810.7"/>
  <g class="node d1 b4" data-depth="1">
    <rect class="box" x="1203.5" y="636.7" width="53.9" height="30.1" rx="9"/>
    <text x="1213.5" y="656.7" font-size="14.5">Knee</text>
  </g>
  <g class="node d2 b4" data-depth="2">
    <rect class="box" x="1441.7" y="470.1" width="254.3" height="45.3" rx="6"/>
    <text x="1451.7" y="488.6" font-size="13.0">Femoral condyles roll and glide on</text>
    <text x="1451.7" y="505.8" font-size="13.0">flat plateaus</text>
  </g>
  <path class="link b4" data-depth="3" stroke-width="1.3" d="M1682.2,545.4 C1709.0,545.4 1709.0,545.4 1735.9,545.4"/>
  <g class="node d2 b4" data-depth="2">
    <rect class="box" x="1441.7" y="522.8" width="240.5" height="45.3" rx="6"/>
    <text x="1451.7" y="541.3" font-size="13.0">Menisci deepen, distribute load,</text>
    <text x="1451.7" y="558.4" font-size="13.0">absorb shock</text>
  </g>
  <g class="node d3 b4" data-depth="3">
    <rect class="box" x="1735.9" y="523.4" width="232.0" height="44.0" rx="6"/>
    <text x="1745.9" y="541.4" font-size="12.5">Medial meniscus firmly attached,</text>
    <text x="1745.9" y="557.9" font-size="12.5">less mobile</text>
  </g>
  <g class="node d2 b4" data-depth="2">
    <rect class="box" x="1441.7" y="575.4" width="219.8" height="45.3" rx="6"/>
    <text x="1451.7" y="593.9" font-size="13.0">Cruciates resist anterior and</text>
    <text x="1451.7" y="611.1" font-size="13.0">posterior translation</text>
  </g>
  <g class="node d2 b4" data-depth="2">
    <rect class="box" x="1441.7" y="628.7" width="247.4" height="45.3" rx="6"/>
    <text x="1451.7" y="647.2" font-size="13.0">Tibial collateral resists valgus,</text>
    <text x="1451.7" y="664.4" font-size="13.0">blends with capsule</text>
  </g>
  <g class="node d2 b4" data-depth="2">
    <rect class="box" x="1441.7" y="682.1" width="247.4" height="45.3" rx="6"/>
    <text x="1451.7" y="700.6" font-size="13.0">Fibular collateral resists varus,</text>
    <text x="1451.7" y="717.7" font-size="13.0">separate from meniscus</text>
  </g>
  <g class="node d2 b4" data-depth="2">
    <rect class="box" x="1441.7" y="735.4" width="192.2" height="45.3" rx="6"/>
    <text x="1451.7" y="753.9" font-size="13.0">Terminal extension locks,</text>
    <text x="1451.7" y="771.0" font-size="13.0">popliteus unlocks</text>
  </g>
  <path class="link b4" data-depth="3" stroke-width="1.3" d="M1682.2,810.7 C1709.0,810.7 1709.0,810.7 1735.9,810.7"/>
  <g class="node d2 b4" data-depth="2">
    <rect class="box" x="1441.7" y="788.0" width="240.5" height="45.3" rx="6"/>
    <text x="1451.7" y="806.5" font-size="13.0">Popliteal artery lies deepest in</text>
    <text x="1451.7" y="823.7" font-size="13.0">the fossa</text>
  </g>
  <g class="node d3 b4" data-depth="3">
    <rect class="box" x="1735.9" y="788.7" width="205.5" height="44.0" rx="6"/>
    <text x="1745.9" y="806.7" font-size="12.5">Reduced dislocation may hide</text>
    <text x="1745.9" y="823.2" font-size="12.5">vascular injury</text>
  </g>
  <path class="link b5" data-depth="2" stroke-width="1.8" d="M729.0,800.0 C653.9,800.0 653.9,680.4 578.8,680.4"/>
  <path class="link b5" data-depth="2" stroke-width="1.8" d="M729.0,800.0 C653.9,800.0 653.9,733.1 578.8,733.1"/>
  <path class="link b5" data-depth="2" stroke-width="1.8" d="M729.0,800.0 C653.9,800.0 653.9,777.5 578.8,777.5"/>
  <path class="link b5" data-depth="2" stroke-width="1.8" d="M729.0,800.0 C653.9,800.0 653.9,821.9 578.8,821.9"/>
  <path class="link b5" data-depth="2" stroke-width="1.8" d="M729.0,800.0 C653.9,800.0 653.9,875.2 578.8,875.2"/>
  <path class="link b5" data-depth="2" stroke-width="1.8" d="M729.0,800.0 C653.9,800.0 653.9,919.7 578.8,919.7"/>
  <g class="node d1 b5" data-depth="1">
    <rect class="box" x="729.0" y="785.0" width="155.7" height="30.1" rx="9"/>
    <text x="739.0" y="805.0" font-size="14.5">Leg compartments</text>
  </g>
  <path class="link b5" data-depth="3" stroke-width="1.3" d="M365.8,680.4 C325.2,680.4 325.2,680.4 284.5,680.4"/>
  <g class="node d2 b5" data-depth="2">
    <rect class="box" x="365.8" y="657.8" width="212.9" height="45.3" rx="6"/>
    <text x="375.8" y="676.3" font-size="13.0">Anterior: dorsiflexion, deep</text>
    <text x="375.8" y="693.4" font-size="13.0">fibular nerve</text>
  </g>
  <g class="node d3 b5" data-depth="3">
    <rect class="box" x="65.8" y="658.4" width="218.7" height="44.0" rx="6"/>
    <text x="75.8" y="676.4" font-size="12.5">Anterior tibial artery becomes</text>
    <text x="75.8" y="692.9" font-size="12.5">dorsalis pedis</text>
  </g>
  <g class="node d2 b5" data-depth="2">
    <rect class="box" x="352.1" y="710.4" width="226.7" height="45.3" rx="6"/>
    <text x="362.1" y="728.9" font-size="13.0">Lateral: eversion, superficial</text>
    <text x="362.1" y="746.1" font-size="13.0">fibular nerve</text>
  </g>
  <path class="link b5" data-depth="3" stroke-width="1.3" d="M345.2,777.5 C314.8,777.5 314.8,777.5 284.5,777.5"/>
  <g class="node d2 b5" data-depth="2">
    <rect class="box" x="345.2" y="754.9" width="233.6" height="45.3" rx="6"/>
    <text x="355.2" y="773.4" font-size="13.0">Common fibular nerve at fibular</text>
    <text x="355.2" y="790.5" font-size="13.0">neck</text>
  </g>
  <g class="node d3 b5" data-depth="3">
    <rect class="box" x="79.0" y="763.8" width="205.5" height="27.5" rx="6"/>
    <text x="89.0" y="781.8" font-size="12.5">Compression causes foot drop</text>
  </g>
  <g class="node d2 b5" data-depth="2">
    <rect class="box" x="331.4" y="799.3" width="247.4" height="45.3" rx="6"/>
    <text x="341.4" y="817.8" font-size="13.0">Superficial posterior plantarflex</text>
    <text x="341.4" y="834.9" font-size="13.0">via calcaneal tendon</text>
  </g>
  <g class="node d2 b5" data-depth="2">
    <rect class="box" x="331.4" y="852.6" width="247.4" height="45.3" rx="6"/>
    <text x="341.4" y="871.1" font-size="13.0">Deep posterior flex toes, invert,</text>
    <text x="341.4" y="888.2" font-size="13.0">support arches</text>
  </g>
  <path class="link b5" data-depth="3" stroke-width="1.3" d="M372.7,919.7 C328.6,919.7 328.6,919.7 284.5,919.7"/>
  <g class="node d2 b5" data-depth="2">
    <rect class="box" x="372.7" y="897.0" width="206.0" height="45.3" rx="6"/>
    <text x="382.7" y="915.5" font-size="13.0">Tarsal tunnel behind medial</text>
    <text x="382.7" y="932.7" font-size="13.0">malleolus</text>
  </g>
  <g class="node d3 b5" data-depth="3">
    <rect class="box" x="105.5" y="905.9" width="179.0" height="27.5" rx="6"/>
    <text x="115.5" y="923.9" font-size="12.5">Tibial-nerve compression</text>
  </g>
  <path class="link b6" data-depth="2" stroke-width="1.8" d="M686.6,1093.5 C632.7,1093.5 632.7,955.2 578.8,955.2"/>
  <path class="link b6" data-depth="2" stroke-width="1.8" d="M686.6,1093.5 C632.7,1093.5 632.7,999.6 578.8,999.6"/>
  <path class="link b6" data-depth="2" stroke-width="1.8" d="M686.6,1093.5 C632.7,1093.5 632.7,1044.3 578.8,1044.3"/>
  <path class="link b6" data-depth="2" stroke-width="1.8" d="M686.6,1093.5 C632.7,1093.5 632.7,1089.0 578.8,1089.0"/>
  <path class="link b6" data-depth="2" stroke-width="1.8" d="M686.6,1093.5 C632.7,1093.5 632.7,1142.4 578.8,1142.4"/>
  <path class="link b6" data-depth="2" stroke-width="1.8" d="M686.6,1093.5 C632.7,1093.5 632.7,1187.1 578.8,1187.1"/>
  <path class="link b6" data-depth="2" stroke-width="1.8" d="M686.6,1093.5 C632.7,1093.5 632.7,1231.8 578.8,1231.8"/>
  <g class="node d1 b6" data-depth="1">
    <rect class="box" x="686.6" y="1078.4" width="198.1" height="30.1" rx="9"/>
    <text x="696.6" y="1098.4" font-size="14.5">Ankle and foot arches</text>
  </g>
  <path class="link b6" data-depth="3" stroke-width="1.3" d="M407.2,955.2 C345.8,955.2 345.8,955.2 284.5,955.2"/>
  <g class="node d2 b6" data-depth="2">
    <rect class="box" x="407.2" y="932.5" width="171.6" height="45.3" rx="6"/>
    <text x="417.2" y="951.0" font-size="13.0">Mortise most stable in</text>
    <text x="417.2" y="968.2" font-size="13.0">dorsiflexion</text>
  </g>
  <g class="node d3 b6" data-depth="3">
    <rect class="box" x="26.0" y="941.4" width="258.5" height="27.5" rx="6"/>
    <text x="36.0" y="959.4" font-size="12.5">Wider anterior talus engages mortise</text>
  </g>
  <g class="node d2 b6" data-depth="2">
    <rect class="box" x="365.8" y="976.9" width="212.9" height="45.3" rx="6"/>
    <text x="375.8" y="995.4" font-size="13.0">Lateral ligaments and strong</text>
    <text x="375.8" y="1012.6" font-size="13.0">deltoid ligament</text>
  </g>
  <g class="node d2 b6" data-depth="2">
    <rect class="box" x="338.3" y="1030.2" width="240.5" height="28.2" rx="6"/>
    <text x="348.3" y="1048.7" font-size="13.0">Subtalar joints adapt to terrain</text>
  </g>
  <g class="node d2 b6" data-depth="2">
    <rect class="box" x="358.9" y="1066.4" width="219.8" height="45.3" rx="6"/>
    <text x="368.9" y="1084.9" font-size="13.0">Talus: no muscle attachments,</text>
    <text x="368.9" y="1102.0" font-size="13.0">vulnerable supply</text>
  </g>
  <g class="node d2 b6" data-depth="2">
    <rect class="box" x="338.3" y="1119.7" width="240.5" height="45.3" rx="6"/>
    <text x="348.3" y="1138.2" font-size="13.0">Talar head is keystone of medial</text>
    <text x="348.3" y="1155.4" font-size="13.0">arch</text>
  </g>
  <g class="node d2 b6" data-depth="2">
    <rect class="box" x="331.4" y="1173.0" width="247.4" height="28.2" rx="6"/>
    <text x="341.4" y="1191.5" font-size="13.0">Lateral arch lower and more rigid</text>
  </g>
  <g class="node d2 b6" data-depth="2">
    <rect class="box" x="372.7" y="1209.2" width="206.0" height="45.3" rx="6"/>
    <text x="382.7" y="1227.7" font-size="13.0">Windlass mechanism tightens</text>
    <text x="382.7" y="1244.8" font-size="13.0">plantar aponeurosis</text>
  </g>
  <path class="link b7" data-depth="2" stroke-width="1.8" d="M1376.2,960.4 C1409.0,960.4 1409.0,862.7 1441.7,862.7"/>
  <path class="link b7" data-depth="2" stroke-width="1.8" d="M1376.2,960.4 C1409.0,960.4 1409.0,915.4 1441.7,915.4"/>
  <path class="link b7" data-depth="2" stroke-width="1.8" d="M1376.2,960.4 C1409.0,960.4 1409.0,968.7 1441.7,968.7"/>
  <path class="link b7" data-depth="2" stroke-width="1.8" d="M1376.2,960.4 C1409.0,960.4 1409.0,1013.4 1441.7,1013.4"/>
  <path class="link b7" data-depth="2" stroke-width="1.8" d="M1376.2,960.4 C1409.0,960.4 1409.0,1058.2 1441.7,1058.2"/>
  <g class="node d1 b7" data-depth="1">
    <rect class="box" x="1203.5" y="945.4" width="172.7" height="30.1" rx="9"/>
    <text x="1213.5" y="965.4" font-size="14.5">Lumbosacral plexus</text>
  </g>
  <path class="link b7" data-depth="3" stroke-width="1.3" d="M1682.2,862.7 C1709.0,862.7 1709.0,862.7 1735.9,862.7"/>
  <g class="node d2 b7" data-depth="2">
    <rect class="box" x="1441.7" y="848.6" width="240.5" height="28.2" rx="6"/>
    <text x="1451.7" y="867.1" font-size="13.0">Lumbar plexus forms within psoas</text>
  </g>
  <g class="node d3 b7" data-depth="3">
    <rect class="box" x="1735.9" y="840.7" width="251.9" height="44.0" rx="6"/>
    <text x="1745.9" y="858.7" font-size="12.5">Lateral femoral cutaneous: meralgia</text>
    <text x="1745.9" y="875.2" font-size="12.5">paraesthetica</text>
  </g>
  <g class="node d2 b7" data-depth="2">
    <rect class="box" x="1441.7" y="892.7" width="240.5" height="45.3" rx="6"/>
    <text x="1451.7" y="911.2" font-size="13.0">Sciatic nerve: tibial and common</text>
    <text x="1451.7" y="928.4" font-size="13.0">fibular divisions</text>
  </g>
  <g class="node d2 b7" data-depth="2">
    <rect class="box" x="1441.7" y="946.0" width="206.0" height="45.3" rx="6"/>
    <text x="1451.7" y="964.5" font-size="13.0">Superior gluteal abductors,</text>
    <text x="1451.7" y="981.7" font-size="13.0">inferior gluteus maximus</text>
  </g>
  <g class="node d2 b7" data-depth="2">
    <rect class="box" x="1441.7" y="999.3" width="240.5" height="28.2" rx="6"/>
    <text x="1451.7" y="1017.8" font-size="13.0">Pudendal nerve supplies perineum</text>
  </g>
  <g class="node d2 b7" data-depth="2">
    <rect class="box" x="1441.7" y="1035.5" width="219.8" height="45.3" rx="6"/>
    <text x="1451.7" y="1054.0" font-size="13.0">Deep fibular senses first web</text>
    <text x="1451.7" y="1071.2" font-size="13.0">space</text>
  </g>
  <path class="link b8" data-depth="2" stroke-width="1.8" d="M1359.3,1258.1 C1400.5,1258.1 1400.5,1102.6 1441.7,1102.6"/>
  <path class="link b8" data-depth="2" stroke-width="1.8" d="M1359.3,1258.1 C1400.5,1258.1 1400.5,1147.0 1441.7,1147.0"/>
  <path class="link b8" data-depth="2" stroke-width="1.8" d="M1359.3,1258.1 C1400.5,1258.1 1400.5,1200.3 1441.7,1200.3"/>
  <path class="link b8" data-depth="2" stroke-width="1.8" d="M1359.3,1258.1 C1400.5,1258.1 1400.5,1253.6 1441.7,1253.6"/>
  <path class="link b8" data-depth="2" stroke-width="1.8" d="M1359.3,1258.1 C1400.5,1258.1 1400.5,1306.9 1441.7,1306.9"/>
  <path class="link b8" data-depth="2" stroke-width="1.8" d="M1359.3,1258.1 C1400.5,1258.1 1400.5,1360.3 1441.7,1360.3"/>
  <path class="link b8" data-depth="2" stroke-width="1.8" d="M1359.3,1258.1 C1400.5,1258.1 1400.5,1413.6 1441.7,1413.6"/>
  <g class="node d1 b8" data-depth="1">
    <rect class="box" x="1203.5" y="1243.0" width="155.7" height="30.1" rx="9"/>
    <text x="1213.5" y="1263.0" font-size="14.5">Gait integration</text>
  </g>
  <path class="link b8" data-depth="3" stroke-width="1.3" d="M1689.0,1102.6 C1712.5,1102.6 1712.5,1102.6 1735.9,1102.6"/>
  <g class="node d2 b8" data-depth="2">
    <rect class="box" x="1441.7" y="1088.5" width="247.4" height="28.2" rx="6"/>
    <text x="1451.7" y="1107.0" font-size="13.0">Stance and swing phases alternate</text>
  </g>
  <g class="node d3 b8" data-depth="3">
    <rect class="box" x="1735.9" y="1088.8" width="258.5" height="27.5" rx="6"/>
    <text x="1745.9" y="1106.8" font-size="12.5">Double support disappears in running</text>
  </g>
  <g class="node d2 b8" data-depth="2">
    <rect class="box" x="1441.7" y="1124.3" width="247.4" height="45.3" rx="6"/>
    <text x="1451.7" y="1142.8" font-size="13.0">Hip abductors stabilise pelvis in</text>
    <text x="1451.7" y="1160.0" font-size="13.0">stance</text>
  </g>
  <g class="node d2 b8" data-depth="2">
    <rect class="box" x="1441.7" y="1177.6" width="233.6" height="45.3" rx="6"/>
    <text x="1451.7" y="1196.1" font-size="13.0">Quadriceps control knee flexion</text>
    <text x="1451.7" y="1213.3" font-size="13.0">after contact</text>
  </g>
  <g class="node d2 b8" data-depth="2">
    <rect class="box" x="1441.7" y="1231.0" width="226.7" height="45.3" rx="6"/>
    <text x="1451.7" y="1249.5" font-size="13.0">Plantarflexors restrain tibia,</text>
    <text x="1451.7" y="1266.6" font-size="13.0">generate push-off</text>
  </g>
  <g class="node d2 b8" data-depth="2">
    <rect class="box" x="1441.7" y="1284.3" width="226.7" height="45.3" rx="6"/>
    <text x="1451.7" y="1302.8" font-size="13.0">Dorsiflexors control lowering,</text>
    <text x="1451.7" y="1319.9" font-size="13.0">clear toes</text>
  </g>
  <g class="node d2 b8" data-depth="2">
    <rect class="box" x="1441.7" y="1337.6" width="219.8" height="45.3" rx="6"/>
    <text x="1451.7" y="1356.1" font-size="13.0">Deficits create compensations</text>
    <text x="1451.7" y="1373.3" font-size="13.0">elsewhere</text>
  </g>
  <g class="node d2 b8" data-depth="2">
    <rect class="box" x="1441.7" y="1390.9" width="219.8" height="45.3" rx="6"/>
    <text x="1451.7" y="1409.4" font-size="13.0">Linked kinetic chain, not one</text>
    <text x="1451.7" y="1426.6" font-size="13.0">joint</text>
  </g>
</svg>
