<svg xmlns="http://www.w3.org/2000/svg" class="mm" viewBox="0 0 2031 1174" width="2031" height="1174" role="img" aria-label="Cofactors, regulation, pathway control, and measurement">
<style>
  .mm-bg { fill: #faf8f4; }
  .mm text { font-family: Inter, ui-sans-serif, -apple-system, BlinkMacSystemFont, 'Segoe UI', sans-serif; fill: #1b1917; }
  .mm .link { fill: none; stroke: #c9c1b4; }
  .mm .box { fill: none; stroke: none; }
  .mm .d0 .box { fill: #1b1917; stroke: #1b1917; }
  .mm .d0 text { fill: #faf8f4; font-weight: 650; }
  .mm .d1 text { font-weight: 600; }

  .mm .link.b0 { stroke: #4b9ac6; }
  .mm .b0.d1 .box { fill: #d7e5eb; stroke: #0072B2; stroke-width: 1.5; }
  .mm .b0.d1 text { fill: #075c8b; }
  .mm .b0.d2 .box { fill: #e8efef; stroke: #70aed0; }
  .mm .b0.d3 text, .mm .b0.d4 text { fill: #075c8b; }

  .mm .link.b1 { stroke: #e08c49; }
  .mm .b1.d1 .box { fill: #f5e2d2; stroke: #D55E00; stroke-width: 1.5; }
  .mm .b1.d1 text { fill: #a64d06; }
  .mm .b1.d2 .box { fill: #f7ede3; stroke: #e6a36e; }
  .mm .b1.d3 text, .mm .b1.d4 text { fill: #a64d06; }

  .mm .link.b2 { stroke: #4bb99a; }
  .mm .b2.d1 .box { fill: #d7ebe2; stroke: #009E73; stroke-width: 1.5; }
  .mm .b2.d1 text { fill: #077d5c; }
  .mm .b2.d2 .box { fill: #e8f2eb; stroke: #70c6ad; }
  .mm .b2.d3 text, .mm .b2.d4 text { fill: #077d5c; }

  .mm .link.b3 { stroke: #da9fbe; }
  .mm .b3.d1 .box { fill: #f4e6e9; stroke: #CC79A7; stroke-width: 1.5; }
  .mm .b3.d1 text { fill: #985c7c; }
  .mm .b3.d2 .box { fill: #f7efef; stroke: #e1b2ca; }
  .mm .b3.d3 text, .mm .b3.d4 text { fill: #985c7c; }

  .mm .link.b4 { stroke: #bba149; }
  .mm .b4.d1 .box { fill: #ede7d2; stroke: #A07C00; stroke-width: 1.5; }
  .mm .b4.d1 text { fill: #7f6306; }
  .mm .b4.d2 .box { fill: #f4efe3; stroke: #c8b46e; }
  .mm .b4.d3 text, .mm .b4.d4 text { fill: #7f6306; }

  .mm .link.b5 { stroke: #84c1e2; }
  .mm .b5.d1 .box { fill: #e3eef2; stroke: #51a9db; stroke-width: 1.5; }
  .mm .b5.d1 text { fill: #3d7899; }
  .mm .b5.d2 .box { fill: #eff3f3; stroke: #9dcde6; }
  .mm .b5.d3 text, .mm .b5.d4 text { fill: #3d7899; }

  .mm .link.b6 { stroke: #9580b0; }
  .mm .b6.d1 .box { fill: #e6e0e6; stroke: #6A4C93; stroke-width: 1.5; }
  .mm .b6.d1 text { fill: #563f74; }
  .mm .b6.d2 .box { fill: #f0eced; stroke: #ab99bf; }
  .mm .b6.d3 text, .mm .b6.d4 text { fill: #563f74; }

  .mm .link.b7 { stroke: #98ac74; }
  .mm .b7.d1 .box { fill: #e6e9da; stroke: #6E8B3D; stroke-width: 1.5; }
  .mm .b7.d1 text { fill: #596e34; }
  .mm .b7.d2 .box { fill: #f0f0e7; stroke: #adbc8f; }
  .mm .b7.d3 text, .mm .b7.d4 text { fill: #596e34; }
@media (prefers-color-scheme: dark) {
  .mm-bg { fill: #12100e; }
  .mm text { font-family: Inter, ui-sans-serif, -apple-system, BlinkMacSystemFont, 'Segoe UI', sans-serif; fill: #ece7df; }
  .mm .link { fill: none; stroke: #3d3833; }
  .mm .box { fill: none; stroke: none; }
  .mm .d0 .box { fill: #ece7df; stroke: #ece7df; }
  .mm .d0 text { fill: #12100e; font-weight: 650; }
  .mm .d1 text { font-weight: 600; }

  .mm .link.b0 { stroke: #2d6a8d; }
  .mm .b0.d1 .box { fill: #172227; stroke: #3891c3; stroke-width: 1.5; }
  .mm .b0.d1 text { fill: #65a6ca; }
  .mm .b0.d2 .box { fill: #15191b; stroke: #275772; }
  .mm .b0.d3 text, .mm .b0.d4 text { fill: #65a6ca; }

  .mm .link.b1 { stroke: #a15f2b; }
  .mm .b1.d1 .box { fill: #2f2014; stroke: #de8138; stroke-width: 1.5; }
  .mm .b1.d1 text { fill: #e29a62; }
  .mm .b1.d2 .box { fill: #201811; stroke: #824e25; }
  .mm .b1.d3 text, .mm .b1.d4 text { fill: #e29a62; }

  .mm .link.b2 { stroke: #2d826a; }
  .mm .b2.d1 .box { fill: #172720; stroke: #38b392; stroke-width: 1.5; }
  .mm .b2.d1 text { fill: #65c0a5; }
  .mm .b2.d2 .box { fill: #151b17; stroke: #276a57; }
  .mm .b2.d3 text, .mm .b2.d4 text { fill: #65c0a5; }

  .mm .link.b3 { stroke: #9c6e86; }
  .mm .b3.d1 .box { fill: #2e2326; stroke: #d796ba; stroke-width: 1.5; }
  .mm .b3.d1 text { fill: #dcaac3; }
  .mm .b3.d2 .box { fill: #20191a; stroke: #7e5a6d; }
  .mm .b3.d3 text, .mm .b3.d4 text { fill: #dcaac3; }

  .mm .link.b4 { stroke: #84702b; }
  .mm .b4.d1 .box { fill: #292314; stroke: #b59938; stroke-width: 1.5; }
  .mm .b4.d1 text { fill: #c3ac62; }
  .mm .b4.d2 .box { fill: #1d1a11; stroke: #6c5b25; }
  .mm .b4.d3 text, .mm .b4.d4 text { fill: #c3ac62; }

  .mm .link.b5 { stroke: #5c8eab; }
  .mm .b5.d1 .box { fill: #21292d; stroke: #7bc4ee; stroke-width: 1.5; }
  .mm .b5.d1 text { fill: #97cdea; }
  .mm .b5.d2 .box { fill: #191d1e; stroke: #4c7389; }
  .mm .b5.d3 text, .mm .b5.d4 text { fill: #97cdea; }

  .mm .link.b6 { stroke: #67557c; }
  .mm .b6.d1 .box { fill: #231e24; stroke: #8b73ab; stroke-width: 1.5; }
  .mm .b6.d1 text { fill: #a390b8; }
  .mm .b6.d2 .box { fill: #1a1719; stroke: #554664; }
  .mm .b6.d3 text, .mm .b6.d4 text { fill: #a390b8; }

  .mm .link.b7 { stroke: #69784d; }
  .mm .b7.d1 .box { fill: #23251b; stroke: #8ea568; stroke-width: 1.5; }
  .mm .b7.d1 text { fill: #a6b686; }
  .mm .b7.d2 .box { fill: #1b1a14; stroke: #566240; }
  .mm .b7.d3 text, .mm .b7.d4 text { fill: #a6b686; }
}
</style>
  <rect class="mm-bg" width="2031" height="1174"/>
  <path class="link b0" data-depth="1" stroke-width="2.2" d="M1129.6,587.0 C874.2,587.0 874.2,101.3 618.8,101.3"/>
  <path class="link b1" data-depth="1" stroke-width="2.2" d="M1129.6,587.0 C895.4,587.0 895.4,349.5 661.2,349.5"/>
  <path class="link b2" data-depth="1" stroke-width="2.2" d="M1129.6,587.0 C1149.6,587.0 1149.6,105.1 1169.6,105.1"/>
  <path class="link b3" data-depth="1" stroke-width="2.2" d="M1129.6,587.0 C1149.6,587.0 1149.6,347.5 1169.6,347.5"/>
  <path class="link b4" data-depth="1" stroke-width="2.2" d="M1129.6,587.0 C878.4,587.0 878.4,636.0 627.2,636.0"/>
  <path class="link b5" data-depth="1" stroke-width="2.2" d="M1129.6,587.0 C1149.6,587.0 1149.6,634.0 1169.6,634.0"/>
  <path class="link b6" data-depth="1" stroke-width="2.2" d="M1129.6,587.0 C1149.6,587.0 1149.6,969.7 1169.6,969.7"/>
  <path class="link b7" data-depth="1" stroke-width="2.2" d="M1129.6,587.0 C895.4,587.0 895.4,926.2 661.2,926.2"/>
  <g class="node d0 b0" data-depth="0">
    <rect class="box" x="890.8" y="547.8" width="238.8" height="78.3" rx="9"/>
    <text x="900.8" y="570.3" font-size="17.0">Cofactors, regulation,</text>
    <text x="900.8" y="592.8" font-size="17.0">pathway control, and</text>
    <text x="900.8" y="615.2" font-size="17.0">measurement</text>
  </g>
  <path class="link b0" data-depth="2" stroke-width="1.8" d="M618.8,101.3 C598.8,101.3 598.8,48.7 578.8,48.7"/>
  <path class="link b0" data-depth="2" stroke-width="1.8" d="M618.8,101.3 C598.8,101.3 598.8,101.3 578.8,101.3"/>
  <path class="link b0" data-depth="2" stroke-width="1.8" d="M618.8,101.3 C598.8,101.3 598.8,154.0 578.8,154.0"/>
  <g class="node d1 b0" data-depth="1">
    <rect class="box" x="618.8" y="86.2" width="232.1" height="30.1" rx="9"/>
    <text x="628.8" y="106.2" font-size="14.5">Vitamin-derived cofactors</text>
  </g>
  <g class="node d2 b0" data-depth="2">
    <rect class="box" x="324.5" y="26.0" width="254.3" height="45.3" rx="6"/>
    <text x="334.5" y="44.5" font-size="13.0">Deficiency impairs enzymes sharing</text>
    <text x="334.5" y="61.7" font-size="13.0">a task</text>
  </g>
  <path class="link b0" data-depth="3" stroke-width="1.3" d="M345.2,101.3 C314.8,101.3 314.8,101.3 284.5,101.3"/>
  <g class="node d2 b0" data-depth="2">
    <rect class="box" x="345.2" y="78.7" width="233.6" height="45.3" rx="6"/>
    <text x="355.2" y="97.2" font-size="13.0">Excess adds little once enzymes</text>
    <text x="355.2" y="114.3" font-size="13.0">saturate</text>
  </g>
  <g class="node d3 b0" data-depth="3">
    <rect class="box" x="39.2" y="79.3" width="245.2" height="44.0" rx="6"/>
    <text x="49.2" y="97.3" font-size="12.5">Stored fat-soluble vitamins can be</text>
    <text x="49.2" y="113.8" font-size="12.5">toxic</text>
  </g>
  <g class="node d2 b0" data-depth="2">
    <rect class="box" x="365.8" y="131.3" width="212.9" height="45.3" rx="6"/>
    <text x="375.8" y="149.8" font-size="13.0">Status depends on absorption</text>
    <text x="375.8" y="167.0" font-size="13.0">through clearance</text>
  </g>
  <path class="link b1" data-depth="2" stroke-width="1.8" d="M661.2,349.5 C620.0,349.5 620.0,228.5 578.8,228.5"/>
  <path class="link b1" data-depth="2" stroke-width="1.8" d="M661.2,349.5 C620.0,349.5 620.0,294.1 578.8,294.1"/>
  <path class="link b1" data-depth="2" stroke-width="1.8" d="M661.2,349.5 C620.0,349.5 620.0,355.6 578.8,355.6"/>
  <path class="link b1" data-depth="2" stroke-width="1.8" d="M661.2,349.5 C620.0,349.5 620.0,417.8 578.8,417.8"/>
  <path class="link b1" data-depth="2" stroke-width="1.8" d="M661.2,349.5 C620.0,349.5 620.0,470.5 578.8,470.5"/>
  <g class="node d1 b1" data-depth="1">
    <rect class="box" x="661.2" y="324.8" width="189.7" height="49.3" rx="9"/>
    <text x="671.2" y="344.8" font-size="14.5">B vitamins in energy</text>
    <text x="671.2" y="364.0" font-size="14.5">metabolism</text>
  </g>
  <path class="link b1" data-depth="3" stroke-width="1.3" d="M407.2,228.5 C345.8,228.5 345.8,206.6 284.5,206.6"/>
  <path class="link b1" data-depth="3" stroke-width="1.3" d="M407.2,228.5 C345.8,228.5 345.8,250.4 284.5,250.4"/>
  <g class="node d2 b1" data-depth="2">
    <rect class="box" x="407.2" y="214.4" width="171.6" height="28.2" rx="6"/>
    <text x="417.2" y="232.9" font-size="13.0">Thiamine pyrophosphate</text>
  </g>
  <g class="node d3 b1" data-depth="3">
    <rect class="box" x="92.2" y="184.6" width="192.2" height="44.0" rx="6"/>
    <text x="102.2" y="202.6" font-size="12.5">Oxidative decarboxylation,</text>
    <text x="102.2" y="219.1" font-size="12.5">transketolase</text>
  </g>
  <g class="node d3 b1" data-depth="3">
    <rect class="box" x="52.5" y="236.6" width="232.0" height="27.5" rx="6"/>
    <text x="62.5" y="254.6" font-size="12.5">Brain and heart; lactic acidosis</text>
  </g>
  <path class="link b1" data-depth="3" stroke-width="1.3" d="M393.4,294.1 C338.9,294.1 338.9,294.1 284.5,294.1"/>
  <g class="node d2 b1" data-depth="2">
    <rect class="box" x="393.4" y="280.1" width="185.4" height="28.2" rx="6"/>
    <text x="403.4" y="298.6" font-size="13.0">Riboflavin forms flavins</text>
  </g>
  <g class="node d3 b1" data-depth="3">
    <rect class="box" x="79.0" y="272.1" width="205.5" height="44.0" rx="6"/>
    <text x="89.0" y="290.1" font-size="12.5">Yellow urine mainly reflects</text>
    <text x="89.0" y="306.6" font-size="12.5">excretion</text>
  </g>
  <path class="link b1" data-depth="3" stroke-width="1.3" d="M386.5,355.6 C335.5,355.6 335.5,337.9 284.5,337.9"/>
  <path class="link b1" data-depth="3" stroke-width="1.3" d="M386.5,355.6 C335.5,355.6 335.5,373.4 284.5,373.4"/>
  <g class="node d2 b1" data-depth="2">
    <rect class="box" x="386.5" y="341.6" width="192.2" height="28.2" rx="6"/>
    <text x="396.5" y="360.1" font-size="13.0">Niacin forms NAD and NADP</text>
  </g>
  <g class="node d3 b1" data-depth="3">
    <rect class="box" x="52.5" y="324.1" width="232.0" height="27.5" rx="6"/>
    <text x="62.5" y="342.1" font-size="12.5">NAD catabolic, NADP biosynthetic</text>
  </g>
  <g class="node d3 b1" data-depth="3">
    <rect class="box" x="98.9" y="359.6" width="185.6" height="27.5" rx="6"/>
    <text x="108.9" y="377.6" font-size="12.5">Skin, gut, nervous system</text>
  </g>
  <g class="node d2 b1" data-depth="2">
    <rect class="box" x="365.8" y="395.1" width="212.9" height="45.3" rx="6"/>
    <text x="375.8" y="413.6" font-size="13.0">Pantothenate: coenzyme A and</text>
    <text x="375.8" y="430.8" font-size="13.0">thioesters</text>
  </g>
  <path class="link b1" data-depth="3" stroke-width="1.3" d="M400.3,470.5 C342.4,470.5 342.4,470.5 284.5,470.5"/>
  <g class="node d2 b1" data-depth="2">
    <rect class="box" x="400.3" y="447.8" width="178.5" height="45.3" rx="6"/>
    <text x="410.3" y="466.3" font-size="13.0">Pyridoxal phosphate and</text>
    <text x="410.3" y="483.5" font-size="13.0">amino-group transfer</text>
  </g>
  <g class="node d3 b1" data-depth="3">
    <rect class="box" x="32.6" y="448.5" width="251.9" height="44.0" rx="6"/>
    <text x="42.6" y="466.5" font-size="12.5">Neuropathy, seizures, sideroblastic</text>
    <text x="42.6" y="483.0" font-size="12.5">anaemia</text>
  </g>
  <path class="link b2" data-depth="2" stroke-width="1.8" d="M1376.2,105.1 C1417.4,105.1 1417.4,48.0 1458.6,48.0"/>
  <path class="link b2" data-depth="2" stroke-width="1.8" d="M1376.2,105.1 C1417.4,105.1 1417.4,92.1 1458.6,92.1"/>
  <path class="link b2" data-depth="2" stroke-width="1.8" d="M1376.2,105.1 C1417.4,105.1 1417.4,162.2 1458.6,162.2"/>
  <g class="node d1 b2" data-depth="1">
    <rect class="box" x="1169.6" y="80.4" width="206.6" height="49.3" rx="9"/>
    <text x="1179.6" y="100.4" font-size="14.5">Carriers of carbon and</text>
    <text x="1179.6" y="119.6" font-size="14.5">one-carbon units</text>
  </g>
  <path class="link b2" data-depth="3" stroke-width="1.3" d="M1692.2,48.0 C1722.6,48.0 1722.6,48.0 1752.9,48.0"/>
  <g class="node d2 b2" data-depth="2">
    <rect class="box" x="1458.6" y="25.3" width="233.6" height="45.3" rx="6"/>
    <text x="1468.6" y="43.8" font-size="13.0">Biotin carries activated carbon</text>
    <text x="1468.6" y="61.0" font-size="13.0">dioxide</text>
  </g>
  <g class="node d3 b2" data-depth="3">
    <rect class="box" x="1752.9" y="26.0" width="198.9" height="44.0" rx="6"/>
    <text x="1762.9" y="44.0" font-size="12.5">Avidin binding, immunoassay</text>
    <text x="1762.9" y="60.5" font-size="12.5">interference</text>
  </g>
  <g class="node d2 b2" data-depth="2">
    <rect class="box" x="1458.6" y="78.0" width="233.6" height="28.2" rx="6"/>
    <text x="1468.6" y="96.5" font-size="13.0">Folate carries one-carbon units</text>
  </g>
  <path class="link b2" data-depth="3" stroke-width="1.3" d="M1671.6,162.2 C1712.2,162.2 1712.2,136.2 1752.9,136.2"/>
  <path class="link b2" data-depth="3" stroke-width="1.3" d="M1671.6,162.2 C1712.2,162.2 1712.2,188.2 1752.9,188.2"/>
  <g class="node d2 b2" data-depth="2">
    <rect class="box" x="1458.6" y="139.5" width="212.9" height="45.3" rx="6"/>
    <text x="1468.6" y="158.0" font-size="13.0">B12: methionine synthase and</text>
    <text x="1468.6" y="175.2" font-size="13.0">mutase</text>
  </g>
  <g class="node d3 b2" data-depth="3">
    <rect class="box" x="1752.9" y="114.2" width="232.0" height="44.0" rx="6"/>
    <text x="1762.9" y="132.2" font-size="12.5">Folate trap causes megaloblastic</text>
    <text x="1762.9" y="148.7" font-size="12.5">change</text>
  </g>
  <g class="node d3 b2" data-depth="3">
    <rect class="box" x="1752.9" y="166.2" width="225.4" height="44.0" rx="6"/>
    <text x="1762.9" y="184.2" font-size="12.5">Folate fixes anaemia, not nerve</text>
    <text x="1762.9" y="200.7" font-size="12.5">damage</text>
  </g>
  <path class="link b3" data-depth="2" stroke-width="1.8" d="M1401.7,347.5 C1430.2,347.5 1430.2,240.8 1458.6,240.8"/>
  <path class="link b3" data-depth="2" stroke-width="1.8" d="M1401.7,347.5 C1430.2,347.5 1430.2,294.1 1458.6,294.1"/>
  <path class="link b3" data-depth="2" stroke-width="1.8" d="M1401.7,347.5 C1430.2,347.5 1430.2,347.5 1458.6,347.5"/>
  <path class="link b3" data-depth="2" stroke-width="1.8" d="M1401.7,347.5 C1430.2,347.5 1430.2,400.8 1458.6,400.8"/>
  <path class="link b3" data-depth="2" stroke-width="1.8" d="M1401.7,347.5 C1430.2,347.5 1430.2,454.1 1458.6,454.1"/>
  <g class="node d1 b3" data-depth="1">
    <rect class="box" x="1169.6" y="332.4" width="232.1" height="30.1" rx="9"/>
    <text x="1179.6" y="352.4" font-size="14.5">Other vitamins and metals</text>
  </g>
  <g class="node d2 b3" data-depth="2">
    <rect class="box" x="1458.6" y="218.2" width="206.0" height="45.3" rx="6"/>
    <text x="1468.6" y="236.7" font-size="13.0">Vitamin C: hydroxylases and</text>
    <text x="1468.6" y="253.8" font-size="13.0">non-haem iron</text>
  </g>
  <g class="node d2 b3" data-depth="2">
    <rect class="box" x="1458.6" y="271.5" width="233.6" height="45.3" rx="6"/>
    <text x="1468.6" y="290.0" font-size="13.0">Vitamin K: gamma-carboxylation,</text>
    <text x="1468.6" y="307.1" font-size="13.0">warfarin</text>
  </g>
  <g class="node d2 b3" data-depth="2">
    <rect class="box" x="1458.6" y="324.8" width="240.5" height="45.3" rx="6"/>
    <text x="1468.6" y="343.3" font-size="13.0">Vitamins A and D act via nuclear</text>
    <text x="1468.6" y="360.5" font-size="13.0">receptors</text>
  </g>
  <g class="node d2 b3" data-depth="2">
    <rect class="box" x="1458.6" y="378.1" width="226.7" height="45.3" rx="6"/>
    <text x="1468.6" y="396.6" font-size="13.0">Magnesium, zinc, iron, copper,</text>
    <text x="1468.6" y="413.8" font-size="13.0">selenium, others</text>
  </g>
  <g class="node d2 b3" data-depth="2">
    <rect class="box" x="1458.6" y="431.4" width="212.9" height="45.3" rx="6"/>
    <text x="1468.6" y="449.9" font-size="13.0">Free transition metals drive</text>
    <text x="1468.6" y="467.1" font-size="13.0">harmful redox</text>
  </g>
  <path class="link b4" data-depth="2" stroke-width="1.8" d="M627.2,636.0 C603.0,636.0 603.0,522.5 578.8,522.5"/>
  <path class="link b4" data-depth="2" stroke-width="1.8" d="M627.2,636.0 C603.0,636.0 603.0,614.1 578.8,614.1"/>
  <path class="link b4" data-depth="2" stroke-width="1.8" d="M627.2,636.0 C603.0,636.0 603.0,697.5 578.8,697.5"/>
  <path class="link b4" data-depth="2" stroke-width="1.8" d="M627.2,636.0 C603.0,636.0 603.0,749.5 578.8,749.5"/>
  <g class="node d1 b4" data-depth="1">
    <rect class="box" x="627.2" y="620.9" width="223.6" height="30.1" rx="9"/>
    <text x="637.2" y="640.9" font-size="14.5">Mechanisms of regulation</text>
  </g>
  <path class="link b4" data-depth="3" stroke-width="1.3" d="M338.3,522.5 C311.4,522.5 311.4,522.5 284.5,522.5"/>
  <g class="node d2 b4" data-depth="2">
    <rect class="box" x="338.3" y="508.4" width="240.5" height="28.2" rx="6"/>
    <text x="348.3" y="526.9" font-size="13.0">Substrate availability sets flux</text>
  </g>
  <g class="node d3 b4" data-depth="3">
    <rect class="box" x="32.6" y="500.5" width="251.9" height="44.0" rx="6"/>
    <text x="42.6" y="518.5" font-size="12.5">Saturating in-vitro assays can miss</text>
    <text x="42.6" y="535.0" font-size="12.5">defects</text>
  </g>
  <path class="link b4" data-depth="3" stroke-width="1.3" d="M338.3,614.1 C311.4,614.1 311.4,574.5 284.5,574.5"/>
  <path class="link b4" data-depth="3" stroke-width="1.3" d="M338.3,614.1 C311.4,614.1 311.4,618.2 284.5,618.2"/>
  <path class="link b4" data-depth="3" stroke-width="1.3" d="M338.3,614.1 C311.4,614.1 311.4,653.7 284.5,653.7"/>
  <g class="node d2 b4" data-depth="2">
    <rect class="box" x="338.3" y="591.4" width="240.5" height="45.3" rx="6"/>
    <text x="348.3" y="609.9" font-size="13.0">Allosteric effectors report cell</text>
    <text x="348.3" y="627.1" font-size="13.0">state</text>
  </g>
  <g class="node d3 b4" data-depth="3">
    <rect class="box" x="52.5" y="552.5" width="232.0" height="44.0" rx="6"/>
    <text x="62.5" y="570.5" font-size="12.5">Feedback inhibition of committed</text>
    <text x="62.5" y="587.0" font-size="12.5">step</text>
  </g>
  <g class="node d3 b4" data-depth="3">
    <rect class="box" x="112.1" y="604.5" width="172.4" height="27.5" rx="6"/>
    <text x="122.1" y="622.5" font-size="12.5">Feed-forward activation</text>
  </g>
  <g class="node d3 b4" data-depth="3">
    <rect class="box" x="26.0" y="640.0" width="258.5" height="27.5" rx="6"/>
    <text x="36.0" y="658.0" font-size="12.5">Reciprocal regulation prevents waste</text>
  </g>
  <path class="link b4" data-depth="3" stroke-width="1.3" d="M331.4,697.5 C307.9,697.5 307.9,697.5 284.5,697.5"/>
  <g class="node d2 b4" data-depth="2">
    <rect class="box" x="331.4" y="674.8" width="247.4" height="45.3" rx="6"/>
    <text x="341.4" y="693.3" font-size="13.0">Covalent modification by kinases,</text>
    <text x="341.4" y="710.5" font-size="13.0">phosphatases</text>
  </g>
  <g class="node d3 b4" data-depth="3">
    <rect class="box" x="52.5" y="675.5" width="232.0" height="44.0" rx="6"/>
    <text x="62.5" y="693.5" font-size="12.5">Phosphorylation has no universal</text>
    <text x="62.5" y="710.0" font-size="12.5">meaning</text>
  </g>
  <path class="link b4" data-depth="3" stroke-width="1.3" d="M372.7,749.5 C328.6,749.5 328.6,749.5 284.5,749.5"/>
  <g class="node d2 b4" data-depth="2">
    <rect class="box" x="372.7" y="726.8" width="206.0" height="45.3" rx="6"/>
    <text x="382.7" y="745.3" font-size="13.0">Proteolysis: activation and</text>
    <text x="382.7" y="762.5" font-size="13.0">removal</text>
  </g>
  <g class="node d3 b4" data-depth="3">
    <rect class="box" x="72.4" y="727.5" width="212.1" height="44.0" rx="6"/>
    <text x="82.4" y="745.5" font-size="12.5">Synthesis and degradation set</text>
    <text x="82.4" y="762.0" font-size="12.5">abundance</text>
  </g>
  <path class="link b5" data-depth="2" stroke-width="1.8" d="M1418.6,634.0 C1438.6,634.0 1438.6,506.8 1458.6,506.8"/>
  <path class="link b5" data-depth="2" stroke-width="1.8" d="M1418.6,634.0 C1438.6,634.0 1438.6,559.4 1458.6,559.4"/>
  <path class="link b5" data-depth="2" stroke-width="1.8" d="M1418.6,634.0 C1438.6,634.0 1438.6,612.7 1458.6,612.7"/>
  <path class="link b5" data-depth="2" stroke-width="1.8" d="M1418.6,634.0 C1438.6,634.0 1438.6,691.4 1458.6,691.4"/>
  <path class="link b5" data-depth="2" stroke-width="1.8" d="M1418.6,634.0 C1438.6,634.0 1438.6,761.2 1458.6,761.2"/>
  <g class="node d1 b5" data-depth="1">
    <rect class="box" x="1169.6" y="609.3" width="249.0" height="49.3" rx="9"/>
    <text x="1179.6" y="629.3" font-size="14.5">Compartments, hormones, and</text>
    <text x="1179.6" y="648.5" font-size="14.5">control</text>
  </g>
  <path class="link b5" data-depth="3" stroke-width="1.3" d="M1692.2,506.8 C1722.6,506.8 1722.6,506.8 1752.9,506.8"/>
  <g class="node d2 b5" data-depth="2">
    <rect class="box" x="1458.6" y="484.1" width="233.6" height="45.3" rx="6"/>
    <text x="1468.6" y="502.6" font-size="13.0">Compartments separate competing</text>
    <text x="1468.6" y="519.8" font-size="13.0">pathways</text>
  </g>
  <g class="node d3 b5" data-depth="3">
    <rect class="box" x="1752.9" y="484.8" width="225.4" height="44.0" rx="6"/>
    <text x="1762.9" y="502.8" font-size="12.5">Cytosolic and mitochondrial NAD</text>
    <text x="1762.9" y="519.3" font-size="12.5">pools</text>
  </g>
  <g class="node d2 b5" data-depth="2">
    <rect class="box" x="1458.6" y="536.8" width="192.2" height="45.3" rx="6"/>
    <text x="1468.6" y="555.3" font-size="13.0">Insulin stores; glucagon,</text>
    <text x="1468.6" y="572.4" font-size="13.0">catecholamines mobilise</text>
  </g>
  <g class="node d2 b5" data-depth="2">
    <rect class="box" x="1458.6" y="590.1" width="206.0" height="45.3" rx="6"/>
    <text x="1468.6" y="608.6" font-size="13.0">Longer-term hormones change</text>
    <text x="1468.6" y="625.7" font-size="13.0">capacity</text>
  </g>
  <path class="link b5" data-depth="3" stroke-width="1.3" d="M1699.1,691.4 C1726.0,691.4 1726.0,665.4 1752.9,665.4"/>
  <path class="link b5" data-depth="3" stroke-width="1.3" d="M1699.1,691.4 C1726.0,691.4 1726.0,717.4 1752.9,717.4"/>
  <g class="node d2 b5" data-depth="2">
    <rect class="box" x="1458.6" y="677.3" width="240.5" height="28.2" rx="6"/>
    <text x="1468.6" y="695.8" font-size="13.0">Metabolic control is distributed</text>
  </g>
  <g class="node d3 b5" data-depth="3">
    <rect class="box" x="1752.9" y="643.4" width="218.7" height="44.0" rx="6"/>
    <text x="1762.9" y="661.4" font-size="12.5">Slowest step not automatically</text>
    <text x="1762.9" y="677.9" font-size="12.5">rate-limiting</text>
  </g>
  <g class="node d3 b5" data-depth="3">
    <rect class="box" x="1752.9" y="695.4" width="205.5" height="44.0" rx="6"/>
    <text x="1762.9" y="713.4" font-size="12.5">Control shifts with feeding,</text>
    <text x="1762.9" y="729.9" font-size="12.5">exercise, disease</text>
  </g>
  <path class="link b5" data-depth="3" stroke-width="1.3" d="M1685.3,761.2 C1719.1,761.2 1719.1,761.2 1752.9,761.2"/>
  <g class="node d2 b5" data-depth="2">
    <rect class="box" x="1458.6" y="747.1" width="226.7" height="28.2" rx="6"/>
    <text x="1468.6" y="765.6" font-size="13.0">Energy charge and redox ratios</text>
  </g>
  <g class="node d3 b5" data-depth="3">
    <rect class="box" x="1752.9" y="747.4" width="185.6" height="27.5" rx="6"/>
    <text x="1762.9" y="765.4" font-size="12.5">Hard to infer from plasma</text>
  </g>
  <path class="link b6" data-depth="2" stroke-width="1.8" d="M1325.3,969.7 C1392.0,969.7 1392.0,805.6 1458.6,805.6"/>
  <path class="link b6" data-depth="2" stroke-width="1.8" d="M1325.3,969.7 C1392.0,969.7 1392.0,858.9 1458.6,858.9"/>
  <path class="link b6" data-depth="2" stroke-width="1.8" d="M1325.3,969.7 C1392.0,969.7 1392.0,912.2 1458.6,912.2"/>
  <path class="link b6" data-depth="2" stroke-width="1.8" d="M1325.3,969.7 C1392.0,969.7 1392.0,986.7 1458.6,986.7"/>
  <path class="link b6" data-depth="2" stroke-width="1.8" d="M1325.3,969.7 C1392.0,969.7 1392.0,1044.4 1458.6,1044.4"/>
  <path class="link b6" data-depth="2" stroke-width="1.8" d="M1325.3,969.7 C1392.0,969.7 1392.0,1089.2 1458.6,1089.2"/>
  <path class="link b6" data-depth="2" stroke-width="1.8" d="M1325.3,969.7 C1392.0,969.7 1392.0,1133.9 1458.6,1133.9"/>
  <g class="node d1 b6" data-depth="1">
    <rect class="box" x="1169.6" y="954.7" width="155.7" height="30.1" rx="9"/>
    <text x="1179.6" y="974.7" font-size="14.5">Assay principles</text>
  </g>
  <g class="node d2 b6" data-depth="2">
    <rect class="box" x="1458.6" y="782.9" width="219.8" height="45.3" rx="6"/>
    <text x="1468.6" y="801.4" font-size="13.0">Direct measurement or coupled</text>
    <text x="1468.6" y="818.6" font-size="13.0">inference</text>
  </g>
  <g class="node d2 b6" data-depth="2">
    <rect class="box" x="1458.6" y="836.2" width="254.3" height="45.3" rx="6"/>
    <text x="1468.6" y="854.7" font-size="13.0">Spectrophotometry and Beer-Lambert</text>
    <text x="1468.6" y="871.9" font-size="13.0">relation</text>
  </g>
  <g class="node d2 b6" data-depth="2">
    <rect class="box" x="1458.6" y="889.5" width="206.0" height="45.3" rx="6"/>
    <text x="1468.6" y="908.0" font-size="13.0">Mass spectrometry is highly</text>
    <text x="1468.6" y="925.2" font-size="13.0">specific</text>
  </g>
  <path class="link b6" data-depth="3" stroke-width="1.3" d="M1671.6,986.7 C1712.2,986.7 1712.2,964.9 1752.9,964.9"/>
  <path class="link b6" data-depth="3" stroke-width="1.3" d="M1671.6,986.7 C1712.2,986.7 1712.2,1008.6 1752.9,1008.6"/>
  <g class="node d2 b6" data-depth="2">
    <rect class="box" x="1458.6" y="964.1" width="212.9" height="45.3" rx="6"/>
    <text x="1468.6" y="982.6" font-size="13.0">Immunoassays: competitive or</text>
    <text x="1468.6" y="999.7" font-size="13.0">sandwich</text>
  </g>
  <g class="node d3 b6" data-depth="3">
    <rect class="box" x="1752.9" y="942.9" width="251.9" height="44.0" rx="6"/>
    <text x="1762.9" y="960.9" font-size="12.5">Cross-reaction, heterophiles, hook,</text>
    <text x="1762.9" y="977.4" font-size="12.5">biotin</text>
  </g>
  <g class="node d3 b6" data-depth="3">
    <rect class="box" x="1752.9" y="994.9" width="232.0" height="27.5" rx="6"/>
    <text x="1762.9" y="1012.9" font-size="12.5">Precise yet systematically wrong</text>
  </g>
  <g class="node d2 b6" data-depth="2">
    <rect class="box" x="1458.6" y="1030.4" width="192.2" height="28.2" rx="6"/>
    <text x="1468.6" y="1048.9" font-size="13.0">Accuracy versus precision</text>
  </g>
  <g class="node d2 b6" data-depth="2">
    <rect class="box" x="1458.6" y="1066.5" width="240.5" height="45.3" rx="6"/>
    <text x="1468.6" y="1085.0" font-size="13.0">Detection limits versus clinical</text>
    <text x="1468.6" y="1102.2" font-size="13.0">sensitivity</text>
  </g>
  <g class="node d2 b6" data-depth="2">
    <rect class="box" x="1458.6" y="1119.8" width="212.9" height="28.2" rx="6"/>
    <text x="1468.6" y="1138.3" font-size="13.0">Calibration and traceability</text>
  </g>
  <path class="link b7" data-depth="2" stroke-width="1.8" d="M661.2,926.2 C620.0,926.2 620.0,823.3 578.8,823.3"/>
  <path class="link b7" data-depth="2" stroke-width="1.8" d="M661.2,926.2 C620.0,926.2 620.0,889.0 578.8,889.0"/>
  <path class="link b7" data-depth="2" stroke-width="1.8" d="M661.2,926.2 C620.0,926.2 620.0,932.7 578.8,932.7"/>
  <path class="link b7" data-depth="2" stroke-width="1.8" d="M661.2,926.2 C620.0,926.2 620.0,976.5 578.8,976.5"/>
  <path class="link b7" data-depth="2" stroke-width="1.8" d="M661.2,926.2 C620.0,926.2 620.0,1029.1 578.8,1029.1"/>
  <g class="node d1 b7" data-depth="1">
    <rect class="box" x="661.2" y="911.2" width="189.7" height="30.1" rx="9"/>
    <text x="671.2" y="931.2" font-size="14.5">Interpreting results</text>
  </g>
  <path class="link b7" data-depth="3" stroke-width="1.3" d="M338.3,823.3 C311.4,823.3 311.4,801.5 284.5,801.5"/>
  <path class="link b7" data-depth="3" stroke-width="1.3" d="M338.3,823.3 C311.4,823.3 311.4,845.2 284.5,845.2"/>
  <g class="node d2 b7" data-depth="2">
    <rect class="box" x="338.3" y="800.7" width="240.5" height="45.3" rx="6"/>
    <text x="348.3" y="819.2" font-size="13.0">Pre-analytical variation exceeds</text>
    <text x="348.3" y="836.3" font-size="13.0">instrument error</text>
  </g>
  <g class="node d3 b7" data-depth="3">
    <rect class="box" x="26.0" y="779.5" width="258.5" height="44.0" rx="6"/>
    <text x="36.0" y="797.5" font-size="12.5">Haemolysis raises potassium, lactate</text>
    <text x="36.0" y="814.0" font-size="12.5">dehydrogenase</text>
  </g>
  <g class="node d3 b7" data-depth="3">
    <rect class="box" x="32.6" y="831.5" width="251.9" height="27.5" rx="6"/>
    <text x="42.6" y="849.5" font-size="12.5">Ongoing metabolism consumes glucose</text>
  </g>
  <path class="link b7" data-depth="3" stroke-width="1.3" d="M372.7,889.0 C328.6,889.0 328.6,889.0 284.5,889.0"/>
  <g class="node d2 b7" data-depth="2">
    <rect class="box" x="372.7" y="866.3" width="206.0" height="45.3" rx="6"/>
    <text x="382.7" y="884.8" font-size="13.0">Reference intervals are not</text>
    <text x="382.7" y="902.0" font-size="13.0">treatment thresholds</text>
  </g>
  <g class="node d3 b7" data-depth="3">
    <rect class="box" x="65.8" y="867.0" width="218.7" height="44.0" rx="6"/>
    <text x="75.8" y="885.0" font-size="12.5">Healthy people fall outside by</text>
    <text x="75.8" y="901.5" font-size="12.5">chance</text>
  </g>
  <path class="link b7" data-depth="3" stroke-width="1.3" d="M352.1,932.7 C318.3,932.7 318.3,932.7 284.5,932.7"/>
  <g class="node d2 b7" data-depth="2">
    <rect class="box" x="352.1" y="918.6" width="226.7" height="28.2" rx="6"/>
    <text x="362.1" y="937.1" font-size="13.0">Dynamic tests probe regulation</text>
  </g>
  <g class="node d3 b7" data-depth="3">
    <rect class="box" x="39.2" y="919.0" width="245.2" height="27.5" rx="6"/>
    <text x="49.2" y="937.0" font-size="12.5">Normal baseline, abnormal response</text>
  </g>
  <path class="link b7" data-depth="3" stroke-width="1.3" d="M386.5,976.5 C335.5,976.5 335.5,976.5 284.5,976.5"/>
  <g class="node d2 b7" data-depth="2">
    <rect class="box" x="386.5" y="953.8" width="192.2" height="45.3" rx="6"/>
    <text x="396.5" y="972.3" font-size="13.0">Omics reveal patterns and</text>
    <text x="396.5" y="989.5" font-size="13.0">hypotheses</text>
  </g>
  <g class="node d3 b7" data-depth="3">
    <rect class="box" x="52.5" y="954.5" width="232.0" height="44.0" rx="6"/>
    <text x="62.5" y="972.5" font-size="12.5">Multiple testing, batch effects,</text>
    <text x="62.5" y="989.0" font-size="12.5">validation</text>
  </g>
  <g class="node d2 b7" data-depth="2">
    <rect class="box" x="352.1" y="1006.5" width="226.7" height="45.3" rx="6"/>
    <text x="362.1" y="1025.0" font-size="13.0">Specify reaction, compartment,</text>
    <text x="362.1" y="1042.1" font-size="13.0">time, assay</text>
  </g>
</svg>
