<svg xmlns="http://www.w3.org/2000/svg" class="mm" viewBox="0 0 1986 1101" width="1986" height="1101" role="img" aria-label="蘇生生理、潜在損傷、周術期リスク">
<style>
  .mm-bg { fill: #faf8f4; }
  .mm text { font-family: 'Hiragino Sans', 'Noto Sans JP', ui-sans-serif, sans-serif; fill: #1b1917; }
  .mm .link { fill: none; stroke: #c9c1b4; }
  .mm .box { fill: none; stroke: none; }
  .mm .d0 .box { fill: #1b1917; stroke: #1b1917; }
  .mm .d0 text { fill: #faf8f4; font-weight: 650; }
  .mm .d1 text { font-weight: 600; }

  .mm .link.b0 { stroke: #4b9ac6; }
  .mm .b0.d1 .box { fill: #d7e5eb; stroke: #0072B2; stroke-width: 1.5; }
  .mm .b0.d1 text { fill: #075c8b; }
  .mm .b0.d2 .box { fill: #e8efef; stroke: #70aed0; }
  .mm .b0.d3 text, .mm .b0.d4 text { fill: #075c8b; }

  .mm .link.b1 { stroke: #e08c49; }
  .mm .b1.d1 .box { fill: #f5e2d2; stroke: #D55E00; stroke-width: 1.5; }
  .mm .b1.d1 text { fill: #a64d06; }
  .mm .b1.d2 .box { fill: #f7ede3; stroke: #e6a36e; }
  .mm .b1.d3 text, .mm .b1.d4 text { fill: #a64d06; }

  .mm .link.b2 { stroke: #4bb99a; }
  .mm .b2.d1 .box { fill: #d7ebe2; stroke: #009E73; stroke-width: 1.5; }
  .mm .b2.d1 text { fill: #077d5c; }
  .mm .b2.d2 .box { fill: #e8f2eb; stroke: #70c6ad; }
  .mm .b2.d3 text, .mm .b2.d4 text { fill: #077d5c; }

  .mm .link.b3 { stroke: #da9fbe; }
  .mm .b3.d1 .box { fill: #f4e6e9; stroke: #CC79A7; stroke-width: 1.5; }
  .mm .b3.d1 text { fill: #985c7c; }
  .mm .b3.d2 .box { fill: #f7efef; stroke: #e1b2ca; }
  .mm .b3.d3 text, .mm .b3.d4 text { fill: #985c7c; }

  .mm .link.b4 { stroke: #bba149; }
  .mm .b4.d1 .box { fill: #ede7d2; stroke: #A07C00; stroke-width: 1.5; }
  .mm .b4.d1 text { fill: #7f6306; }
  .mm .b4.d2 .box { fill: #f4efe3; stroke: #c8b46e; }
  .mm .b4.d3 text, .mm .b4.d4 text { fill: #7f6306; }

  .mm .link.b5 { stroke: #84c1e2; }
  .mm .b5.d1 .box { fill: #e3eef2; stroke: #51a9db; stroke-width: 1.5; }
  .mm .b5.d1 text { fill: #3d7899; }
  .mm .b5.d2 .box { fill: #eff3f3; stroke: #9dcde6; }
  .mm .b5.d3 text, .mm .b5.d4 text { fill: #3d7899; }

  .mm .link.b6 { stroke: #9580b0; }
  .mm .b6.d1 .box { fill: #e6e0e6; stroke: #6A4C93; stroke-width: 1.5; }
  .mm .b6.d1 text { fill: #563f74; }
  .mm .b6.d2 .box { fill: #f0eced; stroke: #ab99bf; }
  .mm .b6.d3 text, .mm .b6.d4 text { fill: #563f74; }

  .mm .link.b7 { stroke: #98ac74; }
  .mm .b7.d1 .box { fill: #e6e9da; stroke: #6E8B3D; stroke-width: 1.5; }
  .mm .b7.d1 text { fill: #596e34; }
  .mm .b7.d2 .box { fill: #f0f0e7; stroke: #adbc8f; }
  .mm .b7.d3 text, .mm .b7.d4 text { fill: #596e34; }

  .mm .link.b8 { stroke: #e2b349; }
  .mm .b8.d1 .box { fill: #f7ecd2; stroke: #d89500; stroke-width: 1.5; }
  .mm .b8.d1 text { fill: #986a05; }
  .mm .b8.d2 .box { fill: #f9f2e3; stroke: #e7c26e; }
  .mm .b8.d3 text, .mm .b8.d4 text { fill: #986a05; }

  .mm .link.b9 { stroke: #bf6669; }
  .mm .b9.d1 .box { fill: #eedbd8; stroke: #A6272E; stroke-width: 1.5; }
  .mm .b9.d1 text { fill: #832428; }
  .mm .b9.d2 .box { fill: #f4e9e6; stroke: #cc8587; }
  .mm .b9.d3 text, .mm .b9.d4 text { fill: #832428; }
@media (prefers-color-scheme: dark) {
  .mm-bg { fill: #12100e; }
  .mm text { font-family: 'Hiragino Sans', 'Noto Sans JP', ui-sans-serif, sans-serif; fill: #ece7df; }
  .mm .link { fill: none; stroke: #3d3833; }
  .mm .box { fill: none; stroke: none; }
  .mm .d0 .box { fill: #ece7df; stroke: #ece7df; }
  .mm .d0 text { fill: #12100e; font-weight: 650; }
  .mm .d1 text { font-weight: 600; }

  .mm .link.b0 { stroke: #2d6a8d; }
  .mm .b0.d1 .box { fill: #172227; stroke: #3891c3; stroke-width: 1.5; }
  .mm .b0.d1 text { fill: #65a6ca; }
  .mm .b0.d2 .box { fill: #15191b; stroke: #275772; }
  .mm .b0.d3 text, .mm .b0.d4 text { fill: #65a6ca; }

  .mm .link.b1 { stroke: #a15f2b; }
  .mm .b1.d1 .box { fill: #2f2014; stroke: #de8138; stroke-width: 1.5; }
  .mm .b1.d1 text { fill: #e29a62; }
  .mm .b1.d2 .box { fill: #201811; stroke: #824e25; }
  .mm .b1.d3 text, .mm .b1.d4 text { fill: #e29a62; }

  .mm .link.b2 { stroke: #2d826a; }
  .mm .b2.d1 .box { fill: #172720; stroke: #38b392; stroke-width: 1.5; }
  .mm .b2.d1 text { fill: #65c0a5; }
  .mm .b2.d2 .box { fill: #151b17; stroke: #276a57; }
  .mm .b2.d3 text, .mm .b2.d4 text { fill: #65c0a5; }

  .mm .link.b3 { stroke: #9c6e86; }
  .mm .b3.d1 .box { fill: #2e2326; stroke: #d796ba; stroke-width: 1.5; }
  .mm .b3.d1 text { fill: #dcaac3; }
  .mm .b3.d2 .box { fill: #20191a; stroke: #7e5a6d; }
  .mm .b3.d3 text, .mm .b3.d4 text { fill: #dcaac3; }

  .mm .link.b4 { stroke: #84702b; }
  .mm .b4.d1 .box { fill: #292314; stroke: #b59938; stroke-width: 1.5; }
  .mm .b4.d1 text { fill: #c3ac62; }
  .mm .b4.d2 .box { fill: #1d1a11; stroke: #6c5b25; }
  .mm .b4.d3 text, .mm .b4.d4 text { fill: #c3ac62; }

  .mm .link.b5 { stroke: #5c8eab; }
  .mm .b5.d1 .box { fill: #21292d; stroke: #7bc4ee; stroke-width: 1.5; }
  .mm .b5.d1 text { fill: #97cdea; }
  .mm .b5.d2 .box { fill: #191d1e; stroke: #4c7389; }
  .mm .b5.d3 text, .mm .b5.d4 text { fill: #97cdea; }

  .mm .link.b6 { stroke: #67557c; }
  .mm .b6.d1 .box { fill: #231e24; stroke: #8b73ab; stroke-width: 1.5; }
  .mm .b6.d1 text { fill: #a390b8; }
  .mm .b6.d2 .box { fill: #1a1719; stroke: #554664; }
  .mm .b6.d3 text, .mm .b6.d4 text { fill: #a390b8; }

  .mm .link.b7 { stroke: #69784d; }
  .mm .b7.d1 .box { fill: #23251b; stroke: #8ea568; stroke-width: 1.5; }
  .mm .b7.d1 text { fill: #a6b686; }
  .mm .b7.d2 .box { fill: #1b1a14; stroke: #566240; }
  .mm .b7.d3 text, .mm .b7.d4 text { fill: #a6b686; }

  .mm .link.b8 { stroke: #ab832b; }
  .mm .b8.d1 .box { fill: #312714; stroke: #ecb438; stroke-width: 1.5; }
  .mm .b8.d1 text { fill: #ecc162; }
  .mm .b8.d2 .box { fill: #211b11; stroke: #8a6a25; }
  .mm .b8.d3 text, .mm .b8.d4 text { fill: #ecc162; }

  .mm .link.b9 { stroke: #884245; }
  .mm .b9.d1 .box { fill: #2a1a19; stroke: #ba575c; stroke-width: 1.5; }
  .mm .b9.d1 text { fill: #c67b7d; }
  .mm .b9.d2 .box { fill: #1e1513; stroke: #6e3739; }
  .mm .b9.d3 text, .mm .b9.d4 text { fill: #c67b7d; }
}
</style>
  <rect class="mm-bg" width="1986" height="1101"/>
  <path class="link b0" data-depth="1" stroke-width="2.2" d="M1123.5,550.6 C870.2,550.6 870.2,111.9 617.0,111.9"/>
  <path class="link b1" data-depth="1" stroke-width="2.2" d="M1123.5,550.6 C1143.5,550.6 1143.5,138.5 1163.5,138.5"/>
  <path class="link b2" data-depth="1" stroke-width="2.2" d="M1123.5,550.6 C1143.5,550.6 1143.5,370.0 1163.5,370.0"/>
  <path class="link b3" data-depth="1" stroke-width="2.2" d="M1123.5,550.6 C884.8,550.6 884.8,326.1 646.0,326.1"/>
  <path class="link b4" data-depth="1" stroke-width="2.2" d="M1123.5,550.6 C899.2,550.6 899.2,549.3 675.0,549.3"/>
  <path class="link b5" data-depth="1" stroke-width="2.2" d="M1123.5,550.6 C1143.5,550.6 1143.5,593.0 1163.5,593.0"/>
  <path class="link b6" data-depth="1" stroke-width="2.2" d="M1123.5,550.6 C892.0,550.6 892.0,773.2 660.5,773.2"/>
  <path class="link b7" data-depth="1" stroke-width="2.2" d="M1123.5,550.6 C884.8,550.6 884.8,971.1 646.0,971.1"/>
  <path class="link b8" data-depth="1" stroke-width="2.2" d="M1123.5,550.6 C1143.5,550.6 1143.5,790.4 1163.5,790.4"/>
  <path class="link b9" data-depth="1" stroke-width="2.2" d="M1123.5,550.6 C1143.5,550.6 1143.5,969.7 1163.5,969.7"/>
  <g class="node d0 b0" data-depth="0">
    <rect class="box" x="865.5" y="522.7" width="258.0" height="55.9" rx="9"/>
    <text x="875.5" y="545.2" font-size="17.0">蘇生生理、潜在損傷、周術期リ</text>
    <text x="875.5" y="567.6" font-size="17.0">スク</text>
  </g>
  <path class="link b0" data-depth="2" stroke-width="1.8" d="M617.0,111.9 C597.0,111.9 597.0,40.1 577.0,40.1"/>
  <path class="link b0" data-depth="2" stroke-width="1.8" d="M617.0,111.9 C597.0,111.9 597.0,75.9 577.0,75.9"/>
  <path class="link b0" data-depth="2" stroke-width="1.8" d="M617.0,111.9 C597.0,111.9 597.0,111.7 577.0,111.7"/>
  <path class="link b0" data-depth="2" stroke-width="1.8" d="M617.0,111.9 C597.0,111.9 597.0,147.9 577.0,147.9"/>
  <path class="link b0" data-depth="2" stroke-width="1.8" d="M617.0,111.9 C597.0,111.9 597.0,183.7 577.0,183.7"/>
  <g class="node d1 b0" data-depth="1">
    <rect class="box" x="617.0" y="96.8" width="208.5" height="30.1" rx="9"/>
    <text x="627.0" y="116.8" font-size="14.5">仮説の反復検証としての蘇生</text>
  </g>
  <g class="node d2 b0" data-depth="2">
    <rect class="box" x="375.0" y="26.0" width="202.0" height="28.2" rx="6"/>
    <text x="385.0" y="44.5" font-size="13.0">危機を同定し介入し反応を問う</text>
  </g>
  <path class="link b0" data-depth="3" stroke-width="1.3" d="M362.0,75.9 C329.0,75.9 329.0,75.9 296.0,75.9"/>
  <g class="node d2 b0" data-depth="2">
    <rect class="box" x="362.0" y="61.8" width="215.0" height="28.2" rx="6"/>
    <text x="372.0" y="80.3" font-size="13.0">初期血圧・画像正常でも終えない</text>
  </g>
  <g class="node d3 b0" data-depth="3">
    <rect class="box" x="113.5" y="62.2" width="182.5" height="27.5" rx="6"/>
    <text x="123.5" y="80.2" font-size="12.5">代償は損傷を隠し出血は進展</text>
  </g>
  <g class="node d2 b0" data-depth="2">
    <rect class="box" x="388.0" y="97.7" width="189.0" height="28.2" rx="6"/>
    <text x="398.0" y="116.2" font-size="13.0">受傷機転は隠れた損傷を予測</text>
  </g>
  <g class="node d2 b0" data-depth="2">
    <rect class="box" x="427.0" y="133.8" width="150.0" height="28.2" rx="6"/>
    <text x="437.0" y="152.3" font-size="13.0">確定治療は診断と並行</text>
  </g>
  <path class="link b0" data-depth="3" stroke-width="1.3" d="M362.0,183.7 C329.0,183.7 329.0,183.7 296.0,183.7"/>
  <g class="node d2 b0" data-depth="2">
    <rect class="box" x="362.0" y="169.6" width="215.0" height="28.2" rx="6"/>
    <text x="372.0" y="188.1" font-size="13.0">仮説、反応、残る不確実性を記録</text>
  </g>
  <g class="node d3 b0" data-depth="3">
    <rect class="box" x="113.5" y="170.0" width="182.5" height="27.5" rx="6"/>
    <text x="123.5" y="188.0" font-size="12.5">短い循環の反復で速度と精度</text>
  </g>
  <path class="link b1" data-depth="2" stroke-width="1.8" d="M1256.0,138.5 C1319.5,138.5 1319.5,40.1 1383.0,40.1"/>
  <path class="link b1" data-depth="2" stroke-width="1.8" d="M1256.0,138.5 C1319.5,138.5 1319.5,75.9 1383.0,75.9"/>
  <path class="link b1" data-depth="2" stroke-width="1.8" d="M1256.0,138.5 C1319.5,138.5 1319.5,111.7 1383.0,111.7"/>
  <path class="link b1" data-depth="2" stroke-width="1.8" d="M1256.0,138.5 C1319.5,138.5 1319.5,147.6 1383.0,147.6"/>
  <path class="link b1" data-depth="2" stroke-width="1.8" d="M1256.0,138.5 C1319.5,138.5 1319.5,183.4 1383.0,183.4"/>
  <path class="link b1" data-depth="2" stroke-width="1.8" d="M1256.0,138.5 C1319.5,138.5 1319.5,237.0 1383.0,237.0"/>
  <g class="node d1 b1" data-depth="1">
    <rect class="box" x="1163.5" y="123.5" width="92.5" height="30.1" rx="9"/>
    <text x="1173.5" y="143.5" font-size="14.5">止血と輸血</text>
  </g>
  <g class="node d2 b1" data-depth="2">
    <rect class="box" x="1383.0" y="26.0" width="176.0" height="28.2" rx="6"/>
    <text x="1393.0" y="44.5" font-size="13.0">破局的外出血は気道より先</text>
  </g>
  <path class="link b1" data-depth="3" stroke-width="1.3" d="M1572.0,75.9 C1631.0,75.9 1631.0,75.9 1690.0,75.9"/>
  <g class="node d2 b1" data-depth="2">
    <rect class="box" x="1383.0" y="61.8" width="189.0" height="28.2" rx="6"/>
    <text x="1393.0" y="80.3" font-size="13.0">骨盤バインダーは大転子位置</text>
  </g>
  <g class="node d3 b1" data-depth="3">
    <rect class="box" x="1690.0" y="62.2" width="157.5" height="27.5" rx="6"/>
    <text x="1700.0" y="80.2" font-size="12.5">骨盤容積と動きを減らす</text>
  </g>
  <g class="node d2 b1" data-depth="2">
    <rect class="box" x="1383.0" y="97.7" width="189.0" height="28.2" rx="6"/>
    <text x="1393.0" y="116.2" font-size="13.0">血液成分は大量晶質液に勝る</text>
  </g>
  <path class="link b1" data-depth="3" stroke-width="1.3" d="M1572.0,147.6 C1631.0,147.6 1631.0,147.6 1690.0,147.6"/>
  <g class="node d2 b1" data-depth="2">
    <rect class="box" x="1383.0" y="133.5" width="189.0" height="28.2" rx="6"/>
    <text x="1393.0" y="152.0" font-size="13.0">クエン酸はカルシウムを結合</text>
  </g>
  <g class="node d3 b1" data-depth="3">
    <rect class="box" x="1690.0" y="133.8" width="145.0" height="27.5" rx="6"/>
    <text x="1700.0" y="151.8" font-size="12.5">収縮性と凝固を下げる</text>
  </g>
  <g class="node d2 b1" data-depth="2">
    <rect class="box" x="1383.0" y="169.3" width="241.0" height="28.2" rx="6"/>
    <text x="1393.0" y="187.8" font-size="13.0">トラネキサム酸は検証時間枠内で早期</text>
  </g>
  <path class="link b1" data-depth="3" stroke-width="1.3" d="M1546.0,237.0 C1618.0,237.0 1618.0,219.2 1690.0,219.2"/>
  <path class="link b1" data-depth="3" stroke-width="1.3" d="M1546.0,237.0 C1618.0,237.0 1618.0,254.7 1690.0,254.7"/>
  <g class="node d2 b1" data-depth="2">
    <rect class="box" x="1383.0" y="222.9" width="163.0" height="28.2" rx="6"/>
    <text x="1393.0" y="241.4" font-size="13.0">大量輸血中は検査を反復</text>
  </g>
  <g class="node d3 b1" data-depth="3">
    <rect class="box" x="1690.0" y="205.5" width="170.0" height="27.5" rx="6"/>
    <text x="1700.0" y="223.5" font-size="12.5">成分比の後に不足へ標的化</text>
  </g>
  <g class="node d3 b1" data-depth="3">
    <rect class="box" x="1690.0" y="241.0" width="207.5" height="27.5" rx="6"/>
    <text x="1700.0" y="259.0" font-size="12.5">血圧上昇だけで止血を証明しない</text>
  </g>
  <path class="link b2" data-depth="2" stroke-width="1.8" d="M1343.0,370.0 C1363.0,370.0 1363.0,290.6 1383.0,290.6"/>
  <path class="link b2" data-depth="2" stroke-width="1.8" d="M1343.0,370.0 C1363.0,370.0 1363.0,348.3 1383.0,348.3"/>
  <path class="link b2" data-depth="2" stroke-width="1.8" d="M1343.0,370.0 C1363.0,370.0 1363.0,413.9 1383.0,413.9"/>
  <path class="link b2" data-depth="2" stroke-width="1.8" d="M1343.0,370.0 C1363.0,370.0 1363.0,449.4 1383.0,449.4"/>
  <g class="node d1 b2" data-depth="1">
    <rect class="box" x="1163.5" y="354.9" width="179.5" height="30.1" rx="9"/>
    <text x="1173.5" y="374.9" font-size="14.5">気道の予測、導入、確認</text>
  </g>
  <g class="node d2 b2" data-depth="2">
    <rect class="box" x="1383.0" y="276.5" width="254.0" height="28.2" rx="6"/>
    <text x="1393.0" y="295.0" font-size="13.0">ショック、肥満、妊娠で無呼吸時間短縮</text>
  </g>
  <path class="link b2" data-depth="3" stroke-width="1.3" d="M1585.0,348.3 C1637.5,348.3 1637.5,326.4 1690.0,326.4"/>
  <path class="link b2" data-depth="3" stroke-width="1.3" d="M1585.0,348.3 C1637.5,348.3 1637.5,370.1 1690.0,370.1"/>
  <g class="node d2 b2" data-depth="2">
    <rect class="box" x="1383.0" y="334.2" width="202.0" height="28.2" rx="6"/>
    <text x="1393.0" y="352.7" font-size="13.0">迅速導入は交感神経緊張を除く</text>
  </g>
  <g class="node d3 b2" data-depth="3">
    <rect class="box" x="1690.0" y="312.6" width="182.5" height="27.5" rx="6"/>
    <text x="1700.0" y="330.6" font-size="12.5">陽圧換気は静脈還流を減らす</text>
  </g>
  <g class="node d3 b2" data-depth="3">
    <rect class="box" x="1690.0" y="348.1" width="270.0" height="44.0" rx="6"/>
    <text x="1700.0" y="366.1" font-size="12.5">循環血液量減少、タンポナーデ、右心不全で</text>
    <text x="1700.0" y="382.6" font-size="12.5">停止</text>
  </g>
  <path class="link b2" data-depth="3" stroke-width="1.3" d="M1624.0,413.9 C1657.0,413.9 1657.0,413.9 1690.0,413.9"/>
  <g class="node d2 b2" data-depth="2">
    <rect class="box" x="1383.0" y="399.8" width="241.0" height="28.2" rx="6"/>
    <text x="1393.0" y="418.3" font-size="13.0">波形呼気二酸化炭素が最も信頼できる</text>
  </g>
  <g class="node d3 b2" data-depth="3">
    <rect class="box" x="1690.0" y="400.1" width="195.0" height="27.5" rx="6"/>
    <text x="1700.0" y="418.1" font-size="12.5">波形低下は離断、逸脱、心停止</text>
  </g>
  <path class="link b2" data-depth="3" stroke-width="1.3" d="M1611.0,449.4 C1650.5,449.4 1650.5,449.4 1690.0,449.4"/>
  <g class="node d2 b2" data-depth="2">
    <rect class="box" x="1383.0" y="435.3" width="228.0" height="28.2" rx="6"/>
    <text x="1393.0" y="453.8" font-size="13.0">準備は役割分担、吸引二系統、器具</text>
  </g>
  <g class="node d3 b2" data-depth="3">
    <rect class="box" x="1690.0" y="435.6" width="207.5" height="27.5" rx="6"/>
    <text x="1700.0" y="453.6" font-size="12.5">挿管後の低血圧、片肺挿管を確認</text>
  </g>
  <path class="link b3" data-depth="2" stroke-width="1.8" d="M646.0,326.1 C611.5,326.1 611.5,254.7 577.0,254.7"/>
  <path class="link b3" data-depth="2" stroke-width="1.8" d="M646.0,326.1 C611.5,326.1 611.5,326.1 577.0,326.1"/>
  <path class="link b3" data-depth="2" stroke-width="1.8" d="M646.0,326.1 C611.5,326.1 611.5,361.9 577.0,361.9"/>
  <path class="link b3" data-depth="2" stroke-width="1.8" d="M646.0,326.1 C611.5,326.1 611.5,397.4 577.0,397.4"/>
  <g class="node d1 b3" data-depth="1">
    <rect class="box" x="646.0" y="311.0" width="179.5" height="30.1" rx="9"/>
    <text x="656.0" y="331.0" font-size="14.5">閉塞性・出血性ショック</text>
  </g>
  <path class="link b3" data-depth="3" stroke-width="1.3" d="M388.0,254.7 C342.0,254.7 342.0,219.2 296.0,219.2"/>
  <path class="link b3" data-depth="3" stroke-width="1.3" d="M388.0,254.7 C342.0,254.7 342.0,254.7 296.0,254.7"/>
  <path class="link b3" data-depth="3" stroke-width="1.3" d="M388.0,254.7 C342.0,254.7 342.0,290.2 296.0,290.2"/>
  <g class="node d2 b3" data-depth="2">
    <rect class="box" x="388.0" y="240.7" width="189.0" height="28.2" rx="6"/>
    <text x="398.0" y="259.2" font-size="13.0">緊張性気胸は静脈還流を制限</text>
  </g>
  <g class="node d3 b3" data-depth="3">
    <rect class="box" x="176.0" y="205.5" width="120.0" height="27.5" rx="6"/>
    <text x="186.0" y="223.5" font-size="12.5">画像を待たず治療</text>
  </g>
  <g class="node d3 b3" data-depth="3">
    <rect class="box" x="51.0" y="241.0" width="245.0" height="27.5" rx="6"/>
    <text x="61.0" y="259.0" font-size="12.5">針減圧は長さ、屈曲、血栓、位置で失敗</text>
  </g>
  <g class="node d3 b3" data-depth="3">
    <rect class="box" x="88.5" y="276.5" width="207.5" height="27.5" rx="6"/>
    <text x="98.5" y="294.5" font-size="12.5">指胸腔開放や胸腔ドレーンが確実</text>
  </g>
  <g class="node d2 b3" data-depth="2">
    <rect class="box" x="336.0" y="312.0" width="241.0" height="28.2" rx="6"/>
    <text x="346.0" y="330.5" font-size="13.0">タンポナーデは頸静脈怒張を欠き得る</text>
  </g>
  <path class="link b3" data-depth="3" stroke-width="1.3" d="M349.0,361.9 C322.5,361.9 322.5,361.9 296.0,361.9"/>
  <g class="node d2 b3" data-depth="2">
    <rect class="box" x="349.0" y="347.8" width="228.0" height="28.2" rx="6"/>
    <text x="359.0" y="366.3" font-size="13.0">出血性ショックは酸素供給を減らす</text>
  </g>
  <g class="node d3 b3" data-depth="3">
    <rect class="box" x="113.5" y="348.1" width="182.5" height="27.5" rx="6"/>
    <text x="123.5" y="366.1" font-size="12.5">頻脈と血管収縮が血圧を保つ</text>
  </g>
  <path class="link b3" data-depth="3" stroke-width="1.3" d="M362.0,397.4 C329.0,397.4 329.0,397.4 296.0,397.4"/>
  <g class="node d2 b3" data-depth="2">
    <rect class="box" x="362.0" y="383.3" width="215.0" height="28.2" rx="6"/>
    <text x="372.0" y="401.8" font-size="13.0">選択された体幹外傷で許容低血圧</text>
  </g>
  <g class="node d3 b3" data-depth="3">
    <rect class="box" x="51.0" y="383.6" width="245.0" height="27.5" rx="6"/>
    <text x="61.0" y="401.6" font-size="12.5">重症脳損傷で不適切、妊娠で目標異なる</text>
  </g>
  <path class="link b4" data-depth="2" stroke-width="1.8" d="M675.0,549.3 C626.0,549.3 626.0,433.2 577.0,433.2"/>
  <path class="link b4" data-depth="2" stroke-width="1.8" d="M675.0,549.3 C626.0,549.3 626.0,477.3 577.0,477.3"/>
  <path class="link b4" data-depth="2" stroke-width="1.8" d="M675.0,549.3 C626.0,549.3 626.0,521.0 577.0,521.0"/>
  <path class="link b4" data-depth="2" stroke-width="1.8" d="M675.0,549.3 C626.0,549.3 626.0,556.9 577.0,556.9"/>
  <path class="link b4" data-depth="2" stroke-width="1.8" d="M675.0,549.3 C626.0,549.3 626.0,593.0 577.0,593.0"/>
  <path class="link b4" data-depth="2" stroke-width="1.8" d="M675.0,549.3 C626.0,549.3 626.0,629.2 577.0,629.2"/>
  <path class="link b4" data-depth="2" stroke-width="1.8" d="M675.0,549.3 C626.0,549.3 626.0,665.4 577.0,665.4"/>
  <g class="node d1 b4" data-depth="1">
    <rect class="box" x="675.0" y="534.2" width="150.5" height="30.1" rx="9"/>
    <text x="685.0" y="554.2" font-size="14.5">潜在損傷と画像診断</text>
  </g>
  <g class="node d2 b4" data-depth="2">
    <rect class="box" x="388.0" y="419.1" width="189.0" height="28.2" rx="6"/>
    <text x="398.0" y="437.6" font-size="13.0">二次評価は隠れた損傷を探す</text>
  </g>
  <path class="link b4" data-depth="3" stroke-width="1.3" d="M388.0,477.3 C342.0,477.3 342.0,477.3 296.0,477.3"/>
  <g class="node d2 b4" data-depth="2">
    <rect class="box" x="388.0" y="463.2" width="189.0" height="28.2" rx="6"/>
    <text x="398.0" y="481.7" font-size="13.0">腹腔出血は無痛のことがある</text>
  </g>
  <g class="node d3 b4" data-depth="3">
    <rect class="box" x="26.0" y="455.3" width="270.0" height="44.0" rx="6"/>
    <text x="36.0" y="473.3" font-size="12.5">シートベルト痕、下位肋骨、ヘモグロビン低</text>
    <text x="36.0" y="489.8" font-size="12.5">下</text>
  </g>
  <path class="link b4" data-depth="3" stroke-width="1.3" d="M401.0,521.0 C348.5,521.0 348.5,521.0 296.0,521.0"/>
  <g class="node d2 b4" data-depth="2">
    <rect class="box" x="401.0" y="507.0" width="176.0" height="28.2" rx="6"/>
    <text x="411.0" y="525.5" font-size="13.0">焦点超音波陰性でも見逃す</text>
  </g>
  <g class="node d3 b4" data-depth="3">
    <rect class="box" x="126.0" y="507.3" width="170.0" height="27.5" rx="6"/>
    <text x="136.0" y="525.3" font-size="12.5">後腹膜、管腔臓器、横隔膜</text>
  </g>
  <g class="node d2 b4" data-depth="2">
    <rect class="box" x="362.0" y="542.8" width="215.0" height="28.2" rx="6"/>
    <text x="372.0" y="561.3" font-size="13.0">断層撮影は行き先で治療室でない</text>
  </g>
  <g class="node d2 b4" data-depth="2">
    <rect class="box" x="388.0" y="579.0" width="189.0" height="28.2" rx="6"/>
    <text x="398.0" y="597.5" font-size="13.0">妊娠では母体灌流が胎児蘇生</text>
  </g>
  <g class="node d2 b4" data-depth="2">
    <rect class="box" x="427.0" y="615.1" width="150.0" height="28.2" rx="6"/>
    <text x="437.0" y="633.6" font-size="13.0">意識回復後の三次評価</text>
  </g>
  <g class="node d2 b4" data-depth="2">
    <rect class="box" x="375.0" y="651.3" width="202.0" height="28.2" rx="6"/>
    <text x="385.0" y="669.8" font-size="13.0">脈があっても区画で安心しない</text>
  </g>
  <path class="link b5" data-depth="2" stroke-width="1.8" d="M1299.5,593.0 C1341.2,593.0 1341.2,485.2 1383.0,485.2"/>
  <path class="link b5" data-depth="2" stroke-width="1.8" d="M1299.5,593.0 C1341.2,593.0 1341.2,521.4 1383.0,521.4"/>
  <path class="link b5" data-depth="2" stroke-width="1.8" d="M1299.5,593.0 C1341.2,593.0 1341.2,575.0 1383.0,575.0"/>
  <path class="link b5" data-depth="2" stroke-width="1.8" d="M1299.5,593.0 C1341.2,593.0 1341.2,628.5 1383.0,628.5"/>
  <path class="link b5" data-depth="2" stroke-width="1.8" d="M1299.5,593.0 C1341.2,593.0 1341.2,664.7 1383.0,664.7"/>
  <path class="link b5" data-depth="2" stroke-width="1.8" d="M1299.5,593.0 C1341.2,593.0 1341.2,700.9 1383.0,700.9"/>
  <g class="node d1 b5" data-depth="1">
    <rect class="box" x="1163.5" y="578.0" width="136.0" height="30.1" rx="9"/>
    <text x="1173.5" y="598.0" font-size="14.5">脳損傷と意識変容</text>
  </g>
  <g class="node d2 b5" data-depth="2">
    <rect class="box" x="1383.0" y="471.1" width="202.0" height="28.2" rx="6"/>
    <text x="1393.0" y="489.6" font-size="13.0">低酸素と低血圧が転帰を下げる</text>
  </g>
  <g class="node d2 b5" data-depth="2">
    <rect class="box" x="1383.0" y="507.3" width="189.0" height="28.2" rx="6"/>
    <text x="1393.0" y="525.8" font-size="13.0">鎮静・筋弛緩前の所見を記録</text>
  </g>
  <path class="link b5" data-depth="3" stroke-width="1.3" d="M1585.0,575.0 C1637.5,575.0 1637.5,557.2 1690.0,557.2"/>
  <path class="link b5" data-depth="3" stroke-width="1.3" d="M1585.0,575.0 C1637.5,575.0 1637.5,592.7 1690.0,592.7"/>
  <g class="node d2 b5" data-depth="2">
    <rect class="box" x="1383.0" y="560.9" width="202.0" height="28.2" rx="6"/>
    <text x="1393.0" y="579.4" font-size="13.0">散瞳、運動低下、徐脈性高血圧</text>
  </g>
  <g class="node d3 b5" data-depth="3">
    <rect class="box" x="1690.0" y="543.5" width="220.0" height="27.5" rx="6"/>
    <text x="1700.0" y="561.5" font-size="12.5">高浸透圧療法と過換気は時間を作る</text>
  </g>
  <g class="node d3 b5" data-depth="3">
    <rect class="box" x="1690.0" y="579.0" width="120.0" height="27.5" rx="6"/>
    <text x="1700.0" y="597.0" font-size="12.5">腫瘤は除去しない</text>
  </g>
  <g class="node d2 b5" data-depth="2">
    <rect class="box" x="1383.0" y="614.5" width="189.0" height="28.2" rx="6"/>
    <text x="1393.0" y="633.0" font-size="13.0">支持と可逆原因検査を同時に</text>
  </g>
  <g class="node d2 b5" data-depth="2">
    <rect class="box" x="1383.0" y="650.6" width="189.0" height="28.2" rx="6"/>
    <text x="1393.0" y="669.1" font-size="13.0">ナロキソンは換気回復へ滴定</text>
  </g>
  <g class="node d2 b5" data-depth="2">
    <rect class="box" x="1383.0" y="686.8" width="163.0" height="28.2" rx="6"/>
    <text x="1393.0" y="705.3" font-size="13.0">けいれん後の持続無反応</text>
  </g>
  <path class="link b6" data-depth="2" stroke-width="1.8" d="M660.5,773.2 C618.8,773.2 618.8,701.5 577.0,701.5"/>
  <path class="link b6" data-depth="2" stroke-width="1.8" d="M660.5,773.2 C618.8,773.2 618.8,737.7 577.0,737.7"/>
  <path class="link b6" data-depth="2" stroke-width="1.8" d="M660.5,773.2 C618.8,773.2 618.8,773.5 577.0,773.5"/>
  <path class="link b6" data-depth="2" stroke-width="1.8" d="M660.5,773.2 C618.8,773.2 618.8,809.0 577.0,809.0"/>
  <path class="link b6" data-depth="2" stroke-width="1.8" d="M660.5,773.2 C618.8,773.2 618.8,844.8 577.0,844.8"/>
  <g class="node d1 b6" data-depth="1">
    <rect class="box" x="660.5" y="758.1" width="165.0" height="30.1" rx="9"/>
    <text x="670.5" y="778.1" font-size="14.5">心停止と心停止後診療</text>
  </g>
  <g class="node d2 b6" data-depth="2">
    <rect class="box" x="375.0" y="687.4" width="202.0" height="28.2" rx="6"/>
    <text x="385.0" y="705.9" font-size="13.0">胸骨圧迫で冠・脳灌流を最大化</text>
  </g>
  <g class="node d2 b6" data-depth="2">
    <rect class="box" x="362.0" y="723.6" width="215.0" height="28.2" rx="6"/>
    <text x="372.0" y="742.1" font-size="13.0">呼気二酸化炭素の突然上昇は再開</text>
  </g>
  <path class="link b6" data-depth="3" stroke-width="1.3" d="M414.0,773.5 C355.0,773.5 355.0,773.5 296.0,773.5"/>
  <g class="node d2 b6" data-depth="2">
    <rect class="box" x="414.0" y="759.4" width="163.0" height="28.2" rx="6"/>
    <text x="424.0" y="777.9" font-size="13.0">第二波の臓器損傷を防ぐ</text>
  </g>
  <g class="node d3 b6" data-depth="3">
    <rect class="box" x="101.0" y="759.8" width="195.0" height="27.5" rx="6"/>
    <text x="111.0" y="777.8" font-size="12.5">低酸素と長時間高酸素を避ける</text>
  </g>
  <path class="link b6" data-depth="3" stroke-width="1.3" d="M388.0,809.0 C342.0,809.0 342.0,809.0 296.0,809.0"/>
  <g class="node d2 b6" data-depth="2">
    <rect class="box" x="388.0" y="794.9" width="189.0" height="28.2" rx="6"/>
    <text x="398.0" y="813.4" font-size="13.0">交絡が神経評価を混乱させる</text>
  </g>
  <g class="node d3 b6" data-depth="3">
    <rect class="box" x="76.0" y="795.3" width="220.0" height="27.5" rx="6"/>
    <text x="86.0" y="813.3" font-size="12.5">早期の悪い運動反応だけでは不十分</text>
  </g>
  <g class="node d2 b6" data-depth="2">
    <rect class="box" x="362.0" y="830.8" width="215.0" height="28.2" rx="6"/>
    <text x="372.0" y="849.3" font-size="13.0">申し送りは時間、律動、推定原因</text>
  </g>
  <path class="link b7" data-depth="2" stroke-width="1.8" d="M646.0,971.1 C611.5,971.1 611.5,881.0 577.0,881.0"/>
  <path class="link b7" data-depth="2" stroke-width="1.8" d="M646.0,971.1 C611.5,971.1 611.5,917.2 577.0,917.2"/>
  <path class="link b7" data-depth="2" stroke-width="1.8" d="M646.0,971.1 C611.5,971.1 611.5,953.3 577.0,953.3"/>
  <path class="link b7" data-depth="2" stroke-width="1.8" d="M646.0,971.1 C611.5,971.1 611.5,989.1 577.0,989.1"/>
  <path class="link b7" data-depth="2" stroke-width="1.8" d="M646.0,971.1 C611.5,971.1 611.5,1025.0 577.0,1025.0"/>
  <path class="link b7" data-depth="2" stroke-width="1.8" d="M646.0,971.1 C611.5,971.1 611.5,1061.1 577.0,1061.1"/>
  <g class="node d1 b7" data-depth="1">
    <rect class="box" x="646.0" y="956.0" width="179.5" height="30.1" rx="9"/>
    <text x="656.0" y="976.0" font-size="14.5">術前リスクと機能的能力</text>
  </g>
  <g class="node d2 b7" data-depth="2">
    <rect class="box" x="388.0" y="866.9" width="189.0" height="28.2" rx="6"/>
    <text x="398.0" y="885.4" font-size="13.0">儀式的許可でなくリスク修正</text>
  </g>
  <g class="node d2 b7" data-depth="2">
    <rect class="box" x="336.0" y="903.1" width="241.0" height="28.2" rx="6"/>
    <text x="346.0" y="921.6" font-size="13.0">手術ストレスを臓器予備能に合わせる</text>
  </g>
  <g class="node d2 b7" data-depth="2">
    <rect class="box" x="401.0" y="939.2" width="176.0" height="28.2" rx="6"/>
    <text x="411.0" y="957.7" font-size="13.0">定型検査は偶発異常を作る</text>
  </g>
  <path class="link b7" data-depth="3" stroke-width="1.3" d="M375.0,989.1 C335.5,989.1 335.5,989.1 296.0,989.1"/>
  <g class="node d2 b7" data-depth="2">
    <rect class="box" x="375.0" y="975.1" width="202.0" height="28.2" rx="6"/>
    <text x="385.0" y="993.6" font-size="13.0">機能的能力は多くの制限を統合</text>
  </g>
  <g class="node d3 b7" data-depth="3">
    <rect class="box" x="113.5" y="975.4" width="182.5" height="27.5" rx="6"/>
    <text x="123.5" y="993.4" font-size="12.5">階段不能は膝痛の場合がある</text>
  </g>
  <g class="node d2 b7" data-depth="2">
    <rect class="box" x="349.0" y="1010.9" width="228.0" height="28.2" rx="6"/>
    <text x="359.0" y="1029.4" font-size="13.0">フレイルはせん妄と遅い回復を予測</text>
  </g>
  <g class="node d2 b7" data-depth="2">
    <rect class="box" x="375.0" y="1047.1" width="202.0" height="28.2" rx="6"/>
    <text x="385.0" y="1065.6" font-size="13.0">機能軌跡とリハビリ負担を説明</text>
  </g>
  <path class="link b8" data-depth="2" stroke-width="1.8" d="M1256.0,790.4 C1319.5,790.4 1319.5,736.7 1383.0,736.7"/>
  <path class="link b8" data-depth="2" stroke-width="1.8" d="M1256.0,790.4 C1319.5,790.4 1319.5,772.5 1383.0,772.5"/>
  <path class="link b8" data-depth="2" stroke-width="1.8" d="M1256.0,790.4 C1319.5,790.4 1319.5,808.3 1383.0,808.3"/>
  <path class="link b8" data-depth="2" stroke-width="1.8" d="M1256.0,790.4 C1319.5,790.4 1319.5,844.2 1383.0,844.2"/>
  <g class="node d1 b8" data-depth="1">
    <rect class="box" x="1163.5" y="775.4" width="92.5" height="30.1" rx="9"/>
    <text x="1173.5" y="795.4" font-size="14.5">周術期薬剤</text>
  </g>
  <path class="link b8" data-depth="3" stroke-width="1.3" d="M1585.0,736.7 C1637.5,736.7 1637.5,736.7 1690.0,736.7"/>
  <g class="node d2 b8" data-depth="2">
    <rect class="box" x="1383.0" y="722.6" width="202.0" height="28.2" rx="6"/>
    <text x="1393.0" y="741.1" font-size="13.0">抗凝固中止は出血と血栓の取引</text>
  </g>
  <g class="node d3 b8" data-depth="3">
    <rect class="box" x="1690.0" y="722.9" width="170.0" height="27.5" rx="6"/>
    <text x="1700.0" y="740.9" font-size="12.5">橋渡し自体も出血を起こす</text>
  </g>
  <g class="node d2 b8" data-depth="2">
    <rect class="box" x="1383.0" y="758.4" width="228.0" height="28.2" rx="6"/>
    <text x="1393.0" y="776.9" font-size="13.0">抗血小板はステントと緊急性に依存</text>
  </g>
  <path class="link b8" data-depth="3" stroke-width="1.3" d="M1585.0,808.3 C1637.5,808.3 1637.5,808.3 1690.0,808.3"/>
  <g class="node d2 b8" data-depth="2">
    <rect class="box" x="1383.0" y="794.3" width="202.0" height="28.2" rx="6"/>
    <text x="1393.0" y="812.8" font-size="13.0">共輸送体阻害薬を十分早く中止</text>
  </g>
  <g class="node d3 b8" data-depth="3">
    <rect class="box" x="1690.0" y="794.6" width="220.0" height="27.5" rx="6"/>
    <text x="1700.0" y="812.6" font-size="12.5">絶食・ストレスでケトアシドーシス</text>
  </g>
  <g class="node d2 b8" data-depth="2">
    <rect class="box" x="1383.0" y="830.1" width="228.0" height="28.2" rx="6"/>
    <text x="1393.0" y="848.6" font-size="13.0">抗発作・パーキンソン薬を抜かない</text>
  </g>
  <path class="link b9" data-depth="2" stroke-width="1.8" d="M1314.0,969.7 C1348.5,969.7 1348.5,880.3 1383.0,880.3"/>
  <path class="link b9" data-depth="2" stroke-width="1.8" d="M1314.0,969.7 C1348.5,969.7 1348.5,951.7 1383.0,951.7"/>
  <path class="link b9" data-depth="2" stroke-width="1.8" d="M1314.0,969.7 C1348.5,969.7 1348.5,1023.0 1383.0,1023.0"/>
  <path class="link b9" data-depth="2" stroke-width="1.8" d="M1314.0,969.7 C1348.5,969.7 1348.5,1059.2 1383.0,1059.2"/>
  <g class="node d1 b9" data-depth="1">
    <rect class="box" x="1163.5" y="954.7" width="150.5" height="30.1" rx="9"/>
    <text x="1173.5" y="974.7" font-size="14.5">術後悪化と申し送り</text>
  </g>
  <g class="node d2 b9" data-depth="2">
    <rect class="box" x="1383.0" y="866.3" width="202.0" height="28.2" rx="6"/>
    <text x="1393.0" y="884.8" font-size="13.0">「手術後だから」で片付けない</text>
  </g>
  <path class="link b9" data-depth="3" stroke-width="1.3" d="M1572.0,951.7 C1631.0,951.7 1631.0,916.2 1690.0,916.2"/>
  <path class="link b9" data-depth="3" stroke-width="1.3" d="M1572.0,951.7 C1631.0,951.7 1631.0,951.7 1690.0,951.7"/>
  <path class="link b9" data-depth="3" stroke-width="1.3" d="M1572.0,951.7 C1631.0,951.7 1631.0,987.2 1690.0,987.2"/>
  <g class="node d2 b9" data-depth="2">
    <rect class="box" x="1383.0" y="937.6" width="189.0" height="28.2" rx="6"/>
    <text x="1393.0" y="956.1" font-size="13.0">時期と表現型が原因を狭める</text>
  </g>
  <g class="node d3 b9" data-depth="3">
    <rect class="box" x="1690.0" y="902.4" width="207.5" height="27.5" rx="6"/>
    <text x="1700.0" y="920.4" font-size="12.5">低血圧は出血、血管拡張、心機能</text>
  </g>
  <g class="node d3 b9" data-depth="3">
    <rect class="box" x="1690.0" y="937.9" width="182.5" height="27.5" rx="6"/>
    <text x="1700.0" y="955.9" font-size="12.5">低酸素は無気肺、誤嚥、塞栓</text>
  </g>
  <g class="node d3 b9" data-depth="3">
    <rect class="box" x="1690.0" y="973.4" width="195.0" height="27.5" rx="6"/>
    <text x="1700.0" y="991.4" font-size="12.5">せん妄は敗血症の最初の徴候も</text>
  </g>
  <g class="node d2 b9" data-depth="2">
    <rect class="box" x="1383.0" y="1008.9" width="267.0" height="28.2" rx="6"/>
    <text x="1393.0" y="1027.4" font-size="13.0">申し送りは所見、難気道、ドレーン、計画</text>
  </g>
  <g class="node d2 b9" data-depth="2">
    <rect class="box" x="1383.0" y="1045.1" width="228.0" height="28.2" rx="6"/>
    <text x="1393.0" y="1063.6" font-size="13.0">回復は食事、歩行、自己管理で測る</text>
  </g>
</svg>
