<svg xmlns="http://www.w3.org/2000/svg" class="mm" viewBox="0 0 2002 1189" width="2002" height="1189" role="img" aria-label="電気化学勾配、シナプス演算、受容体適応">
<style>
  .mm-bg { fill: #faf8f4; }
  .mm text { font-family: 'Hiragino Sans', 'Noto Sans JP', ui-sans-serif, sans-serif; fill: #1b1917; }
  .mm .link { fill: none; stroke: #c9c1b4; }
  .mm .box { fill: none; stroke: none; }
  .mm .d0 .box { fill: #1b1917; stroke: #1b1917; }
  .mm .d0 text { fill: #faf8f4; font-weight: 650; }
  .mm .d1 text { font-weight: 600; }

  .mm .link.b0 { stroke: #4b9ac6; }
  .mm .b0.d1 .box { fill: #d7e5eb; stroke: #0072B2; stroke-width: 1.5; }
  .mm .b0.d1 text { fill: #075c8b; }
  .mm .b0.d2 .box { fill: #e8efef; stroke: #70aed0; }
  .mm .b0.d3 text, .mm .b0.d4 text { fill: #075c8b; }

  .mm .link.b1 { stroke: #e08c49; }
  .mm .b1.d1 .box { fill: #f5e2d2; stroke: #D55E00; stroke-width: 1.5; }
  .mm .b1.d1 text { fill: #a64d06; }
  .mm .b1.d2 .box { fill: #f7ede3; stroke: #e6a36e; }
  .mm .b1.d3 text, .mm .b1.d4 text { fill: #a64d06; }

  .mm .link.b2 { stroke: #4bb99a; }
  .mm .b2.d1 .box { fill: #d7ebe2; stroke: #009E73; stroke-width: 1.5; }
  .mm .b2.d1 text { fill: #077d5c; }
  .mm .b2.d2 .box { fill: #e8f2eb; stroke: #70c6ad; }
  .mm .b2.d3 text, .mm .b2.d4 text { fill: #077d5c; }

  .mm .link.b3 { stroke: #da9fbe; }
  .mm .b3.d1 .box { fill: #f4e6e9; stroke: #CC79A7; stroke-width: 1.5; }
  .mm .b3.d1 text { fill: #985c7c; }
  .mm .b3.d2 .box { fill: #f7efef; stroke: #e1b2ca; }
  .mm .b3.d3 text, .mm .b3.d4 text { fill: #985c7c; }

  .mm .link.b4 { stroke: #bba149; }
  .mm .b4.d1 .box { fill: #ede7d2; stroke: #A07C00; stroke-width: 1.5; }
  .mm .b4.d1 text { fill: #7f6306; }
  .mm .b4.d2 .box { fill: #f4efe3; stroke: #c8b46e; }
  .mm .b4.d3 text, .mm .b4.d4 text { fill: #7f6306; }

  .mm .link.b5 { stroke: #84c1e2; }
  .mm .b5.d1 .box { fill: #e3eef2; stroke: #51a9db; stroke-width: 1.5; }
  .mm .b5.d1 text { fill: #3d7899; }
  .mm .b5.d2 .box { fill: #eff3f3; stroke: #9dcde6; }
  .mm .b5.d3 text, .mm .b5.d4 text { fill: #3d7899; }

  .mm .link.b6 { stroke: #9580b0; }
  .mm .b6.d1 .box { fill: #e6e0e6; stroke: #6A4C93; stroke-width: 1.5; }
  .mm .b6.d1 text { fill: #563f74; }
  .mm .b6.d2 .box { fill: #f0eced; stroke: #ab99bf; }
  .mm .b6.d3 text, .mm .b6.d4 text { fill: #563f74; }

  .mm .link.b7 { stroke: #98ac74; }
  .mm .b7.d1 .box { fill: #e6e9da; stroke: #6E8B3D; stroke-width: 1.5; }
  .mm .b7.d1 text { fill: #596e34; }
  .mm .b7.d2 .box { fill: #f0f0e7; stroke: #adbc8f; }
  .mm .b7.d3 text, .mm .b7.d4 text { fill: #596e34; }

  .mm .link.b8 { stroke: #e2b349; }
  .mm .b8.d1 .box { fill: #f7ecd2; stroke: #d89500; stroke-width: 1.5; }
  .mm .b8.d1 text { fill: #986a05; }
  .mm .b8.d2 .box { fill: #f9f2e3; stroke: #e7c26e; }
  .mm .b8.d3 text, .mm .b8.d4 text { fill: #986a05; }
@media (prefers-color-scheme: dark) {
  .mm-bg { fill: #12100e; }
  .mm text { font-family: 'Hiragino Sans', 'Noto Sans JP', ui-sans-serif, sans-serif; fill: #ece7df; }
  .mm .link { fill: none; stroke: #3d3833; }
  .mm .box { fill: none; stroke: none; }
  .mm .d0 .box { fill: #ece7df; stroke: #ece7df; }
  .mm .d0 text { fill: #12100e; font-weight: 650; }
  .mm .d1 text { font-weight: 600; }

  .mm .link.b0 { stroke: #2d6a8d; }
  .mm .b0.d1 .box { fill: #172227; stroke: #3891c3; stroke-width: 1.5; }
  .mm .b0.d1 text { fill: #65a6ca; }
  .mm .b0.d2 .box { fill: #15191b; stroke: #275772; }
  .mm .b0.d3 text, .mm .b0.d4 text { fill: #65a6ca; }

  .mm .link.b1 { stroke: #a15f2b; }
  .mm .b1.d1 .box { fill: #2f2014; stroke: #de8138; stroke-width: 1.5; }
  .mm .b1.d1 text { fill: #e29a62; }
  .mm .b1.d2 .box { fill: #201811; stroke: #824e25; }
  .mm .b1.d3 text, .mm .b1.d4 text { fill: #e29a62; }

  .mm .link.b2 { stroke: #2d826a; }
  .mm .b2.d1 .box { fill: #172720; stroke: #38b392; stroke-width: 1.5; }
  .mm .b2.d1 text { fill: #65c0a5; }
  .mm .b2.d2 .box { fill: #151b17; stroke: #276a57; }
  .mm .b2.d3 text, .mm .b2.d4 text { fill: #65c0a5; }

  .mm .link.b3 { stroke: #9c6e86; }
  .mm .b3.d1 .box { fill: #2e2326; stroke: #d796ba; stroke-width: 1.5; }
  .mm .b3.d1 text { fill: #dcaac3; }
  .mm .b3.d2 .box { fill: #20191a; stroke: #7e5a6d; }
  .mm .b3.d3 text, .mm .b3.d4 text { fill: #dcaac3; }

  .mm .link.b4 { stroke: #84702b; }
  .mm .b4.d1 .box { fill: #292314; stroke: #b59938; stroke-width: 1.5; }
  .mm .b4.d1 text { fill: #c3ac62; }
  .mm .b4.d2 .box { fill: #1d1a11; stroke: #6c5b25; }
  .mm .b4.d3 text, .mm .b4.d4 text { fill: #c3ac62; }

  .mm .link.b5 { stroke: #5c8eab; }
  .mm .b5.d1 .box { fill: #21292d; stroke: #7bc4ee; stroke-width: 1.5; }
  .mm .b5.d1 text { fill: #97cdea; }
  .mm .b5.d2 .box { fill: #191d1e; stroke: #4c7389; }
  .mm .b5.d3 text, .mm .b5.d4 text { fill: #97cdea; }

  .mm .link.b6 { stroke: #67557c; }
  .mm .b6.d1 .box { fill: #231e24; stroke: #8b73ab; stroke-width: 1.5; }
  .mm .b6.d1 text { fill: #a390b8; }
  .mm .b6.d2 .box { fill: #1a1719; stroke: #554664; }
  .mm .b6.d3 text, .mm .b6.d4 text { fill: #a390b8; }

  .mm .link.b7 { stroke: #69784d; }
  .mm .b7.d1 .box { fill: #23251b; stroke: #8ea568; stroke-width: 1.5; }
  .mm .b7.d1 text { fill: #a6b686; }
  .mm .b7.d2 .box { fill: #1b1a14; stroke: #566240; }
  .mm .b7.d3 text, .mm .b7.d4 text { fill: #a6b686; }

  .mm .link.b8 { stroke: #ab832b; }
  .mm .b8.d1 .box { fill: #312714; stroke: #ecb438; stroke-width: 1.5; }
  .mm .b8.d1 text { fill: #ecc162; }
  .mm .b8.d2 .box { fill: #211b11; stroke: #8a6a25; }
  .mm .b8.d3 text, .mm .b8.d4 text { fill: #ecc162; }
}
</style>
  <rect class="mm-bg" width="2002" height="1189"/>
  <path class="link b0" data-depth="1" stroke-width="2.2" d="M1168.0,594.7 C1188.0,594.7 1188.0,165.0 1208.0,165.0"/>
  <path class="link b1" data-depth="1" stroke-width="2.2" d="M1168.0,594.7 C1188.0,594.7 1188.0,388.2 1208.0,388.2"/>
  <path class="link b2" data-depth="1" stroke-width="2.2" d="M1168.0,594.7 C1188.0,594.7 1188.0,633.7 1208.0,633.7"/>
  <path class="link b3" data-depth="1" stroke-width="2.2" d="M1168.0,594.7 C958.2,594.7 958.2,152.5 748.5,152.5"/>
  <path class="link b4" data-depth="1" stroke-width="2.2" d="M1168.0,594.7 C936.5,594.7 936.5,371.8 705.0,371.8"/>
  <path class="link b5" data-depth="1" stroke-width="2.2" d="M1168.0,594.7 C1188.0,594.7 1188.0,880.2 1208.0,880.2"/>
  <path class="link b6" data-depth="1" stroke-width="2.2" d="M1168.0,594.7 C893.0,594.7 893.0,581.4 618.0,581.4"/>
  <path class="link b7" data-depth="1" stroke-width="2.2" d="M1168.0,594.7 C1188.0,594.7 1188.0,1077.5 1208.0,1077.5"/>
  <path class="link b8" data-depth="1" stroke-width="2.2" d="M1168.0,594.7 C929.2,594.7 929.2,861.8 690.5,861.8"/>
  <g class="node d0 b0" data-depth="0">
    <rect class="box" x="910.0" y="566.8" width="258.0" height="55.9" rx="9"/>
    <text x="920.0" y="589.2" font-size="17.0">電気化学勾配、シナプス演算、</text>
    <text x="920.0" y="611.7" font-size="17.0">受容体適応</text>
  </g>
  <path class="link b0" data-depth="2" stroke-width="1.8" d="M1358.5,165.0 C1378.5,165.0 1378.5,40.1 1398.5,40.1"/>
  <path class="link b0" data-depth="2" stroke-width="1.8" d="M1358.5,165.0 C1378.5,165.0 1378.5,76.2 1398.5,76.2"/>
  <path class="link b0" data-depth="2" stroke-width="1.8" d="M1358.5,165.0 C1378.5,165.0 1378.5,129.8 1398.5,129.8"/>
  <path class="link b0" data-depth="2" stroke-width="1.8" d="M1358.5,165.0 C1378.5,165.0 1378.5,218.6 1398.5,218.6"/>
  <path class="link b0" data-depth="2" stroke-width="1.8" d="M1358.5,165.0 C1378.5,165.0 1378.5,289.9 1398.5,289.9"/>
  <g class="node d1 b0" data-depth="1">
    <rect class="box" x="1208.0" y="149.9" width="150.5" height="30.1" rx="9"/>
    <text x="1218.0" y="169.9" font-size="14.5">平衡電位とカリウム</text>
  </g>
  <g class="node d2 b0" data-depth="2">
    <rect class="box" x="1398.5" y="26.0" width="267.0" height="28.2" rx="6"/>
    <text x="1408.5" y="44.5" font-size="13.0">膜電位は勾配と選択的コンダクタンスから</text>
  </g>
  <g class="node d2 b0" data-depth="2">
    <rect class="box" x="1398.5" y="62.2" width="267.0" height="28.2" rx="6"/>
    <text x="1408.5" y="80.7" font-size="13.0">平衡電位は電気的力と濃度の力の釣り合い</text>
  </g>
  <path class="link b0" data-depth="3" stroke-width="1.3" d="M1652.5,129.8 C1679.0,129.8 1679.0,112.1 1705.5,112.1"/>
  <path class="link b0" data-depth="3" stroke-width="1.3" d="M1652.5,129.8 C1679.0,129.8 1679.0,147.6 1705.5,147.6"/>
  <g class="node d2 b0" data-depth="2">
    <rect class="box" x="1398.5" y="115.7" width="254.0" height="28.2" rx="6"/>
    <text x="1408.5" y="134.2" font-size="13.0">安静時ニューロンは主にカリウムを透過</text>
  </g>
  <g class="node d3 b0" data-depth="3">
    <rect class="box" x="1705.5" y="98.3" width="220.0" height="27.5" rx="6"/>
    <text x="1715.5" y="116.3" font-size="12.5">安静電位はカリウム平衡電位に近い</text>
  </g>
  <g class="node d3 b0" data-depth="3">
    <rect class="box" x="1705.5" y="133.8" width="207.5" height="27.5" rx="6"/>
    <text x="1715.5" y="151.8" font-size="12.5">塩化物イオンと起電性輸送も寄与</text>
  </g>
  <path class="link b0" data-depth="3" stroke-width="1.3" d="M1626.5,218.6 C1666.0,218.6 1666.0,183.1 1705.5,183.1"/>
  <path class="link b0" data-depth="3" stroke-width="1.3" d="M1626.5,218.6 C1666.0,218.6 1666.0,218.6 1705.5,218.6"/>
  <path class="link b0" data-depth="3" stroke-width="1.3" d="M1626.5,218.6 C1666.0,218.6 1666.0,254.1 1705.5,254.1"/>
  <g class="node d2 b0" data-depth="2">
    <rect class="box" x="1398.5" y="204.5" width="228.0" height="28.2" rx="6"/>
    <text x="1408.5" y="223.0" font-size="13.0">細胞外カリウムが流出勾配を変える</text>
  </g>
  <g class="node d3 b0" data-depth="3">
    <rect class="box" x="1705.5" y="169.3" width="245.0" height="27.5" rx="6"/>
    <text x="1715.5" y="187.3" font-size="12.5">高カリウム血症で安静電位の負が小さい</text>
  </g>
  <g class="node d3 b0" data-depth="3">
    <rect class="box" x="1705.5" y="204.8" width="257.5" height="27.5" rx="6"/>
    <text x="1715.5" y="222.8" font-size="12.5">持続脱分極はナトリウムチャネルを不活化</text>
  </g>
  <g class="node d3 b0" data-depth="3">
    <rect class="box" x="1705.5" y="240.3" width="245.0" height="27.5" rx="6"/>
    <text x="1715.5" y="258.3" font-size="12.5">低カリウム血症は興奮困難、再分極変化</text>
  </g>
  <g class="node d2 b0" data-depth="2">
    <rect class="box" x="1398.5" y="275.8" width="267.0" height="28.2" rx="6"/>
    <text x="1408.5" y="294.3" font-size="13.0">速度、程度、酸塩基、薬剤で効果が異なる</text>
  </g>
  <path class="link b1" data-depth="2" stroke-width="1.8" d="M1329.5,388.2 C1364.0,388.2 1364.0,325.7 1398.5,325.7"/>
  <path class="link b1" data-depth="2" stroke-width="1.8" d="M1329.5,388.2 C1364.0,388.2 1364.0,361.2 1398.5,361.2"/>
  <path class="link b1" data-depth="2" stroke-width="1.8" d="M1329.5,388.2 C1364.0,388.2 1364.0,397.1 1398.5,397.1"/>
  <path class="link b1" data-depth="2" stroke-width="1.8" d="M1329.5,388.2 C1364.0,388.2 1364.0,450.6 1398.5,450.6"/>
  <g class="node d1 b1" data-depth="1">
    <rect class="box" x="1208.0" y="373.1" width="121.5" height="30.1" rx="9"/>
    <text x="1218.0" y="393.1" font-size="14.5">ポンプと駆動力</text>
  </g>
  <path class="link b1" data-depth="3" stroke-width="1.3" d="M1665.5,325.7 C1685.5,325.7 1685.5,325.7 1705.5,325.7"/>
  <g class="node d2 b1" data-depth="2">
    <rect class="box" x="1398.5" y="311.7" width="267.0" height="28.2" rx="6"/>
    <text x="1408.5" y="330.2" font-size="13.0">ポンプは勾配を維持し活動電位は作らない</text>
  </g>
  <g class="node d3 b1" data-depth="3">
    <rect class="box" x="1705.5" y="312.0" width="207.5" height="27.5" rx="6"/>
    <text x="1715.5" y="330.0" font-size="12.5">短時間の活動は既存の勾配で賄う</text>
  </g>
  <path class="link b1" data-depth="3" stroke-width="1.3" d="M1600.5,361.2 C1653.0,361.2 1653.0,361.2 1705.5,361.2"/>
  <g class="node d2 b1" data-depth="2">
    <rect class="box" x="1398.5" y="347.2" width="202.0" height="28.2" rx="6"/>
    <text x="1408.5" y="365.7" font-size="13.0">エネルギー不足は遅れて壊滅的</text>
  </g>
  <g class="node d3 b1" data-depth="3">
    <rect class="box" x="1705.5" y="347.5" width="232.5" height="27.5" rx="6"/>
    <text x="1715.5" y="365.5" font-size="12.5">勾配崩壊、細胞腫脹、カルシウム破綻</text>
  </g>
  <g class="node d2 b1" data-depth="2">
    <rect class="box" x="1398.5" y="383.0" width="254.0" height="28.2" rx="6"/>
    <text x="1408.5" y="401.5" font-size="13.0">電流はコンダクタンスと駆動力で決まる</text>
  </g>
  <path class="link b1" data-depth="3" stroke-width="1.3" d="M1652.5,450.6 C1679.0,450.6 1679.0,432.9 1705.5,432.9"/>
  <path class="link b1" data-depth="3" stroke-width="1.3" d="M1652.5,450.6 C1679.0,450.6 1679.0,468.4 1705.5,468.4"/>
  <g class="node d2 b1" data-depth="2">
    <rect class="box" x="1398.5" y="436.6" width="254.0" height="28.2" rx="6"/>
    <text x="1408.5" y="455.1" font-size="13.0">方向は膜電位と平衡電位の関係で決まる</text>
  </g>
  <g class="node d3 b1" data-depth="3">
    <rect class="box" x="1705.5" y="419.1" width="270.0" height="27.5" rx="6"/>
    <text x="1715.5" y="437.1" font-size="12.5">塩化物チャネル開口は成熟ニューロンを抑制</text>
  </g>
  <g class="node d3 b1" data-depth="3">
    <rect class="box" x="1705.5" y="454.6" width="207.5" height="27.5" rx="6"/>
    <text x="1715.5" y="472.6" font-size="12.5">塩化物勾配が変わると効果も変化</text>
  </g>
  <path class="link b2" data-depth="2" stroke-width="1.8" d="M1344.0,633.7 C1371.2,633.7 1371.2,512.8 1398.5,512.8"/>
  <path class="link b2" data-depth="2" stroke-width="1.8" d="M1344.0,633.7 C1371.2,633.7 1371.2,566.1 1398.5,566.1"/>
  <path class="link b2" data-depth="2" stroke-width="1.8" d="M1344.0,633.7 C1371.2,633.7 1371.2,610.5 1398.5,610.5"/>
  <path class="link b2" data-depth="2" stroke-width="1.8" d="M1344.0,633.7 C1371.2,633.7 1371.2,646.4 1398.5,646.4"/>
  <path class="link b2" data-depth="2" stroke-width="1.8" d="M1344.0,633.7 C1371.2,633.7 1371.2,682.5 1398.5,682.5"/>
  <path class="link b2" data-depth="2" stroke-width="1.8" d="M1344.0,633.7 C1371.2,633.7 1371.2,718.7 1398.5,718.7"/>
  <path class="link b2" data-depth="2" stroke-width="1.8" d="M1344.0,633.7 C1371.2,633.7 1371.2,754.5 1398.5,754.5"/>
  <g class="node d1 b2" data-depth="1">
    <rect class="box" x="1208.0" y="618.6" width="136.0" height="30.1" rx="9"/>
    <text x="1218.0" y="638.6" font-size="14.5">活動電位の多様性</text>
  </g>
  <g class="node d2 b2" data-depth="2">
    <rect class="box" x="1398.5" y="490.1" width="267.0" height="45.3" rx="6"/>
    <text x="1408.5" y="508.6" font-size="13.0">チャネルの種類、時間特性、発現が組織で</text>
    <text x="1408.5" y="525.8" font-size="13.0">異なる</text>
  </g>
  <g class="node d2 b2" data-depth="2">
    <rect class="box" x="1398.5" y="543.5" width="267.0" height="45.3" rx="6"/>
    <text x="1408.5" y="562.0" font-size="13.0">末梢軸索は高速のナトリウム依存性スパイ</text>
    <text x="1408.5" y="579.1" font-size="13.0">ク</text>
  </g>
  <path class="link b2" data-depth="3" stroke-width="1.3" d="M1665.5,610.5 C1685.5,610.5 1685.5,610.5 1705.5,610.5"/>
  <g class="node d2 b2" data-depth="2">
    <rect class="box" x="1398.5" y="587.9" width="267.0" height="45.3" rx="6"/>
    <text x="1408.5" y="606.4" font-size="13.0">心室筋はカルシウム流入による長いプラト</text>
    <text x="1408.5" y="623.5" font-size="13.0">ー</text>
  </g>
  <g class="node d3 b2" data-depth="3">
    <rect class="box" x="1705.5" y="596.8" width="157.5" height="27.5" rx="6"/>
    <text x="1715.5" y="614.8" font-size="12.5">長い不応期が強縮を防ぐ</text>
  </g>
  <g class="node d2 b2" data-depth="2">
    <rect class="box" x="1398.5" y="632.3" width="267.0" height="28.2" rx="6"/>
    <text x="1408.5" y="650.8" font-size="13.0">ペースメーカー細胞は拡張期に自発脱分極</text>
  </g>
  <g class="node d2 b2" data-depth="2">
    <rect class="box" x="1398.5" y="668.4" width="241.0" height="28.2" rx="6"/>
    <text x="1408.5" y="686.9" font-size="13.0">再生的開口は共通、波形は機能に適応</text>
  </g>
  <g class="node d2 b2" data-depth="2">
    <rect class="box" x="1398.5" y="704.6" width="254.0" height="28.2" rx="6"/>
    <text x="1408.5" y="723.1" font-size="13.0">絶対不応期はナトリウムチャネル不活化</text>
  </g>
  <path class="link b2" data-depth="3" stroke-width="1.3" d="M1613.5,754.5 C1659.5,754.5 1659.5,754.5 1705.5,754.5"/>
  <g class="node d2 b2" data-depth="2">
    <rect class="box" x="1398.5" y="740.4" width="215.0" height="28.2" rx="6"/>
    <text x="1408.5" y="758.9" font-size="13.0">相対不応期はより強い刺激が必要</text>
  </g>
  <g class="node d3 b2" data-depth="3">
    <rect class="box" x="1705.5" y="740.8" width="257.5" height="27.5" rx="6"/>
    <text x="1715.5" y="758.8" font-size="12.5">頻度制限、インパルス分離、リエントリー</text>
  </g>
  <path class="link b3" data-depth="2" stroke-width="1.8" d="M748.5,152.5 C663.2,152.5 663.2,40.1 578.0,40.1"/>
  <path class="link b3" data-depth="2" stroke-width="1.8" d="M748.5,152.5 C663.2,152.5 663.2,76.2 578.0,76.2"/>
  <path class="link b3" data-depth="2" stroke-width="1.8" d="M748.5,152.5 C663.2,152.5 663.2,112.4 578.0,112.4"/>
  <path class="link b3" data-depth="2" stroke-width="1.8" d="M748.5,152.5 C663.2,152.5 663.2,148.2 578.0,148.2"/>
  <path class="link b3" data-depth="2" stroke-width="1.8" d="M748.5,152.5 C663.2,152.5 663.2,184.1 578.0,184.1"/>
  <path class="link b3" data-depth="2" stroke-width="1.8" d="M748.5,152.5 C663.2,152.5 663.2,220.2 578.0,220.2"/>
  <path class="link b3" data-depth="2" stroke-width="1.8" d="M748.5,152.5 C663.2,152.5 663.2,265.0 578.0,265.0"/>
  <g class="node d1 b3" data-depth="1">
    <rect class="box" x="748.5" y="137.4" width="121.5" height="30.1" rx="9"/>
    <text x="758.5" y="157.4" font-size="14.5">伝導不全と温度</text>
  </g>
  <g class="node d2 b3" data-depth="2">
    <rect class="box" x="350.0" y="26.0" width="228.0" height="28.2" rx="6"/>
    <text x="360.0" y="44.5" font-size="13.0">脱髄は電流漏出で次の絞輪を妨げる</text>
  </g>
  <g class="node d2 b3" data-depth="2">
    <rect class="box" x="376.0" y="62.2" width="202.0" height="28.2" rx="6"/>
    <text x="386.0" y="80.7" font-size="13.0">圧迫は膜機能と局所血流を障害</text>
  </g>
  <g class="node d2 b3" data-depth="2">
    <rect class="box" x="376.0" y="98.3" width="202.0" height="28.2" rx="6"/>
    <text x="386.0" y="116.8" font-size="13.0">虚血はエネルギー供給を減らす</text>
  </g>
  <path class="link b3" data-depth="3" stroke-width="1.3" d="M389.0,148.2 C330.0,148.2 330.0,148.2 271.0,148.2"/>
  <g class="node d2 b3" data-depth="2">
    <rect class="box" x="389.0" y="134.1" width="189.0" height="28.2" rx="6"/>
    <text x="399.0" y="152.6" font-size="13.0">局所麻酔薬は使用依存性遮断</text>
  </g>
  <g class="node d3 b3" data-depth="3">
    <rect class="box" x="51.0" y="134.5" width="220.0" height="27.5" rx="6"/>
    <text x="61.0" y="152.5" font-size="12.5">小径で高頻度発火の軸索が先に影響</text>
  </g>
  <g class="node d2 b3" data-depth="2">
    <rect class="box" x="337.0" y="170.0" width="241.0" height="28.2" rx="6"/>
    <text x="347.0" y="188.5" font-size="13.0">冷却は神経を遅らせ心臓の間隔を延長</text>
  </g>
  <g class="node d2 b3" data-depth="2">
    <rect class="box" x="311.0" y="206.1" width="267.0" height="28.2" rx="6"/>
    <text x="321.0" y="224.6" font-size="13.0">発熱はチャネル異常や発作感受性を顕在化</text>
  </g>
  <g class="node d2 b3" data-depth="2">
    <rect class="box" x="311.0" y="242.3" width="267.0" height="45.3" rx="6"/>
    <text x="321.0" y="260.8" font-size="13.0">興奮性は化学的環境で働くタンパク質の性</text>
    <text x="321.0" y="278.0" font-size="13.0">質</text>
  </g>
  <path class="link b4" data-depth="2" stroke-width="1.8" d="M705.0,371.8 C641.5,371.8 641.5,309.4 578.0,309.4"/>
  <path class="link b4" data-depth="2" stroke-width="1.8" d="M705.0,371.8 C641.5,371.8 641.5,345.2 578.0,345.2"/>
  <path class="link b4" data-depth="2" stroke-width="1.8" d="M705.0,371.8 C641.5,371.8 641.5,381.0 578.0,381.0"/>
  <path class="link b4" data-depth="2" stroke-width="1.8" d="M705.0,371.8 C641.5,371.8 641.5,434.3 578.0,434.3"/>
  <g class="node d1 b4" data-depth="1">
    <rect class="box" x="705.0" y="356.8" width="165.0" height="30.1" rx="9"/>
    <text x="715.0" y="376.8" font-size="14.5">シナプスの制御と統合</text>
  </g>
  <path class="link b4" data-depth="3" stroke-width="1.3" d="M311.0,309.4 C291.0,309.4 291.0,309.4 271.0,309.4"/>
  <g class="node d2 b4" data-depth="2">
    <rect class="box" x="311.0" y="286.7" width="267.0" height="45.3" rx="6"/>
    <text x="321.0" y="305.2" font-size="13.0">シナプス前はカルシウム、小胞、自己受容</text>
    <text x="321.0" y="322.4" font-size="13.0">体</text>
  </g>
  <g class="node d3 b4" data-depth="3">
    <rect class="box" x="63.5" y="295.6" width="207.5" height="27.5" rx="6"/>
    <text x="73.5" y="313.6" font-size="12.5">軸索・軸索間の抑制が放出を制限</text>
  </g>
  <g class="node d2 b4" data-depth="2">
    <rect class="box" x="337.0" y="331.1" width="241.0" height="28.2" rx="6"/>
    <text x="347.0" y="349.6" font-size="13.0">シナプス後は受容体の数、種類、位置</text>
  </g>
  <path class="link b4" data-depth="3" stroke-width="1.3" d="M337.0,381.0 C304.0,381.0 304.0,381.0 271.0,381.0"/>
  <g class="node d2 b4" data-depth="2">
    <rect class="box" x="337.0" y="366.9" width="241.0" height="28.2" rx="6"/>
    <text x="347.0" y="385.4" font-size="13.0">取り込み輸送体と分解酵素が持続時間</text>
  </g>
  <g class="node d3 b4" data-depth="3">
    <rect class="box" x="26.0" y="367.3" width="245.0" height="27.5" rx="6"/>
    <text x="36.0" y="385.3" font-size="12.5">薬剤は伝達物質を模倣せず信号を変える</text>
  </g>
  <path class="link b4" data-depth="3" stroke-width="1.3" d="M415.0,434.3 C343.0,434.3 343.0,416.5 271.0,416.5"/>
  <path class="link b4" data-depth="3" stroke-width="1.3" d="M415.0,434.3 C343.0,434.3 343.0,452.0 271.0,452.0"/>
  <g class="node d2 b4" data-depth="2">
    <rect class="box" x="415.0" y="420.2" width="163.0" height="28.2" rx="6"/>
    <text x="425.0" y="438.7" font-size="13.0">空間的加重と時間的加重</text>
  </g>
  <g class="node d3 b4" data-depth="3">
    <rect class="box" x="26.0" y="402.8" width="245.0" height="27.5" rx="6"/>
    <text x="36.0" y="420.8" font-size="12.5">遠位樹状突起の興奮は伝わる間に弱まる</text>
  </g>
  <g class="node d3 b4" data-depth="3">
    <rect class="box" x="38.5" y="438.3" width="232.5" height="27.5" rx="6"/>
    <text x="48.5" y="456.3" font-size="12.5">細胞体付近の抑制が軸索起始部を支配</text>
  </g>
  <path class="link b5" data-depth="2" stroke-width="1.8" d="M1358.5,880.2 C1378.5,880.2 1378.5,790.3 1398.5,790.3"/>
  <path class="link b5" data-depth="2" stroke-width="1.8" d="M1358.5,880.2 C1378.5,880.2 1378.5,826.5 1398.5,826.5"/>
  <path class="link b5" data-depth="2" stroke-width="1.8" d="M1358.5,880.2 C1378.5,880.2 1378.5,862.3 1398.5,862.3"/>
  <path class="link b5" data-depth="2" stroke-width="1.8" d="M1358.5,880.2 C1378.5,880.2 1378.5,898.2 1398.5,898.2"/>
  <path class="link b5" data-depth="2" stroke-width="1.8" d="M1358.5,880.2 C1378.5,880.2 1378.5,934.3 1398.5,934.3"/>
  <path class="link b5" data-depth="2" stroke-width="1.8" d="M1358.5,880.2 C1378.5,880.2 1378.5,970.1 1398.5,970.1"/>
  <g class="node d1 b5" data-depth="1">
    <rect class="box" x="1208.0" y="865.2" width="150.5" height="30.1" rx="9"/>
    <text x="1218.0" y="885.2" font-size="14.5">抑制の形式と可塑性</text>
  </g>
  <g class="node d2 b5" data-depth="2">
    <rect class="box" x="1398.5" y="776.3" width="215.0" height="28.2" rx="6"/>
    <text x="1408.5" y="794.8" font-size="13.0">過分極性抑制は閾値から遠ざける</text>
  </g>
  <g class="node d2 b5" data-depth="2">
    <rect class="box" x="1398.5" y="812.4" width="254.0" height="28.2" rx="6"/>
    <text x="1408.5" y="830.9" font-size="13.0">シャント抑制は興奮性電流を散逸させる</text>
  </g>
  <path class="link b5" data-depth="3" stroke-width="1.3" d="M1613.5,862.3 C1659.5,862.3 1659.5,862.3 1705.5,862.3"/>
  <g class="node d2 b5" data-depth="2">
    <rect class="box" x="1398.5" y="848.2" width="215.0" height="28.2" rx="6"/>
    <text x="1408.5" y="866.7" font-size="13.0">脱抑制は直接の興奮なしに活性化</text>
  </g>
  <g class="node d3 b5" data-depth="3">
    <rect class="box" x="1705.5" y="848.6" width="232.5" height="27.5" rx="6"/>
    <text x="1715.5" y="866.6" font-size="12.5">選択、コントラスト、同期、暴走防止</text>
  </g>
  <g class="node d2 b5" data-depth="2">
    <rect class="box" x="1398.5" y="884.1" width="202.0" height="28.2" rx="6"/>
    <text x="1408.5" y="902.6" font-size="13.0">残存カルシウムによる短期促通</text>
  </g>
  <g class="node d2 b5" data-depth="2">
    <rect class="box" x="1398.5" y="920.2" width="163.0" height="28.2" rx="6"/>
    <text x="1408.5" y="938.7" font-size="13.0">小胞枯渇による短期抑圧</text>
  </g>
  <path class="link b5" data-depth="3" stroke-width="1.3" d="M1665.5,970.1 C1685.5,970.1 1685.5,970.1 1705.5,970.1"/>
  <g class="node d2 b5" data-depth="2">
    <rect class="box" x="1398.5" y="947.5" width="267.0" height="45.3" rx="6"/>
    <text x="1408.5" y="966.0" font-size="13.0">長期変化は受容体輸送、キナーゼ、遺伝子</text>
    <text x="1408.5" y="983.1" font-size="13.0">、構造</text>
  </g>
  <g class="node d3 b5" data-depth="3">
    <rect class="box" x="1705.5" y="956.4" width="245.0" height="27.5" rx="6"/>
    <text x="1715.5" y="974.4" font-size="12.5">侵害受容経路や強迫的行動を強化し得る</text>
  </g>
  <path class="link b6" data-depth="2" stroke-width="1.8" d="M618.0,581.4 C598.0,581.4 598.0,496.4 578.0,496.4"/>
  <path class="link b6" data-depth="2" stroke-width="1.8" d="M618.0,581.4 C598.0,581.4 598.0,541.2 578.0,541.2"/>
  <path class="link b6" data-depth="2" stroke-width="1.8" d="M618.0,581.4 C598.0,581.4 598.0,577.3 578.0,577.3"/>
  <path class="link b6" data-depth="2" stroke-width="1.8" d="M618.0,581.4 C598.0,581.4 598.0,613.2 578.0,613.2"/>
  <path class="link b6" data-depth="2" stroke-width="1.8" d="M618.0,581.4 C598.0,581.4 598.0,666.4 578.0,666.4"/>
  <g class="node d1 b6" data-depth="1">
    <rect class="box" x="618.0" y="566.4" width="252.0" height="30.1" rx="9"/>
    <text x="628.0" y="586.4" font-size="14.5">受容体ファミリーと細胞による解釈</text>
  </g>
  <g class="node d2 b6" data-depth="2">
    <rect class="box" x="311.0" y="473.8" width="267.0" height="45.3" rx="6"/>
    <text x="321.0" y="492.3" font-size="13.0">リガンド依存性イオンチャネルは迅速な電</text>
    <text x="321.0" y="509.4" font-size="13.0">流</text>
  </g>
  <g class="node d2 b6" data-depth="2">
    <rect class="box" x="343.1" y="527.1" width="234.9" height="28.2" rx="6"/>
    <text x="353.1" y="545.6" font-size="13.0">Gタンパク質共役受容体は増幅と調節</text>
  </g>
  <g class="node d2 b6" data-depth="2">
    <rect class="box" x="311.0" y="563.3" width="267.0" height="28.2" rx="6"/>
    <text x="321.0" y="581.8" font-size="13.0">酵素結合型受容体はリン酸化ネットワーク</text>
  </g>
  <path class="link b6" data-depth="3" stroke-width="1.3" d="M363.0,613.2 C317.0,613.2 317.0,613.2 271.0,613.2"/>
  <g class="node d2 b6" data-depth="2">
    <rect class="box" x="363.0" y="599.1" width="215.0" height="28.2" rx="6"/>
    <text x="373.0" y="617.6" font-size="13.0">細胞内受容体は遺伝子発現を調節</text>
  </g>
  <g class="node d3 b6" data-depth="3">
    <rect class="box" x="51.0" y="599.4" width="220.0" height="27.5" rx="6"/>
    <text x="61.0" y="617.4" font-size="12.5">速い非ゲノム作用を示すものもある</text>
  </g>
  <path class="link b6" data-depth="3" stroke-width="1.3" d="M324.0,666.4 C297.5,666.4 297.5,648.7 271.0,648.7"/>
  <path class="link b6" data-depth="3" stroke-width="1.3" d="M324.0,666.4 C297.5,666.4 297.5,684.2 271.0,684.2"/>
  <g class="node d2 b6" data-depth="2">
    <rect class="box" x="324.0" y="652.3" width="254.0" height="28.2" rx="6"/>
    <text x="334.0" y="670.8" font-size="13.0">同一受容体でも細胞ごとに効果が異なる</text>
  </g>
  <g class="node d3 b6" data-depth="3">
    <rect class="box" x="38.5" y="634.9" width="232.5" height="27.5" rx="6"/>
    <text x="48.5" y="652.9" font-size="12.5">ベータ受容体で心拍数と収縮力が増す</text>
  </g>
  <g class="node d3 b6" data-depth="3">
    <rect class="box" x="38.5" y="670.4" width="232.5" height="27.5" rx="6"/>
    <text x="48.5" y="688.4" font-size="12.5">関連信号は一部の平滑筋を弛緩させる</text>
  </g>
  <path class="link b7" data-depth="2" stroke-width="1.8" d="M1358.5,1077.5 C1378.5,1077.5 1378.5,1005.6 1398.5,1005.6"/>
  <path class="link b7" data-depth="2" stroke-width="1.8" d="M1358.5,1077.5 C1378.5,1077.5 1378.5,1041.5 1398.5,1041.5"/>
  <path class="link b7" data-depth="2" stroke-width="1.8" d="M1358.5,1077.5 C1378.5,1077.5 1378.5,1077.6 1398.5,1077.6"/>
  <path class="link b7" data-depth="2" stroke-width="1.8" d="M1358.5,1077.5 C1378.5,1077.5 1378.5,1113.5 1398.5,1113.5"/>
  <path class="link b7" data-depth="2" stroke-width="1.8" d="M1358.5,1077.5 C1378.5,1077.5 1378.5,1149.3 1398.5,1149.3"/>
  <g class="node d1 b7" data-depth="1">
    <rect class="box" x="1208.0" y="1062.4" width="150.5" height="30.1" rx="9"/>
    <text x="1218.0" y="1082.4" font-size="14.5">作動、偏向、予備能</text>
  </g>
  <path class="link b7" data-depth="3" stroke-width="1.3" d="M1587.5,1005.6 C1646.5,1005.6 1646.5,1005.6 1705.5,1005.6"/>
  <g class="node d2 b7" data-depth="2">
    <rect class="box" x="1398.5" y="991.6" width="189.0" height="28.2" rx="6"/>
    <text x="1408.5" y="1010.1" font-size="13.0">部分作動薬は最大応答が低い</text>
  </g>
  <g class="node d3 b7" data-depth="3">
    <rect class="box" x="1705.5" y="991.9" width="232.5" height="27.5" rx="6"/>
    <text x="1715.5" y="1009.9" font-size="12.5">完全作動薬の存在下で活性化を減らす</text>
  </g>
  <g class="node d2 b7" data-depth="2">
    <rect class="box" x="1398.5" y="1027.4" width="228.0" height="28.2" rx="6"/>
    <text x="1408.5" y="1045.9" font-size="13.0">逆作動薬は構成的活性を低下させる</text>
  </g>
  <g class="node d2 b7" data-depth="2">
    <rect class="box" x="1398.5" y="1063.6" width="241.0" height="28.2" rx="6"/>
    <text x="1408.5" y="1082.1" font-size="13.0">アロステリック調節薬は別部位に結合</text>
  </g>
  <path class="link b7" data-depth="3" stroke-width="1.3" d="M1639.5,1113.5 C1672.5,1113.5 1672.5,1113.5 1705.5,1113.5"/>
  <g class="node d2 b7" data-depth="2">
    <rect class="box" x="1398.5" y="1099.4" width="241.0" height="28.2" rx="6"/>
    <text x="1408.5" y="1117.9" font-size="13.0">偏向シグナルは特定の下流経路を優先</text>
  </g>
  <g class="node d3 b7" data-depth="3">
    <rect class="box" x="1705.5" y="1099.7" width="232.5" height="27.5" rx="6"/>
    <text x="1715.5" y="1117.7" font-size="12.5">同名受容体でも薬剤ごとに効果が違う</text>
  </g>
  <g class="node d2 b7" data-depth="2">
    <rect class="box" x="1398.5" y="1135.2" width="202.0" height="28.2" rx="6"/>
    <text x="1408.5" y="1153.7" font-size="13.0">受容体予備能が最大応答を保つ</text>
  </g>
  <path class="link b8" data-depth="2" stroke-width="1.8" d="M690.5,861.8 C634.2,861.8 634.2,755.2 578.0,755.2"/>
  <path class="link b8" data-depth="2" stroke-width="1.8" d="M690.5,861.8 C634.2,861.8 634.2,843.9 578.0,843.9"/>
  <path class="link b8" data-depth="2" stroke-width="1.8" d="M690.5,861.8 C634.2,861.8 634.2,914.9 578.0,914.9"/>
  <path class="link b8" data-depth="2" stroke-width="1.8" d="M690.5,861.8 C634.2,861.8 634.2,968.5 578.0,968.5"/>
  <g class="node d1 b8" data-depth="1">
    <rect class="box" x="690.5" y="846.8" width="179.5" height="30.1" rx="9"/>
    <text x="700.5" y="866.8" font-size="14.5">適応、離脱、検査の解釈</text>
  </g>
  <path class="link b8" data-depth="3" stroke-width="1.3" d="M363.0,755.2 C317.0,755.2 317.0,719.7 271.0,719.7"/>
  <path class="link b8" data-depth="3" stroke-width="1.3" d="M363.0,755.2 C317.0,755.2 317.0,755.2 271.0,755.2"/>
  <path class="link b8" data-depth="3" stroke-width="1.3" d="M363.0,755.2 C317.0,755.2 317.0,790.7 271.0,790.7"/>
  <g class="node d2 b8" data-depth="2">
    <rect class="box" x="363.0" y="741.1" width="215.0" height="28.2" rx="6"/>
    <text x="373.0" y="759.6" font-size="13.0">持続刺激は受容体を脱感作させる</text>
  </g>
  <g class="node d3 b8" data-depth="3">
    <rect class="box" x="88.5" y="705.9" width="182.5" height="27.5" rx="6"/>
    <text x="98.5" y="723.9" font-size="12.5">リン酸化、共役解除、内在化</text>
  </g>
  <g class="node d3 b8" data-depth="3">
    <rect class="box" x="76.0" y="741.4" width="195.0" height="27.5" rx="6"/>
    <text x="86.0" y="759.4" font-size="12.5">耐性は複数の段階で起こり得る</text>
  </g>
  <g class="node d3 b8" data-depth="3">
    <rect class="box" x="51.0" y="776.9" width="220.0" height="27.5" rx="6"/>
    <text x="61.0" y="794.9" font-size="12.5">機序を確かめない増量は毒性を増す</text>
  </g>
  <path class="link b8" data-depth="3" stroke-width="1.3" d="M363.0,843.9 C317.0,843.9 317.0,826.2 271.0,826.2"/>
  <path class="link b8" data-depth="3" stroke-width="1.3" d="M363.0,843.9 C317.0,843.9 317.0,861.7 271.0,861.7"/>
  <g class="node d2 b8" data-depth="2">
    <rect class="box" x="363.0" y="829.8" width="215.0" height="28.2" rx="6"/>
    <text x="373.0" y="848.3" font-size="13.0">慢性遮断は上方調節と感受性増大</text>
  </g>
  <g class="node d3 b8" data-depth="3">
    <rect class="box" x="88.5" y="812.4" width="182.5" height="27.5" rx="6"/>
    <text x="98.5" y="830.4" font-size="12.5">急な中止で反跳活動が起こる</text>
  </g>
  <g class="node d3 b8" data-depth="3">
    <rect class="box" x="63.5" y="847.9" width="207.5" height="27.5" rx="6"/>
    <text x="73.5" y="865.9" font-size="12.5">最新の指針に沿って計画的に漸減</text>
  </g>
  <path class="link b8" data-depth="3" stroke-width="1.3" d="M376.0,914.9 C323.5,914.9 323.5,897.2 271.0,897.2"/>
  <path class="link b8" data-depth="3" stroke-width="1.3" d="M376.0,914.9 C323.5,914.9 323.5,932.7 271.0,932.7"/>
  <g class="node d2 b8" data-depth="2">
    <rect class="box" x="376.0" y="900.8" width="202.0" height="28.2" rx="6"/>
    <text x="386.0" y="919.3" font-size="13.0">内分泌検査は動的な軸の一時点</text>
  </g>
  <g class="node d3 b8" data-depth="3">
    <rect class="box" x="38.5" y="883.4" width="232.5" height="27.5" rx="6"/>
    <text x="48.5" y="901.4" font-size="12.5">基準範囲内でも調節ホルモンと不適切</text>
  </g>
  <g class="node d3 b8" data-depth="3">
    <rect class="box" x="51.0" y="918.9" width="220.0" height="27.5" rx="6"/>
    <text x="61.0" y="936.9" font-size="12.5">動的試験は正しい手順と状況が前提</text>
  </g>
  <g class="node d2 b8" data-depth="2">
    <rect class="box" x="324.0" y="954.4" width="254.0" height="28.2" rx="6"/>
    <text x="334.0" y="972.9" font-size="13.0">勾配からチャネル、細胞、回路、全身へ</text>
  </g>
</svg>
