<svg xmlns="http://www.w3.org/2000/svg" class="mm" viewBox="0 0 2111 1576" width="2111" height="1576" role="img" aria-label="Exposure, variability, and prescribing as control">
<style>
  .mm-bg { fill: #faf8f4; }
  .mm text { font-family: Inter, ui-sans-serif, -apple-system, BlinkMacSystemFont, 'Segoe UI', sans-serif; fill: #1b1917; }
  .mm .link { fill: none; stroke: #c9c1b4; }
  .mm .box { fill: none; stroke: none; }
  .mm .d0 .box { fill: #1b1917; stroke: #1b1917; }
  .mm .d0 text { fill: #faf8f4; font-weight: 650; }
  .mm .d1 text { font-weight: 600; }

  .mm .link.b0 { stroke: #4b9ac6; }
  .mm .b0.d1 .box { fill: #d7e5eb; stroke: #0072B2; stroke-width: 1.5; }
  .mm .b0.d1 text { fill: #075c8b; }
  .mm .b0.d2 .box { fill: #e8efef; stroke: #70aed0; }
  .mm .b0.d3 text, .mm .b0.d4 text { fill: #075c8b; }

  .mm .link.b1 { stroke: #e08c49; }
  .mm .b1.d1 .box { fill: #f5e2d2; stroke: #D55E00; stroke-width: 1.5; }
  .mm .b1.d1 text { fill: #a64d06; }
  .mm .b1.d2 .box { fill: #f7ede3; stroke: #e6a36e; }
  .mm .b1.d3 text, .mm .b1.d4 text { fill: #a64d06; }

  .mm .link.b2 { stroke: #4bb99a; }
  .mm .b2.d1 .box { fill: #d7ebe2; stroke: #009E73; stroke-width: 1.5; }
  .mm .b2.d1 text { fill: #077d5c; }
  .mm .b2.d2 .box { fill: #e8f2eb; stroke: #70c6ad; }
  .mm .b2.d3 text, .mm .b2.d4 text { fill: #077d5c; }

  .mm .link.b3 { stroke: #da9fbe; }
  .mm .b3.d1 .box { fill: #f4e6e9; stroke: #CC79A7; stroke-width: 1.5; }
  .mm .b3.d1 text { fill: #985c7c; }
  .mm .b3.d2 .box { fill: #f7efef; stroke: #e1b2ca; }
  .mm .b3.d3 text, .mm .b3.d4 text { fill: #985c7c; }

  .mm .link.b4 { stroke: #bba149; }
  .mm .b4.d1 .box { fill: #ede7d2; stroke: #A07C00; stroke-width: 1.5; }
  .mm .b4.d1 text { fill: #7f6306; }
  .mm .b4.d2 .box { fill: #f4efe3; stroke: #c8b46e; }
  .mm .b4.d3 text, .mm .b4.d4 text { fill: #7f6306; }

  .mm .link.b5 { stroke: #84c1e2; }
  .mm .b5.d1 .box { fill: #e3eef2; stroke: #51a9db; stroke-width: 1.5; }
  .mm .b5.d1 text { fill: #3d7899; }
  .mm .b5.d2 .box { fill: #eff3f3; stroke: #9dcde6; }
  .mm .b5.d3 text, .mm .b5.d4 text { fill: #3d7899; }

  .mm .link.b6 { stroke: #9580b0; }
  .mm .b6.d1 .box { fill: #e6e0e6; stroke: #6A4C93; stroke-width: 1.5; }
  .mm .b6.d1 text { fill: #563f74; }
  .mm .b6.d2 .box { fill: #f0eced; stroke: #ab99bf; }
  .mm .b6.d3 text, .mm .b6.d4 text { fill: #563f74; }
@media (prefers-color-scheme: dark) {
  .mm-bg { fill: #12100e; }
  .mm text { font-family: Inter, ui-sans-serif, -apple-system, BlinkMacSystemFont, 'Segoe UI', sans-serif; fill: #ece7df; }
  .mm .link { fill: none; stroke: #3d3833; }
  .mm .box { fill: none; stroke: none; }
  .mm .d0 .box { fill: #ece7df; stroke: #ece7df; }
  .mm .d0 text { fill: #12100e; font-weight: 650; }
  .mm .d1 text { font-weight: 600; }

  .mm .link.b0 { stroke: #2d6a8d; }
  .mm .b0.d1 .box { fill: #172227; stroke: #3891c3; stroke-width: 1.5; }
  .mm .b0.d1 text { fill: #65a6ca; }
  .mm .b0.d2 .box { fill: #15191b; stroke: #275772; }
  .mm .b0.d3 text, .mm .b0.d4 text { fill: #65a6ca; }

  .mm .link.b1 { stroke: #a15f2b; }
  .mm .b1.d1 .box { fill: #2f2014; stroke: #de8138; stroke-width: 1.5; }
  .mm .b1.d1 text { fill: #e29a62; }
  .mm .b1.d2 .box { fill: #201811; stroke: #824e25; }
  .mm .b1.d3 text, .mm .b1.d4 text { fill: #e29a62; }

  .mm .link.b2 { stroke: #2d826a; }
  .mm .b2.d1 .box { fill: #172720; stroke: #38b392; stroke-width: 1.5; }
  .mm .b2.d1 text { fill: #65c0a5; }
  .mm .b2.d2 .box { fill: #151b17; stroke: #276a57; }
  .mm .b2.d3 text, .mm .b2.d4 text { fill: #65c0a5; }

  .mm .link.b3 { stroke: #9c6e86; }
  .mm .b3.d1 .box { fill: #2e2326; stroke: #d796ba; stroke-width: 1.5; }
  .mm .b3.d1 text { fill: #dcaac3; }
  .mm .b3.d2 .box { fill: #20191a; stroke: #7e5a6d; }
  .mm .b3.d3 text, .mm .b3.d4 text { fill: #dcaac3; }

  .mm .link.b4 { stroke: #84702b; }
  .mm .b4.d1 .box { fill: #292314; stroke: #b59938; stroke-width: 1.5; }
  .mm .b4.d1 text { fill: #c3ac62; }
  .mm .b4.d2 .box { fill: #1d1a11; stroke: #6c5b25; }
  .mm .b4.d3 text, .mm .b4.d4 text { fill: #c3ac62; }

  .mm .link.b5 { stroke: #5c8eab; }
  .mm .b5.d1 .box { fill: #21292d; stroke: #7bc4ee; stroke-width: 1.5; }
  .mm .b5.d1 text { fill: #97cdea; }
  .mm .b5.d2 .box { fill: #191d1e; stroke: #4c7389; }
  .mm .b5.d3 text, .mm .b5.d4 text { fill: #97cdea; }

  .mm .link.b6 { stroke: #67557c; }
  .mm .b6.d1 .box { fill: #231e24; stroke: #8b73ab; stroke-width: 1.5; }
  .mm .b6.d1 text { fill: #a390b8; }
  .mm .b6.d2 .box { fill: #1a1719; stroke: #554664; }
  .mm .b6.d3 text, .mm .b6.d4 text { fill: #a390b8; }
}
</style>
  <rect class="mm-bg" width="2111" height="1576"/>
  <path class="link b0" data-depth="1" stroke-width="2.2" d="M1177.9,787.8 C1197.9,787.8 1197.9,224.1 1217.9,224.1"/>
  <path class="link b1" data-depth="1" stroke-width="2.2" d="M1177.9,787.8 C1197.9,787.8 1197.9,690.1 1217.9,690.1"/>
  <path class="link b2" data-depth="1" stroke-width="2.2" d="M1177.9,787.8 C1197.9,787.8 1197.9,1125.4 1217.9,1125.4"/>
  <path class="link b3" data-depth="1" stroke-width="2.2" d="M1177.9,787.8 C898.3,787.8 898.3,259.0 618.8,259.0"/>
  <path class="link b4" data-depth="1" stroke-width="2.2" d="M1177.9,787.8 C898.3,787.8 898.3,720.4 618.8,720.4"/>
  <path class="link b5" data-depth="1" stroke-width="2.2" d="M1177.9,787.8 C911.0,787.8 911.0,1082.5 644.2,1082.5"/>
  <path class="link b6" data-depth="1" stroke-width="2.2" d="M1177.9,787.8 C898.3,787.8 898.3,1394.7 618.8,1394.7"/>
  <g class="node d0 b0" data-depth="0">
    <rect class="box" x="899.3" y="759.9" width="278.6" height="55.9" rx="9"/>
    <text x="909.3" y="782.4" font-size="17.0">Exposure, variability, and</text>
    <text x="909.3" y="804.8" font-size="17.0">prescribing as control</text>
  </g>
  <path class="link b0" data-depth="2" stroke-width="1.8" d="M1433.0,224.1 C1482.7,224.1 1482.7,48.7 1532.4,48.7"/>
  <path class="link b0" data-depth="2" stroke-width="1.8" d="M1433.0,224.1 C1482.7,224.1 1482.7,102.0 1532.4,102.0"/>
  <path class="link b0" data-depth="2" stroke-width="1.8" d="M1433.0,224.1 C1482.7,224.1 1482.7,154.6 1532.4,154.6"/>
  <path class="link b0" data-depth="2" stroke-width="1.8" d="M1433.0,224.1 C1482.7,224.1 1482.7,232.6 1532.4,232.6"/>
  <path class="link b0" data-depth="2" stroke-width="1.8" d="M1433.0,224.1 C1482.7,224.1 1482.7,302.4 1532.4,302.4"/>
  <path class="link b0" data-depth="2" stroke-width="1.8" d="M1433.0,224.1 C1482.7,224.1 1482.7,346.8 1532.4,346.8"/>
  <path class="link b0" data-depth="2" stroke-width="1.8" d="M1433.0,224.1 C1482.7,224.1 1482.7,399.5 1532.4,399.5"/>
  <g class="node d1 b0" data-depth="1">
    <rect class="box" x="1217.9" y="209.0" width="215.1" height="30.1" rx="9"/>
    <text x="1227.9" y="229.0" font-size="14.5">Concentration over time</text>
  </g>
  <g class="node d2 b0" data-depth="2">
    <rect class="box" x="1532.4" y="26.0" width="226.7" height="45.3" rx="6"/>
    <text x="1542.4" y="44.5" font-size="13.0">Dose is input, exposure is the</text>
    <text x="1542.4" y="61.7" font-size="13.0">concentration pattern</text>
  </g>
  <g class="node d2 b0" data-depth="2">
    <rect class="box" x="1532.4" y="79.3" width="206.0" height="45.3" rx="6"/>
    <text x="1542.4" y="97.8" font-size="13.0">Area under the curve: total</text>
    <text x="1542.4" y="115.0" font-size="13.0">systemic exposure</text>
  </g>
  <path class="link b0" data-depth="3" stroke-width="1.3" d="M1779.7,154.6 C1803.2,154.6 1803.2,154.6 1826.6,154.6"/>
  <g class="node d2 b0" data-depth="2">
    <rect class="box" x="1532.4" y="132.0" width="247.4" height="45.3" rx="6"/>
    <text x="1542.4" y="150.5" font-size="13.0">Peak, time above target, or total</text>
    <text x="1542.4" y="167.6" font-size="13.0">exposure</text>
  </g>
  <g class="node d3 b0" data-depth="3">
    <rect class="box" x="1826.6" y="132.6" width="245.2" height="44.0" rx="6"/>
    <text x="1836.6" y="150.6" font-size="12.5">Each predicts different effects or</text>
    <text x="1836.6" y="167.1" font-size="12.5">toxicity</text>
  </g>
  <path class="link b0" data-depth="3" stroke-width="1.3" d="M1738.4,232.6 C1782.5,232.6 1782.5,206.6 1826.6,206.6"/>
  <path class="link b0" data-depth="3" stroke-width="1.3" d="M1738.4,232.6 C1782.5,232.6 1782.5,258.6 1826.6,258.6"/>
  <g class="node d2 b0" data-depth="2">
    <rect class="box" x="1532.4" y="210.0" width="206.0" height="45.3" rx="6"/>
    <text x="1542.4" y="228.5" font-size="13.0">Same daily dose, not always</text>
    <text x="1542.4" y="245.6" font-size="13.0">equivalent regimens</text>
  </g>
  <g class="node d3 b0" data-depth="3">
    <rect class="box" x="1826.6" y="184.6" width="251.9" height="44.0" rx="6"/>
    <text x="1836.6" y="202.6" font-size="12.5">Divided dosing lowers peaks, raises</text>
    <text x="1836.6" y="219.1" font-size="12.5">troughs</text>
  </g>
  <g class="node d3 b0" data-depth="3">
    <rect class="box" x="1826.6" y="236.6" width="172.4" height="44.0" rx="6"/>
    <text x="1836.6" y="254.6" font-size="12.5">Rapid bolus: high early</text>
    <text x="1836.6" y="271.1" font-size="12.5">concentration</text>
  </g>
  <path class="link b0" data-depth="3" stroke-width="1.3" d="M1752.2,302.4 C1789.4,302.4 1789.4,302.4 1826.6,302.4"/>
  <g class="node d2 b0" data-depth="2">
    <rect class="box" x="1532.4" y="279.7" width="219.8" height="45.3" rx="6"/>
    <text x="1542.4" y="298.2" font-size="13.0">Distribution phase fall, then</text>
    <text x="1542.4" y="315.4" font-size="13.0">slower elimination</text>
  </g>
  <g class="node d3 b0" data-depth="3">
    <rect class="box" x="1826.6" y="288.6" width="251.9" height="27.5" rx="6"/>
    <text x="1836.6" y="306.6" font-size="12.5">Early sampling overstates clearance</text>
  </g>
  <g class="node d2 b0" data-depth="2">
    <rect class="box" x="1532.4" y="324.1" width="212.9" height="45.3" rx="6"/>
    <text x="1542.4" y="342.6" font-size="13.0">Lipid-soluble redistribution</text>
    <text x="1542.4" y="359.8" font-size="13.0">prolongs sedation</text>
  </g>
  <path class="link b0" data-depth="3" stroke-width="1.3" d="M1786.6,399.5 C1806.6,399.5 1806.6,399.5 1826.6,399.5"/>
  <g class="node d2 b0" data-depth="2">
    <rect class="box" x="1532.4" y="376.8" width="254.3" height="45.3" rx="6"/>
    <text x="1542.4" y="395.3" font-size="13.0">Half-life rises as clearance falls</text>
    <text x="1542.4" y="412.5" font-size="13.0">or volume rises</text>
  </g>
  <g class="node d3 b0" data-depth="3">
    <rect class="box" x="1826.6" y="377.5" width="232.0" height="44.0" rx="6"/>
    <text x="1836.6" y="395.5" font-size="12.5">Critical illness changes both at</text>
    <text x="1836.6" y="412.0" font-size="12.5">once</text>
  </g>
  <path class="link b1" data-depth="2" stroke-width="1.8" d="M1449.9,690.1 C1491.1,690.1 1491.1,452.1 1532.4,452.1"/>
  <path class="link b1" data-depth="2" stroke-width="1.8" d="M1449.9,690.1 C1491.1,690.1 1491.1,505.4 1532.4,505.4"/>
  <path class="link b1" data-depth="2" stroke-width="1.8" d="M1449.9,690.1 C1491.1,690.1 1491.1,558.1 1532.4,558.1"/>
  <path class="link b1" data-depth="2" stroke-width="1.8" d="M1449.9,690.1 C1491.1,690.1 1491.1,610.8 1532.4,610.8"/>
  <path class="link b1" data-depth="2" stroke-width="1.8" d="M1449.9,690.1 C1491.1,690.1 1491.1,664.1 1532.4,664.1"/>
  <path class="link b1" data-depth="2" stroke-width="1.8" d="M1449.9,690.1 C1491.1,690.1 1491.1,717.4 1532.4,717.4"/>
  <path class="link b1" data-depth="2" stroke-width="1.8" d="M1449.9,690.1 C1491.1,690.1 1491.1,770.7 1532.4,770.7"/>
  <path class="link b1" data-depth="2" stroke-width="1.8" d="M1449.9,690.1 C1491.1,690.1 1491.1,823.4 1532.4,823.4"/>
  <path class="link b1" data-depth="2" stroke-width="1.8" d="M1449.9,690.1 C1491.1,690.1 1491.1,875.4 1532.4,875.4"/>
  <path class="link b1" data-depth="2" stroke-width="1.8" d="M1449.9,690.1 C1491.1,690.1 1491.1,928.0 1532.4,928.0"/>
  <g class="node d1 b1" data-depth="1">
    <rect class="box" x="1217.9" y="665.4" width="232.1" height="49.3" rx="9"/>
    <text x="1227.9" y="685.4" font-size="14.5">Capacity, extraction, and</text>
    <text x="1227.9" y="704.6" font-size="14.5">organ disease</text>
  </g>
  <g class="node d2 b1" data-depth="2">
    <rect class="box" x="1532.4" y="429.5" width="254.3" height="45.3" rx="6"/>
    <text x="1542.4" y="448.0" font-size="13.0">High extraction: clearance follows</text>
    <text x="1542.4" y="465.1" font-size="13.0">liver blood flow</text>
  </g>
  <g class="node d2 b1" data-depth="2">
    <rect class="box" x="1532.4" y="482.8" width="233.6" height="45.3" rx="6"/>
    <text x="1542.4" y="501.3" font-size="13.0">Low extraction: enzyme activity</text>
    <text x="1542.4" y="518.4" font-size="13.0">and unbound fraction</text>
  </g>
  <path class="link b1" data-depth="3" stroke-width="1.3" d="M1752.2,558.1 C1789.4,558.1 1789.4,558.1 1826.6,558.1"/>
  <g class="node d2 b1" data-depth="2">
    <rect class="box" x="1532.4" y="535.4" width="219.8" height="45.3" rx="6"/>
    <text x="1542.4" y="553.9" font-size="13.0">Liver disease does not reduce</text>
    <text x="1542.4" y="571.1" font-size="13.0">pathways uniformly</text>
  </g>
  <g class="node d3 b1" data-depth="3">
    <rect class="box" x="1826.6" y="536.1" width="232.0" height="44.0" rx="6"/>
    <text x="1836.6" y="554.1" font-size="12.5">Liver tests do not quantify drug</text>
    <text x="1836.6" y="570.6" font-size="12.5">clearance</text>
  </g>
  <g class="node d2 b1" data-depth="2">
    <rect class="box" x="1532.4" y="588.1" width="185.4" height="45.3" rx="6"/>
    <text x="1542.4" y="606.6" font-size="13.0">Active secretion removes</text>
    <text x="1542.4" y="623.8" font-size="13.0">protein-bound drug</text>
  </g>
  <g class="node d2 b1" data-depth="2">
    <rect class="box" x="1532.4" y="641.4" width="219.8" height="45.3" rx="6"/>
    <text x="1542.4" y="659.9" font-size="13.0">Competing drugs inhibit renal</text>
    <text x="1542.4" y="677.1" font-size="13.0">transporters</text>
  </g>
  <g class="node d2 b1" data-depth="2">
    <rect class="box" x="1532.4" y="694.7" width="254.3" height="45.3" rx="6"/>
    <text x="1542.4" y="713.2" font-size="13.0">Urine pH alters weak acid and base</text>
    <text x="1542.4" y="730.4" font-size="13.0">reabsorption</text>
  </g>
  <g class="node d2 b1" data-depth="2">
    <rect class="box" x="1532.4" y="748.1" width="233.6" height="45.3" rx="6"/>
    <text x="1542.4" y="766.6" font-size="13.0">Creatinine estimate lags behind</text>
    <text x="1542.4" y="783.7" font-size="13.0">changing filtration</text>
  </g>
  <path class="link b1" data-depth="3" stroke-width="1.3" d="M1786.6,823.4 C1806.6,823.4 1806.6,823.4 1826.6,823.4"/>
  <g class="node d2 b1" data-depth="2">
    <rect class="box" x="1532.4" y="800.7" width="254.3" height="45.3" rx="6"/>
    <text x="1542.4" y="819.2" font-size="13.0">Replacement therapy removes small,</text>
    <text x="1542.4" y="836.4" font-size="13.0">unbound, low-volume drugs</text>
  </g>
  <g class="node d3 b1" data-depth="3">
    <rect class="box" x="1826.6" y="801.4" width="232.0" height="44.0" rx="6"/>
    <text x="1836.6" y="819.4" font-size="12.5">Levels help only with meaningful</text>
    <text x="1836.6" y="835.9" font-size="12.5">assay and timing</text>
  </g>
  <path class="link b1" data-depth="3" stroke-width="1.3" d="M1745.3,875.4 C1785.9,875.4 1785.9,875.4 1826.6,875.4"/>
  <g class="node d2 b1" data-depth="2">
    <rect class="box" x="1532.4" y="852.7" width="212.9" height="45.3" rx="6"/>
    <text x="1542.4" y="871.2" font-size="13.0">Saturable metabolism creates</text>
    <text x="1542.4" y="888.4" font-size="13.0">non-linearity</text>
  </g>
  <g class="node d3 b1" data-depth="3">
    <rect class="box" x="1826.6" y="853.4" width="238.6" height="44.0" rx="6"/>
    <text x="1836.6" y="871.4" font-size="12.5">Near saturation, small dose rise,</text>
    <text x="1836.6" y="887.9" font-size="12.5">large level rise</text>
  </g>
  <g class="node d2 b1" data-depth="2">
    <rect class="box" x="1532.4" y="905.4" width="185.4" height="45.3" rx="6"/>
    <text x="1542.4" y="923.9" font-size="13.0">Autoinduction and active</text>
    <text x="1542.4" y="941.0" font-size="13.0">metabolites add delay</text>
  </g>
  <path class="link b2" data-depth="2" stroke-width="1.8" d="M1492.4,1125.4 C1512.4,1125.4 1512.4,981.4 1532.4,981.4"/>
  <path class="link b2" data-depth="2" stroke-width="1.8" d="M1492.4,1125.4 C1512.4,1125.4 1512.4,1060.0 1532.4,1060.0"/>
  <path class="link b2" data-depth="2" stroke-width="1.8" d="M1492.4,1125.4 C1512.4,1125.4 1512.4,1138.0 1532.4,1138.0"/>
  <path class="link b2" data-depth="2" stroke-width="1.8" d="M1492.4,1125.4 C1512.4,1125.4 1512.4,1190.7 1532.4,1190.7"/>
  <path class="link b2" data-depth="2" stroke-width="1.8" d="M1492.4,1125.4 C1512.4,1125.4 1512.4,1269.3 1532.4,1269.3"/>
  <g class="node d1 b2" data-depth="1">
    <rect class="box" x="1217.9" y="1100.7" width="274.5" height="49.3" rx="9"/>
    <text x="1227.9" y="1120.7" font-size="14.5">Free concentration and binding</text>
    <text x="1227.9" y="1139.9" font-size="14.5">shifts</text>
  </g>
  <g class="node d2 b2" data-depth="2">
    <rect class="box" x="1532.4" y="958.7" width="226.7" height="45.3" rx="6"/>
    <text x="1542.4" y="977.2" font-size="13.0">Total level includes bound and</text>
    <text x="1542.4" y="994.4" font-size="13.0">unbound drug</text>
  </g>
  <path class="link b2" data-depth="3" stroke-width="1.3" d="M1759.1,1060.0 C1792.8,1060.0 1792.8,1034.0 1826.6,1034.0"/>
  <path class="link b2" data-depth="3" stroke-width="1.3" d="M1759.1,1060.0 C1792.8,1060.0 1792.8,1086.0 1826.6,1086.0"/>
  <g class="node d2 b2" data-depth="2">
    <rect class="box" x="1532.4" y="1037.4" width="226.7" height="45.3" rx="6"/>
    <text x="1542.4" y="1055.9" font-size="13.0">Low albumin raises the unbound</text>
    <text x="1542.4" y="1073.0" font-size="13.0">fraction</text>
  </g>
  <g class="node d3 b2" data-depth="3">
    <rect class="box" x="1826.6" y="1012.0" width="258.5" height="44.0" rx="6"/>
    <text x="1836.6" y="1030.0" font-size="12.5">Total falls while active exposure is</text>
    <text x="1836.6" y="1046.5" font-size="12.5">adequate</text>
  </g>
  <g class="node d3 b2" data-depth="3">
    <rect class="box" x="1826.6" y="1064.0" width="258.5" height="44.0" rx="6"/>
    <text x="1836.6" y="1082.0" font-size="12.5">Total-only reading can prompt unsafe</text>
    <text x="1836.6" y="1098.5" font-size="12.5">increase</text>
  </g>
  <path class="link b2" data-depth="3" stroke-width="1.3" d="M1779.7,1138.0 C1803.2,1138.0 1803.2,1138.0 1826.6,1138.0"/>
  <g class="node d2 b2" data-depth="2">
    <rect class="box" x="1532.4" y="1123.9" width="247.4" height="28.2" rx="6"/>
    <text x="1542.4" y="1142.4" font-size="13.0">Displacement is usually transient</text>
  </g>
  <g class="node d3 b2" data-depth="3">
    <rect class="box" x="1826.6" y="1116.0" width="225.4" height="44.0" rx="6"/>
    <text x="1836.6" y="1134.0" font-size="12.5">Matters with limited clearance,</text>
    <text x="1836.6" y="1150.5" font-size="12.5">narrow margin</text>
  </g>
  <g class="node d2 b2" data-depth="2">
    <rect class="box" x="1532.4" y="1168.0" width="254.3" height="45.3" rx="6"/>
    <text x="1542.4" y="1186.5" font-size="13.0">Bilirubin and uraemic toxins alter</text>
    <text x="1542.4" y="1203.7" font-size="13.0">binding</text>
  </g>
  <path class="link b2" data-depth="3" stroke-width="1.3" d="M1759.1,1269.3 C1792.8,1269.3 1792.8,1243.3 1826.6,1243.3"/>
  <path class="link b2" data-depth="3" stroke-width="1.3" d="M1759.1,1269.3 C1792.8,1269.3 1792.8,1295.3 1826.6,1295.3"/>
  <g class="node d2 b2" data-depth="2">
    <rect class="box" x="1532.4" y="1255.3" width="226.7" height="28.2" rx="6"/>
    <text x="1542.4" y="1273.8" font-size="13.0">Tissue binding prolongs action</text>
  </g>
  <g class="node d3 b2" data-depth="3">
    <rect class="box" x="1826.6" y="1221.3" width="185.6" height="44.0" rx="6"/>
    <text x="1836.6" y="1239.3" font-size="12.5">Lysosomes, bone, melanin,</text>
    <text x="1836.6" y="1255.8" font-size="12.5">intracellular targets</text>
  </g>
  <g class="node d3 b2" data-depth="3">
    <rect class="box" x="1826.6" y="1273.3" width="245.2" height="44.0" rx="6"/>
    <text x="1836.6" y="1291.3" font-size="12.5">Normal level does not exclude drug</text>
    <text x="1836.6" y="1307.8" font-size="12.5">toxicity</text>
  </g>
  <path class="link b3" data-depth="2" stroke-width="1.8" d="M618.8,259.0 C598.8,259.0 598.8,48.7 578.8,48.7"/>
  <path class="link b3" data-depth="2" stroke-width="1.8" d="M618.8,259.0 C598.8,259.0 598.8,127.3 578.8,127.3"/>
  <path class="link b3" data-depth="2" stroke-width="1.8" d="M618.8,259.0 C598.8,259.0 598.8,206.0 578.8,206.0"/>
  <path class="link b3" data-depth="2" stroke-width="1.8" d="M618.8,259.0 C598.8,259.0 598.8,259.3 578.8,259.3"/>
  <path class="link b3" data-depth="2" stroke-width="1.8" d="M618.8,259.0 C598.8,259.0 598.8,312.6 578.8,312.6"/>
  <path class="link b3" data-depth="2" stroke-width="1.8" d="M618.8,259.0 C598.8,259.0 598.8,391.3 578.8,391.3"/>
  <path class="link b3" data-depth="2" stroke-width="1.8" d="M618.8,259.0 C598.8,259.0 598.8,469.3 578.8,469.3"/>
  <g class="node d1 b3" data-depth="1">
    <rect class="box" x="618.8" y="234.3" width="240.5" height="49.3" rx="9"/>
    <text x="628.8" y="254.3" font-size="14.5">Receptor pharmacology into</text>
    <text x="628.8" y="273.5" font-size="14.5">dose choice</text>
  </g>
  <g class="node d2 b3" data-depth="2">
    <rect class="box" x="352.1" y="26.0" width="226.7" height="45.3" rx="6"/>
    <text x="362.1" y="44.5" font-size="13.0">Individual dose-response curve</text>
    <text x="362.1" y="61.7" font-size="13.0">rarely known</text>
  </g>
  <path class="link b3" data-depth="3" stroke-width="1.3" d="M352.1,127.3 C318.3,127.3 318.3,101.3 284.5,101.3"/>
  <path class="link b3" data-depth="3" stroke-width="1.3" d="M352.1,127.3 C318.3,127.3 318.3,153.3 284.5,153.3"/>
  <g class="node d2 b3" data-depth="2">
    <rect class="box" x="352.1" y="104.7" width="226.7" height="45.3" rx="6"/>
    <text x="362.1" y="123.2" font-size="13.0">Therapeutic and adverse curves</text>
    <text x="362.1" y="140.3" font-size="13.0">differ</text>
  </g>
  <g class="node d3 b3" data-depth="3">
    <rect class="box" x="45.9" y="79.3" width="238.6" height="44.0" rx="6"/>
    <text x="55.9" y="97.3" font-size="12.5">Benefit plateaus while harm keeps</text>
    <text x="55.9" y="113.8" font-size="12.5">rising</text>
  </g>
  <g class="node d3 b3" data-depth="3">
    <rect class="box" x="65.8" y="131.3" width="218.7" height="44.0" rx="6"/>
    <text x="75.8" y="149.3" font-size="12.5">Useful dose is not the maximum</text>
    <text x="75.8" y="165.8" font-size="12.5">tolerated</text>
  </g>
  <g class="node d2 b3" data-depth="2">
    <rect class="box" x="345.2" y="183.3" width="233.6" height="45.3" rx="6"/>
    <text x="355.2" y="201.8" font-size="13.0">Competitive blockade fails when</text>
    <text x="355.2" y="219.0" font-size="13.0">agonist is limited</text>
  </g>
  <g class="node d2 b3" data-depth="2">
    <rect class="box" x="331.4" y="236.6" width="247.4" height="45.3" rx="6"/>
    <text x="341.4" y="255.1" font-size="13.0">Irreversible antagonist: wait for</text>
    <text x="341.4" y="272.3" font-size="13.0">new receptors</text>
  </g>
  <g class="node d2 b3" data-depth="2">
    <rect class="box" x="338.3" y="290.0" width="240.5" height="45.3" rx="6"/>
    <text x="348.3" y="308.5" font-size="13.0">Physiological antagonist opposes</text>
    <text x="348.3" y="325.6" font-size="13.0">via another process</text>
  </g>
  <path class="link b3" data-depth="3" stroke-width="1.3" d="M393.4,391.3 C339.0,391.3 339.0,365.3 284.5,365.3"/>
  <path class="link b3" data-depth="3" stroke-width="1.3" d="M393.4,391.3 C339.0,391.3 339.0,417.3 284.5,417.3"/>
  <g class="node d2 b3" data-depth="2">
    <rect class="box" x="393.4" y="368.6" width="185.4" height="45.3" rx="6"/>
    <text x="403.4" y="387.1" font-size="13.0">Tolerance should trigger</text>
    <text x="403.4" y="404.3" font-size="13.0">mechanistic review</text>
  </g>
  <g class="node d3 b3" data-depth="3">
    <rect class="box" x="32.6" y="343.3" width="251.9" height="44.0" rx="6"/>
    <text x="42.6" y="361.3" font-size="12.5">Faster metabolism, desensitisation,</text>
    <text x="42.6" y="377.8" font-size="12.5">progression</text>
  </g>
  <g class="node d3 b3" data-depth="3">
    <rect class="box" x="26.0" y="395.3" width="258.5" height="44.0" rx="6"/>
    <text x="36.0" y="413.3" font-size="12.5">Poor adherence or interaction mimics</text>
    <text x="36.0" y="429.8" font-size="12.5">tolerance</text>
  </g>
  <path class="link b3" data-depth="3" stroke-width="1.3" d="M352.1,469.3 C318.3,469.3 318.3,469.3 284.5,469.3"/>
  <g class="node d2 b3" data-depth="2">
    <rect class="box" x="352.1" y="446.6" width="226.7" height="45.3" rx="6"/>
    <text x="362.1" y="465.1" font-size="13.0">Placebo and nocebo are genuine</text>
    <text x="362.1" y="482.3" font-size="13.0">effects</text>
  </g>
  <g class="node d3 b3" data-depth="3">
    <rect class="box" x="32.6" y="447.3" width="251.9" height="44.0" rx="6"/>
    <text x="42.6" y="465.3" font-size="12.5">Balanced explanation reduces nocebo</text>
    <text x="42.6" y="481.8" font-size="12.5">burden</text>
  </g>
  <path class="link b4" data-depth="2" stroke-width="1.8" d="M618.8,720.4 C598.8,720.4 598.8,513.4 578.8,513.4"/>
  <path class="link b4" data-depth="2" stroke-width="1.8" d="M618.8,720.4 C598.8,720.4 598.8,558.1 578.8,558.1"/>
  <path class="link b4" data-depth="2" stroke-width="1.8" d="M618.8,720.4 C598.8,720.4 598.8,611.4 578.8,611.4"/>
  <path class="link b4" data-depth="2" stroke-width="1.8" d="M618.8,720.4 C598.8,720.4 598.8,664.7 578.8,664.7"/>
  <path class="link b4" data-depth="2" stroke-width="1.8" d="M618.8,720.4 C598.8,720.4 598.8,718.1 578.8,718.1"/>
  <path class="link b4" data-depth="2" stroke-width="1.8" d="M618.8,720.4 C598.8,720.4 598.8,796.7 578.8,796.7"/>
  <path class="link b4" data-depth="2" stroke-width="1.8" d="M618.8,720.4 C598.8,720.4 598.8,874.7 578.8,874.7"/>
  <path class="link b4" data-depth="2" stroke-width="1.8" d="M618.8,720.4 C598.8,720.4 598.8,927.4 578.8,927.4"/>
  <g class="node d1 b4" data-depth="1">
    <rect class="box" x="618.8" y="705.3" width="240.5" height="30.1" rx="9"/>
    <text x="628.8" y="725.3" font-size="14.5">Interactions as mechanisms</text>
  </g>
  <g class="node d2 b4" data-depth="2">
    <rect class="box" x="372.7" y="499.3" width="206.0" height="28.2" rx="6"/>
    <text x="382.7" y="517.8" font-size="13.0">Move beyond counting alerts</text>
  </g>
  <g class="node d2 b4" data-depth="2">
    <rect class="box" x="345.2" y="535.4" width="233.6" height="45.3" rx="6"/>
    <text x="355.2" y="553.9" font-size="13.0">Absorption: chelation, acidity,</text>
    <text x="355.2" y="571.1" font-size="13.0">gut binding, motility</text>
  </g>
  <g class="node d2 b4" data-depth="2">
    <rect class="box" x="372.7" y="588.8" width="206.0" height="45.3" rx="6"/>
    <text x="382.7" y="607.3" font-size="13.0">Metabolism: specific enzyme</text>
    <text x="382.7" y="624.4" font-size="13.0">inhibition or induction</text>
  </g>
  <g class="node d2 b4" data-depth="2">
    <rect class="box" x="359.0" y="642.1" width="219.8" height="45.3" rx="6"/>
    <text x="369.0" y="660.6" font-size="13.0">Transporters: uptake, hepatic</text>
    <text x="369.0" y="677.7" font-size="13.0">entry, biliary, renal</text>
  </g>
  <g class="node d2 b4" data-depth="2">
    <rect class="box" x="393.4" y="695.4" width="185.4" height="45.3" rx="6"/>
    <text x="403.4" y="713.9" font-size="13.0">Perpetrator affects only</text>
    <text x="403.4" y="731.1" font-size="13.0">pathway-dependent drugs</text>
  </g>
  <path class="link b4" data-depth="3" stroke-width="1.3" d="M379.6,796.7 C332.1,796.7 332.1,770.7 284.5,770.7"/>
  <path class="link b4" data-depth="3" stroke-width="1.3" d="M379.6,796.7 C332.1,796.7 332.1,822.7 284.5,822.7"/>
  <g class="node d2 b4" data-depth="2">
    <rect class="box" x="379.6" y="774.1" width="199.1" height="45.3" rx="6"/>
    <text x="389.6" y="792.6" font-size="13.0">Pharmacodynamic: additive,</text>
    <text x="389.6" y="809.7" font-size="13.0">synergistic, antagonistic</text>
  </g>
  <g class="node d3 b4" data-depth="3">
    <rect class="box" x="45.9" y="748.7" width="238.6" height="44.0" rx="6"/>
    <text x="55.9" y="766.7" font-size="12.5">Sedatives converge on ventilation</text>
    <text x="55.9" y="783.2" font-size="12.5">and airway</text>
  </g>
  <g class="node d3 b4" data-depth="3">
    <rect class="box" x="105.5" y="800.7" width="179.0" height="44.0" rx="6"/>
    <text x="115.5" y="818.7" font-size="12.5">Small effects sum beyond</text>
    <text x="115.5" y="835.2" font-size="12.5">physiological reserve</text>
  </g>
  <path class="link b4" data-depth="3" stroke-width="1.3" d="M331.4,874.7 C307.9,874.7 307.9,874.7 284.5,874.7"/>
  <g class="node d2 b4" data-depth="2">
    <rect class="box" x="331.4" y="852.1" width="247.4" height="45.3" rx="6"/>
    <text x="341.4" y="870.6" font-size="13.0">Inhibition starts fast, induction</text>
    <text x="341.4" y="887.7" font-size="13.0">builds and fades</text>
  </g>
  <g class="node d3 b4" data-depth="3">
    <rect class="box" x="52.5" y="852.7" width="232.0" height="44.0" rx="6"/>
    <text x="62.5" y="870.7" font-size="12.5">Effect persists beyond the final</text>
    <text x="62.5" y="887.2" font-size="12.5">dose</text>
  </g>
  <g class="node d2 b4" data-depth="2">
    <rect class="box" x="331.4" y="904.7" width="247.4" height="45.3" rx="6"/>
    <text x="341.4" y="923.2" font-size="13.0">Avoid, adjust, monitor levels, or</text>
    <text x="341.4" y="940.4" font-size="13.0">substitute</text>
  </g>
  <path class="link b5" data-depth="2" stroke-width="1.8" d="M644.2,1082.5 C611.5,1082.5 611.5,980.7 578.8,980.7"/>
  <path class="link b5" data-depth="2" stroke-width="1.8" d="M644.2,1082.5 C611.5,1082.5 611.5,1025.1 578.8,1025.1"/>
  <path class="link b5" data-depth="2" stroke-width="1.8" d="M644.2,1082.5 C611.5,1082.5 611.5,1069.5 578.8,1069.5"/>
  <path class="link b5" data-depth="2" stroke-width="1.8" d="M644.2,1082.5 C611.5,1082.5 611.5,1114.3 578.8,1114.3"/>
  <path class="link b5" data-depth="2" stroke-width="1.8" d="M644.2,1082.5 C611.5,1082.5 611.5,1184.3 578.8,1184.3"/>
  <g class="node d1 b5" data-depth="1">
    <rect class="box" x="644.2" y="1057.9" width="215.1" height="49.3" rx="9"/>
    <text x="654.2" y="1077.9" font-size="14.5">Prescribing as feedback</text>
    <text x="654.2" y="1097.0" font-size="14.5">control</text>
  </g>
  <g class="node d2 b5" data-depth="2">
    <rect class="box" x="324.5" y="958.0" width="254.3" height="45.3" rx="6"/>
    <text x="334.5" y="976.5" font-size="13.0">Target, intervene, measure, adjust</text>
    <text x="334.5" y="993.7" font-size="13.0">or stop</text>
  </g>
  <path class="link b5" data-depth="3" stroke-width="1.3" d="M386.5,1025.1 C335.5,1025.1 335.5,1025.1 284.5,1025.1"/>
  <g class="node d2 b5" data-depth="2">
    <rect class="box" x="386.5" y="1002.5" width="192.2" height="45.3" rx="6"/>
    <text x="396.5" y="1021.0" font-size="13.0">No review time or success</text>
    <text x="396.5" y="1038.1" font-size="13.0">criterion is open loop</text>
  </g>
  <g class="node d3 b5" data-depth="3">
    <rect class="box" x="39.3" y="1011.4" width="245.2" height="27.5" rx="6"/>
    <text x="49.3" y="1029.4" font-size="12.5">Unsafe when physiology is changing</text>
  </g>
  <g class="node d2 b5" data-depth="2">
    <rect class="box" x="345.2" y="1046.9" width="233.6" height="45.3" rx="6"/>
    <text x="355.2" y="1065.4" font-size="13.0">Keep the indication attached to</text>
    <text x="355.2" y="1082.5" font-size="13.0">each medicine</text>
  </g>
  <g class="node d2 b5" data-depth="2">
    <rect class="box" x="407.2" y="1100.2" width="171.6" height="28.2" rx="6"/>
    <text x="417.2" y="1118.7" font-size="13.0">Make duration explicit</text>
  </g>
  <path class="link b5" data-depth="3" stroke-width="1.3" d="M372.7,1184.3 C328.6,1184.3 328.6,1158.3 284.5,1158.3"/>
  <path class="link b5" data-depth="3" stroke-width="1.3" d="M372.7,1184.3 C328.6,1184.3 328.6,1210.3 284.5,1210.3"/>
  <g class="node d2 b5" data-depth="2">
    <rect class="box" x="372.7" y="1161.7" width="206.0" height="45.3" rx="6"/>
    <text x="382.7" y="1180.2" font-size="13.0">Deprescribing is not simply</text>
    <text x="382.7" y="1197.3" font-size="13.0">deleting</text>
  </g>
  <g class="node d3 b5" data-depth="3">
    <rect class="box" x="45.9" y="1136.3" width="238.6" height="44.0" rx="6"/>
    <text x="55.9" y="1154.3" font-size="12.5">Anticipate withdrawal, change one</text>
    <text x="55.9" y="1170.8" font-size="12.5">variable</text>
  </g>
  <g class="node d3 b5" data-depth="3">
    <rect class="box" x="79.0" y="1188.3" width="205.5" height="44.0" rx="6"/>
    <text x="89.0" y="1206.3" font-size="12.5">Taper when cessation exposes</text>
    <text x="89.0" y="1222.8" font-size="12.5">adaptation</text>
  </g>
  <path class="link b6" data-depth="2" stroke-width="1.8" d="M618.8,1394.7 C598.8,1394.7 598.8,1262.3 578.8,1262.3"/>
  <path class="link b6" data-depth="2" stroke-width="1.8" d="M618.8,1394.7 C598.8,1394.7 598.8,1315.0 578.8,1315.0"/>
  <path class="link b6" data-depth="2" stroke-width="1.8" d="M618.8,1394.7 C598.8,1394.7 598.8,1367.7 578.8,1367.7"/>
  <path class="link b6" data-depth="2" stroke-width="1.8" d="M618.8,1394.7 C598.8,1394.7 598.8,1420.3 578.8,1420.3"/>
  <path class="link b6" data-depth="2" stroke-width="1.8" d="M618.8,1394.7 C598.8,1394.7 598.8,1473.6 578.8,1473.6"/>
  <path class="link b6" data-depth="2" stroke-width="1.8" d="M618.8,1394.7 C598.8,1394.7 598.8,1527.0 578.8,1527.0"/>
  <g class="node d1 b6" data-depth="1">
    <rect class="box" x="618.8" y="1379.6" width="240.5" height="30.1" rx="9"/>
    <text x="628.8" y="1399.6" font-size="14.5">Execution and reassessment</text>
  </g>
  <path class="link b6" data-depth="3" stroke-width="1.3" d="M372.7,1262.3 C328.6,1262.3 328.6,1262.3 284.5,1262.3"/>
  <g class="node d2 b6" data-depth="2">
    <rect class="box" x="372.7" y="1239.7" width="206.0" height="45.3" rx="6"/>
    <text x="382.7" y="1258.2" font-size="13.0">Patient ability shapes real</text>
    <text x="382.7" y="1275.3" font-size="13.0">exposure</text>
  </g>
  <g class="node d3 b6" data-depth="3">
    <rect class="box" x="32.6" y="1240.3" width="251.9" height="44.0" rx="6"/>
    <text x="42.6" y="1258.3" font-size="12.5">Vision, dexterity, cognition, cost,</text>
    <text x="42.6" y="1274.8" font-size="12.5">support</text>
  </g>
  <g class="node d2 b6" data-depth="2">
    <rect class="box" x="331.4" y="1292.3" width="247.4" height="45.3" rx="6"/>
    <text x="341.4" y="1310.8" font-size="13.0">Simplify, demonstrate, pharmacist</text>
    <text x="341.4" y="1328.0" font-size="13.0">review</text>
  </g>
  <path class="link b6" data-depth="3" stroke-width="1.3" d="M331.4,1367.7 C307.9,1367.7 307.9,1367.7 284.5,1367.7"/>
  <g class="node d2 b6" data-depth="2">
    <rect class="box" x="331.4" y="1345.0" width="247.4" height="45.3" rx="6"/>
    <text x="341.4" y="1363.5" font-size="13.0">Deterioration: build a medication</text>
    <text x="341.4" y="1380.7" font-size="13.0">timeline</text>
  </g>
  <g class="node d3 b6" data-depth="3">
    <rect class="box" x="79.0" y="1345.7" width="205.5" height="44.0" rx="6"/>
    <text x="89.0" y="1363.7" font-size="12.5">Caused, unmasked, failed, or</text>
    <text x="89.0" y="1380.2" font-size="12.5">obscured</text>
  </g>
  <g class="node d2 b6" data-depth="2">
    <rect class="box" x="345.2" y="1397.7" width="233.6" height="45.3" rx="6"/>
    <text x="355.2" y="1416.2" font-size="13.0">Confirm what was actually taken</text>
    <text x="355.2" y="1433.3" font-size="13.0">and when</text>
  </g>
  <g class="node d2 b6" data-depth="2">
    <rect class="box" x="331.4" y="1451.0" width="247.4" height="45.3" rx="6"/>
    <text x="341.4" y="1469.5" font-size="13.0">Match levels to sampling and last</text>
    <text x="341.4" y="1486.6" font-size="13.0">dose times</text>
  </g>
  <g class="node d2 b6" data-depth="2">
    <rect class="box" x="365.8" y="1504.3" width="212.9" height="45.3" rx="6"/>
    <text x="375.8" y="1522.8" font-size="13.0">Loop closes when patient and</text>
    <text x="375.8" y="1540.0" font-size="13.0">clinician share goal</text>
  </g>
</svg>
