<svg xmlns="http://www.w3.org/2000/svg" class="mm" viewBox="0 0 2071 1511" width="2071" height="1511" role="img" aria-label="Abdominal wall, peritoneum, and spaces">
<style>
  .mm-bg { fill: #faf8f4; }
  .mm text { font-family: Inter, ui-sans-serif, -apple-system, BlinkMacSystemFont, 'Segoe UI', sans-serif; fill: #1b1917; }
  .mm .link { fill: none; stroke: #c9c1b4; }
  .mm .box { fill: none; stroke: none; }
  .mm .d0 .box { fill: #1b1917; stroke: #1b1917; }
  .mm .d0 text { fill: #faf8f4; font-weight: 650; }
  .mm .d1 text { font-weight: 600; }

  .mm .link.b0 { stroke: #4b9ac6; }
  .mm .b0.d1 .box { fill: #d7e5eb; stroke: #0072B2; stroke-width: 1.5; }
  .mm .b0.d1 text { fill: #075c8b; }
  .mm .b0.d2 .box { fill: #e8efef; stroke: #70aed0; }
  .mm .b0.d3 text, .mm .b0.d4 text { fill: #075c8b; }

  .mm .link.b1 { stroke: #e08c49; }
  .mm .b1.d1 .box { fill: #f5e2d2; stroke: #D55E00; stroke-width: 1.5; }
  .mm .b1.d1 text { fill: #a64d06; }
  .mm .b1.d2 .box { fill: #f7ede3; stroke: #e6a36e; }
  .mm .b1.d3 text, .mm .b1.d4 text { fill: #a64d06; }

  .mm .link.b2 { stroke: #4bb99a; }
  .mm .b2.d1 .box { fill: #d7ebe2; stroke: #009E73; stroke-width: 1.5; }
  .mm .b2.d1 text { fill: #077d5c; }
  .mm .b2.d2 .box { fill: #e8f2eb; stroke: #70c6ad; }
  .mm .b2.d3 text, .mm .b2.d4 text { fill: #077d5c; }

  .mm .link.b3 { stroke: #da9fbe; }
  .mm .b3.d1 .box { fill: #f4e6e9; stroke: #CC79A7; stroke-width: 1.5; }
  .mm .b3.d1 text { fill: #985c7c; }
  .mm .b3.d2 .box { fill: #f7efef; stroke: #e1b2ca; }
  .mm .b3.d3 text, .mm .b3.d4 text { fill: #985c7c; }

  .mm .link.b4 { stroke: #bba149; }
  .mm .b4.d1 .box { fill: #ede7d2; stroke: #A07C00; stroke-width: 1.5; }
  .mm .b4.d1 text { fill: #7f6306; }
  .mm .b4.d2 .box { fill: #f4efe3; stroke: #c8b46e; }
  .mm .b4.d3 text, .mm .b4.d4 text { fill: #7f6306; }

  .mm .link.b5 { stroke: #84c1e2; }
  .mm .b5.d1 .box { fill: #e3eef2; stroke: #51a9db; stroke-width: 1.5; }
  .mm .b5.d1 text { fill: #3d7899; }
  .mm .b5.d2 .box { fill: #eff3f3; stroke: #9dcde6; }
  .mm .b5.d3 text, .mm .b5.d4 text { fill: #3d7899; }

  .mm .link.b6 { stroke: #9580b0; }
  .mm .b6.d1 .box { fill: #e6e0e6; stroke: #6A4C93; stroke-width: 1.5; }
  .mm .b6.d1 text { fill: #563f74; }
  .mm .b6.d2 .box { fill: #f0eced; stroke: #ab99bf; }
  .mm .b6.d3 text, .mm .b6.d4 text { fill: #563f74; }

  .mm .link.b7 { stroke: #98ac74; }
  .mm .b7.d1 .box { fill: #e6e9da; stroke: #6E8B3D; stroke-width: 1.5; }
  .mm .b7.d1 text { fill: #596e34; }
  .mm .b7.d2 .box { fill: #f0f0e7; stroke: #adbc8f; }
  .mm .b7.d3 text, .mm .b7.d4 text { fill: #596e34; }

  .mm .link.b8 { stroke: #e2b349; }
  .mm .b8.d1 .box { fill: #f7ecd2; stroke: #d89500; stroke-width: 1.5; }
  .mm .b8.d1 text { fill: #986a05; }
  .mm .b8.d2 .box { fill: #f9f2e3; stroke: #e7c26e; }
  .mm .b8.d3 text, .mm .b8.d4 text { fill: #986a05; }
@media (prefers-color-scheme: dark) {
  .mm-bg { fill: #12100e; }
  .mm text { font-family: Inter, ui-sans-serif, -apple-system, BlinkMacSystemFont, 'Segoe UI', sans-serif; fill: #ece7df; }
  .mm .link { fill: none; stroke: #3d3833; }
  .mm .box { fill: none; stroke: none; }
  .mm .d0 .box { fill: #ece7df; stroke: #ece7df; }
  .mm .d0 text { fill: #12100e; font-weight: 650; }
  .mm .d1 text { font-weight: 600; }

  .mm .link.b0 { stroke: #2d6a8d; }
  .mm .b0.d1 .box { fill: #172227; stroke: #3891c3; stroke-width: 1.5; }
  .mm .b0.d1 text { fill: #65a6ca; }
  .mm .b0.d2 .box { fill: #15191b; stroke: #275772; }
  .mm .b0.d3 text, .mm .b0.d4 text { fill: #65a6ca; }

  .mm .link.b1 { stroke: #a15f2b; }
  .mm .b1.d1 .box { fill: #2f2014; stroke: #de8138; stroke-width: 1.5; }
  .mm .b1.d1 text { fill: #e29a62; }
  .mm .b1.d2 .box { fill: #201811; stroke: #824e25; }
  .mm .b1.d3 text, .mm .b1.d4 text { fill: #e29a62; }

  .mm .link.b2 { stroke: #2d826a; }
  .mm .b2.d1 .box { fill: #172720; stroke: #38b392; stroke-width: 1.5; }
  .mm .b2.d1 text { fill: #65c0a5; }
  .mm .b2.d2 .box { fill: #151b17; stroke: #276a57; }
  .mm .b2.d3 text, .mm .b2.d4 text { fill: #65c0a5; }

  .mm .link.b3 { stroke: #9c6e86; }
  .mm .b3.d1 .box { fill: #2e2326; stroke: #d796ba; stroke-width: 1.5; }
  .mm .b3.d1 text { fill: #dcaac3; }
  .mm .b3.d2 .box { fill: #20191a; stroke: #7e5a6d; }
  .mm .b3.d3 text, .mm .b3.d4 text { fill: #dcaac3; }

  .mm .link.b4 { stroke: #84702b; }
  .mm .b4.d1 .box { fill: #292314; stroke: #b59938; stroke-width: 1.5; }
  .mm .b4.d1 text { fill: #c3ac62; }
  .mm .b4.d2 .box { fill: #1d1a11; stroke: #6c5b25; }
  .mm .b4.d3 text, .mm .b4.d4 text { fill: #c3ac62; }

  .mm .link.b5 { stroke: #5c8eab; }
  .mm .b5.d1 .box { fill: #21292d; stroke: #7bc4ee; stroke-width: 1.5; }
  .mm .b5.d1 text { fill: #97cdea; }
  .mm .b5.d2 .box { fill: #191d1e; stroke: #4c7389; }
  .mm .b5.d3 text, .mm .b5.d4 text { fill: #97cdea; }

  .mm .link.b6 { stroke: #67557c; }
  .mm .b6.d1 .box { fill: #231e24; stroke: #8b73ab; stroke-width: 1.5; }
  .mm .b6.d1 text { fill: #a390b8; }
  .mm .b6.d2 .box { fill: #1a1719; stroke: #554664; }
  .mm .b6.d3 text, .mm .b6.d4 text { fill: #a390b8; }

  .mm .link.b7 { stroke: #69784d; }
  .mm .b7.d1 .box { fill: #23251b; stroke: #8ea568; stroke-width: 1.5; }
  .mm .b7.d1 text { fill: #a6b686; }
  .mm .b7.d2 .box { fill: #1b1a14; stroke: #566240; }
  .mm .b7.d3 text, .mm .b7.d4 text { fill: #a6b686; }

  .mm .link.b8 { stroke: #ab832b; }
  .mm .b8.d1 .box { fill: #312714; stroke: #ecb438; stroke-width: 1.5; }
  .mm .b8.d1 text { fill: #ecc162; }
  .mm .b8.d2 .box { fill: #211b11; stroke: #8a6a25; }
  .mm .b8.d3 text, .mm .b8.d4 text { fill: #ecc162; }
}
</style>
  <rect class="mm-bg" width="2071" height="1511"/>
  <path class="link b0" data-depth="1" stroke-width="2.2" d="M1163.5,755.5 C1183.5,755.5 1183.5,210.4 1203.5,210.4"/>
  <path class="link b1" data-depth="1" stroke-width="2.2" d="M1163.5,755.5 C895.4,755.5 895.4,194.6 627.2,194.6"/>
  <path class="link b2" data-depth="1" stroke-width="2.2" d="M1163.5,755.5 C954.8,755.5 954.8,451.9 746.0,451.9"/>
  <path class="link b3" data-depth="1" stroke-width="2.2" d="M1163.5,755.5 C903.9,755.5 903.9,714.0 644.2,714.0"/>
  <path class="link b4" data-depth="1" stroke-width="2.2" d="M1163.5,755.5 C1183.5,755.5 1183.5,608.5 1203.5,608.5"/>
  <path class="link b5" data-depth="1" stroke-width="2.2" d="M1163.5,755.5 C1183.5,755.5 1183.5,938.1 1203.5,938.1"/>
  <path class="link b6" data-depth="1" stroke-width="2.2" d="M1163.5,755.5 C891.2,755.5 891.2,1053.4 618.8,1053.4"/>
  <path class="link b7" data-depth="1" stroke-width="2.2" d="M1163.5,755.5 C1183.5,755.5 1183.5,1236.3 1203.5,1236.3"/>
  <path class="link b8" data-depth="1" stroke-width="2.2" d="M1163.5,755.5 C925.1,755.5 925.1,1356.3 686.6,1356.3"/>
  <g class="node d0 b0" data-depth="0">
    <rect class="box" x="924.8" y="727.5" width="238.8" height="55.9" rx="9"/>
    <text x="934.8" y="750.0" font-size="17.0">Abdominal wall,</text>
    <text x="934.8" y="772.5" font-size="17.0">peritoneum, and spaces</text>
  </g>
  <path class="link b0" data-depth="2" stroke-width="1.8" d="M1452.6,210.4 C1472.6,210.4 1472.6,48.7 1492.6,48.7"/>
  <path class="link b0" data-depth="2" stroke-width="1.8" d="M1452.6,210.4 C1472.6,210.4 1472.6,102.0 1492.6,102.0"/>
  <path class="link b0" data-depth="2" stroke-width="1.8" d="M1452.6,210.4 C1472.6,210.4 1472.6,198.4 1492.6,198.4"/>
  <path class="link b0" data-depth="2" stroke-width="1.8" d="M1452.6,210.4 C1472.6,210.4 1472.6,294.1 1492.6,294.1"/>
  <path class="link b0" data-depth="2" stroke-width="1.8" d="M1452.6,210.4 C1472.6,210.4 1472.6,372.1 1492.6,372.1"/>
  <g class="node d1 b0" data-depth="1">
    <rect class="box" x="1203.5" y="195.3" width="249.0" height="30.1" rx="9"/>
    <text x="1213.5" y="215.3" font-size="14.5">Anterior wall and landmarks</text>
  </g>
  <g class="node d2 b0" data-depth="2">
    <rect class="box" x="1492.6" y="26.0" width="226.7" height="45.3" rx="6"/>
    <text x="1502.6" y="44.5" font-size="13.0">Costal margin to iliac crests,</text>
    <text x="1502.6" y="61.7" font-size="13.0">inguinal ligaments, symphysis</text>
  </g>
  <g class="node d2 b0" data-depth="2">
    <rect class="box" x="1492.6" y="79.3" width="185.4" height="45.3" rx="6"/>
    <text x="1502.6" y="97.8" font-size="13.0">Layers: skin to parietal</text>
    <text x="1502.6" y="115.0" font-size="13.0">peritoneum</text>
  </g>
  <path class="link b0" data-depth="3" stroke-width="1.3" d="M1746.8,198.4 C1766.8,198.4 1766.8,154.6 1786.8,154.6"/>
  <path class="link b0" data-depth="3" stroke-width="1.3" d="M1746.8,198.4 C1766.8,198.4 1766.8,198.4 1786.8,198.4"/>
  <path class="link b0" data-depth="3" stroke-width="1.3" d="M1746.8,198.4 C1766.8,198.4 1766.8,242.1 1786.8,242.1"/>
  <g class="node d2 b0" data-depth="2">
    <rect class="box" x="1492.6" y="175.7" width="254.3" height="45.3" rx="6"/>
    <text x="1502.6" y="194.2" font-size="13.0">Camper fatty and Scarpa membranous</text>
    <text x="1502.6" y="211.4" font-size="13.0">fascia</text>
  </g>
  <g class="node d3 b0" data-depth="3">
    <rect class="box" x="1786.8" y="132.6" width="232.0" height="44.0" rx="6"/>
    <text x="1796.8" y="150.6" font-size="12.5">Membranous fascia continues into</text>
    <text x="1796.8" y="167.1" font-size="12.5">perineum</text>
  </g>
  <g class="node d3 b0" data-depth="3">
    <rect class="box" x="1786.8" y="184.6" width="232.0" height="27.5" rx="6"/>
    <text x="1796.8" y="202.6" font-size="12.5">Directs spread of urine or blood</text>
  </g>
  <g class="node d3 b0" data-depth="3">
    <rect class="box" x="1786.8" y="220.1" width="218.7" height="44.0" rx="6"/>
    <text x="1796.8" y="238.1" font-size="12.5">Thigh fascia attachment limits</text>
    <text x="1796.8" y="254.6" font-size="12.5">descent into limb</text>
  </g>
  <path class="link b0" data-depth="3" stroke-width="1.3" d="M1712.4,294.1 C1749.6,294.1 1749.6,294.1 1786.8,294.1"/>
  <g class="node d2 b0" data-depth="2">
    <rect class="box" x="1492.6" y="271.5" width="219.8" height="45.3" rx="6"/>
    <text x="1502.6" y="290.0" font-size="13.0">Oblique and transverse muscle</text>
    <text x="1502.6" y="307.1" font-size="13.0">fibre directions</text>
  </g>
  <g class="node d3 b0" data-depth="3">
    <rect class="box" x="1786.8" y="272.1" width="245.2" height="44.0" rx="6"/>
    <text x="1796.8" y="290.1" font-size="12.5">Aponeuroses form rectus sheath and</text>
    <text x="1796.8" y="306.6" font-size="12.5">linea alba</text>
  </g>
  <path class="link b0" data-depth="3" stroke-width="1.3" d="M1746.8,372.1 C1766.8,372.1 1766.8,346.1 1786.8,346.1"/>
  <path class="link b0" data-depth="3" stroke-width="1.3" d="M1746.8,372.1 C1766.8,372.1 1766.8,398.1 1786.8,398.1"/>
  <g class="node d2 b0" data-depth="2">
    <rect class="box" x="1492.6" y="358.1" width="254.3" height="28.2" rx="6"/>
    <text x="1502.6" y="376.6" font-size="13.0">Arcuate line changes rectus sheath</text>
  </g>
  <g class="node d3 b0" data-depth="3">
    <rect class="box" x="1786.8" y="324.1" width="212.1" height="44.0" rx="6"/>
    <text x="1796.8" y="342.1" font-size="12.5">Below it all aponeuroses pass</text>
    <text x="1796.8" y="358.6" font-size="12.5">anteriorly</text>
  </g>
  <g class="node d3 b0" data-depth="3">
    <rect class="box" x="1786.8" y="376.1" width="238.6" height="44.0" rx="6"/>
    <text x="1796.8" y="394.1" font-size="12.5">Only transversalis fascia remains</text>
    <text x="1796.8" y="410.6" font-size="12.5">posterior</text>
  </g>
  <path class="link b1" data-depth="2" stroke-width="1.8" d="M627.2,194.6 C603.0,194.6 603.0,39.8 578.8,39.8"/>
  <path class="link b1" data-depth="2" stroke-width="1.8" d="M627.2,194.6 C603.0,194.6 603.0,83.5 578.8,83.5"/>
  <path class="link b1" data-depth="2" stroke-width="1.8" d="M627.2,194.6 C603.0,194.6 603.0,136.2 578.8,136.2"/>
  <path class="link b1" data-depth="2" stroke-width="1.8" d="M627.2,194.6 C603.0,194.6 603.0,189.5 578.8,189.5"/>
  <path class="link b1" data-depth="2" stroke-width="1.8" d="M627.2,194.6 C603.0,194.6 603.0,242.8 578.8,242.8"/>
  <path class="link b1" data-depth="2" stroke-width="1.8" d="M627.2,194.6 C603.0,194.6 603.0,296.1 578.8,296.1"/>
  <path class="link b1" data-depth="2" stroke-width="1.8" d="M627.2,194.6 C603.0,194.6 603.0,349.4 578.8,349.4"/>
  <g class="node d1 b1" data-depth="1">
    <rect class="box" x="627.2" y="170.0" width="257.5" height="49.3" rx="9"/>
    <text x="637.2" y="190.0" font-size="14.5">Wall nerves, vessels, lymph,</text>
    <text x="637.2" y="209.1" font-size="14.5">and incisions</text>
  </g>
  <path class="link b1" data-depth="3" stroke-width="1.3" d="M338.3,39.8 C311.4,39.8 311.4,39.8 284.5,39.8"/>
  <g class="node d2 b1" data-depth="2">
    <rect class="box" x="338.3" y="17.1" width="240.5" height="45.3" rx="6"/>
    <text x="348.3" y="35.6" font-size="13.0">Thoracoabdominal nerves between</text>
    <text x="348.3" y="52.8" font-size="13.0">internal oblique and transversus</text>
  </g>
  <g class="node d3 b1" data-depth="3">
    <rect class="box" x="52.5" y="26.0" width="232.0" height="27.5" rx="6"/>
    <text x="62.5" y="44.0" font-size="12.5">Incisions can denervate the wall</text>
  </g>
  <path class="link b1" data-depth="3" stroke-width="1.3" d="M338.3,83.5 C311.4,83.5 311.4,83.5 284.5,83.5"/>
  <g class="node d2 b1" data-depth="2">
    <rect class="box" x="338.3" y="60.8" width="240.5" height="45.3" rx="6"/>
    <text x="348.3" y="79.3" font-size="13.0">Superior and inferior epigastric</text>
    <text x="348.3" y="96.5" font-size="13.0">anastomosis</text>
  </g>
  <g class="node d3 b1" data-depth="3">
    <rect class="box" x="72.4" y="61.5" width="212.1" height="44.0" rx="6"/>
    <text x="82.4" y="79.5" font-size="12.5">Collateral flow subclavian to</text>
    <text x="82.4" y="96.0" font-size="12.5">external iliac</text>
  </g>
  <g class="node d2 b1" data-depth="2">
    <rect class="box" x="345.2" y="113.5" width="233.6" height="45.3" rx="6"/>
    <text x="355.2" y="132.0" font-size="13.0">Paraumbilical veins link portal</text>
    <text x="355.2" y="149.2" font-size="13.0">and systemic channels</text>
  </g>
  <g class="node d2 b1" data-depth="2">
    <rect class="box" x="331.4" y="166.8" width="247.4" height="45.3" rx="6"/>
    <text x="341.4" y="185.3" font-size="13.0">Lymph above umbilicus to axillary</text>
    <text x="341.4" y="202.5" font-size="13.0">nodes</text>
  </g>
  <g class="node d2 b1" data-depth="2">
    <rect class="box" x="379.6" y="220.1" width="199.1" height="45.3" rx="6"/>
    <text x="389.6" y="238.6" font-size="13.0">Lymph below umbilicus to</text>
    <text x="389.6" y="255.8" font-size="13.0">superficial inguinal nodes</text>
  </g>
  <g class="node d2 b1" data-depth="2">
    <rect class="box" x="352.1" y="273.5" width="226.7" height="45.3" rx="6"/>
    <text x="362.1" y="292.0" font-size="13.0">Midline linea alba: avascular,</text>
    <text x="362.1" y="309.1" font-size="13.0">needs durable closure</text>
  </g>
  <g class="node d2 b1" data-depth="2">
    <rect class="box" x="358.9" y="326.8" width="219.8" height="45.3" rx="6"/>
    <text x="368.9" y="345.3" font-size="13.0">Transverse incision may cross</text>
    <text x="368.9" y="362.4" font-size="13.0">segmental paths</text>
  </g>
  <path class="link b2" data-depth="2" stroke-width="1.8" d="M746.0,451.9 C662.4,451.9 662.4,402.8 578.8,402.8"/>
  <path class="link b2" data-depth="2" stroke-width="1.8" d="M746.0,451.9 C662.4,451.9 662.4,447.5 578.8,447.5"/>
  <path class="link b2" data-depth="2" stroke-width="1.8" d="M746.0,451.9 C662.4,451.9 662.4,501.1 578.8,501.1"/>
  <g class="node d1 b2" data-depth="1">
    <rect class="box" x="746.0" y="436.8" width="138.8" height="30.1" rx="9"/>
    <text x="756.0" y="456.8" font-size="14.5">Posterior wall</text>
  </g>
  <g class="node d2 b2" data-depth="2">
    <rect class="box" x="365.8" y="380.1" width="212.9" height="45.3" rx="6"/>
    <text x="375.8" y="398.6" font-size="13.0">Vertebrae, psoas, quadratus</text>
    <text x="375.8" y="415.8" font-size="13.0">lumborum, iliacus, diaphragm</text>
  </g>
  <g class="node d2 b2" data-depth="2">
    <rect class="box" x="338.3" y="433.4" width="240.5" height="28.2" rx="6"/>
    <text x="348.3" y="451.9" font-size="13.0">Lumbar plexus forms within psoas</text>
  </g>
  <path class="link b2" data-depth="3" stroke-width="1.3" d="M365.8,501.1 C325.2,501.1 325.2,483.3 284.5,483.3"/>
  <path class="link b2" data-depth="3" stroke-width="1.3" d="M365.8,501.1 C325.2,501.1 325.2,518.8 284.5,518.8"/>
  <g class="node d2 b2" data-depth="2">
    <rect class="box" x="365.8" y="478.4" width="212.9" height="45.3" rx="6"/>
    <text x="375.8" y="496.9" font-size="13.0">Retroperitoneal blood or pus</text>
    <text x="375.8" y="514.1" font-size="13.0">irritates psoas</text>
  </g>
  <g class="node d3 b2" data-depth="3">
    <rect class="box" x="138.6" y="469.6" width="145.9" height="27.5" rx="6"/>
    <text x="148.6" y="487.6" font-size="12.5">Hip-flexion posture</text>
  </g>
  <g class="node d3 b2" data-depth="3">
    <rect class="box" x="145.2" y="505.1" width="139.2" height="27.5" rx="6"/>
    <text x="155.2" y="523.1" font-size="12.5">Femoral neuropathy</text>
  </g>
  <path class="link b3" data-depth="2" stroke-width="1.8" d="M644.2,714.0 C611.5,714.0 611.5,563.2 578.8,563.2"/>
  <path class="link b3" data-depth="2" stroke-width="1.8" d="M644.2,714.0 C611.5,714.0 611.5,615.9 578.8,615.9"/>
  <path class="link b3" data-depth="2" stroke-width="1.8" d="M644.2,714.0 C611.5,714.0 611.5,668.6 578.8,668.6"/>
  <path class="link b3" data-depth="2" stroke-width="1.8" d="M644.2,714.0 C611.5,714.0 611.5,721.9 578.8,721.9"/>
  <path class="link b3" data-depth="2" stroke-width="1.8" d="M644.2,714.0 C611.5,714.0 611.5,766.6 578.8,766.6"/>
  <path class="link b3" data-depth="2" stroke-width="1.8" d="M644.2,714.0 C611.5,714.0 611.5,811.4 578.8,811.4"/>
  <path class="link b3" data-depth="2" stroke-width="1.8" d="M644.2,714.0 C611.5,714.0 611.5,864.7 578.8,864.7"/>
  <g class="node d1 b3" data-depth="1">
    <rect class="box" x="644.2" y="698.9" width="240.5" height="30.1" rx="9"/>
    <text x="654.2" y="718.9" font-size="14.5">Wall mechanics and hernias</text>
  </g>
  <g class="node d2 b3" data-depth="2">
    <rect class="box" x="372.7" y="540.6" width="206.0" height="45.3" rx="6"/>
    <text x="382.7" y="559.1" font-size="13.0">Muscles raise pressure with</text>
    <text x="382.7" y="576.2" font-size="13.0">diaphragm and pelvic floor</text>
  </g>
  <path class="link b3" data-depth="3" stroke-width="1.3" d="M358.9,615.9 C321.7,615.9 321.7,615.9 284.5,615.9"/>
  <g class="node d2 b3" data-depth="2">
    <rect class="box" x="358.9" y="593.2" width="219.8" height="45.3" rx="6"/>
    <text x="368.9" y="611.7" font-size="13.0">Pressure alone does not cause</text>
    <text x="368.9" y="628.9" font-size="13.0">every hernia</text>
  </g>
  <g class="node d3 b3" data-depth="3">
    <rect class="box" x="52.5" y="593.9" width="232.0" height="44.0" rx="6"/>
    <text x="62.5" y="611.9" font-size="12.5">Fascial weakness, collagen, age,</text>
    <text x="62.5" y="628.4" font-size="12.5">surgery, loading</text>
  </g>
  <g class="node d2 b3" data-depth="2">
    <rect class="box" x="372.7" y="645.9" width="206.0" height="45.3" rx="6"/>
    <text x="382.7" y="664.4" font-size="13.0">Umbilicus is a former fetal</text>
    <text x="382.7" y="681.6" font-size="13.0">conduit</text>
  </g>
  <g class="node d2 b3" data-depth="2">
    <rect class="box" x="324.5" y="699.2" width="254.3" height="45.3" rx="6"/>
    <text x="334.5" y="717.7" font-size="13.0">Epigastric, umbilical, incisional,</text>
    <text x="334.5" y="734.9" font-size="13.0">Spigelian, parastomal</text>
  </g>
  <g class="node d2 b3" data-depth="2">
    <rect class="box" x="352.1" y="752.5" width="226.7" height="28.2" rx="6"/>
    <text x="362.1" y="771.0" font-size="13.0">Sac, contents, neck, coverings</text>
  </g>
  <g class="node d2 b3" data-depth="2">
    <rect class="box" x="352.1" y="788.7" width="226.7" height="45.3" rx="6"/>
    <text x="362.1" y="807.2" font-size="13.0">Reducibility and strangulation</text>
    <text x="362.1" y="824.4" font-size="13.0">describe risk, not type</text>
  </g>
  <g class="node d2 b3" data-depth="2">
    <rect class="box" x="365.8" y="842.0" width="212.9" height="45.3" rx="6"/>
    <text x="375.8" y="860.5" font-size="13.0">Rectus diastasis: no fascial</text>
    <text x="375.8" y="877.7" font-size="13.0">defect, not a hernia</text>
  </g>
  <path class="link b4" data-depth="2" stroke-width="1.8" d="M1427.1,608.5 C1459.8,608.5 1459.8,450.8 1492.6,450.8"/>
  <path class="link b4" data-depth="2" stroke-width="1.8" d="M1427.1,608.5 C1459.8,608.5 1459.8,504.1 1492.6,504.1"/>
  <path class="link b4" data-depth="2" stroke-width="1.8" d="M1427.1,608.5 C1459.8,608.5 1459.8,557.4 1492.6,557.4"/>
  <path class="link b4" data-depth="2" stroke-width="1.8" d="M1427.1,608.5 C1459.8,608.5 1459.8,610.1 1492.6,610.1"/>
  <path class="link b4" data-depth="2" stroke-width="1.8" d="M1427.1,608.5 C1459.8,608.5 1459.8,688.1 1492.6,688.1"/>
  <path class="link b4" data-depth="2" stroke-width="1.8" d="M1427.1,608.5 C1459.8,608.5 1459.8,766.1 1492.6,766.1"/>
  <g class="node d1 b4" data-depth="1">
    <rect class="box" x="1203.5" y="583.8" width="223.6" height="49.3" rx="9"/>
    <text x="1213.5" y="603.8" font-size="14.5">Inguinal canal and groin</text>
    <text x="1213.5" y="623.0" font-size="14.5">hernias</text>
  </g>
  <g class="node d2 b4" data-depth="2">
    <rect class="box" x="1492.6" y="428.1" width="226.7" height="45.3" rx="6"/>
    <text x="1502.6" y="446.6" font-size="13.0">Deep ring to superficial ring,</text>
    <text x="1502.6" y="463.8" font-size="13.0">oblique course</text>
  </g>
  <g class="node d2 b4" data-depth="2">
    <rect class="box" x="1492.6" y="481.5" width="233.6" height="45.3" rx="6"/>
    <text x="1502.6" y="500.0" font-size="13.0">Anterior wall external oblique,</text>
    <text x="1502.6" y="517.1" font-size="13.0">internal oblique laterally</text>
  </g>
  <g class="node d2 b4" data-depth="2">
    <rect class="box" x="1492.6" y="534.8" width="240.5" height="45.3" rx="6"/>
    <text x="1502.6" y="553.3" font-size="13.0">Posterior wall transversalis</text>
    <text x="1502.6" y="570.4" font-size="13.0">fascia, conjoint tendon medially</text>
  </g>
  <path class="link b4" data-depth="3" stroke-width="1.3" d="M1733.1,610.1 C1759.9,610.1 1759.9,610.1 1786.8,610.1"/>
  <g class="node d2 b4" data-depth="2">
    <rect class="box" x="1492.6" y="587.4" width="240.5" height="45.3" rx="6"/>
    <text x="1502.6" y="605.9" font-size="13.0">Spermatic cord or round ligament</text>
    <text x="1502.6" y="623.1" font-size="13.0">with ilioinguinal nerve</text>
  </g>
  <g class="node d3 b4" data-depth="3">
    <rect class="box" x="1786.8" y="588.1" width="245.2" height="44.0" rx="6"/>
    <text x="1796.8" y="606.1" font-size="12.5">Ilioinguinal enters laterally, not</text>
    <text x="1796.8" y="622.6" font-size="12.5">via deep ring</text>
  </g>
  <path class="link b4" data-depth="3" stroke-width="1.3" d="M1698.6,688.1 C1742.7,688.1 1742.7,662.1 1786.8,662.1"/>
  <path class="link b4" data-depth="3" stroke-width="1.3" d="M1698.6,688.1 C1742.7,688.1 1742.7,714.1 1786.8,714.1"/>
  <g class="node d2 b4" data-depth="2">
    <rect class="box" x="1492.6" y="665.4" width="206.0" height="45.3" rx="6"/>
    <text x="1502.6" y="683.9" font-size="13.0">Inferior epigastric vessels</text>
    <text x="1502.6" y="701.1" font-size="13.0">separate hernia types</text>
  </g>
  <g class="node d3 b4" data-depth="3">
    <rect class="box" x="1786.8" y="640.1" width="232.0" height="44.0" rx="6"/>
    <text x="1796.8" y="658.1" font-size="12.5">Indirect: lateral, via deep ring</text>
    <text x="1796.8" y="674.6" font-size="12.5">toward scrotum</text>
  </g>
  <g class="node d3 b4" data-depth="3">
    <rect class="box" x="1786.8" y="692.1" width="245.2" height="44.0" rx="6"/>
    <text x="1796.8" y="710.1" font-size="12.5">Direct: medial, through Hesselbach</text>
    <text x="1796.8" y="726.6" font-size="12.5">triangle</text>
  </g>
  <path class="link b4" data-depth="3" stroke-width="1.3" d="M1719.3,766.1 C1753.1,766.1 1753.1,766.1 1786.8,766.1"/>
  <g class="node d2 b4" data-depth="2">
    <rect class="box" x="1492.6" y="743.4" width="226.7" height="45.3" rx="6"/>
    <text x="1502.6" y="761.9" font-size="13.0">Femoral hernia below ligament,</text>
    <text x="1502.6" y="779.1" font-size="13.0">medial to vein</text>
  </g>
  <g class="node d3 b4" data-depth="3">
    <rect class="box" x="1786.8" y="744.1" width="172.4" height="44.0" rx="6"/>
    <text x="1796.8" y="762.1" font-size="12.5">Narrow rigid neck, high</text>
    <text x="1796.8" y="778.6" font-size="12.5">strangulation risk</text>
  </g>
  <path class="link b5" data-depth="2" stroke-width="1.8" d="M1452.6,938.1 C1472.6,938.1 1472.6,818.8 1492.6,818.8"/>
  <path class="link b5" data-depth="2" stroke-width="1.8" d="M1452.6,938.1 C1472.6,938.1 1472.6,872.1 1492.6,872.1"/>
  <path class="link b5" data-depth="2" stroke-width="1.8" d="M1452.6,938.1 C1472.6,938.1 1472.6,925.4 1492.6,925.4"/>
  <path class="link b5" data-depth="2" stroke-width="1.8" d="M1452.6,938.1 C1472.6,938.1 1472.6,978.7 1492.6,978.7"/>
  <path class="link b5" data-depth="2" stroke-width="1.8" d="M1452.6,938.1 C1472.6,938.1 1472.6,1057.4 1492.6,1057.4"/>
  <g class="node d1 b5" data-depth="1">
    <rect class="box" x="1203.5" y="913.4" width="249.0" height="49.3" rx="9"/>
    <text x="1213.5" y="933.4" font-size="14.5">Peritoneal layers and organ</text>
    <text x="1213.5" y="952.6" font-size="14.5">positions</text>
  </g>
  <g class="node d2 b5" data-depth="2">
    <rect class="box" x="1492.6" y="796.1" width="219.8" height="45.3" rx="6"/>
    <text x="1502.6" y="814.6" font-size="13.0">Parietal peritoneum: somatic,</text>
    <text x="1502.6" y="831.8" font-size="13.0">sharp localised pain</text>
  </g>
  <g class="node d2 b5" data-depth="2">
    <rect class="box" x="1492.6" y="849.4" width="233.6" height="45.3" rx="6"/>
    <text x="1502.6" y="867.9" font-size="13.0">Visceral peritoneum: autonomic,</text>
    <text x="1502.6" y="885.1" font-size="13.0">diffuse pain</text>
  </g>
  <g class="node d2 b5" data-depth="2">
    <rect class="box" x="1492.6" y="902.7" width="240.5" height="45.3" rx="6"/>
    <text x="1502.6" y="921.2" font-size="13.0">Intraperitoneal organs suspended</text>
    <text x="1502.6" y="938.4" font-size="13.0">by mesentery</text>
  </g>
  <g class="node d2 b5" data-depth="2">
    <rect class="box" x="1492.6" y="956.1" width="226.7" height="45.3" rx="6"/>
    <text x="1502.6" y="974.6" font-size="13.0">Primarily retroperitoneal:</text>
    <text x="1502.6" y="991.7" font-size="13.0">kidneys, adrenals, aorta, cava</text>
  </g>
  <path class="link b5" data-depth="3" stroke-width="1.3" d="M1746.8,1057.4 C1766.8,1057.4 1766.8,1031.4 1786.8,1031.4"/>
  <path class="link b5" data-depth="3" stroke-width="1.3" d="M1746.8,1057.4 C1766.8,1057.4 1766.8,1083.4 1786.8,1083.4"/>
  <g class="node d2 b5" data-depth="2">
    <rect class="box" x="1492.6" y="1034.7" width="254.3" height="45.3" rx="6"/>
    <text x="1502.6" y="1053.2" font-size="13.0">Secondarily retroperitoneal organs</text>
    <text x="1502.6" y="1070.4" font-size="13.0">fused to back wall</text>
  </g>
  <g class="node d3 b5" data-depth="3">
    <rect class="box" x="1786.8" y="1009.4" width="225.4" height="44.0" rx="6"/>
    <text x="1796.8" y="1027.4" font-size="12.5">Duodenum, pancreas except tail,</text>
    <text x="1796.8" y="1043.9" font-size="12.5">ascending, descending colon</text>
  </g>
  <g class="node d3 b5" data-depth="3">
    <rect class="box" x="1786.8" y="1061.4" width="212.1" height="44.0" rx="6"/>
    <text x="1796.8" y="1079.4" font-size="12.5">Fusion fascia gives avascular</text>
    <text x="1796.8" y="1095.9" font-size="12.5">surgical planes</text>
  </g>
  <path class="link b6" data-depth="2" stroke-width="1.8" d="M618.8,1053.4 C598.8,1053.4 598.8,909.1 578.8,909.1"/>
  <path class="link b6" data-depth="2" stroke-width="1.8" d="M618.8,1053.4 C598.8,1053.4 598.8,978.8 578.8,978.8"/>
  <path class="link b6" data-depth="2" stroke-width="1.8" d="M618.8,1053.4 C598.8,1053.4 598.8,1048.6 578.8,1048.6"/>
  <path class="link b6" data-depth="2" stroke-width="1.8" d="M618.8,1053.4 C598.8,1053.4 598.8,1092.3 578.8,1092.3"/>
  <path class="link b6" data-depth="2" stroke-width="1.8" d="M618.8,1053.4 C598.8,1053.4 598.8,1145.0 578.8,1145.0"/>
  <path class="link b6" data-depth="2" stroke-width="1.8" d="M618.8,1053.4 C598.8,1053.4 598.8,1197.7 578.8,1197.7"/>
  <g class="node d1 b6" data-depth="1">
    <rect class="box" x="618.8" y="1038.3" width="266.0" height="30.1" rx="9"/>
    <text x="628.8" y="1058.3" font-size="14.5">Sacs, omenta, and mesenteries</text>
  </g>
  <path class="link b6" data-depth="3" stroke-width="1.3" d="M358.9,909.1 C321.7,909.1 321.7,909.1 284.5,909.1"/>
  <g class="node d2 b6" data-depth="2">
    <rect class="box" x="358.9" y="886.4" width="219.8" height="45.3" rx="6"/>
    <text x="368.9" y="904.9" font-size="13.0">Lesser sac behind stomach and</text>
    <text x="368.9" y="922.1" font-size="13.0">lesser omentum</text>
  </g>
  <g class="node d3 b6" data-depth="3">
    <rect class="box" x="45.9" y="895.3" width="238.6" height="27.5" rx="6"/>
    <text x="55.9" y="913.3" font-size="12.5">Pancreatic fluid can collect here</text>
  </g>
  <path class="link b6" data-depth="3" stroke-width="1.3" d="M331.4,978.8 C307.9,978.8 307.9,952.8 284.5,952.8"/>
  <path class="link b6" data-depth="3" stroke-width="1.3" d="M331.4,978.8 C307.9,978.8 307.9,1004.8 284.5,1004.8"/>
  <g class="node d2 b6" data-depth="2">
    <rect class="box" x="331.4" y="956.2" width="247.4" height="45.3" rx="6"/>
    <text x="341.4" y="974.7" font-size="13.0">Epiploic foramen links lesser and</text>
    <text x="341.4" y="991.8" font-size="13.0">greater sacs</text>
  </g>
  <g class="node d3 b6" data-depth="3">
    <rect class="box" x="45.9" y="930.8" width="238.6" height="44.0" rx="6"/>
    <text x="55.9" y="948.8" font-size="12.5">Hepatoduodenal ligament anterior,</text>
    <text x="55.9" y="965.3" font-size="12.5">cava posterior</text>
  </g>
  <g class="node d3 b6" data-depth="3">
    <rect class="box" x="72.4" y="982.8" width="212.1" height="44.0" rx="6"/>
    <text x="82.4" y="1000.8" font-size="12.5">Portal triad with portal vein</text>
    <text x="82.4" y="1017.3" font-size="12.5">posterior</text>
  </g>
  <path class="link b6" data-depth="3" stroke-width="1.3" d="M379.6,1048.6 C332.1,1048.6 332.1,1048.6 284.5,1048.6"/>
  <g class="node d2 b6" data-depth="2">
    <rect class="box" x="379.6" y="1025.9" width="199.1" height="45.3" rx="6"/>
    <text x="389.6" y="1044.4" font-size="13.0">Greater omentum fuses with</text>
    <text x="389.6" y="1061.6" font-size="13.0">transverse colon</text>
  </g>
  <g class="node d3 b6" data-depth="3">
    <rect class="box" x="112.1" y="1034.8" width="172.4" height="27.5" rx="6"/>
    <text x="122.1" y="1052.8" font-size="12.5">Adheres to inflammation</text>
  </g>
  <path class="link b6" data-depth="3" stroke-width="1.3" d="M324.5,1092.3 C304.5,1092.3 304.5,1092.3 284.5,1092.3"/>
  <g class="node d2 b6" data-depth="2">
    <rect class="box" x="324.5" y="1069.7" width="254.3" height="45.3" rx="6"/>
    <text x="334.5" y="1088.2" font-size="13.0">Mesentery root runs duodenojejunal</text>
    <text x="334.5" y="1105.3" font-size="13.0">to ileocaecal</text>
  </g>
  <g class="node d3 b6" data-depth="3">
    <rect class="box" x="26.0" y="1070.3" width="258.5" height="44.0" rx="6"/>
    <text x="36.0" y="1088.3" font-size="12.5">Crosses duodenum, aorta, cava, right</text>
    <text x="36.0" y="1104.8" font-size="12.5">ureter</text>
  </g>
  <g class="node d2 b6" data-depth="2">
    <rect class="box" x="352.1" y="1122.3" width="226.7" height="45.3" rx="6"/>
    <text x="362.1" y="1140.8" font-size="13.0">Sigmoid mesocolon crosses left</text>
    <text x="362.1" y="1158.0" font-size="13.0">ureter</text>
  </g>
  <path class="link b6" data-depth="3" stroke-width="1.3" d="M345.2,1197.7 C314.8,1197.7 314.8,1197.7 284.5,1197.7"/>
  <g class="node d2 b6" data-depth="2">
    <rect class="box" x="345.2" y="1175.0" width="233.6" height="45.3" rx="6"/>
    <text x="355.2" y="1193.5" font-size="13.0">Peritoneal ligaments are double</text>
    <text x="355.2" y="1210.7" font-size="13.0">layers, not strong</text>
  </g>
  <g class="node d3 b6" data-depth="3">
    <rect class="box" x="85.6" y="1175.7" width="198.9" height="44.0" rx="6"/>
    <text x="95.6" y="1193.7" font-size="12.5">Falciform ligament contains</text>
    <text x="95.6" y="1210.2" font-size="12.5">ligamentum teres</text>
  </g>
  <path class="link b7" data-depth="2" stroke-width="1.8" d="M1444.1,1236.3 C1468.3,1236.3 1468.3,1127.5 1492.6,1127.5"/>
  <path class="link b7" data-depth="2" stroke-width="1.8" d="M1444.1,1236.3 C1468.3,1236.3 1468.3,1172.2 1492.6,1172.2"/>
  <path class="link b7" data-depth="2" stroke-width="1.8" d="M1444.1,1236.3 C1468.3,1236.3 1468.3,1225.5 1492.6,1225.5"/>
  <path class="link b7" data-depth="2" stroke-width="1.8" d="M1444.1,1236.3 C1468.3,1236.3 1468.3,1278.8 1492.6,1278.8"/>
  <path class="link b7" data-depth="2" stroke-width="1.8" d="M1444.1,1236.3 C1468.3,1236.3 1468.3,1345.1 1492.6,1345.1"/>
  <g class="node d1 b7" data-depth="1">
    <rect class="box" x="1203.5" y="1211.7" width="240.5" height="49.3" rx="9"/>
    <text x="1213.5" y="1231.7" font-size="14.5">Spaces, gutters, and fluid</text>
    <text x="1213.5" y="1250.8" font-size="14.5">spread</text>
  </g>
  <g class="node d2 b7" data-depth="2">
    <rect class="box" x="1492.6" y="1113.4" width="254.3" height="28.2" rx="6"/>
    <text x="1502.6" y="1131.9" font-size="13.0">Supracolic: liver, stomach, spleen</text>
  </g>
  <g class="node d2 b7" data-depth="2">
    <rect class="box" x="1492.6" y="1149.5" width="247.4" height="45.3" rx="6"/>
    <text x="1502.6" y="1168.0" font-size="13.0">Hepatorenal recess dependent when</text>
    <text x="1502.6" y="1185.2" font-size="13.0">supine</text>
  </g>
  <g class="node d2 b7" data-depth="2">
    <rect class="box" x="1492.6" y="1202.9" width="254.3" height="45.3" rx="6"/>
    <text x="1502.6" y="1221.4" font-size="13.0">Right gutter opens to hepatorenal,</text>
    <text x="1502.6" y="1238.5" font-size="13.0">subphrenic spaces</text>
  </g>
  <g class="node d2 b7" data-depth="2">
    <rect class="box" x="1492.6" y="1256.2" width="171.6" height="45.3" rx="6"/>
    <text x="1502.6" y="1274.7" font-size="13.0">Left gutter limited by</text>
    <text x="1502.6" y="1291.8" font-size="13.0">phrenicocolic ligament</text>
  </g>
  <path class="link b7" data-depth="3" stroke-width="1.3" d="M1698.6,1345.1 C1742.7,1345.1 1742.7,1323.2 1786.8,1323.2"/>
  <path class="link b7" data-depth="3" stroke-width="1.3" d="M1698.6,1345.1 C1742.7,1345.1 1742.7,1367.0 1786.8,1367.0"/>
  <g class="node d2 b7" data-depth="2">
    <rect class="box" x="1492.6" y="1322.5" width="206.0" height="45.3" rx="6"/>
    <text x="1502.6" y="1341.0" font-size="13.0">Pelvic recesses lowest when</text>
    <text x="1502.6" y="1358.1" font-size="13.0">upright</text>
  </g>
  <g class="node d3 b7" data-depth="3">
    <rect class="box" x="1786.8" y="1309.5" width="198.9" height="27.5" rx="6"/>
    <text x="1796.8" y="1327.5" font-size="12.5">Rectovesical pouch in males</text>
  </g>
  <g class="node d3 b7" data-depth="3">
    <rect class="box" x="1786.8" y="1345.0" width="258.5" height="44.0" rx="6"/>
    <text x="1796.8" y="1363.0" font-size="12.5">Rectouterine pouch usually lowest in</text>
    <text x="1796.8" y="1379.5" font-size="12.5">females</text>
  </g>
  <path class="link b8" data-depth="2" stroke-width="1.8" d="M686.6,1356.3 C632.7,1356.3 632.7,1250.3 578.8,1250.3"/>
  <path class="link b8" data-depth="2" stroke-width="1.8" d="M686.6,1356.3 C632.7,1356.3 632.7,1303.6 578.8,1303.6"/>
  <path class="link b8" data-depth="2" stroke-width="1.8" d="M686.6,1356.3 C632.7,1356.3 632.7,1356.3 578.8,1356.3"/>
  <path class="link b8" data-depth="2" stroke-width="1.8" d="M686.6,1356.3 C632.7,1356.3 632.7,1409.0 578.8,1409.0"/>
  <path class="link b8" data-depth="2" stroke-width="1.8" d="M686.6,1356.3 C632.7,1356.3 632.7,1462.3 578.8,1462.3"/>
  <g class="node d1 b8" data-depth="1">
    <rect class="box" x="686.6" y="1331.7" width="198.1" height="49.3" rx="9"/>
    <text x="696.6" y="1351.7" font-size="14.5">Pain by embryological</text>
    <text x="696.6" y="1370.8" font-size="14.5">territory</text>
  </g>
  <g class="node d2 b8" data-depth="2">
    <rect class="box" x="379.6" y="1227.7" width="199.1" height="45.3" rx="6"/>
    <text x="389.6" y="1246.2" font-size="13.0">Foregut epigastric, midgut</text>
    <text x="389.6" y="1263.3" font-size="13.0">periumbilical</text>
  </g>
  <g class="node d2 b8" data-depth="2">
    <rect class="box" x="379.6" y="1281.0" width="199.1" height="45.3" rx="6"/>
    <text x="389.6" y="1299.5" font-size="13.0">Hindgut lower abdominal or</text>
    <text x="389.6" y="1316.6" font-size="13.0">suprapubic</text>
  </g>
  <path class="link b8" data-depth="3" stroke-width="1.3" d="M338.3,1356.3 C311.4,1356.3 311.4,1356.3 284.5,1356.3"/>
  <g class="node d2 b8" data-depth="2">
    <rect class="box" x="338.3" y="1333.6" width="240.5" height="45.3" rx="6"/>
    <text x="348.3" y="1352.1" font-size="13.0">Appendicitis: periumbilical then</text>
    <text x="348.3" y="1369.3" font-size="13.0">right lower quadrant</text>
  </g>
  <g class="node d3 b8" data-depth="3">
    <rect class="box" x="59.1" y="1334.3" width="225.4" height="44.0" rx="6"/>
    <text x="69.1" y="1352.3" font-size="12.5">Parietal peritoneum involvement</text>
    <text x="69.1" y="1368.8" font-size="12.5">localises pain</text>
  </g>
  <g class="node d2 b8" data-depth="2">
    <rect class="box" x="324.5" y="1386.3" width="254.3" height="45.3" rx="6"/>
    <text x="334.5" y="1404.8" font-size="13.0">Diaphragmatic peritoneum refers to</text>
    <text x="334.5" y="1422.0" font-size="13.0">shoulder</text>
  </g>
  <g class="node d2 b8" data-depth="2">
    <rect class="box" x="345.2" y="1439.6" width="233.6" height="45.3" rx="6"/>
    <text x="355.2" y="1458.1" font-size="13.0">Posterior structures cause back</text>
    <text x="355.2" y="1475.3" font-size="13.0">pain without peritonism</text>
  </g>
</svg>
