<svg xmlns="http://www.w3.org/2000/svg" class="mm" viewBox="0 0 2120 1690" width="2120" height="1690" role="img" aria-label="Time-critical neurology, localisation, and decline">
<style>
  .mm-bg { fill: #faf8f4; }
  .mm text { font-family: Inter, ui-sans-serif, -apple-system, BlinkMacSystemFont, 'Segoe UI', sans-serif; fill: #1b1917; }
  .mm .link { fill: none; stroke: #c9c1b4; }
  .mm .box { fill: none; stroke: none; }
  .mm .d0 .box { fill: #1b1917; stroke: #1b1917; }
  .mm .d0 text { fill: #faf8f4; font-weight: 650; }
  .mm .d1 text { font-weight: 600; }

  .mm .link.b0 { stroke: #4b9ac6; }
  .mm .b0.d1 .box { fill: #d7e5eb; stroke: #0072B2; stroke-width: 1.5; }
  .mm .b0.d1 text { fill: #075c8b; }
  .mm .b0.d2 .box { fill: #e8efef; stroke: #70aed0; }
  .mm .b0.d3 text, .mm .b0.d4 text { fill: #075c8b; }

  .mm .link.b1 { stroke: #e08c49; }
  .mm .b1.d1 .box { fill: #f5e2d2; stroke: #D55E00; stroke-width: 1.5; }
  .mm .b1.d1 text { fill: #a64d06; }
  .mm .b1.d2 .box { fill: #f7ede3; stroke: #e6a36e; }
  .mm .b1.d3 text, .mm .b1.d4 text { fill: #a64d06; }

  .mm .link.b2 { stroke: #4bb99a; }
  .mm .b2.d1 .box { fill: #d7ebe2; stroke: #009E73; stroke-width: 1.5; }
  .mm .b2.d1 text { fill: #077d5c; }
  .mm .b2.d2 .box { fill: #e8f2eb; stroke: #70c6ad; }
  .mm .b2.d3 text, .mm .b2.d4 text { fill: #077d5c; }

  .mm .link.b3 { stroke: #da9fbe; }
  .mm .b3.d1 .box { fill: #f4e6e9; stroke: #CC79A7; stroke-width: 1.5; }
  .mm .b3.d1 text { fill: #985c7c; }
  .mm .b3.d2 .box { fill: #f7efef; stroke: #e1b2ca; }
  .mm .b3.d3 text, .mm .b3.d4 text { fill: #985c7c; }

  .mm .link.b4 { stroke: #bba149; }
  .mm .b4.d1 .box { fill: #ede7d2; stroke: #A07C00; stroke-width: 1.5; }
  .mm .b4.d1 text { fill: #7f6306; }
  .mm .b4.d2 .box { fill: #f4efe3; stroke: #c8b46e; }
  .mm .b4.d3 text, .mm .b4.d4 text { fill: #7f6306; }

  .mm .link.b5 { stroke: #84c1e2; }
  .mm .b5.d1 .box { fill: #e3eef2; stroke: #51a9db; stroke-width: 1.5; }
  .mm .b5.d1 text { fill: #3d7899; }
  .mm .b5.d2 .box { fill: #eff3f3; stroke: #9dcde6; }
  .mm .b5.d3 text, .mm .b5.d4 text { fill: #3d7899; }

  .mm .link.b6 { stroke: #9580b0; }
  .mm .b6.d1 .box { fill: #e6e0e6; stroke: #6A4C93; stroke-width: 1.5; }
  .mm .b6.d1 text { fill: #563f74; }
  .mm .b6.d2 .box { fill: #f0eced; stroke: #ab99bf; }
  .mm .b6.d3 text, .mm .b6.d4 text { fill: #563f74; }

  .mm .link.b7 { stroke: #98ac74; }
  .mm .b7.d1 .box { fill: #e6e9da; stroke: #6E8B3D; stroke-width: 1.5; }
  .mm .b7.d1 text { fill: #596e34; }
  .mm .b7.d2 .box { fill: #f0f0e7; stroke: #adbc8f; }
  .mm .b7.d3 text, .mm .b7.d4 text { fill: #596e34; }

  .mm .link.b8 { stroke: #e2b349; }
  .mm .b8.d1 .box { fill: #f7ecd2; stroke: #d89500; stroke-width: 1.5; }
  .mm .b8.d1 text { fill: #986a05; }
  .mm .b8.d2 .box { fill: #f9f2e3; stroke: #e7c26e; }
  .mm .b8.d3 text, .mm .b8.d4 text { fill: #986a05; }

  .mm .link.b9 { stroke: #bf6669; }
  .mm .b9.d1 .box { fill: #eedbd8; stroke: #A6272E; stroke-width: 1.5; }
  .mm .b9.d1 text { fill: #832428; }
  .mm .b9.d2 .box { fill: #f4e9e6; stroke: #cc8587; }
  .mm .b9.d3 text, .mm .b9.d4 text { fill: #832428; }
@media (prefers-color-scheme: dark) {
  .mm-bg { fill: #12100e; }
  .mm text { font-family: Inter, ui-sans-serif, -apple-system, BlinkMacSystemFont, 'Segoe UI', sans-serif; fill: #ece7df; }
  .mm .link { fill: none; stroke: #3d3833; }
  .mm .box { fill: none; stroke: none; }
  .mm .d0 .box { fill: #ece7df; stroke: #ece7df; }
  .mm .d0 text { fill: #12100e; font-weight: 650; }
  .mm .d1 text { font-weight: 600; }

  .mm .link.b0 { stroke: #2d6a8d; }
  .mm .b0.d1 .box { fill: #172227; stroke: #3891c3; stroke-width: 1.5; }
  .mm .b0.d1 text { fill: #65a6ca; }
  .mm .b0.d2 .box { fill: #15191b; stroke: #275772; }
  .mm .b0.d3 text, .mm .b0.d4 text { fill: #65a6ca; }

  .mm .link.b1 { stroke: #a15f2b; }
  .mm .b1.d1 .box { fill: #2f2014; stroke: #de8138; stroke-width: 1.5; }
  .mm .b1.d1 text { fill: #e29a62; }
  .mm .b1.d2 .box { fill: #201811; stroke: #824e25; }
  .mm .b1.d3 text, .mm .b1.d4 text { fill: #e29a62; }

  .mm .link.b2 { stroke: #2d826a; }
  .mm .b2.d1 .box { fill: #172720; stroke: #38b392; stroke-width: 1.5; }
  .mm .b2.d1 text { fill: #65c0a5; }
  .mm .b2.d2 .box { fill: #151b17; stroke: #276a57; }
  .mm .b2.d3 text, .mm .b2.d4 text { fill: #65c0a5; }

  .mm .link.b3 { stroke: #9c6e86; }
  .mm .b3.d1 .box { fill: #2e2326; stroke: #d796ba; stroke-width: 1.5; }
  .mm .b3.d1 text { fill: #dcaac3; }
  .mm .b3.d2 .box { fill: #20191a; stroke: #7e5a6d; }
  .mm .b3.d3 text, .mm .b3.d4 text { fill: #dcaac3; }

  .mm .link.b4 { stroke: #84702b; }
  .mm .b4.d1 .box { fill: #292314; stroke: #b59938; stroke-width: 1.5; }
  .mm .b4.d1 text { fill: #c3ac62; }
  .mm .b4.d2 .box { fill: #1d1a11; stroke: #6c5b25; }
  .mm .b4.d3 text, .mm .b4.d4 text { fill: #c3ac62; }

  .mm .link.b5 { stroke: #5c8eab; }
  .mm .b5.d1 .box { fill: #21292d; stroke: #7bc4ee; stroke-width: 1.5; }
  .mm .b5.d1 text { fill: #97cdea; }
  .mm .b5.d2 .box { fill: #191d1e; stroke: #4c7389; }
  .mm .b5.d3 text, .mm .b5.d4 text { fill: #97cdea; }

  .mm .link.b6 { stroke: #67557c; }
  .mm .b6.d1 .box { fill: #231e24; stroke: #8b73ab; stroke-width: 1.5; }
  .mm .b6.d1 text { fill: #a390b8; }
  .mm .b6.d2 .box { fill: #1a1719; stroke: #554664; }
  .mm .b6.d3 text, .mm .b6.d4 text { fill: #a390b8; }

  .mm .link.b7 { stroke: #69784d; }
  .mm .b7.d1 .box { fill: #23251b; stroke: #8ea568; stroke-width: 1.5; }
  .mm .b7.d1 text { fill: #a6b686; }
  .mm .b7.d2 .box { fill: #1b1a14; stroke: #566240; }
  .mm .b7.d3 text, .mm .b7.d4 text { fill: #a6b686; }

  .mm .link.b8 { stroke: #ab832b; }
  .mm .b8.d1 .box { fill: #312714; stroke: #ecb438; stroke-width: 1.5; }
  .mm .b8.d1 text { fill: #ecc162; }
  .mm .b8.d2 .box { fill: #211b11; stroke: #8a6a25; }
  .mm .b8.d3 text, .mm .b8.d4 text { fill: #ecc162; }

  .mm .link.b9 { stroke: #884245; }
  .mm .b9.d1 .box { fill: #2a1a19; stroke: #ba575c; stroke-width: 1.5; }
  .mm .b9.d1 text { fill: #c67b7d; }
  .mm .b9.d2 .box { fill: #1e1513; stroke: #6e3739; }
  .mm .b9.d3 text, .mm .b9.d4 text { fill: #c67b7d; }
}
</style>
  <rect class="mm-bg" width="2120" height="1690"/>
  <path class="link b0" data-depth="1" stroke-width="2.2" d="M1195.0,845.1 C1215.0,845.1 1215.0,128.6 1235.0,128.6"/>
  <path class="link b1" data-depth="1" stroke-width="2.2" d="M1195.0,845.1 C903.4,845.1 903.4,101.0 611.9,101.0"/>
  <path class="link b2" data-depth="1" stroke-width="2.2" d="M1195.0,845.1 C1215.0,845.1 1215.0,367.9 1235.0,367.9"/>
  <path class="link b3" data-depth="1" stroke-width="2.2" d="M1195.0,845.1 C933.1,845.1 933.1,325.9 671.2,325.9"/>
  <path class="link b4" data-depth="1" stroke-width="2.2" d="M1195.0,845.1 C937.4,845.1 937.4,626.7 679.7,626.7"/>
  <path class="link b5" data-depth="1" stroke-width="2.2" d="M1195.0,845.1 C1215.0,845.1 1215.0,678.3 1235.0,678.3"/>
  <path class="link b6" data-depth="1" stroke-width="2.2" d="M1195.0,845.1 C920.4,845.1 920.4,983.9 645.8,983.9"/>
  <path class="link b7" data-depth="1" stroke-width="2.2" d="M1195.0,845.1 C1215.0,845.1 1215.0,1032.0 1235.0,1032.0"/>
  <path class="link b8" data-depth="1" stroke-width="2.2" d="M1195.0,845.1 C1215.0,845.1 1215.0,1438.5 1235.0,1438.5"/>
  <path class="link b9" data-depth="1" stroke-width="2.2" d="M1195.0,845.1 C941.6,845.1 941.6,1381.5 688.2,1381.5"/>
  <g class="node d0 b0" data-depth="0">
    <rect class="box" x="926.3" y="817.1" width="268.6" height="55.9" rx="9"/>
    <text x="936.3" y="839.6" font-size="17.0">Time-critical neurology,</text>
    <text x="936.3" y="862.1" font-size="17.0">localisation, and decline</text>
  </g>
  <path class="link b0" data-depth="2" stroke-width="1.8" d="M1501.0,128.6 C1521.0,128.6 1521.0,48.7 1541.0,48.7"/>
  <path class="link b0" data-depth="2" stroke-width="1.8" d="M1501.0,128.6 C1521.0,128.6 1521.0,102.0 1541.0,102.0"/>
  <path class="link b0" data-depth="2" stroke-width="1.8" d="M1501.0,128.6 C1521.0,128.6 1521.0,155.3 1541.0,155.3"/>
  <path class="link b0" data-depth="2" stroke-width="1.8" d="M1501.0,128.6 C1521.0,128.6 1521.0,208.6 1541.0,208.6"/>
  <g class="node d1 b0" data-depth="1">
    <rect class="box" x="1235.0" y="113.6" width="266.0" height="30.1" rx="9"/>
    <text x="1245.0" y="133.6" font-size="14.5">Where, what process, how fast</text>
  </g>
  <g class="node d2 b0" data-depth="2">
    <rect class="box" x="1541.0" y="26.0" width="212.9" height="45.3" rx="6"/>
    <text x="1551.0" y="44.5" font-size="13.0">Sudden maximal: vascular,</text>
    <text x="1551.0" y="61.7" font-size="13.0">haemorrhage, seizure, trauma</text>
  </g>
  <g class="node d2 b0" data-depth="2">
    <rect class="box" x="1541.0" y="79.3" width="212.9" height="45.3" rx="6"/>
    <text x="1551.0" y="97.8" font-size="13.0">Hours to days: inflammation,</text>
    <text x="1551.0" y="115.0" font-size="13.0">infection, metabolic, mass</text>
  </g>
  <g class="node d2 b0" data-depth="2">
    <rect class="box" x="1541.0" y="132.6" width="240.5" height="45.3" rx="6"/>
    <text x="1551.0" y="151.1" font-size="13.0">Weeks to months: tumour, immune,</text>
    <text x="1551.0" y="168.3" font-size="13.0">compression, degeneration</text>
  </g>
  <g class="node d2 b0" data-depth="2">
    <rect class="box" x="1541.0" y="186.0" width="240.5" height="45.3" rx="6"/>
    <text x="1551.0" y="204.5" font-size="13.0">Precise timeline from last known</text>
    <text x="1551.0" y="221.6" font-size="13.0">normal</text>
  </g>
  <path class="link b1" data-depth="2" stroke-width="1.8" d="M611.9,101.0 C591.9,101.0 591.9,48.7 571.9,48.7"/>
  <path class="link b1" data-depth="2" stroke-width="1.8" d="M611.9,101.0 C591.9,101.0 591.9,101.3 571.9,101.3"/>
  <path class="link b1" data-depth="2" stroke-width="1.8" d="M611.9,101.0 C591.9,101.0 591.9,153.3 571.9,153.3"/>
  <g class="node d1 b1" data-depth="1">
    <rect class="box" x="611.9" y="76.3" width="274.5" height="49.3" rx="9"/>
    <text x="621.9" y="96.3" font-size="14.5">Acute focal deficit treated as</text>
    <text x="621.9" y="115.5" font-size="14.5">stroke</text>
  </g>
  <g class="node d2 b1" data-depth="2">
    <rect class="box" x="338.3" y="26.0" width="233.6" height="45.3" rx="6"/>
    <text x="348.3" y="44.5" font-size="13.0">Reperfusion benefit decays with</text>
    <text x="348.3" y="61.7" font-size="13.0">time</text>
  </g>
  <path class="link b1" data-depth="3" stroke-width="1.3" d="M338.3,101.3 C311.4,101.3 311.4,101.3 284.5,101.3"/>
  <g class="node d2 b1" data-depth="2">
    <rect class="box" x="338.3" y="78.7" width="233.6" height="45.3" rx="6"/>
    <text x="348.3" y="97.2" font-size="13.0">Posterior: diplopia, dysphagia,</text>
    <text x="348.3" y="114.3" font-size="13.0">truncal ataxia</text>
  </g>
  <g class="node d3 b1" data-depth="3">
    <rect class="box" x="45.9" y="79.3" width="238.6" height="44.0" rx="6"/>
    <text x="55.9" y="97.3" font-size="12.5">Low screening score does not mean</text>
    <text x="55.9" y="113.8" font-size="12.5">benign</text>
  </g>
  <path class="link b1" data-depth="3" stroke-width="1.3" d="M331.4,153.3 C307.9,153.3 307.9,153.3 284.5,153.3"/>
  <g class="node d2 b1" data-depth="2">
    <rect class="box" x="331.4" y="130.7" width="240.5" height="45.3" rx="6"/>
    <text x="341.4" y="149.2" font-size="13.0">Mimics: hypoglycaemia, postictal</text>
    <text x="341.4" y="166.3" font-size="13.0">weakness, aura</text>
  </g>
  <g class="node d3 b1" data-depth="3">
    <rect class="box" x="72.4" y="131.3" width="212.1" height="44.0" rx="6"/>
    <text x="82.4" y="149.3" font-size="12.5">Uncertainty should accelerate</text>
    <text x="82.4" y="165.8" font-size="12.5">imaging</text>
  </g>
  <path class="link b2" data-depth="2" stroke-width="1.8" d="M1458.6,367.9 C1499.8,367.9 1499.8,261.9 1541.0,261.9"/>
  <path class="link b2" data-depth="2" stroke-width="1.8" d="M1458.6,367.9 C1499.8,367.9 1499.8,315.3 1541.0,315.3"/>
  <path class="link b2" data-depth="2" stroke-width="1.8" d="M1458.6,367.9 C1499.8,367.9 1499.8,367.9 1541.0,367.9"/>
  <path class="link b2" data-depth="2" stroke-width="1.8" d="M1458.6,367.9 C1499.8,367.9 1499.8,420.6 1541.0,420.6"/>
  <path class="link b2" data-depth="2" stroke-width="1.8" d="M1458.6,367.9 C1499.8,367.9 1499.8,473.9 1541.0,473.9"/>
  <g class="node d1 b2" data-depth="1">
    <rect class="box" x="1235.0" y="343.3" width="223.6" height="49.3" rx="9"/>
    <text x="1245.0" y="363.3" font-size="14.5">Ischaemic physiology and</text>
    <text x="1245.0" y="382.4" font-size="14.5">selection</text>
  </g>
  <g class="node d2 b2" data-depth="2">
    <rect class="box" x="1541.0" y="239.3" width="254.3" height="45.3" rx="6"/>
    <text x="1551.0" y="257.8" font-size="13.0">Arterial occlusion plus collateral</text>
    <text x="1551.0" y="274.9" font-size="13.0">failure</text>
  </g>
  <g class="node d2 b2" data-depth="2">
    <rect class="box" x="1541.0" y="292.6" width="233.6" height="45.3" rx="6"/>
    <text x="1551.0" y="311.1" font-size="13.0">Core: energy failure, cytotoxic</text>
    <text x="1551.0" y="328.3" font-size="13.0">oedema, cell death</text>
  </g>
  <path class="link b2" data-depth="3" stroke-width="1.3" d="M1753.9,367.9 C1794.6,367.9 1794.6,367.9 1835.2,367.9"/>
  <g class="node d2 b2" data-depth="2">
    <rect class="box" x="1541.0" y="345.3" width="212.9" height="45.3" rx="6"/>
    <text x="1551.0" y="363.8" font-size="13.0">Penumbra: electrical failure</text>
    <text x="1551.0" y="380.9" font-size="13.0">before membrane loss</text>
  </g>
  <g class="node d3 b2" data-depth="3">
    <rect class="box" x="1835.2" y="345.9" width="218.7" height="44.0" rx="6"/>
    <text x="1845.2" y="363.9" font-size="12.5">Hypotension, hypoxaemia, fever</text>
    <text x="1845.2" y="380.4" font-size="12.5">recruit it to core</text>
  </g>
  <g class="node d2 b2" data-depth="2">
    <rect class="box" x="1541.0" y="397.9" width="233.6" height="45.3" rx="6"/>
    <text x="1551.0" y="416.4" font-size="13.0">Recanalisation, collaterals can</text>
    <text x="1551.0" y="433.6" font-size="13.0">outlast clock windows</text>
  </g>
  <g class="node d2 b2" data-depth="2">
    <rect class="box" x="1541.0" y="451.2" width="199.1" height="45.3" rx="6"/>
    <text x="1551.0" y="469.7" font-size="13.0">Selection integrates time,</text>
    <text x="1551.0" y="486.9" font-size="13.0">imaging, bleeding risk</text>
  </g>
  <path class="link b3" data-depth="2" stroke-width="1.8" d="M671.2,325.9 C621.6,325.9 621.6,197.1 571.9,197.1"/>
  <path class="link b3" data-depth="2" stroke-width="1.8" d="M671.2,325.9 C621.6,325.9 621.6,241.5 571.9,241.5"/>
  <path class="link b3" data-depth="2" stroke-width="1.8" d="M671.2,325.9 C621.6,325.9 621.6,294.8 571.9,294.8"/>
  <path class="link b3" data-depth="2" stroke-width="1.8" d="M671.2,325.9 C621.6,325.9 621.6,348.1 571.9,348.1"/>
  <path class="link b3" data-depth="2" stroke-width="1.8" d="M671.2,325.9 C621.6,325.9 621.6,401.4 571.9,401.4"/>
  <path class="link b3" data-depth="2" stroke-width="1.8" d="M671.2,325.9 C621.6,325.9 621.6,454.8 571.9,454.8"/>
  <g class="node d1 b3" data-depth="1">
    <rect class="box" x="671.2" y="310.8" width="215.1" height="30.1" rx="9"/>
    <text x="681.2" y="330.8" font-size="14.5">Imaging and reperfusion</text>
  </g>
  <path class="link b3" data-depth="3" stroke-width="1.3" d="M324.5,197.1 C304.5,197.1 304.5,197.1 284.5,197.1"/>
  <g class="node d2 b3" data-depth="2">
    <rect class="box" x="324.5" y="174.4" width="247.4" height="45.3" rx="6"/>
    <text x="334.5" y="192.9" font-size="13.0">Non-contrast computed tomography:</text>
    <text x="334.5" y="210.1" font-size="13.0">haemorrhage, mass</text>
  </g>
  <g class="node d3 b3" data-depth="3">
    <rect class="box" x="52.5" y="183.3" width="232.0" height="27.5" rx="6"/>
    <text x="62.5" y="201.3" font-size="12.5">May be normal early in ischaemia</text>
  </g>
  <g class="node d2 b3" data-depth="2">
    <rect class="box" x="379.6" y="218.8" width="192.2" height="45.3" rx="6"/>
    <text x="389.6" y="237.3" font-size="13.0">Angiography: large-vessel</text>
    <text x="389.6" y="254.5" font-size="13.0">occlusion, dissection</text>
  </g>
  <g class="node d2 b3" data-depth="2">
    <rect class="box" x="358.9" y="272.1" width="212.9" height="45.3" rx="6"/>
    <text x="368.9" y="290.6" font-size="13.0">Thrombolysis after excluding</text>
    <text x="368.9" y="307.8" font-size="13.0">haemorrhage</text>
  </g>
  <g class="node d2 b3" data-depth="2">
    <rect class="box" x="352.1" y="325.5" width="219.8" height="45.3" rx="6"/>
    <text x="362.1" y="344.0" font-size="13.0">Thrombectomy removes selected</text>
    <text x="362.1" y="361.1" font-size="13.0">thrombi</text>
  </g>
  <g class="node d2 b3" data-depth="2">
    <rect class="box" x="379.6" y="378.8" width="192.2" height="45.3" rx="6"/>
    <text x="389.6" y="397.3" font-size="13.0">Complementary rather than</text>
    <text x="389.6" y="414.4" font-size="13.0">competing</text>
  </g>
  <g class="node d2 b3" data-depth="2">
    <rect class="box" x="331.4" y="432.1" width="240.5" height="45.3" rx="6"/>
    <text x="341.4" y="450.6" font-size="13.0">Do not await full certainty once</text>
    <text x="341.4" y="467.8" font-size="13.0">eligible</text>
  </g>
  <path class="link b4" data-depth="2" stroke-width="1.8" d="M679.7,626.7 C625.8,626.7 625.8,499.2 571.9,499.2"/>
  <path class="link b4" data-depth="2" stroke-width="1.8" d="M679.7,626.7 C625.8,626.7 625.8,568.9 571.9,568.9"/>
  <path class="link b4" data-depth="2" stroke-width="1.8" d="M679.7,626.7 C625.8,626.7 625.8,647.6 571.9,647.6"/>
  <path class="link b4" data-depth="2" stroke-width="1.8" d="M679.7,626.7 C625.8,626.7 625.8,700.9 571.9,700.9"/>
  <path class="link b4" data-depth="2" stroke-width="1.8" d="M679.7,626.7 C625.8,626.7 625.8,754.2 571.9,754.2"/>
  <g class="node d1 b4" data-depth="1">
    <rect class="box" x="679.7" y="602.1" width="206.6" height="49.3" rx="9"/>
    <text x="689.7" y="622.1" font-size="14.5">Care after reperfusion</text>
    <text x="689.7" y="641.2" font-size="14.5">decisions</text>
  </g>
  <path class="link b4" data-depth="3" stroke-width="1.3" d="M324.5,499.2 C304.5,499.2 304.5,499.2 284.5,499.2"/>
  <g class="node d2 b4" data-depth="2">
    <rect class="box" x="324.5" y="485.1" width="247.4" height="28.2" rx="6"/>
    <text x="334.5" y="503.6" font-size="13.0">Swallow screen before oral intake</text>
  </g>
  <g class="node d3 b4" data-depth="3">
    <rect class="box" x="85.6" y="485.4" width="198.9" height="27.5" rx="6"/>
    <text x="95.6" y="503.4" font-size="12.5">Silent aspiration is common</text>
  </g>
  <path class="link b4" data-depth="3" stroke-width="1.3" d="M358.9,568.9 C321.7,568.9 321.7,542.9 284.5,542.9"/>
  <path class="link b4" data-depth="3" stroke-width="1.3" d="M358.9,568.9 C321.7,568.9 321.7,594.9 284.5,594.9"/>
  <g class="node d2 b4" data-depth="2">
    <rect class="box" x="358.9" y="546.3" width="212.9" height="45.3" rx="6"/>
    <text x="368.9" y="564.8" font-size="13.0">Secondary prevention follows</text>
    <text x="368.9" y="581.9" font-size="13.0">mechanism</text>
  </g>
  <g class="node d3 b4" data-depth="3">
    <rect class="box" x="98.9" y="520.9" width="185.6" height="44.0" rx="6"/>
    <text x="108.9" y="538.9" font-size="12.5">Antiplatelet for most</text>
    <text x="108.9" y="555.4" font-size="12.5">non-cardioembolic disease</text>
  </g>
  <g class="node d3 b4" data-depth="3">
    <rect class="box" x="59.1" y="572.9" width="225.4" height="44.0" rx="6"/>
    <text x="69.1" y="590.9" font-size="12.5">Anticoagulation for appropriate</text>
    <text x="69.1" y="607.4" font-size="12.5">atrial fibrillation</text>
  </g>
  <g class="node d2 b4" data-depth="2">
    <rect class="box" x="358.9" y="624.9" width="212.9" height="45.3" rx="6"/>
    <text x="368.9" y="643.4" font-size="13.0">Handover: times, last</text>
    <text x="368.9" y="660.6" font-size="13.0">antithrombotic dose, imaging</text>
  </g>
  <g class="node d2 b4" data-depth="2">
    <rect class="box" x="358.9" y="678.2" width="212.9" height="45.3" rx="6"/>
    <text x="368.9" y="696.7" font-size="13.0">Improvement may be transient</text>
    <text x="368.9" y="713.9" font-size="13.0">attack or recanalisation</text>
  </g>
  <g class="node d2 b4" data-depth="2">
    <rect class="box" x="352.1" y="731.6" width="219.8" height="45.3" rx="6"/>
    <text x="362.1" y="750.1" font-size="13.0">Unknown mechanism: rhythm and</text>
    <text x="362.1" y="767.2" font-size="13.0">vessel tests by hypothesis</text>
  </g>
  <path class="link b5" data-depth="2" stroke-width="1.8" d="M1348.3,678.3 C1444.6,678.3 1444.6,527.2 1541.0,527.2"/>
  <path class="link b5" data-depth="2" stroke-width="1.8" d="M1348.3,678.3 C1444.6,678.3 1444.6,580.5 1541.0,580.5"/>
  <path class="link b5" data-depth="2" stroke-width="1.8" d="M1348.3,678.3 C1444.6,678.3 1444.6,633.9 1541.0,633.9"/>
  <path class="link b5" data-depth="2" stroke-width="1.8" d="M1348.3,678.3 C1444.6,678.3 1444.6,678.3 1541.0,678.3"/>
  <path class="link b5" data-depth="2" stroke-width="1.8" d="M1348.3,678.3 C1444.6,678.3 1444.6,722.7 1541.0,722.7"/>
  <path class="link b5" data-depth="2" stroke-width="1.8" d="M1348.3,678.3 C1444.6,678.3 1444.6,776.0 1541.0,776.0"/>
  <path class="link b5" data-depth="2" stroke-width="1.8" d="M1348.3,678.3 C1444.6,678.3 1444.6,829.3 1541.0,829.3"/>
  <g class="node d1 b5" data-depth="1">
    <rect class="box" x="1235.0" y="663.2" width="113.3" height="30.1" rx="9"/>
    <text x="1245.0" y="683.2" font-size="14.5">Haemorrhage</text>
  </g>
  <g class="node d2 b5" data-depth="2">
    <rect class="box" x="1541.0" y="504.6" width="219.8" height="45.3" rx="6"/>
    <text x="1551.0" y="523.1" font-size="13.0">Intracerebral haemorrhage may</text>
    <text x="1551.0" y="540.2" font-size="13.0">enlarge early</text>
  </g>
  <g class="node d2 b5" data-depth="2">
    <rect class="box" x="1541.0" y="557.9" width="192.2" height="45.3" rx="6"/>
    <text x="1551.0" y="576.4" font-size="13.0">Deep bleeds: hypertensive</text>
    <text x="1551.0" y="593.5" font-size="13.0">small-vessel damage</text>
  </g>
  <g class="node d2 b5" data-depth="2">
    <rect class="box" x="1541.0" y="611.2" width="206.0" height="45.3" rx="6"/>
    <text x="1551.0" y="629.7" font-size="13.0">Lobar bleed in older adult:</text>
    <text x="1551.0" y="646.9" font-size="13.0">amyloid angiopathy</text>
  </g>
  <path class="link b5" data-depth="3" stroke-width="1.3" d="M1747.0,678.3 C1791.1,678.3 1791.1,678.3 1835.2,678.3"/>
  <g class="node d2 b5" data-depth="2">
    <rect class="box" x="1541.0" y="655.6" width="206.0" height="45.3" rx="6"/>
    <text x="1551.0" y="674.1" font-size="13.0">Cerebellar bleed compresses</text>
    <text x="1551.0" y="691.3" font-size="13.0">brainstem, blocks CSF flow</text>
  </g>
  <g class="node d3 b5" data-depth="3">
    <rect class="box" x="1835.2" y="664.5" width="192.2" height="27.5" rx="6"/>
    <text x="1845.2" y="682.5" font-size="12.5">May need urgent evacuation</text>
  </g>
  <g class="node d2 b5" data-depth="2">
    <rect class="box" x="1541.0" y="700.0" width="212.9" height="45.3" rx="6"/>
    <text x="1551.0" y="718.5" font-size="13.0">Subarachnoid: maximal within</text>
    <text x="1551.0" y="735.7" font-size="13.0">seconds or minutes</text>
  </g>
  <g class="node d2 b5" data-depth="2">
    <rect class="box" x="1541.0" y="753.3" width="226.7" height="45.3" rx="6"/>
    <text x="1551.0" y="771.8" font-size="13.0">Early aneurysm securing limits</text>
    <text x="1551.0" y="789.0" font-size="13.0">rebleeding</text>
  </g>
  <g class="node d2 b5" data-depth="2">
    <rect class="box" x="1541.0" y="806.7" width="199.1" height="45.3" rx="6"/>
    <text x="1551.0" y="825.2" font-size="13.0">Nimodipine against delayed</text>
    <text x="1551.0" y="842.3" font-size="13.0">cerebral ischaemia</text>
  </g>
  <path class="link b6" data-depth="2" stroke-width="1.8" d="M645.8,983.9 C608.8,983.9 608.8,807.5 571.9,807.5"/>
  <path class="link b6" data-depth="2" stroke-width="1.8" d="M645.8,983.9 C608.8,983.9 608.8,852.3 571.9,852.3"/>
  <path class="link b6" data-depth="2" stroke-width="1.8" d="M645.8,983.9 C608.8,983.9 608.8,897.0 571.9,897.0"/>
  <path class="link b6" data-depth="2" stroke-width="1.8" d="M645.8,983.9 C608.8,983.9 608.8,950.3 571.9,950.3"/>
  <path class="link b6" data-depth="2" stroke-width="1.8" d="M645.8,983.9 C608.8,983.9 608.8,1029.0 571.9,1029.0"/>
  <path class="link b6" data-depth="2" stroke-width="1.8" d="M645.8,983.9 C608.8,983.9 608.8,1107.7 571.9,1107.7"/>
  <path class="link b6" data-depth="2" stroke-width="1.8" d="M645.8,983.9 C608.8,983.9 608.8,1160.3 571.9,1160.3"/>
  <g class="node d1 b6" data-depth="1">
    <rect class="box" x="645.8" y="959.3" width="240.5" height="49.3" rx="9"/>
    <text x="655.8" y="979.3" font-size="14.5">Seizure reconstruction and</text>
    <text x="655.8" y="998.4" font-size="14.5">status</text>
  </g>
  <g class="node d2 b6" data-depth="2">
    <rect class="box" x="358.9" y="784.9" width="212.9" height="45.3" rx="6"/>
    <text x="368.9" y="803.4" font-size="13.0">Reconstruct the event before</text>
    <text x="368.9" y="820.5" font-size="13.0">labelling</text>
  </g>
  <g class="node d2 b6" data-depth="2">
    <rect class="box" x="386.5" y="838.2" width="185.4" height="28.2" rx="6"/>
    <text x="396.5" y="856.7" font-size="13.0">Aura reveals focal onset</text>
  </g>
  <g class="node d2 b6" data-depth="2">
    <rect class="box" x="331.4" y="874.4" width="240.5" height="45.3" rx="6"/>
    <text x="341.4" y="892.9" font-size="13.0">Tongue injury, postictal</text>
    <text x="341.4" y="910.0" font-size="13.0">confusion: support, not required</text>
  </g>
  <g class="node d2 b6" data-depth="2">
    <rect class="box" x="352.1" y="927.7" width="219.8" height="45.3" rx="6"/>
    <text x="362.1" y="946.2" font-size="13.0">Incontinence and post-syncope</text>
    <text x="362.1" y="963.3" font-size="13.0">jerks not specific</text>
  </g>
  <path class="link b6" data-depth="3" stroke-width="1.3" d="M372.7,1029.0 C328.6,1029.0 328.6,1003.0 284.5,1003.0"/>
  <path class="link b6" data-depth="3" stroke-width="1.3" d="M372.7,1029.0 C328.6,1029.0 328.6,1055.0 284.5,1055.0"/>
  <g class="node d2 b6" data-depth="2">
    <rect class="box" x="372.7" y="1006.3" width="199.1" height="45.3" rx="6"/>
    <text x="382.7" y="1024.8" font-size="13.0">Status: failure of seizure</text>
    <text x="382.7" y="1042.0" font-size="13.0">termination</text>
  </g>
  <g class="node d3 b6" data-depth="3">
    <rect class="box" x="26.0" y="981.0" width="258.5" height="44.0" rx="6"/>
    <text x="36.0" y="999.0" font-size="12.5">Adequate benzodiazepine dose at five</text>
    <text x="36.0" y="1015.5" font-size="12.5">minutes</text>
  </g>
  <g class="node d3 b6" data-depth="3">
    <rect class="box" x="39.2" y="1033.0" width="245.2" height="44.0" rx="6"/>
    <text x="49.2" y="1051.0" font-size="12.5">Then longer-acting drug and search</text>
    <text x="49.2" y="1067.5" font-size="12.5">for cause</text>
  </g>
  <g class="node d2 b6" data-depth="2">
    <rect class="box" x="358.9" y="1085.0" width="212.9" height="45.3" rx="6"/>
    <text x="368.9" y="1103.5" font-size="13.0">Unresponsiveness after motor</text>
    <text x="368.9" y="1120.7" font-size="13.0">arrest: EEG</text>
  </g>
  <path class="link b6" data-depth="3" stroke-width="1.3" d="M345.2,1160.3 C314.8,1160.3 314.8,1160.3 284.5,1160.3"/>
  <g class="node d2 b6" data-depth="2">
    <rect class="box" x="345.2" y="1137.7" width="226.7" height="45.3" rx="6"/>
    <text x="355.2" y="1156.2" font-size="13.0">First seizure: provoked versus</text>
    <text x="355.2" y="1173.3" font-size="13.0">unprovoked</text>
  </g>
  <g class="node d3 b6" data-depth="3">
    <rect class="box" x="32.6" y="1138.3" width="251.9" height="44.0" rx="6"/>
    <text x="42.6" y="1156.3" font-size="12.5">Trigger does not exclude structural</text>
    <text x="42.6" y="1172.8" font-size="12.5">lesion</text>
  </g>
  <path class="link b7" data-depth="2" stroke-width="1.8" d="M1492.5,1032.0 C1516.7,1032.0 1516.7,882.0 1541.0,882.0"/>
  <path class="link b7" data-depth="2" stroke-width="1.8" d="M1492.5,1032.0 C1516.7,1032.0 1516.7,934.6 1541.0,934.6"/>
  <path class="link b7" data-depth="2" stroke-width="1.8" d="M1492.5,1032.0 C1516.7,1032.0 1516.7,988.0 1541.0,988.0"/>
  <path class="link b7" data-depth="2" stroke-width="1.8" d="M1492.5,1032.0 C1516.7,1032.0 1516.7,1041.3 1541.0,1041.3"/>
  <path class="link b7" data-depth="2" stroke-width="1.8" d="M1492.5,1032.0 C1516.7,1032.0 1516.7,1093.9 1541.0,1093.9"/>
  <path class="link b7" data-depth="2" stroke-width="1.8" d="M1492.5,1032.0 C1516.7,1032.0 1516.7,1137.7 1541.0,1137.7"/>
  <path class="link b7" data-depth="2" stroke-width="1.8" d="M1492.5,1032.0 C1516.7,1032.0 1516.7,1182.1 1541.0,1182.1"/>
  <g class="node d1 b7" data-depth="1">
    <rect class="box" x="1235.0" y="1017.0" width="257.5" height="30.1" rx="9"/>
    <text x="1245.0" y="1037.0" font-size="14.5">Raised intracranial pressure</text>
  </g>
  <path class="link b7" data-depth="3" stroke-width="1.3" d="M1788.3,882.0 C1811.8,882.0 1811.8,882.0 1835.2,882.0"/>
  <g class="node d2 b7" data-depth="2">
    <rect class="box" x="1541.0" y="859.3" width="247.4" height="45.3" rx="6"/>
    <text x="1551.0" y="877.8" font-size="13.0">Pressure deceptively normal while</text>
    <text x="1551.0" y="895.0" font-size="13.0">reserve fades</text>
  </g>
  <g class="node d3 b7" data-depth="3">
    <rect class="box" x="1835.2" y="860.0" width="218.7" height="44.0" rx="6"/>
    <text x="1845.2" y="878.0" font-size="12.5">Then steep rise, tissue shift,</text>
    <text x="1845.2" y="894.5" font-size="12.5">herniation</text>
  </g>
  <g class="node d2 b7" data-depth="2">
    <rect class="box" x="1541.0" y="912.0" width="212.9" height="45.3" rx="6"/>
    <text x="1551.0" y="930.5" font-size="13.0">Late: anisocoria, posturing,</text>
    <text x="1551.0" y="947.6" font-size="13.0">irregular breathing</text>
  </g>
  <g class="node d2 b7" data-depth="2">
    <rect class="box" x="1541.0" y="965.3" width="247.4" height="45.3" rx="6"/>
    <text x="1551.0" y="983.8" font-size="13.0">Hypotension lowers perfusion from</text>
    <text x="1551.0" y="1001.0" font-size="13.0">both sides</text>
  </g>
  <g class="node d2 b7" data-depth="2">
    <rect class="box" x="1541.0" y="1018.6" width="212.9" height="45.3" rx="6"/>
    <text x="1551.0" y="1037.1" font-size="13.0">Head up, neck neutral, avoid</text>
    <text x="1551.0" y="1054.3" font-size="13.0">hypotonic fluid</text>
  </g>
  <path class="link b7" data-depth="3" stroke-width="1.3" d="M1767.7,1093.9 C1801.4,1093.9 1801.4,1093.9 1835.2,1093.9"/>
  <g class="node d2 b7" data-depth="2">
    <rect class="box" x="1541.0" y="1071.3" width="226.7" height="45.3" rx="6"/>
    <text x="1551.0" y="1089.8" font-size="13.0">Hypertonic saline or mannitol:</text>
    <text x="1551.0" y="1106.9" font-size="13.0">osmotic gradient</text>
  </g>
  <g class="node d3 b7" data-depth="3">
    <rect class="box" x="1835.2" y="1071.9" width="251.9" height="44.0" rx="6"/>
    <text x="1845.2" y="1089.9" font-size="12.5">Volume, sodium, renal, haemodynamic</text>
    <text x="1845.2" y="1106.4" font-size="12.5">costs</text>
  </g>
  <path class="link b7" data-depth="3" stroke-width="1.3" d="M1788.3,1137.7 C1811.8,1137.7 1811.8,1137.7 1835.2,1137.7"/>
  <g class="node d2 b7" data-depth="2">
    <rect class="box" x="1541.0" y="1115.0" width="247.4" height="45.3" rx="6"/>
    <text x="1551.0" y="1133.5" font-size="13.0">Brief hyperventilation constricts</text>
    <text x="1551.0" y="1150.7" font-size="13.0">cerebral vessels</text>
  </g>
  <g class="node d3 b7" data-depth="3">
    <rect class="box" x="1835.2" y="1123.9" width="212.1" height="27.5" rx="6"/>
    <text x="1845.2" y="1141.9" font-size="12.5">Prolonged use risks ischaemia</text>
  </g>
  <g class="node d2 b7" data-depth="2">
    <rect class="box" x="1541.0" y="1159.4" width="206.0" height="45.3" rx="6"/>
    <text x="1551.0" y="1177.9" font-size="13.0">Defer lumbar puncture if a</text>
    <text x="1551.0" y="1195.1" font-size="13.0">gradient could shift tissue</text>
  </g>
  <path class="link b8" data-depth="2" stroke-width="1.8" d="M1450.1,1438.5 C1495.5,1438.5 1495.5,1235.4 1541.0,1235.4"/>
  <path class="link b8" data-depth="2" stroke-width="1.8" d="M1450.1,1438.5 C1495.5,1438.5 1495.5,1288.7 1541.0,1288.7"/>
  <path class="link b8" data-depth="2" stroke-width="1.8" d="M1450.1,1438.5 C1495.5,1438.5 1495.5,1342.1 1541.0,1342.1"/>
  <path class="link b8" data-depth="2" stroke-width="1.8" d="M1450.1,1438.5 C1495.5,1438.5 1495.5,1395.4 1541.0,1395.4"/>
  <path class="link b8" data-depth="2" stroke-width="1.8" d="M1450.1,1438.5 C1495.5,1438.5 1495.5,1495.9 1541.0,1495.9"/>
  <path class="link b8" data-depth="2" stroke-width="1.8" d="M1450.1,1438.5 C1495.5,1438.5 1495.5,1588.2 1541.0,1588.2"/>
  <path class="link b8" data-depth="2" stroke-width="1.8" d="M1450.1,1438.5 C1495.5,1438.5 1495.5,1641.5 1541.0,1641.5"/>
  <g class="node d1 b8" data-depth="1">
    <rect class="box" x="1235.0" y="1413.8" width="215.1" height="49.3" rx="9"/>
    <text x="1245.0" y="1433.8" font-size="14.5">Localising weakness and</text>
    <text x="1245.0" y="1453.0" font-size="14.5">Guillain-Barre</text>
  </g>
  <g class="node d2 b8" data-depth="2">
    <rect class="box" x="1541.0" y="1212.8" width="254.3" height="45.3" rx="6"/>
    <text x="1551.0" y="1231.3" font-size="13.0">Upper motor neuron: tone up, brisk</text>
    <text x="1551.0" y="1248.4" font-size="13.0">reflexes</text>
  </g>
  <g class="node d2 b8" data-depth="2">
    <rect class="box" x="1541.0" y="1266.1" width="212.9" height="45.3" rx="6"/>
    <text x="1551.0" y="1284.6" font-size="13.0">Lower motor neuron: wasting,</text>
    <text x="1551.0" y="1301.7" font-size="13.0">fasciculation</text>
  </g>
  <g class="node d2 b8" data-depth="2">
    <rect class="box" x="1541.0" y="1319.4" width="247.4" height="45.3" rx="6"/>
    <text x="1551.0" y="1337.9" font-size="13.0">Junction: fluctuating, fatigable,</text>
    <text x="1551.0" y="1355.1" font-size="13.0">sensation spared</text>
  </g>
  <g class="node d2 b8" data-depth="2">
    <rect class="box" x="1541.0" y="1372.7" width="254.3" height="45.3" rx="6"/>
    <text x="1551.0" y="1391.2" font-size="13.0">Normal conduction does not exclude</text>
    <text x="1551.0" y="1408.4" font-size="13.0">small fibre</text>
  </g>
  <path class="link b8" data-depth="3" stroke-width="1.3" d="M1760.8,1495.9 C1798.0,1495.9 1798.0,1448.0 1835.2,1448.0"/>
  <path class="link b8" data-depth="3" stroke-width="1.3" d="M1760.8,1495.9 C1798.0,1495.9 1798.0,1500.0 1835.2,1500.0"/>
  <path class="link b8" data-depth="3" stroke-width="1.3" d="M1760.8,1495.9 C1798.0,1495.9 1798.0,1543.8 1835.2,1543.8"/>
  <g class="node d2 b8" data-depth="2">
    <rect class="box" x="1541.0" y="1473.3" width="219.8" height="45.3" rx="6"/>
    <text x="1551.0" y="1491.8" font-size="13.0">Guillain-Barre: neurological,</text>
    <text x="1551.0" y="1508.9" font-size="13.0">autonomic emergency</text>
  </g>
  <g class="node d3 b8" data-depth="3">
    <rect class="box" x="1835.2" y="1426.0" width="205.5" height="44.0" rx="6"/>
    <text x="1845.2" y="1444.0" font-size="12.5">Limb strength underestimates</text>
    <text x="1845.2" y="1460.5" font-size="12.5">respiratory decline</text>
  </g>
  <g class="node d3 b8" data-depth="3">
    <rect class="box" x="1835.2" y="1478.0" width="212.1" height="44.0" rx="6"/>
    <text x="1845.2" y="1496.0" font-size="12.5">Serial vital capacity, cough,</text>
    <text x="1845.2" y="1512.5" font-size="12.5">swallowing</text>
  </g>
  <g class="node d3 b8" data-depth="3">
    <rect class="box" x="1835.2" y="1530.0" width="258.5" height="27.5" rx="6"/>
    <text x="1845.2" y="1548.0" font-size="12.5">Intubate before carbon dioxide rises</text>
  </g>
  <g class="node d2 b8" data-depth="2">
    <rect class="box" x="1541.0" y="1565.5" width="219.8" height="45.3" rx="6"/>
    <text x="1551.0" y="1584.0" font-size="13.0">Dysautonomia makes vasoactive</text>
    <text x="1551.0" y="1601.2" font-size="13.0">drugs hazardous</text>
  </g>
  <g class="node d2 b8" data-depth="2">
    <rect class="box" x="1541.0" y="1618.9" width="254.3" height="45.3" rx="6"/>
    <text x="1551.0" y="1637.4" font-size="13.0">Immunoglobulin or plasma exchange,</text>
    <text x="1551.0" y="1654.5" font-size="13.0">not combined</text>
  </g>
  <path class="link b9" data-depth="2" stroke-width="1.8" d="M688.2,1381.5 C630.0,1381.5 630.0,1213.0 571.9,1213.0"/>
  <path class="link b9" data-depth="2" stroke-width="1.8" d="M688.2,1381.5 C630.0,1381.5 630.0,1257.4 571.9,1257.4"/>
  <path class="link b9" data-depth="2" stroke-width="1.8" d="M688.2,1381.5 C630.0,1381.5 630.0,1301.8 571.9,1301.8"/>
  <path class="link b9" data-depth="2" stroke-width="1.8" d="M688.2,1381.5 C630.0,1381.5 630.0,1355.1 571.9,1355.1"/>
  <path class="link b9" data-depth="2" stroke-width="1.8" d="M688.2,1381.5 C630.0,1381.5 630.0,1407.8 571.9,1407.8"/>
  <path class="link b9" data-depth="2" stroke-width="1.8" d="M688.2,1381.5 C630.0,1381.5 630.0,1451.9 571.9,1451.9"/>
  <path class="link b9" data-depth="2" stroke-width="1.8" d="M688.2,1381.5 C630.0,1381.5 630.0,1496.6 571.9,1496.6"/>
  <path class="link b9" data-depth="2" stroke-width="1.8" d="M688.2,1381.5 C630.0,1381.5 630.0,1549.9 571.9,1549.9"/>
  <g class="node d1 b9" data-depth="1">
    <rect class="box" x="688.2" y="1356.8" width="198.1" height="49.3" rx="9"/>
    <text x="698.2" y="1376.8" font-size="14.5">Neurodegeneration and</text>
    <text x="698.2" y="1396.0" font-size="14.5">longitudinal care</text>
  </g>
  <g class="node d2 b9" data-depth="2">
    <rect class="box" x="365.8" y="1190.3" width="206.0" height="45.3" rx="6"/>
    <text x="375.8" y="1208.8" font-size="13.0">Diagnose by first, dominant</text>
    <text x="375.8" y="1226.0" font-size="13.0">failing network</text>
  </g>
  <path class="link b9" data-depth="3" stroke-width="1.3" d="M379.6,1257.4 C332.1,1257.4 332.1,1257.4 284.5,1257.4"/>
  <g class="node d2 b9" data-depth="2">
    <rect class="box" x="379.6" y="1234.7" width="192.2" height="45.3" rx="6"/>
    <text x="389.6" y="1253.2" font-size="13.0">Lewy bodies: fluctuation,</text>
    <text x="389.6" y="1270.4" font-size="13.0">hallucinations, sleep</text>
  </g>
  <g class="node d3 b9" data-depth="3">
    <rect class="box" x="52.5" y="1243.6" width="232.0" height="27.5" rx="6"/>
    <text x="62.5" y="1261.6" font-size="12.5">Marked antipsychotic sensitivity</text>
  </g>
  <g class="node d2 b9" data-depth="2">
    <rect class="box" x="345.2" y="1279.1" width="226.7" height="45.3" rx="6"/>
    <text x="355.2" y="1297.6" font-size="13.0">Frontotemporal: disinhibition,</text>
    <text x="355.2" y="1314.8" font-size="13.0">apathy, empathy loss</text>
  </g>
  <g class="node d2 b9" data-depth="2">
    <rect class="box" x="358.9" y="1332.5" width="212.9" height="45.3" rx="6"/>
    <text x="368.9" y="1351.0" font-size="13.0">Parkinson: bradykinesia plus</text>
    <text x="368.9" y="1368.1" font-size="13.0">rigidity or tremor</text>
  </g>
  <path class="link b9" data-depth="3" stroke-width="1.3" d="M352.1,1407.8 C318.3,1407.8 318.3,1407.8 284.5,1407.8"/>
  <g class="node d2 b9" data-depth="2">
    <rect class="box" x="352.1" y="1385.1" width="219.8" height="45.3" rx="6"/>
    <text x="362.1" y="1403.6" font-size="13.0">Motor neuron: upper and lower</text>
    <text x="362.1" y="1420.8" font-size="13.0">signs, no sensory</text>
  </g>
  <g class="node d3 b9" data-depth="3">
    <rect class="box" x="52.5" y="1385.8" width="232.0" height="44.0" rx="6"/>
    <text x="62.5" y="1403.8" font-size="12.5">Respiratory failure without limb</text>
    <text x="62.5" y="1420.3" font-size="12.5">decline</text>
  </g>
  <g class="node d2 b9" data-depth="2">
    <rect class="box" x="324.5" y="1437.8" width="247.4" height="28.2" rx="6"/>
    <text x="334.5" y="1456.3" font-size="13.0">Repeat matched measures over time</text>
  </g>
  <g class="node d2 b9" data-depth="2">
    <rect class="box" x="324.5" y="1473.9" width="247.4" height="45.3" rx="6"/>
    <text x="334.5" y="1492.4" font-size="13.0">Stepwise decline: seek infection,</text>
    <text x="334.5" y="1509.6" font-size="13.0">drugs, vascular</text>
  </g>
  <g class="node d2 b9" data-depth="2">
    <rect class="box" x="372.7" y="1527.3" width="199.1" height="45.3" rx="6"/>
    <text x="382.7" y="1545.8" font-size="13.0">Discuss wishes while still</text>
    <text x="382.7" y="1562.9" font-size="13.0">expressible</text>
  </g>
</svg>
