<svg xmlns="http://www.w3.org/2000/svg" width="600" height="330" viewBox="0 0 600 330" role="img"><title>Split-seconds, step 4</title><defs>
<radialGradient id="wa-gilt" cx="50%" cy="50%" r="50%"><stop offset="0" stop-color="#f6e2a8"/><stop offset=".42" stop-color="#e2bf6e"/><stop offset=".78" stop-color="#c79b48"/><stop offset=".93" stop-color="#a77a30"/><stop offset="1" stop-color="#7e5a22"/></radialGradient>
<radialGradient id="wa-brass" cx="50%" cy="50%" r="50%"><stop offset="0" stop-color="#f1d79a"/><stop offset=".55" stop-color="#d6ae5e"/><stop offset=".9" stop-color="#b2873b"/><stop offset="1" stop-color="#8d6628"/></radialGradient>
<radialGradient id="wa-redgilt" cx="50%" cy="50%" r="50%"><stop offset="0" stop-color="#f4c9a0"/><stop offset=".6" stop-color="#d79565"/><stop offset="1" stop-color="#9c5a33"/></radialGradient>
<radialGradient id="wa-gold" cx="50%" cy="50%" r="50%"><stop offset="0" stop-color="#fff0b8"/><stop offset=".5" stop-color="#ecc55c"/><stop offset=".85" stop-color="#c9952c"/><stop offset="1" stop-color="#94671b"/></radialGradient>
<radialGradient id="wa-steel" cx="50%" cy="50%" r="50%"><stop offset="0" stop-color="#fbfcfd"/><stop offset=".45" stop-color="#d9dde2"/><stop offset=".85" stop-color="#a9b0b8"/><stop offset="1" stop-color="#7d848c"/></radialGradient>
<radialGradient id="wa-nickel" cx="50%" cy="50%" r="50%"><stop offset="0" stop-color="#f1f2f0"/><stop offset=".6" stop-color="#d4d6d3"/><stop offset="1" stop-color="#a3a6a3"/></radialGradient>
<radialGradient id="wa-blued" cx="38%" cy="34%" r="70%"><stop offset="0" stop-color="#8fb4ff"/><stop offset=".35" stop-color="#3a63c9"/><stop offset=".8" stop-color="#1b347f"/><stop offset="1" stop-color="#0f1f52"/></radialGradient>
<radialGradient id="wa-polymer" cx="40%" cy="35%" r="70%"><stop offset="0" stop-color="#ffffff"/><stop offset=".7" stop-color="#ecebe5"/><stop offset="1" stop-color="#c9c7bf"/></radialGradient>
<linearGradient id="wa-steel-lin" x1="0" y1="0" x2="1" y2="1"><stop offset="0" stop-color="#f7f9fb"/><stop offset=".35" stop-color="#c3c9cf"/><stop offset=".55" stop-color="#eef1f4"/><stop offset=".8" stop-color="#9aa2ab"/><stop offset="1" stop-color="#d5dade"/></linearGradient>
<linearGradient id="wa-gilt-lin" x1="0" y1="0" x2="1" y2="1"><stop offset="0" stop-color="#f8e6b2"/><stop offset=".4" stop-color="#d2a85a"/><stop offset=".6" stop-color="#f0d697"/><stop offset="1" stop-color="#a47a33"/></linearGradient>
<linearGradient id="wa-sheen" x1="0" y1="0" x2="1" y2="1"><stop offset="0" stop-color="#fff" stop-opacity=".75"/><stop offset=".35" stop-color="#fff" stop-opacity=".08"/><stop offset=".65" stop-color="#000" stop-opacity=".0"/><stop offset="1" stop-color="#000" stop-opacity=".28"/></linearGradient>
<radialGradient id="wa-wedge" cx="50%" cy="50%" r="50%"><stop offset=".15" stop-color="#fff" stop-opacity="0"/><stop offset=".55" stop-color="#fff" stop-opacity=".55"/><stop offset="1" stop-color="#fff" stop-opacity="0"/></radialGradient>
<radialGradient id="wa-wedge-ring" cx="50%" cy="50%" r="50%"><stop offset="0" stop-color="#fff" stop-opacity=".6"/><stop offset="1" stop-color="#fff" stop-opacity=".1"/></radialGradient>
<radialGradient id="wa-shadow" cx="50%" cy="50%" r="50%"><stop offset=".6" stop-color="#000" stop-opacity=".06"/><stop offset=".84" stop-color="#000" stop-opacity=".3"/><stop offset=".93" stop-color="#000" stop-opacity=".16"/><stop offset="1" stop-color="#000" stop-opacity="0"/></radialGradient>
<radialGradient id="wa-ruby" cx="36%" cy="32%" r="72%" fx="34%" fy="28%"><stop offset="0" stop-color="#ffe3e8"/><stop offset=".12" stop-color="#ff7d93"/><stop offset=".42" stop-color="#d4213f"/><stop offset=".8" stop-color="#8e0b25"/><stop offset="1" stop-color="#4f0413"/></radialGradient>
<linearGradient id="wa-ruby-lin" x1="0" y1="0" x2="1" y2="1"><stop offset="0" stop-color="#ff9fb0"/><stop offset=".35" stop-color="#d81f40"/><stop offset=".7" stop-color="#9d0d2a"/><stop offset="1" stop-color="#5a0516"/></linearGradient>
<radialGradient id="wa-sink" cx="50%" cy="50%" r="50%"><stop offset=".55" stop-color="#7d8288"/><stop offset=".7" stop-color="#f4f6f8"/><stop offset=".86" stop-color="#b9bec4"/><stop offset="1" stop-color="#e9ecef"/></radialGradient>
<radialGradient id="wa-sink-gilt" cx="50%" cy="50%" r="50%"><stop offset=".55" stop-color="#8a6a2c"/><stop offset=".72" stop-color="#fbeab9"/><stop offset=".88" stop-color="#c39745"/><stop offset="1" stop-color="#f0d89c"/></radialGradient>
<radialGradient id="wa-screwhead" cx="40%" cy="34%" r="70%"><stop offset="0" stop-color="#b9d0ff"/><stop offset=".3" stop-color="#4f7be0"/><stop offset=".75" stop-color="#1c3a91"/><stop offset="1" stop-color="#0c1a45"/></radialGradient>
<radialGradient id="wa-screwsteel" cx="40%" cy="34%" r="70%"><stop offset="0" stop-color="#ffffff"/><stop offset=".4" stop-color="#d6dbe0"/><stop offset=".85" stop-color="#8b939b"/><stop offset="1" stop-color="#5f666d"/></radialGradient>
<radialGradient id="wa-screwgold" cx="40%" cy="34%" r="70%"><stop offset="0" stop-color="#fff6cf"/><stop offset=".4" stop-color="#eac564"/><stop offset=".85" stop-color="#a87b25"/><stop offset="1" stop-color="#6e4d12"/></radialGradient>
<radialGradient id="wa-perl" cx="50%" cy="50%" r="50%"><stop offset="0" stop-color="#cdd0d2"/><stop offset=".3" stop-color="#e4e6e7"/><stop offset=".5" stop-color="#c3c7c9"/><stop offset=".78" stop-color="#d8dbdc"/><stop offset="1" stop-color="#bcc0c2"/></radialGradient>
<pattern id="wa-perlage" width="22" height="22" patternUnits="userSpaceOnUse"><rect width="22" height="22" fill="#c4c8ca"/><circle cx="0" cy="0" r="12.5" fill="url(#wa-perl)"/><circle cx="22" cy="0" r="12.5" fill="url(#wa-perl)"/><circle cx="11" cy="11" r="12.5" fill="url(#wa-perl)"/><circle cx="0" cy="22" r="12.5" fill="url(#wa-perl)"/><circle cx="22" cy="22" r="12.5" fill="url(#wa-perl)"/></pattern>
<linearGradient id="wa-stripe" x1="0" y1="0" x2="1" y2="0"><stop offset="0" stop-color="#b9bdc1"/><stop offset=".3" stop-color="#f6f7f8"/><stop offset=".55" stop-color="#d5d8db"/><stop offset=".85" stop-color="#a7acb1"/><stop offset="1" stop-color="#bfc3c7"/></linearGradient>
<pattern id="wa-cotes" width="26" height="26" patternUnits="userSpaceOnUse" patternTransform="rotate(-28)"><rect width="26" height="26" fill="url(#wa-stripe)"/></pattern>
<linearGradient id="wa-stripe-gilt" x1="0" y1="0" x2="1" y2="0"><stop offset="0" stop-color="#b98d3f"/><stop offset=".3" stop-color="#f9e4ad"/><stop offset=".55" stop-color="#ddb769"/><stop offset=".85" stop-color="#a77d33"/><stop offset="1" stop-color="#c0974a"/></linearGradient>
<pattern id="wa-cotes-gilt" width="26" height="26" patternUnits="userSpaceOnUse" patternTransform="rotate(-28)"><rect width="26" height="26" fill="url(#wa-stripe-gilt)"/></pattern>
<linearGradient id="wa-bevel" x1="0" y1="0" x2="1" y2="1"><stop offset="0" stop-color="#ffffff"/><stop offset=".5" stop-color="#c9cdd1"/><stop offset="1" stop-color="#6f767d"/></linearGradient>
<linearGradient id="wa-bevel-gilt" x1="0" y1="0" x2="1" y2="1"><stop offset="0" stop-color="#fff3cc"/><stop offset=".5" stop-color="#d4ad60"/><stop offset="1" stop-color="#7b5821"/></linearGradient>
<linearGradient id="wa-quartz" x1="0" y1="0" x2="1" y2="0"><stop offset="0" stop-color="#b9d4de" stop-opacity=".95"/><stop offset=".18" stop-color="#eef7fa" stop-opacity=".95"/><stop offset=".35" stop-color="#d3e6ed" stop-opacity=".9"/><stop offset=".8" stop-color="#c1dae3" stop-opacity=".9"/><stop offset="1" stop-color="#97b9c6" stop-opacity=".95"/></linearGradient>
<linearGradient id="wa-quartz-v" x1="0" y1="0" x2="0" y2="1"><stop offset="0" stop-color="#e9f4f8"/><stop offset=".5" stop-color="#c6dde6"/><stop offset="1" stop-color="#a3c3cf"/></linearGradient>
<linearGradient id="wa-goldfilm" x1="0" y1="0" x2="1" y2="0"><stop offset="0" stop-color="#b98a2a"/><stop offset=".35" stop-color="#f7dc8a"/><stop offset=".6" stop-color="#e2b955"/><stop offset="1" stop-color="#a77a22"/></linearGradient>
<linearGradient id="wa-goldfilm-v" x1="0" y1="0" x2="0" y2="1"><stop offset="0" stop-color="#f7dc8a"/><stop offset=".6" stop-color="#d9ac45"/><stop offset="1" stop-color="#a77a22"/></linearGradient>
<linearGradient id="wa-can" x1="0" y1="0" x2="1" y2="0"><stop offset="0" stop-color="#6f7378"/><stop offset=".12" stop-color="#a9adb2"/><stop offset=".3" stop-color="#f3f5f6"/><stop offset=".42" stop-color="#d3d6d9"/><stop offset=".75" stop-color="#9a9fa4"/><stop offset=".92" stop-color="#c6c9cc"/><stop offset="1" stop-color="#6d7176"/></linearGradient>
<linearGradient id="wa-can-in" x1="0" y1="0" x2="1" y2="0"><stop offset="0" stop-color="#3b3f44"/><stop offset=".25" stop-color="#6a6f75"/><stop offset=".55" stop-color="#8d9298"/><stop offset=".8" stop-color="#5c6166"/><stop offset="1" stop-color="#34383c"/></linearGradient>
<linearGradient id="wa-lead" x1="0" y1="0" x2="1" y2="0"><stop offset="0" stop-color="#8d9196"/><stop offset=".45" stop-color="#f2f3f4"/><stop offset="1" stop-color="#7c8085"/></linearGradient>
<linearGradient id="wa-glass" x1="0" y1="0" x2="1" y2="0"><stop offset="0" stop-color="#2f4a3f"/><stop offset=".4" stop-color="#5d8a78"/><stop offset=".6" stop-color="#3e6556"/><stop offset="1" stop-color="#22362e"/></linearGradient>
<linearGradient id="wa-copper" x1="0" y1="0" x2="1" y2="0"><stop offset="0" stop-color="#7a3a14"/><stop offset=".45" stop-color="#e59a5c"/><stop offset=".6" stop-color="#c46d34"/><stop offset="1" stop-color="#6e3311"/></linearGradient>
<pattern id="wa-wire" width="3" height="40" patternUnits="userSpaceOnUse"><rect width="3" height="40" fill="url(#wa-copper)"/></pattern>
<linearGradient id="wa-cyl" x1="0" y1="0" x2="0" y2="1"><stop offset="0" stop-color="#000" stop-opacity=".45"/><stop offset=".2" stop-color="#000" stop-opacity=".05"/><stop offset=".32" stop-color="#fff" stop-opacity=".45"/><stop offset=".45" stop-color="#fff" stop-opacity="0"/><stop offset=".85" stop-color="#000" stop-opacity=".25"/><stop offset="1" stop-color="#000" stop-opacity=".55"/></linearGradient>
<linearGradient id="wa-cyl-x" x1="0" y1="0" x2="1" y2="0"><stop offset="0" stop-color="#000" stop-opacity=".45"/><stop offset=".2" stop-color="#000" stop-opacity=".05"/><stop offset=".32" stop-color="#fff" stop-opacity=".45"/><stop offset=".45" stop-color="#fff" stop-opacity="0"/><stop offset=".85" stop-color="#000" stop-opacity=".25"/><stop offset="1" stop-color="#000" stop-opacity=".55"/></linearGradient>
<linearGradient id="wa-iron" x1="0" y1="0" x2="1" y2="1"><stop offset="0" stop-color="#d8dde2"/><stop offset=".4" stop-color="#9ea6ae"/><stop offset=".6" stop-color="#b9c0c7"/><stop offset="1" stop-color="#6d757d"/></linearGradient>
<pattern id="wa-brushed" width="120" height="3" patternUnits="userSpaceOnUse"><rect width="120" height="3" fill="url(#wa-iron)" opacity="0"/><path d="M0 .5h120" stroke="#fff" stroke-opacity=".16" stroke-width=".6"/><path d="M0 2h120" stroke="#000" stroke-opacity=".07" stroke-width=".6"/></pattern>
<radialGradient id="wa-magnet" cx="40%" cy="35%" r="70%"><stop offset="0" stop-color="#7c818a"/><stop offset=".5" stop-color="#4a4e56"/><stop offset="1" stop-color="#26282d"/></radialGradient>
<linearGradient id="wa-pcb" x1="0" y1="0" x2="1" y2="1"><stop offset="0" stop-color="#2d5a46"/><stop offset="1" stop-color="#173527"/></linearGradient>
<linearGradient id="wa-chip" x1="0" y1="0" x2="1" y2="1"><stop offset="0" stop-color="#4a4d52"/><stop offset=".5" stop-color="#1f2125"/><stop offset="1" stop-color="#121316"/></linearGradient>
<radialGradient id="wa-cell" cx="38%" cy="32%" r="75%"><stop offset="0" stop-color="#ffffff"/><stop offset=".35" stop-color="#dde1e5"/><stop offset=".7" stop-color="#a4abb2"/><stop offset=".9" stop-color="#c7ccd1"/><stop offset="1" stop-color="#7a8188"/></radialGradient>
<radialGradient id="wa-velvet" cx="50%" cy="45%" r="65%"><stop offset="0" stop-color="#2a3531"/><stop offset="1" stop-color="#0d1311"/></radialGradient>
<radialGradient id="wa-dial" cx="45%" cy="40%" r="65%"><stop offset="0" stop-color="#fbfaf6"/><stop offset=".8" stop-color="#ebe7dc"/><stop offset="1" stop-color="#d6d0c2"/></radialGradient>
<linearGradient id="wa-case" x1="0" y1="0" x2="1" y2="1"><stop offset="0" stop-color="#f4f6f8"/><stop offset=".3" stop-color="#9aa1a8"/><stop offset=".5" stop-color="#e9ecef"/><stop offset=".75" stop-color="#7b838b"/><stop offset="1" stop-color="#c9ced3"/></linearGradient>
<linearGradient id="wa-hand" x1="0" y1="0" x2="1" y2="0"><stop offset="0" stop-color="#1a2028"/><stop offset=".5" stop-color="#5c6774"/><stop offset="1" stop-color="#151a20"/></linearGradient>
<filter id="wa-soft" x="-20%" y="-20%" width="140%" height="140%"><feGaussianBlur stdDeviation="3"/></filter>
<marker id="wa-arrow" viewBox="0 0 10 10" refX="8" refY="5" markerWidth="6" markerHeight="6" orient="auto-start-reverse"><path d="M0 0l10 5-10 5z" fill="context-stroke"/></marker>
<marker id="wa-arrow-gold" viewBox="0 0 10 10" refX="8" refY="5" markerWidth="9" markerHeight="9" markerUnits="userSpaceOnUse" orient="auto-start-reverse"><path d="M0 0l10 5-10 5z" fill="#c49a54"/></marker>
<marker id="wa-arrow-sig" viewBox="0 0 10 10" refX="8" refY="5" markerWidth="9" markerHeight="9" markerUnits="userSpaceOnUse" orient="auto-start-reverse"><path d="M0 0l10 5-10 5z" fill="#5aa9c8"/></marker>
<marker id="wa-arrow-hot" viewBox="0 0 10 10" refX="8" refY="5" markerWidth="9" markerHeight="9" markerUnits="userSpaceOnUse" orient="auto-start-reverse"><path d="M0 0l10 5-10 5z" fill="#c2685a"/></marker>
<marker id="wa-arrow-green" viewBox="0 0 10 10" refX="8" refY="5" markerWidth="9" markerHeight="9" markerUnits="userSpaceOnUse" orient="auto-start-reverse"><path d="M0 0l10 5-10 5z" fill="#25483d"/></marker>
<marker id="wa-arrow-ink" viewBox="0 0 10 10" refX="8" refY="5" markerWidth="9" markerHeight="9" markerUnits="userSpaceOnUse" orient="auto-start-reverse"><path d="M0 0l10 5-10 5z" fill="#17201d"/></marker>
<marker id="wa-dot" viewBox="0 0 10 10" refX="5" refY="5" markerWidth="5" markerHeight="5"><circle cx="5" cy="5" r="4" fill="context-stroke"/></marker><radialGradient id="dg-bg" cx="50%" cy="42%" r="75%"><stop offset="0" stop-color="#ffffff"/><stop offset="1" stop-color="#eef1f3"/></radialGradient><radialGradient id="dg-glow" cx="50%" cy="50%" r="50%"><stop offset=".6" stop-color="#14669a" stop-opacity="0"/><stop offset=".86" stop-color="#14669a" stop-opacity=".28"/><stop offset="1" stop-color="#14669a" stop-opacity="0"/></radialGradient><radialGradient id="dg-aventurine" cx="45%" cy="40%" r="70%"><stop offset="0" stop-color="#2a4fa0"/><stop offset="1" stop-color="#0e1f4d"/></radialGradient><marker id="dg-ar" viewBox="0 0 10 10" refX="8" refY="5" markerWidth="8" markerHeight="8" markerUnits="userSpaceOnUse" orient="auto"><path d="M0 0l10 5-10 5z" fill="#14669a"/></marker></defs><style>text{font-family:Inter, 'Hiragino Sans', 'Noto Sans JP', 'Arial Unicode MS', system-ui, sans-serif}.en{font-size:13px;font-weight:600;fill:#1d2b36;text-anchor:middle}.ja{font-size:11px;fill:#5a6670;text-anchor:middle}.num{font-size:14px;font-weight:700;fill:#14669a;text-anchor:middle}.lead{stroke:#8a9aa6;stroke-width:1;fill:none}</style><rect width="600" height="330" fill="url(#dg-bg)"/><circle cx="161" cy="155" r="82" fill="#000" opacity=".16" filter="url(#wa-soft)"/><circle cx="159" cy="151" r="82" fill="url(#wa-case)" stroke="#6b737b"/><circle cx="159" cy="151" r="78" fill="url(#wa-dial)"/><rect x="157.4" y="76" width="3.2" height="10.14" rx="1" fill="url(#wa-steel-lin)" stroke="#59616a" stroke-width=".4" transform="rotate(0 159 151)"/><rect x="157.4" y="76" width="3.2" height="10.14" rx="1" fill="url(#wa-steel-lin)" stroke="#59616a" stroke-width=".4" transform="rotate(30 159 151)"/><rect x="157.4" y="76" width="3.2" height="10.14" rx="1" fill="url(#wa-steel-lin)" stroke="#59616a" stroke-width=".4" transform="rotate(60 159 151)"/><rect x="157.4" y="76" width="3.2" height="10.14" rx="1" fill="url(#wa-steel-lin)" stroke="#59616a" stroke-width=".4" transform="rotate(90 159 151)"/><rect x="157.4" y="76" width="3.2" height="10.14" rx="1" fill="url(#wa-steel-lin)" stroke="#59616a" stroke-width=".4" transform="rotate(120 159 151)"/><rect x="157.4" y="76" width="3.2" height="10.14" rx="1" fill="url(#wa-steel-lin)" stroke="#59616a" stroke-width=".4" transform="rotate(150 159 151)"/><rect x="157.4" y="76" width="3.2" height="10.14" rx="1" fill="url(#wa-steel-lin)" stroke="#59616a" stroke-width=".4" transform="rotate(180 159 151)"/><rect x="157.4" y="76" width="3.2" height="10.14" rx="1" fill="url(#wa-steel-lin)" stroke="#59616a" stroke-width=".4" transform="rotate(210 159 151)"/><rect x="157.4" y="76" width="3.2" height="10.14" rx="1" fill="url(#wa-steel-lin)" stroke="#59616a" stroke-width=".4" transform="rotate(240 159 151)"/><rect x="157.4" y="76" width="3.2" height="10.14" rx="1" fill="url(#wa-steel-lin)" stroke="#59616a" stroke-width=".4" transform="rotate(270 159 151)"/><rect x="157.4" y="76" width="3.2" height="10.14" rx="1" fill="url(#wa-steel-lin)" stroke="#59616a" stroke-width=".4" transform="rotate(300 159 151)"/><rect x="157.4" y="76" width="3.2" height="10.14" rx="1" fill="url(#wa-steel-lin)" stroke="#59616a" stroke-width=".4" transform="rotate(330 159 151)"/><g transform="rotate(170 159 151)"><path d="M156.8 159L159 88.6L161.2 159Z" fill="#14669a"/><circle cx="159" cy="151" r="4" fill="url(#wa-steel)" stroke="#3d454c" stroke-width=".6"/></g><g transform="rotate(170 159 151)"><path d="M156.8 159L159 101L161.2 159Z" fill="#a67324"/><circle cx="159" cy="151" r="4" fill="url(#wa-steel)" stroke="#3d454c" stroke-width=".6"/></g><text class="en" x="159" y="38">Two coaxial hands</text><text class="ja" x="159" y="54">同心軸上の2本の針</text><text class="en" x="159" y="267">Main / split</text><text class="ja" x="159" y="283">主針 / スプリット針</text><path d="M261 151L329 151" stroke="#14669a" stroke-width="2.4" stroke-linecap="round" marker-end="url(#dg-ar)"/><circle cx="454" cy="151" r="75" fill="url(#dg-glow)"/><g opacity="1"><g class="wa-wheel " data-x="454" data-y="151"><circle cx="457.35" cy="156.58" r="65.35" fill="url(#wa-shadow)"/><g class="wa-rot"><path d="M404.1 147.18L404.17 146.32L404.26 145.46L404.37 144.6L398.67 143.81L397.37 143.58L396.4 143.29L395.61 142.92L394.99 142.48L394.58 141.96L394.37 141.35L394.41 140.5L394.66 139.67L395.07 139.17L395.64 138.83L396.36 138.62L397.23 138.55L398.25 138.61L399.54 138.83L405.17 140.04L405.37 139.2L405.58 138.36L405.8 137.52L405.8 137.52L406.04 136.69L406.3 135.86L406.57 135.04L401.13 133.15L399.91 132.67L399.01 132.2L398.3 131.68L397.79 131.13L397.48 130.54L397.39 129.91L397.6 129.08L398.02 128.31L398.51 127.9L399.13 127.68L399.89 127.61L400.75 127.71L401.74 127.97L402.96 128.44L408.24 130.73L408.6 129.94L408.97 129.15L409.36 128.38L409.36 128.38L409.76 127.61L410.17 126.84L410.59 126.09L405.63 123.18L404.52 122.47L403.73 121.83L403.14 121.19L402.75 120.54L402.56 119.91L402.6 119.27L402.96 118.49L403.52 117.82L404.08 117.52L404.74 117.42L405.49 117.51L406.32 117.77L407.23 118.21L408.35 118.92L413.08 122.19L413.58 121.48L414.1 120.79L414.63 120.1L414.63 120.1L415.17 119.43L415.72 118.76L416.29 118.1L411.99 114.28L411.04 113.37L410.39 112.59L409.94 111.84L409.67 111.13L409.61 110.47L409.78 109.85L410.29 109.16L410.96 108.61L411.57 108.42L412.23 108.45L412.95 108.69L413.72 109.11L414.53 109.72L415.48 110.63L419.49 114.76L420.12 114.17L420.76 113.59L421.42 113.02L421.42 113.02L422.08 112.46L422.75 111.91L423.43 111.38L419.96 106.79L419.21 105.71L418.72 104.82L418.42 104L418.3 103.25L418.37 102.59L418.65 102.01L419.29 101.44L420.06 101.03L420.69 100.96L421.34 101.12L422 101.49L422.67 102.06L423.34 102.81L424.1 103.89L427.22 108.72L427.96 108.27L428.7 107.82L429.45 107.39L429.45 107.39L430.21 106.97L430.98 106.56L431.75 106.17L429.24 101L428.71 99.79L428.41 98.82L428.28 97.96L428.31 97.2L428.5 96.57L428.89 96.06L429.63 95.62L430.46 95.37L431.09 95.43L431.7 95.71L432.27 96.2L432.82 96.88L433.33 97.76L433.86 98.96L435.98 104.31L436.79 104.01L437.61 103.71L438.43 103.44L438.43 103.44L439.26 103.18L440.09 102.93L440.92 102.69L439.47 97.13L439.19 95.84L439.08 94.83L439.12 93.96L439.29 93.22L439.61 92.64L440.09 92.22L440.9 91.93L441.76 91.84L442.37 92.03L442.91 92.42L443.38 93.01L443.78 93.79L444.11 94.75L444.4 96.03L445.44 101.69L446.29 101.55L447.15 101.43L448.01 101.31L448.01 101.31L448.87 101.22L449.73 101.14L450.6 101.07L450.26 95.33L450.23 94.01L450.33 93L450.53 92.15L450.85 91.46L451.28 90.95L451.83 90.63L452.67 90.51L453.54 90.59L454.1 90.89L454.55 91.38L454.9 92.06L455.14 92.9L455.28 93.9L455.31 95.22L455.22 100.97L456.09 101L456.95 101.04L457.82 101.1L457.82 101.1L458.68 101.17L459.54 101.26L460.4 101.37L461.19 95.67L461.42 94.37L461.71 93.4L462.08 92.61L462.52 91.99L463.04 91.58L463.65 91.37L464.5 91.41L465.33 91.66L465.83 92.07L466.17 92.64L466.38 93.36L466.45 94.23L466.39 95.25L466.17 96.54L464.96 102.17L465.8 102.37L466.64 102.58L467.48 102.8L467.48 102.8L468.31 103.04L469.14 103.3L469.96 103.57L471.85 98.13L472.33 96.91L472.8 96.01L473.32 95.3L473.87 94.79L474.46 94.48L475.09 94.39L475.92 94.6L476.69 95.02L477.1 95.51L477.32 96.13L477.39 96.89L477.29 97.75L477.03 98.74L476.56 99.96L474.27 105.24L475.06 105.6L475.85 105.97L476.62 106.36L476.62 106.36L477.39 106.76L478.16 107.17L478.91 107.59L481.82 102.63L482.53 101.52L483.17 100.73L483.81 100.14L484.46 99.75L485.09 99.56L485.73 99.6L486.51 99.96L487.18 100.52L487.48 101.08L487.58 101.74L487.49 102.49L487.23 103.32L486.79 104.23L486.08 105.35L482.81 110.08L483.52 110.58L484.21 111.1L484.9 111.63L484.9 111.63L485.57 112.17L486.24 112.72L486.9 113.29L490.72 108.99L491.63 108.04L492.41 107.39L493.16 106.94L493.87 106.67L494.53 106.61L495.15 106.78L495.84 107.29L496.39 107.96L496.58 108.57L496.55 109.23L496.31 109.95L495.89 110.72L495.28 111.53L494.37 112.48L490.24 116.49L490.83 117.12L491.41 117.76L491.98 118.42L491.98 118.42L492.54 119.08L493.09 119.75L493.62 120.43L498.21 116.96L499.29 116.21L500.18 115.72L501 115.42L501.75 115.3L502.41 115.37L502.99 115.65L503.56 116.29L503.97 117.06L504.04 117.69L503.88 118.34L503.51 119L502.94 119.67L502.19 120.34L501.11 121.1L496.28 124.22L496.73 124.96L497.18 125.7L497.61 126.45L497.61 126.45L498.03 127.21L498.44 127.98L498.83 128.75L504 126.24L505.21 125.71L506.18 125.41L507.04 125.28L507.8 125.31L508.43 125.5L508.94 125.89L509.38 126.63L509.63 127.46L509.57 128.09L509.29 128.7L508.8 129.27L508.12 129.82L507.24 130.33L506.04 130.86L500.69 132.98L500.99 133.79L501.29 134.61L501.56 135.43L501.56 135.43L501.82 136.26L502.07 137.09L502.31 137.92L507.87 136.47L509.16 136.19L510.17 136.08L511.04 136.12L511.78 136.29L512.36 136.61L512.78 137.09L513.07 137.9L513.16 138.76L512.97 139.37L512.58 139.91L511.99 140.38L511.21 140.78L510.25 141.11L508.97 141.4L503.31 142.44L503.45 143.29L503.57 144.15L503.69 145.01L503.69 145.01L503.78 145.87L503.86 146.73L503.93 147.6L509.67 147.26L510.99 147.23L512 147.33L512.85 147.53L513.54 147.85L514.05 148.28L514.37 148.83L514.49 149.67L514.41 150.54L514.11 151.1L513.62 151.55L512.94 151.9L512.1 152.14L511.1 152.28L509.78 152.31L504.03 152.22L504 153.09L503.96 153.95L503.9 154.82L503.9 154.82L503.83 155.68L503.74 156.54L503.63 157.4L509.33 158.19L510.63 158.42L511.6 158.71L512.39 159.08L513.01 159.52L513.42 160.04L513.63 160.65L513.59 161.5L513.34 162.33L512.93 162.83L512.36 163.17L511.64 163.38L510.77 163.45L509.75 163.39L508.46 163.17L502.83 161.96L502.63 162.8L502.42 163.64L502.2 164.48L502.2 164.48L501.96 165.31L501.7 166.14L501.43 166.96L506.87 168.85L508.09 169.33L508.99 169.8L509.7 170.32L510.21 170.87L510.52 171.46L510.61 172.09L510.4 172.92L509.98 173.69L509.49 174.1L508.87 174.32L508.11 174.39L507.25 174.29L506.26 174.03L505.04 173.56L499.76 171.27L499.4 172.06L499.03 172.85L498.64 173.62L498.64 173.62L498.24 174.39L497.83 175.16L497.41 175.91L502.37 178.82L503.48 179.53L504.27 180.17L504.86 180.81L505.25 181.46L505.44 182.09L505.4 182.73L505.04 183.51L504.48 184.18L503.92 184.48L503.26 184.58L502.51 184.49L501.68 184.23L500.77 183.79L499.65 183.08L494.92 179.81L494.42 180.52L493.9 181.21L493.37 181.9L493.37 181.9L492.83 182.57L492.28 183.24L491.71 183.9L496.01 187.72L496.96 188.63L497.61 189.41L498.06 190.16L498.33 190.87L498.39 191.53L498.22 192.15L497.71 192.84L497.04 193.39L496.43 193.58L495.77 193.55L495.05 193.31L494.28 192.89L493.47 192.28L492.52 191.37L488.51 187.24L487.88 187.83L487.24 188.41L486.58 188.98L486.58 188.98L485.92 189.54L485.25 190.09L484.57 190.62L488.04 195.21L488.79 196.29L489.28 197.18L489.58 198L489.7 198.75L489.63 199.41L489.35 199.99L488.71 200.56L487.94 200.97L487.31 201.04L486.66 200.88L486 200.51L485.33 199.94L484.66 199.19L483.9 198.11L480.78 193.28L480.04 193.73L479.3 194.18L478.55 194.61L478.55 194.61L477.79 195.03L477.02 195.44L476.25 195.83L478.76 201L479.29 202.21L479.59 203.18L479.72 204.04L479.69 204.8L479.5 205.43L479.11 205.94L478.37 206.38L477.54 206.63L476.91 206.57L476.3 206.29L475.73 205.8L475.18 205.12L474.67 204.24L474.14 203.04L472.02 197.69L471.21 197.99L470.39 198.29L469.57 198.56L469.57 198.56L468.74 198.82L467.91 199.07L467.08 199.31L468.53 204.87L468.81 206.16L468.92 207.17L468.88 208.04L468.71 208.78L468.39 209.36L467.91 209.78L467.1 210.07L466.24 210.16L465.63 209.97L465.09 209.58L464.62 208.99L464.22 208.21L463.89 207.25L463.6 205.97L462.56 200.31L461.71 200.45L460.85 200.57L459.99 200.69L459.99 200.69L459.13 200.78L458.27 200.86L457.4 200.93L457.74 206.67L457.77 207.99L457.67 209L457.47 209.85L457.15 210.54L456.72 211.05L456.17 211.37L455.33 211.49L454.46 211.41L453.9 211.11L453.45 210.62L453.1 209.94L452.86 209.1L452.72 208.1L452.69 206.78L452.78 201.03L451.91 201L451.05 200.96L450.18 200.9L450.18 200.9L449.32 200.83L448.46 200.74L447.6 200.63L446.81 206.33L446.58 207.63L446.29 208.6L445.92 209.39L445.48 210.01L444.96 210.42L444.35 210.63L443.5 210.59L442.67 210.34L442.17 209.93L441.83 209.36L441.62 208.64L441.55 207.77L441.61 206.75L441.83 205.46L443.04 199.83L442.2 199.63L441.36 199.42L440.52 199.2L440.52 199.2L439.69 198.96L438.86 198.7L438.04 198.43L436.15 203.87L435.67 205.09L435.2 205.99L434.68 206.7L434.13 207.21L433.54 207.52L432.91 207.61L432.08 207.4L431.31 206.98L430.9 206.49L430.68 205.87L430.61 205.11L430.71 204.25L430.97 203.26L431.44 202.04L433.73 196.76L432.94 196.4L432.15 196.03L431.38 195.64L431.38 195.64L430.61 195.24L429.84 194.83L429.09 194.41L426.18 199.37L425.47 200.48L424.83 201.27L424.19 201.86L423.54 202.25L422.91 202.44L422.27 202.4L421.49 202.04L420.82 201.48L420.52 200.92L420.42 200.26L420.51 199.51L420.77 198.68L421.21 197.77L421.92 196.65L425.19 191.92L424.48 191.42L423.79 190.9L423.1 190.37L423.1 190.37L422.43 189.83L421.76 189.28L421.1 188.71L417.28 193.01L416.37 193.96L415.59 194.61L414.84 195.06L414.13 195.33L413.47 195.39L412.85 195.22L412.16 194.71L411.61 194.04L411.42 193.43L411.45 192.77L411.69 192.05L412.11 191.28L412.72 190.47L413.63 189.52L417.76 185.51L417.17 184.88L416.59 184.24L416.02 183.58L416.02 183.58L415.46 182.92L414.91 182.25L414.38 181.57L409.79 185.04L408.71 185.79L407.82 186.28L407 186.58L406.25 186.7L405.59 186.63L405.01 186.35L404.44 185.71L404.03 184.94L403.96 184.31L404.12 183.66L404.49 183L405.06 182.33L405.81 181.66L406.89 180.9L411.72 177.78L411.27 177.04L410.82 176.3L410.39 175.55L410.39 175.55L409.97 174.79L409.56 174.02L409.17 173.25L404 175.76L402.79 176.29L401.82 176.59L400.96 176.72L400.2 176.69L399.57 176.5L399.06 176.11L398.62 175.37L398.37 174.54L398.43 173.91L398.71 173.3L399.2 172.73L399.88 172.18L400.76 171.67L401.96 171.14L407.31 169.02L407.01 168.21L406.71 167.39L406.44 166.57L406.44 166.57L406.18 165.74L405.93 164.91L405.69 164.08L400.13 165.53L398.84 165.81L397.83 165.92L396.96 165.88L396.22 165.71L395.64 165.39L395.22 164.91L394.93 164.1L394.84 163.24L395.03 162.63L395.42 162.09L396.01 161.62L396.79 161.22L397.75 160.89L399.03 160.6L404.69 159.56L404.55 158.71L404.43 157.85L404.31 156.99L404.31 156.99L404.22 156.13L404.14 155.27L404.07 154.4L398.33 154.74L397.01 154.77L396 154.67L395.15 154.47L394.46 154.15L393.95 153.72L393.63 153.17L393.51 152.33L393.59 151.46L393.89 150.9L394.38 150.45L395.06 150.1L395.9 149.86L396.9 149.72L398.22 149.69L403.97 149.78L404 148.91L404.04 148.05L404.1 147.18ZM443.84 146.38Q429.3 138.84 411.33 140.64A43.91 43.91 0 0 1 458.86 107.36L453.13 139.87A11.16 11.16 0 0 0 443.84 146.38ZM458.62 140.84Q466.16 126.3 464.36 108.33A43.91 43.91 0 0 1 497.64 155.86L465.13 150.13A11.16 11.16 0 0 0 458.62 140.84ZM464.16 155.62Q478.7 163.16 496.67 161.36A43.91 43.91 0 0 1 449.14 194.64L454.87 162.13A11.16 11.16 0 0 0 464.16 155.62ZM449.38 161.16Q441.84 175.7 443.64 193.67A43.91 43.91 0 0 1 410.36 146.14L442.87 151.87A11.16 11.16 0 0 0 449.38 161.16Z" fill="url(#wa-gilt)" fill-rule="evenodd" stroke="#6d4c19" stroke-width="0.67" stroke-linejoin="round"/><circle cx="454" cy="151" r="43.91" fill="none" stroke="#000" stroke-opacity=".18" stroke-width="0.67"/><circle cx="454" cy="151" r="11.16" fill="url(#wa-gilt)" stroke="#6d4c19" stroke-width="0.56"/><circle cx="454" cy="151" r="6.14" fill="url(#wa-steel)" stroke="#4b525a" stroke-width=".5"/></g><path d="M413.58 133.84L407.93 131.45A50.05 50.05 0 0 1 434.45 104.93L436.84 110.58A43.91 43.91 0 0 0 413.58 133.84ZM494.42 168.16L500.07 170.55A50.05 50.05 0 0 1 473.55 197.07L471.16 191.42A43.91 43.91 0 0 0 494.42 168.16Z" fill="#fff" fill-opacity="0.31" pointer-events="none"/><path d="M454 151L443.73 146.64A11.16 11.16 0 0 1 449.64 140.73ZM454 151L464.27 155.36A11.16 11.16 0 0 1 458.36 161.27Z" fill="url(#wa-wedge)" opacity="0.6" pointer-events="none"/><g class="wa-jewel"><circle cx="454" cy="151" r="14.45" fill="url(#wa-sink-gilt)"/><circle cx="454" cy="151" r="7.81" fill="url(#wa-ruby)" stroke="#4a0512" stroke-width="0.47"/><circle cx="454" cy="151" r="4.84" fill="none" stroke="#ff9fb0" stroke-opacity=".45" stroke-width="0.78"/><circle cx="454" cy="151" r="2.03" fill="#3a0410"/><circle cx="453.61" cy="150.45" r="0.94" fill="#c8c9cc"/><path d="M448.38 150.22A5.78 5.78 0 0 1 453.61 145.22" fill="none" stroke="#fff" stroke-opacity=".85" stroke-width="1.09" stroke-linecap="round"/></g></g></g><path d="M455.52 159.62L455.07 159.71L454.62 159.82L454.16 159.95L453.68 160.1L453.19 160.27L452.67 160.45L452.12 160.65L451.54 160.85L450.92 161.06L450.26 161.27L449.56 161.47L448.8 161.65L448 161.82L447.15 161.96L446.25 162.07L445.3 162.13L444.31 162.15L443.27 162.11L442.19 162.01L441.07 161.85L439.93 161.61L438.75 161.28L437.56 160.88L436.36 160.38L435.15 159.79L433.95 159.1L432.77 158.31L431.6 157.42L430.47 156.43L429.38 155.34L428.34 154.15L427.37 152.86L426.46 151.48L425.64 150.01L424.91 148.45L424.27 146.82L423.74 145.12L423.33 143.35L423.04 141.53L422.87 139.67L422.84 137.77L422.95 135.85L423.19 133.92L423.58 131.99L424.11 130.07L424.78 128.17L425.6 126.31L426.56 124.5L427.66 122.75L428.88 121.07L430.24 119.47L431.72 117.97L433.31 116.57L435.01 115.28L436.8 114.12L438.68 113.08L440.64 112.19L442.65 111.43L444.73 110.83L446.84 110.38L448.98 110.08L451.13 109.94L453.28 109.96L455.43 110.13L457.55 110.46L459.63 110.94L461.66 111.57L463.64 112.34L465.54 113.25L467.36 114.28L469.09 115.44L470.72 116.71L472.24 118.09L473.65 119.56L474.93 121.11L476.09 122.73L477.11 124.41L478 126.15L478.76 127.91L479.38 129.71L479.86 131.51L480.21 133.32L480.42 135.12L480.51 136.91L480.47 138.66L480.31 140.37L480.04 142.03L479.66 143.64L479.19 145.18L478.62 146.66L477.97 148.06L477.24 149.37L476.45 150.61L475.61 151.75L474.72 152.81L473.78 153.78L472.82 154.66L471.84 155.45L470.85 156.15L469.86 156.77L468.87 157.31L467.89 157.77L466.92 158.16L465.98 158.49L465.07 158.75L464.18 158.96L463.34 159.12L462.53 159.23L461.76 159.32L461.02 159.37L460.33 159.4L459.68 159.42L459.06 159.43L458.48 159.43L457.93 159.43L457.41 159.44L456.91 159.46L456.44 159.5L455.97 159.55L455.52 159.62Z" fill="url(#wa-steel)" stroke="#3d454c" stroke-width="1"/><path d="M455.52 159.62L455.07 159.71L454.62 159.82L454.16 159.95L453.68 160.1L453.19 160.27L452.67 160.45L452.12 160.65L451.54 160.85L450.92 161.06L450.26 161.27L449.56 161.47L448.8 161.65L448 161.82L447.15 161.96L446.25 162.07L445.3 162.13L444.31 162.15L443.27 162.11L442.19 162.01L441.07 161.85L439.93 161.61L438.75 161.28L437.56 160.88L436.36 160.38L435.15 159.79L433.95 159.1L432.77 158.31L431.6 157.42L430.47 156.43L429.38 155.34L428.34 154.15L427.37 152.86L426.46 151.48L425.64 150.01L424.91 148.45L424.27 146.82L423.74 145.12L423.33 143.35L423.04 141.53L422.87 139.67L422.84 137.77L422.95 135.85L423.19 133.92L423.58 131.99L424.11 130.07L424.78 128.17L425.6 126.31L426.56 124.5L427.66 122.75L428.88 121.07L430.24 119.47L431.72 117.97L433.31 116.57L435.01 115.28L436.8 114.12L438.68 113.08L440.64 112.19L442.65 111.43L444.73 110.83L446.84 110.38L448.98 110.08L451.13 109.94L453.28 109.96L455.43 110.13L457.55 110.46L459.63 110.94L461.66 111.57L463.64 112.34L465.54 113.25L467.36 114.28L469.09 115.44L470.72 116.71L472.24 118.09L473.65 119.56L474.93 121.11L476.09 122.73L477.11 124.41L478 126.15L478.76 127.91L479.38 129.71L479.86 131.51L480.21 133.32L480.42 135.12L480.51 136.91L480.47 138.66L480.31 140.37L480.04 142.03L479.66 143.64L479.19 145.18L478.62 146.66L477.97 148.06L477.24 149.37L476.45 150.61L475.61 151.75L474.72 152.81L473.78 153.78L472.82 154.66L471.84 155.45L470.85 156.15L469.86 156.77L468.87 157.31L467.89 157.77L466.92 158.16L465.98 158.49L465.07 158.75L464.18 158.96L463.34 159.12L462.53 159.23L461.76 159.32L461.02 159.37L460.33 159.4L459.68 159.42L459.06 159.43L458.48 159.43L457.93 159.43L457.41 159.44L456.91 159.46L456.44 159.5L455.97 159.55L455.52 159.62Z" fill="url(#wa-sheen)" opacity=".5"/><circle cx="454" cy="151" r="3" fill="#3d454c"/><rect x="370" y="110" width="8" height="82" rx="3" fill="url(#wa-steel-lin)" stroke="#3d454c"/><rect x="530" y="110" width="8" height="82" rx="3" fill="url(#wa-steel-lin)" stroke="#3d454c"/><text class="en" x="454" y="38">Clamp + heart coupling</text><text class="ja" x="454" y="54">クランプ・ハート結合</text><text class="en" x="454" y="267">Aligned</text><text class="ja" x="454" y="283">整列</text></svg>